M48
; DRILL file {KiCad 7.0.2-0} date 2023 December 07, Thursday 13:52:40
; FORMAT={-:-/ absolute / metric / decimal}
; #@! TF.CreationDate,2023-12-07T13:52:40+00:00
; #@! TF.GenerationSoftware,Kicad,Pcbnew,7.0.2-0
; #@! TF.FileFunction,MixedPlating,1,2
FMAT,2
METRIC
; #@! TA.AperFunction,Plated,PTH,ComponentDrill
T1C0.500
; #@! TA.AperFunction,Plated,PTH,ComponentDrill
T2C1.000
; #@! TA.AperFunction,Plated,PTH,ComponentDrill
T3C1.100
; #@! TA.AperFunction,Plated,PTH,ComponentDrill
T4C1.200
; #@! TA.AperFunction,Plated,PTH,ComponentDrill
T5C3.000
; #@! TA.AperFunction,Plated,PTH,ComponentDrill
T6C3.200
%
G90
G05
T1
X2.6Y62.5
X2.6Y4.5
X3.303Y64.197
X3.303Y60.803
X3.303Y6.197
X3.303Y2.803
X5.0Y64.9
X5.0Y60.1
X5.0Y6.9
X5.0Y2.1
X6.697Y64.197
X6.697Y60.803
X6.697Y6.197
X6.697Y2.803
X7.4Y62.5
X7.4Y4.5
X91.1Y48.5
X91.803Y50.197
X91.803Y46.803
X93.5Y50.9
X93.5Y46.1
X95.197Y50.197
X95.197Y46.803
X95.9Y48.5
X147.1Y25.5
X147.803Y27.197
X147.803Y23.803
X149.5Y27.9
X149.5Y23.1
X151.197Y27.197
X151.197Y23.803
X151.9Y25.5
X230.6Y62.5
X230.6Y4.5
X231.303Y64.197
X231.303Y60.803
X231.303Y6.197
X231.303Y2.803
X233.0Y64.9
X233.0Y60.1
X233.0Y6.9
X233.0Y2.1
X234.697Y64.197
X234.697Y60.803
X234.697Y6.197
X234.697Y2.803
X235.4Y62.5
X235.4Y4.5
T2
X214.93Y22.1
X214.93Y19.56
X217.47Y22.1
X217.47Y19.56
X220.01Y22.1
X220.01Y19.56
X222.55Y22.1
X222.55Y19.56
X225.09Y22.1
X225.09Y19.56
X227.63Y22.1
X227.63Y19.56
X230.17Y22.1
X230.17Y19.56
X232.71Y22.1
X232.71Y19.56
T3
X19.0Y40.0
X27.0Y7.0
X29.16Y40.0
X35.0Y62.0
X37.16Y7.0
X43.0Y40.0
X45.16Y62.0
X51.0Y7.0
X53.16Y40.0
X59.0Y62.0
X61.16Y7.0
X67.0Y40.0
X69.16Y62.0
X75.0Y7.0
X77.16Y40.0
X83.0Y62.0
X85.16Y7.0
X91.0Y40.0
X93.16Y62.0
X99.0Y7.0
X101.16Y40.0
X107.0Y62.0
X109.16Y7.0
X115.0Y40.0
X117.16Y62.0
X123.0Y7.0
X125.16Y40.0
X131.0Y62.0
X133.16Y7.0
X139.0Y40.0
X141.16Y62.0
X147.0Y7.0
X149.16Y40.0
X155.0Y62.0
X157.16Y7.0
X163.0Y40.0
X165.16Y62.0
X171.0Y7.0
X173.16Y40.0
X179.0Y62.0
X181.16Y7.0
X187.0Y40.0
X189.16Y62.0
X195.0Y7.0
X197.16Y40.0
X203.0Y62.0
X205.16Y7.0
X211.0Y40.0
X213.16Y62.0
X221.16Y40.0
X222.92Y12.5
X225.42Y45.0
X227.92Y50.5
X233.08Y12.5
X235.58Y45.0
X238.08Y50.5
T4
X4.0Y34.5
X12.0Y12.5
X19.0Y34.5
X20.0Y56.5
X27.0Y12.5
X28.0Y34.5
X35.0Y56.5
X36.0Y12.5
X43.0Y34.5
X44.0Y56.5
X51.0Y12.5
X52.0Y34.5
X59.0Y56.5
X60.0Y12.5
X67.0Y34.5
X68.0Y56.5
X75.0Y12.5
X76.0Y34.5
X83.0Y56.5
X84.0Y12.5
X91.0Y34.5
X92.0Y56.5
X99.0Y12.5
X100.0Y34.5
X107.0Y56.5
X108.0Y12.5
X115.0Y34.5
X116.0Y56.5
X123.0Y12.5
X124.0Y34.5
X131.0Y56.5
X132.0Y12.5
X139.0Y34.5
X140.0Y56.5
X147.0Y12.5
X148.0Y34.5
X155.0Y56.5
X156.0Y12.5
X163.0Y34.5
X164.0Y56.5
X171.0Y12.5
X172.0Y34.5
X179.0Y56.5
X180.0Y12.5
X187.0Y34.5
X188.0Y56.5
X195.0Y12.5
X196.0Y34.5
X203.0Y56.5
X204.0Y12.5
X211.0Y34.5
X212.0Y56.5
X216.0Y34.5
X219.0Y12.5
X227.0Y56.5
X231.0Y34.5
T5
X12.5Y34.5
X20.5Y12.5
X28.5Y56.5
X36.5Y34.5
X44.5Y12.5
X52.5Y56.5
X60.5Y34.5
X68.5Y12.5
X76.5Y56.5
X84.5Y34.5
X92.5Y12.5
X100.5Y56.5
X108.5Y34.5
X116.5Y12.5
X124.5Y56.5
X132.5Y34.5
X140.5Y12.5
X148.5Y56.5
X156.5Y34.5
X164.5Y12.5
X172.5Y56.5
X180.5Y34.5
X188.5Y12.5
X196.5Y56.5
X204.5Y34.5
X212.5Y12.5
X220.5Y56.5
X224.5Y34.5
T6
X5.0Y62.5
X5.0Y4.5
X93.5Y48.5
X149.5Y25.5
X233.0Y62.5
X233.0Y4.5
T0
M30
