%TF.GenerationSoftware,KiCad,Pcbnew,7.0.2-0*%
%TF.CreationDate,2024-02-15T18:07:50+00:00*%
%TF.ProjectId,rotor_test,726f746f-725f-4746-9573-742e6b696361,rev?*%
%TF.SameCoordinates,Original*%
%TF.FileFunction,Copper,L2,Bot*%
%TF.FilePolarity,Positive*%
%FSLAX46Y46*%
G04 Gerber Fmt 4.6, Leading zero omitted, Abs format (unit mm)*
G04 Created by KiCad (PCBNEW 7.0.2-0) date 2024-02-15 18:07:50*
%MOMM*%
%LPD*%
G01*
G04 APERTURE LIST*
%TA.AperFunction,ComponentPad*%
%ADD10O,1.700000X1.700000*%
%TD*%
%TA.AperFunction,ComponentPad*%
%ADD11R,1.700000X1.700000*%
%TD*%
%TA.AperFunction,ViaPad*%
%ADD12C,0.600000*%
%TD*%
%TA.AperFunction,Conductor*%
%ADD13C,0.550000*%
%TD*%
G04 APERTURE END LIST*
D10*
%TO.P,J4,3,Pin_3*%
%TO.N,GND*%
X65405000Y-60071000D03*
%TO.P,J4,2,Pin_2*%
%TO.N,R1_ENCB*%
X67945000Y-60071000D03*
D11*
%TO.P,J4,1,Pin_1*%
%TO.N,R1_ENCA*%
X70485000Y-60071000D03*
%TD*%
%TO.P,J3,1,Pin_1*%
%TO.N,SCL*%
X74422000Y-50556000D03*
D10*
%TO.P,J3,2,Pin_2*%
%TO.N,SDA*%
X74422000Y-53096000D03*
%TO.P,J3,3,Pin_3*%
%TO.N,VCC*%
X74422000Y-55636000D03*
%TO.P,J3,4,Pin_4*%
%TO.N,GND*%
X74422000Y-58176000D03*
%TD*%
D11*
%TO.P,J2,1,Pin_1*%
%TO.N,SCL*%
X60248800Y-50556000D03*
D10*
%TO.P,J2,2,Pin_2*%
%TO.N,SDA*%
X60248800Y-53096000D03*
%TO.P,J2,3,Pin_3*%
%TO.N,VCC*%
X60248800Y-55636000D03*
%TO.P,J2,4,Pin_4*%
%TO.N,GND*%
X60248800Y-58176000D03*
%TD*%
D11*
%TO.P,J1,1,Pin_1*%
%TO.N,VCC*%
X65278000Y-48768000D03*
D10*
%TO.P,J1,2,Pin_2*%
%TO.N,GND*%
X67818000Y-48768000D03*
%TO.P,J1,3,Pin_3*%
%TO.N,UPDI*%
X70358000Y-48768000D03*
%TD*%
D12*
%TO.N,SDA*%
X70485000Y-56769000D03*
%TO.N,SCL*%
X70485000Y-51943000D03*
%TO.N,GND*%
X67818000Y-50165000D03*
%TD*%
D13*
%TO.N,SCL*%
X70485000Y-51943000D02*
X73035000Y-51943000D01*
X73035000Y-51943000D02*
X74422000Y-50556000D01*
%TO.N,SDA*%
X70485000Y-54610000D02*
X71999000Y-53096000D01*
X71999000Y-53096000D02*
X74422000Y-53096000D01*
X70485000Y-54610000D02*
X68961000Y-53086000D01*
X68961000Y-53086000D02*
X60258800Y-53086000D01*
X60258800Y-53086000D02*
X60248800Y-53096000D01*
%TO.N,SCL*%
X70485000Y-51943000D02*
X61635800Y-51943000D01*
X61635800Y-51943000D02*
X60248800Y-50556000D01*
%TO.N,SDA*%
X70485000Y-56769000D02*
X70485000Y-54610000D01*
%TD*%
%TA.AperFunction,Conductor*%
%TO.N,GND*%
G36*
X76142539Y-47010185D02*
G01*
X76188294Y-47062989D01*
X76199500Y-47114500D01*
X76199500Y-61851500D01*
X76179815Y-61918539D01*
X76127011Y-61964294D01*
X76075500Y-61975500D01*
X58290500Y-61975500D01*
X58223461Y-61955815D01*
X58177706Y-61903011D01*
X58166500Y-61851500D01*
X58166500Y-60321000D01*
X64074364Y-60321000D01*
X64131569Y-60534492D01*
X64231399Y-60748576D01*
X64366893Y-60942081D01*
X64533918Y-61109106D01*
X64727423Y-61244600D01*
X64941509Y-61344430D01*
X65155000Y-61401634D01*
X65155000Y-60506501D01*
X65262685Y-60555680D01*
X65369237Y-60571000D01*
X65440763Y-60571000D01*
X65547315Y-60555680D01*
X65654999Y-60506501D01*
X65654999Y-61401633D01*
X65868490Y-61344430D01*
X66082576Y-61244600D01*
X66276081Y-61109106D01*
X66443109Y-60942078D01*
X66573119Y-60756405D01*
X66627696Y-60712780D01*
X66697194Y-60705586D01*
X66759549Y-60737109D01*
X66776265Y-60756400D01*
X66906505Y-60942401D01*
X67073599Y-61109495D01*
X67267170Y-61245035D01*
X67481337Y-61344903D01*
X67709592Y-61406063D01*
X67945000Y-61426659D01*
X68180408Y-61406063D01*
X68408663Y-61344903D01*
X68622830Y-61245035D01*
X68816401Y-61109495D01*
X68938329Y-60987566D01*
X68999648Y-60954084D01*
X69069340Y-60959068D01*
X69125274Y-61000939D01*
X69142189Y-61031916D01*
X69191204Y-61163331D01*
X69277454Y-61278546D01*
X69392669Y-61364796D01*
X69527517Y-61415091D01*
X69587127Y-61421500D01*
X71382872Y-61421499D01*
X71442483Y-61415091D01*
X71577331Y-61364796D01*
X71692546Y-61278546D01*
X71778796Y-61163331D01*
X71829091Y-61028483D01*
X71835500Y-60968873D01*
X71835499Y-59173128D01*
X71829091Y-59113517D01*
X71778796Y-58978669D01*
X71692546Y-58863454D01*
X71577331Y-58777204D01*
X71442483Y-58726909D01*
X71382873Y-58720500D01*
X71379550Y-58720500D01*
X69590439Y-58720500D01*
X69590420Y-58720500D01*
X69587128Y-58720501D01*
X69583848Y-58720853D01*
X69583840Y-58720854D01*
X69527515Y-58726909D01*
X69392669Y-58777204D01*
X69277454Y-58863454D01*
X69191204Y-58978669D01*
X69142189Y-59110083D01*
X69100317Y-59166016D01*
X69034852Y-59190433D01*
X68966580Y-59175581D01*
X68938326Y-59154430D01*
X68816404Y-59032508D01*
X68816401Y-59032505D01*
X68622830Y-58896965D01*
X68408663Y-58797097D01*
X68347502Y-58780709D01*
X68180407Y-58735936D01*
X67944999Y-58715340D01*
X67709592Y-58735936D01*
X67481336Y-58797097D01*
X67267170Y-58896965D01*
X67073598Y-59032505D01*
X66906508Y-59199595D01*
X66776269Y-59385596D01*
X66721692Y-59429220D01*
X66652193Y-59436413D01*
X66589839Y-59404891D01*
X66573119Y-59385595D01*
X66443109Y-59199921D01*
X66276081Y-59032893D01*
X66082576Y-58897399D01*
X65868492Y-58797569D01*
X65655000Y-58740364D01*
X65654999Y-59635498D01*
X65547315Y-59586320D01*
X65440763Y-59571000D01*
X65369237Y-59571000D01*
X65262685Y-59586320D01*
X65154999Y-59635498D01*
X65155000Y-58740364D01*
X65154999Y-58740364D01*
X64941507Y-58797569D01*
X64727421Y-58897400D01*
X64533921Y-59032890D01*
X64366890Y-59199921D01*
X64231400Y-59393421D01*
X64131569Y-59607507D01*
X64074364Y-59820999D01*
X64074364Y-59821000D01*
X64971314Y-59821000D01*
X64945507Y-59861156D01*
X64905000Y-59999111D01*
X64905000Y-60142889D01*
X64945507Y-60280844D01*
X64971314Y-60321000D01*
X64074364Y-60321000D01*
X58166500Y-60321000D01*
X58166500Y-55635999D01*
X58893140Y-55635999D01*
X58913736Y-55871407D01*
X58958509Y-56038501D01*
X58974897Y-56099663D01*
X59074765Y-56313830D01*
X59210305Y-56507401D01*
X59377399Y-56674495D01*
X59563396Y-56804732D01*
X59607019Y-56859307D01*
X59614212Y-56928806D01*
X59582690Y-56991160D01*
X59563395Y-57007880D01*
X59377719Y-57137892D01*
X59210690Y-57304921D01*
X59075200Y-57498421D01*
X58975369Y-57712507D01*
X58918164Y-57925999D01*
X58918164Y-57926000D01*
X59815114Y-57926000D01*
X59789307Y-57966156D01*
X59748800Y-58104111D01*
X59748800Y-58247889D01*
X59789307Y-58385844D01*
X59815114Y-58426000D01*
X58918164Y-58426000D01*
X58975369Y-58639492D01*
X59075199Y-58853576D01*
X59210693Y-59047081D01*
X59377718Y-59214106D01*
X59571223Y-59349600D01*
X59785307Y-59449430D01*
X59998798Y-59506634D01*
X59998799Y-59506634D01*
X59998799Y-58611501D01*
X60106485Y-58660680D01*
X60213037Y-58676000D01*
X60284563Y-58676000D01*
X60391115Y-58660680D01*
X60498800Y-58611501D01*
X60498800Y-59506633D01*
X60712290Y-59449430D01*
X60926376Y-59349600D01*
X61119881Y-59214106D01*
X61286906Y-59047081D01*
X61422400Y-58853576D01*
X61522230Y-58639492D01*
X61579436Y-58426000D01*
X60682486Y-58426000D01*
X60708293Y-58385844D01*
X60748800Y-58247889D01*
X60748800Y-58104111D01*
X60708293Y-57966156D01*
X60682486Y-57926000D01*
X61579436Y-57926000D01*
X61579435Y-57925999D01*
X61522230Y-57712507D01*
X61422399Y-57498421D01*
X61286909Y-57304921D01*
X61119881Y-57137893D01*
X60934204Y-57007880D01*
X60890580Y-56953303D01*
X60883387Y-56883804D01*
X60914909Y-56821450D01*
X60934199Y-56804734D01*
X61120201Y-56674495D01*
X61287295Y-56507401D01*
X61422835Y-56313830D01*
X61522703Y-56099663D01*
X61583863Y-55871408D01*
X61604459Y-55636000D01*
X61583863Y-55400592D01*
X61522703Y-55172337D01*
X61422835Y-54958171D01*
X61287295Y-54764599D01*
X61120201Y-54597505D01*
X60934639Y-54467573D01*
X60891016Y-54412998D01*
X60883822Y-54343500D01*
X60915345Y-54281145D01*
X60934637Y-54264428D01*
X61120201Y-54134495D01*
X61287295Y-53967401D01*
X61324424Y-53914374D01*
X61379001Y-53870751D01*
X61425998Y-53861500D01*
X68588416Y-53861500D01*
X68655455Y-53881185D01*
X68676097Y-53897819D01*
X69673181Y-54894903D01*
X69706666Y-54956226D01*
X69709500Y-54982584D01*
X69709500Y-56540475D01*
X69702542Y-56581429D01*
X69699631Y-56589746D01*
X69679434Y-56768999D01*
X69699631Y-56948251D01*
X69699631Y-56948253D01*
X69699632Y-56948255D01*
X69759211Y-57118522D01*
X69759212Y-57118523D01*
X69855185Y-57271264D01*
X69982735Y-57398814D01*
X69982737Y-57398815D01*
X69982738Y-57398816D01*
X70135478Y-57494789D01*
X70305745Y-57554368D01*
X70485000Y-57574565D01*
X70664255Y-57554368D01*
X70834522Y-57494789D01*
X70987262Y-57398816D01*
X71114816Y-57271262D01*
X71210789Y-57118522D01*
X71270368Y-56948255D01*
X71290565Y-56769000D01*
X71270368Y-56589745D01*
X71267457Y-56581427D01*
X71260500Y-56540475D01*
X71260500Y-54982584D01*
X71280185Y-54915545D01*
X71296819Y-54894903D01*
X72283904Y-53907819D01*
X72345227Y-53874334D01*
X72371585Y-53871500D01*
X73251804Y-53871500D01*
X73318843Y-53891185D01*
X73353378Y-53924376D01*
X73383505Y-53967401D01*
X73550599Y-54134495D01*
X73736160Y-54264426D01*
X73779783Y-54319002D01*
X73786976Y-54388501D01*
X73755454Y-54450855D01*
X73736159Y-54467575D01*
X73550595Y-54597508D01*
X73383505Y-54764598D01*
X73247965Y-54958170D01*
X73148097Y-55172336D01*
X73086936Y-55400592D01*
X73066340Y-55635999D01*
X73086936Y-55871407D01*
X73131709Y-56038502D01*
X73148097Y-56099663D01*
X73247965Y-56313830D01*
X73383505Y-56507401D01*
X73550599Y-56674495D01*
X73736596Y-56804732D01*
X73780219Y-56859307D01*
X73787412Y-56928806D01*
X73755890Y-56991160D01*
X73736595Y-57007880D01*
X73550919Y-57137892D01*
X73383890Y-57304921D01*
X73248400Y-57498421D01*
X73148569Y-57712507D01*
X73091364Y-57925999D01*
X73091364Y-57926000D01*
X73988314Y-57926000D01*
X73962507Y-57966156D01*
X73922000Y-58104111D01*
X73922000Y-58247889D01*
X73962507Y-58385844D01*
X73988314Y-58426000D01*
X73091364Y-58426000D01*
X73148569Y-58639492D01*
X73248399Y-58853576D01*
X73383893Y-59047081D01*
X73550918Y-59214106D01*
X73744423Y-59349600D01*
X73958509Y-59449430D01*
X74172000Y-59506634D01*
X74172000Y-58611501D01*
X74279685Y-58660680D01*
X74386237Y-58676000D01*
X74457763Y-58676000D01*
X74564315Y-58660680D01*
X74672000Y-58611501D01*
X74672000Y-59506633D01*
X74885490Y-59449430D01*
X75099576Y-59349600D01*
X75293081Y-59214106D01*
X75460106Y-59047081D01*
X75595600Y-58853576D01*
X75695430Y-58639492D01*
X75752636Y-58426000D01*
X74855686Y-58426000D01*
X74881493Y-58385844D01*
X74922000Y-58247889D01*
X74922000Y-58104111D01*
X74881493Y-57966156D01*
X74855686Y-57926000D01*
X75752636Y-57926000D01*
X75752635Y-57925999D01*
X75695430Y-57712507D01*
X75595599Y-57498421D01*
X75460109Y-57304921D01*
X75293081Y-57137893D01*
X75107404Y-57007880D01*
X75063780Y-56953303D01*
X75056587Y-56883804D01*
X75088109Y-56821450D01*
X75107399Y-56804734D01*
X75293401Y-56674495D01*
X75460495Y-56507401D01*
X75596035Y-56313830D01*
X75695903Y-56099663D01*
X75757063Y-55871408D01*
X75777659Y-55636000D01*
X75757063Y-55400592D01*
X75695903Y-55172337D01*
X75596035Y-54958171D01*
X75460495Y-54764599D01*
X75293401Y-54597505D01*
X75107839Y-54467573D01*
X75064216Y-54412998D01*
X75057022Y-54343500D01*
X75088545Y-54281145D01*
X75107837Y-54264428D01*
X75293401Y-54134495D01*
X75460495Y-53967401D01*
X75596035Y-53773830D01*
X75695903Y-53559663D01*
X75757063Y-53331408D01*
X75777659Y-53096000D01*
X75757063Y-52860592D01*
X75695903Y-52632337D01*
X75596035Y-52418171D01*
X75460495Y-52224599D01*
X75338569Y-52102672D01*
X75305084Y-52041350D01*
X75310068Y-51971658D01*
X75351940Y-51915725D01*
X75382915Y-51898810D01*
X75514331Y-51849796D01*
X75629546Y-51763546D01*
X75715796Y-51648331D01*
X75766091Y-51513483D01*
X75772500Y-51453873D01*
X75772499Y-49658128D01*
X75766091Y-49598517D01*
X75715796Y-49463669D01*
X75629546Y-49348454D01*
X75514331Y-49262204D01*
X75379483Y-49211909D01*
X75319873Y-49205500D01*
X75316550Y-49205500D01*
X73527439Y-49205500D01*
X73527420Y-49205500D01*
X73524128Y-49205501D01*
X73520848Y-49205853D01*
X73520840Y-49205854D01*
X73464515Y-49211909D01*
X73329669Y-49262204D01*
X73214454Y-49348454D01*
X73128204Y-49463668D01*
X73077910Y-49598515D01*
X73077909Y-49598517D01*
X73071500Y-49658127D01*
X73071500Y-49661449D01*
X73071500Y-50758414D01*
X73051815Y-50825453D01*
X73035185Y-50846090D01*
X72750095Y-51131182D01*
X72688775Y-51164666D01*
X72662416Y-51167500D01*
X70713524Y-51167500D01*
X70672569Y-51160541D01*
X70664254Y-51157631D01*
X70485000Y-51137434D01*
X70305745Y-51157631D01*
X70297431Y-51160541D01*
X70256476Y-51167500D01*
X62008385Y-51167500D01*
X61941346Y-51147815D01*
X61920704Y-51131181D01*
X61635617Y-50846095D01*
X61602132Y-50784772D01*
X61599299Y-50758423D01*
X61599299Y-49662578D01*
X63927500Y-49662578D01*
X63927501Y-49665872D01*
X63933909Y-49725483D01*
X63984204Y-49860331D01*
X64070454Y-49975546D01*
X64185669Y-50061796D01*
X64320517Y-50112091D01*
X64380127Y-50118500D01*
X66175872Y-50118499D01*
X66235483Y-50112091D01*
X66370331Y-50061796D01*
X66485546Y-49975546D01*
X66571796Y-49860331D01*
X66621003Y-49728399D01*
X66662873Y-49672467D01*
X66728337Y-49648050D01*
X66796610Y-49662901D01*
X66824865Y-49684053D01*
X66946918Y-49806106D01*
X67140423Y-49941600D01*
X67354509Y-50041430D01*
X67568000Y-50098634D01*
X67568000Y-49203501D01*
X67675685Y-49252680D01*
X67782237Y-49268000D01*
X67853763Y-49268000D01*
X67960315Y-49252680D01*
X68068000Y-49203501D01*
X68068000Y-50098633D01*
X68281490Y-50041430D01*
X68495576Y-49941600D01*
X68689081Y-49806106D01*
X68856109Y-49639078D01*
X68986119Y-49453405D01*
X69040696Y-49409780D01*
X69110194Y-49402586D01*
X69172549Y-49434109D01*
X69189265Y-49453400D01*
X69319505Y-49639401D01*
X69486599Y-49806495D01*
X69680170Y-49942035D01*
X69894337Y-50041903D01*
X70122592Y-50103063D01*
X70358000Y-50123659D01*
X70593408Y-50103063D01*
X70821663Y-50041903D01*
X71035830Y-49942035D01*
X71229401Y-49806495D01*
X71396495Y-49639401D01*
X71532035Y-49445830D01*
X71631903Y-49231663D01*
X71693063Y-49003408D01*
X71713659Y-48768000D01*
X71693063Y-48532592D01*
X71631903Y-48304337D01*
X71532035Y-48090171D01*
X71396495Y-47896599D01*
X71229401Y-47729505D01*
X71035830Y-47593965D01*
X70821663Y-47494097D01*
X70760502Y-47477709D01*
X70593407Y-47432936D01*
X70358000Y-47412340D01*
X70122592Y-47432936D01*
X69894336Y-47494097D01*
X69680170Y-47593965D01*
X69486598Y-47729505D01*
X69319508Y-47896595D01*
X69189269Y-48082596D01*
X69134692Y-48126220D01*
X69065193Y-48133413D01*
X69002839Y-48101891D01*
X68986119Y-48082595D01*
X68856109Y-47896921D01*
X68689081Y-47729893D01*
X68495576Y-47594399D01*
X68281492Y-47494569D01*
X68068000Y-47437364D01*
X68068000Y-48332498D01*
X67960315Y-48283320D01*
X67853763Y-48268000D01*
X67782237Y-48268000D01*
X67675685Y-48283320D01*
X67568000Y-48332498D01*
X67568000Y-47437364D01*
X67567999Y-47437364D01*
X67354507Y-47494569D01*
X67140421Y-47594400D01*
X66946924Y-47729888D01*
X66824865Y-47851947D01*
X66763542Y-47885431D01*
X66693850Y-47880447D01*
X66637917Y-47838575D01*
X66621002Y-47807598D01*
X66592018Y-47729888D01*
X66571796Y-47675669D01*
X66485546Y-47560454D01*
X66370331Y-47474204D01*
X66235483Y-47423909D01*
X66175873Y-47417500D01*
X66172550Y-47417500D01*
X64383439Y-47417500D01*
X64383420Y-47417500D01*
X64380128Y-47417501D01*
X64376848Y-47417853D01*
X64376840Y-47417854D01*
X64320515Y-47423909D01*
X64185669Y-47474204D01*
X64070454Y-47560454D01*
X63984204Y-47675668D01*
X63933909Y-47810516D01*
X63929455Y-47851947D01*
X63927500Y-47870127D01*
X63927500Y-47873448D01*
X63927500Y-47873449D01*
X63927500Y-49662560D01*
X63927500Y-49662578D01*
X61599299Y-49662578D01*
X61599299Y-49658128D01*
X61592891Y-49598517D01*
X61542596Y-49463669D01*
X61456346Y-49348454D01*
X61341131Y-49262204D01*
X61206283Y-49211909D01*
X61146673Y-49205500D01*
X61143350Y-49205500D01*
X59354239Y-49205500D01*
X59354220Y-49205500D01*
X59350928Y-49205501D01*
X59347648Y-49205853D01*
X59347640Y-49205854D01*
X59291315Y-49211909D01*
X59156469Y-49262204D01*
X59041254Y-49348454D01*
X58955004Y-49463668D01*
X58904710Y-49598515D01*
X58904709Y-49598517D01*
X58898300Y-49658127D01*
X58898300Y-49661448D01*
X58898300Y-49661449D01*
X58898300Y-51450560D01*
X58898300Y-51450578D01*
X58898301Y-51453872D01*
X58904709Y-51513483D01*
X58955004Y-51648331D01*
X59041254Y-51763546D01*
X59156469Y-51849796D01*
X59268707Y-51891658D01*
X59287882Y-51898810D01*
X59343816Y-51940681D01*
X59368233Y-52006146D01*
X59353381Y-52074419D01*
X59332231Y-52102673D01*
X59210303Y-52224601D01*
X59074765Y-52418170D01*
X58974897Y-52632336D01*
X58913736Y-52860592D01*
X58893140Y-53095999D01*
X58913736Y-53331407D01*
X58938974Y-53425596D01*
X58974897Y-53559663D01*
X59074765Y-53773830D01*
X59210305Y-53967401D01*
X59377399Y-54134495D01*
X59562960Y-54264426D01*
X59606583Y-54319002D01*
X59613776Y-54388501D01*
X59582254Y-54450855D01*
X59562959Y-54467575D01*
X59377395Y-54597508D01*
X59210305Y-54764598D01*
X59074765Y-54958170D01*
X58974897Y-55172336D01*
X58913736Y-55400592D01*
X58893140Y-55635999D01*
X58166500Y-55635999D01*
X58166500Y-47114500D01*
X58186185Y-47047461D01*
X58238989Y-47001706D01*
X58290500Y-46990500D01*
X76075500Y-46990500D01*
X76142539Y-47010185D01*
G37*
%TD.AperFunction*%
%TD*%
M02*
