%TF.GenerationSoftware,KiCad,Pcbnew,7.0.2-0*%
%TF.CreationDate,2024-02-15T18:07:51+00:00*%
%TF.ProjectId,rotor_test,726f746f-725f-4746-9573-742e6b696361,rev?*%
%TF.SameCoordinates,Original*%
%TF.FileFunction,Legend,Top*%
%TF.FilePolarity,Positive*%
%FSLAX46Y46*%
G04 Gerber Fmt 4.6, Leading zero omitted, Abs format (unit mm)*
G04 Created by KiCad (PCBNEW 7.0.2-0) date 2024-02-15 18:07:51*
%MOMM*%
%LPD*%
G01*
G04 APERTURE LIST*
%ADD10C,0.150000*%
%ADD11C,0.120000*%
G04 APERTURE END LIST*
D10*
%TO.C,C2*%
X65264380Y-53506666D02*
X65312000Y-53554285D01*
X65312000Y-53554285D02*
X65359619Y-53697142D01*
X65359619Y-53697142D02*
X65359619Y-53792380D01*
X65359619Y-53792380D02*
X65312000Y-53935237D01*
X65312000Y-53935237D02*
X65216761Y-54030475D01*
X65216761Y-54030475D02*
X65121523Y-54078094D01*
X65121523Y-54078094D02*
X64931047Y-54125713D01*
X64931047Y-54125713D02*
X64788190Y-54125713D01*
X64788190Y-54125713D02*
X64597714Y-54078094D01*
X64597714Y-54078094D02*
X64502476Y-54030475D01*
X64502476Y-54030475D02*
X64407238Y-53935237D01*
X64407238Y-53935237D02*
X64359619Y-53792380D01*
X64359619Y-53792380D02*
X64359619Y-53697142D01*
X64359619Y-53697142D02*
X64407238Y-53554285D01*
X64407238Y-53554285D02*
X64454857Y-53506666D01*
X64454857Y-53125713D02*
X64407238Y-53078094D01*
X64407238Y-53078094D02*
X64359619Y-52982856D01*
X64359619Y-52982856D02*
X64359619Y-52744761D01*
X64359619Y-52744761D02*
X64407238Y-52649523D01*
X64407238Y-52649523D02*
X64454857Y-52601904D01*
X64454857Y-52601904D02*
X64550095Y-52554285D01*
X64550095Y-52554285D02*
X64645333Y-52554285D01*
X64645333Y-52554285D02*
X64788190Y-52601904D01*
X64788190Y-52601904D02*
X65359619Y-53173332D01*
X65359619Y-53173332D02*
X65359619Y-52554285D01*
%TO.C,C1*%
X63740380Y-53506666D02*
X63788000Y-53554285D01*
X63788000Y-53554285D02*
X63835619Y-53697142D01*
X63835619Y-53697142D02*
X63835619Y-53792380D01*
X63835619Y-53792380D02*
X63788000Y-53935237D01*
X63788000Y-53935237D02*
X63692761Y-54030475D01*
X63692761Y-54030475D02*
X63597523Y-54078094D01*
X63597523Y-54078094D02*
X63407047Y-54125713D01*
X63407047Y-54125713D02*
X63264190Y-54125713D01*
X63264190Y-54125713D02*
X63073714Y-54078094D01*
X63073714Y-54078094D02*
X62978476Y-54030475D01*
X62978476Y-54030475D02*
X62883238Y-53935237D01*
X62883238Y-53935237D02*
X62835619Y-53792380D01*
X62835619Y-53792380D02*
X62835619Y-53697142D01*
X62835619Y-53697142D02*
X62883238Y-53554285D01*
X62883238Y-53554285D02*
X62930857Y-53506666D01*
X63835619Y-52554285D02*
X63835619Y-53125713D01*
X63835619Y-52839999D02*
X62835619Y-52839999D01*
X62835619Y-52839999D02*
X62978476Y-52935237D01*
X62978476Y-52935237D02*
X63073714Y-53030475D01*
X63073714Y-53030475D02*
X63121333Y-53125713D01*
%TO.C,J4*%
X72564666Y-60295619D02*
X72564666Y-61009904D01*
X72564666Y-61009904D02*
X72517047Y-61152761D01*
X72517047Y-61152761D02*
X72421809Y-61248000D01*
X72421809Y-61248000D02*
X72278952Y-61295619D01*
X72278952Y-61295619D02*
X72183714Y-61295619D01*
X73469428Y-60628952D02*
X73469428Y-61295619D01*
X73231333Y-60248000D02*
X72993238Y-60962285D01*
X72993238Y-60962285D02*
X73612285Y-60962285D01*
%TO.C,U1*%
X71725619Y-55117904D02*
X72535142Y-55117904D01*
X72535142Y-55117904D02*
X72630380Y-55070285D01*
X72630380Y-55070285D02*
X72678000Y-55022666D01*
X72678000Y-55022666D02*
X72725619Y-54927428D01*
X72725619Y-54927428D02*
X72725619Y-54736952D01*
X72725619Y-54736952D02*
X72678000Y-54641714D01*
X72678000Y-54641714D02*
X72630380Y-54594095D01*
X72630380Y-54594095D02*
X72535142Y-54546476D01*
X72535142Y-54546476D02*
X71725619Y-54546476D01*
X72725619Y-53546476D02*
X72725619Y-54117904D01*
X72725619Y-53832190D02*
X71725619Y-53832190D01*
X71725619Y-53832190D02*
X71868476Y-53927428D01*
X71868476Y-53927428D02*
X71963714Y-54022666D01*
X71963714Y-54022666D02*
X72011333Y-54117904D01*
%TO.C,J3*%
X74088666Y-47595619D02*
X74088666Y-48309904D01*
X74088666Y-48309904D02*
X74041047Y-48452761D01*
X74041047Y-48452761D02*
X73945809Y-48548000D01*
X73945809Y-48548000D02*
X73802952Y-48595619D01*
X73802952Y-48595619D02*
X73707714Y-48595619D01*
X74469619Y-47595619D02*
X75088666Y-47595619D01*
X75088666Y-47595619D02*
X74755333Y-47976571D01*
X74755333Y-47976571D02*
X74898190Y-47976571D01*
X74898190Y-47976571D02*
X74993428Y-48024190D01*
X74993428Y-48024190D02*
X75041047Y-48071809D01*
X75041047Y-48071809D02*
X75088666Y-48167047D01*
X75088666Y-48167047D02*
X75088666Y-48405142D01*
X75088666Y-48405142D02*
X75041047Y-48500380D01*
X75041047Y-48500380D02*
X74993428Y-48548000D01*
X74993428Y-48548000D02*
X74898190Y-48595619D01*
X74898190Y-48595619D02*
X74612476Y-48595619D01*
X74612476Y-48595619D02*
X74517238Y-48548000D01*
X74517238Y-48548000D02*
X74469619Y-48500380D01*
%TO.C,J2*%
X59610666Y-47468619D02*
X59610666Y-48182904D01*
X59610666Y-48182904D02*
X59563047Y-48325761D01*
X59563047Y-48325761D02*
X59467809Y-48421000D01*
X59467809Y-48421000D02*
X59324952Y-48468619D01*
X59324952Y-48468619D02*
X59229714Y-48468619D01*
X60039238Y-47563857D02*
X60086857Y-47516238D01*
X60086857Y-47516238D02*
X60182095Y-47468619D01*
X60182095Y-47468619D02*
X60420190Y-47468619D01*
X60420190Y-47468619D02*
X60515428Y-47516238D01*
X60515428Y-47516238D02*
X60563047Y-47563857D01*
X60563047Y-47563857D02*
X60610666Y-47659095D01*
X60610666Y-47659095D02*
X60610666Y-47754333D01*
X60610666Y-47754333D02*
X60563047Y-47897190D01*
X60563047Y-47897190D02*
X59991619Y-48468619D01*
X59991619Y-48468619D02*
X60610666Y-48468619D01*
%TO.C,J1*%
X62404666Y-47341619D02*
X62404666Y-48055904D01*
X62404666Y-48055904D02*
X62357047Y-48198761D01*
X62357047Y-48198761D02*
X62261809Y-48294000D01*
X62261809Y-48294000D02*
X62118952Y-48341619D01*
X62118952Y-48341619D02*
X62023714Y-48341619D01*
X63404666Y-48341619D02*
X62833238Y-48341619D01*
X63118952Y-48341619D02*
X63118952Y-47341619D01*
X63118952Y-47341619D02*
X63023714Y-47484476D01*
X63023714Y-47484476D02*
X62928476Y-47579714D01*
X62928476Y-47579714D02*
X62833238Y-47627333D01*
D11*
%TO.C,C2*%
X65432400Y-56020580D02*
X65432400Y-55739420D01*
X64412400Y-56020580D02*
X64412400Y-55739420D01*
%TO.C,C1*%
X63911000Y-56020580D02*
X63911000Y-55739420D01*
X62891000Y-56020580D02*
X62891000Y-55739420D01*
%TO.C,J4*%
X69215000Y-58741000D02*
X69215000Y-61401000D01*
X71815000Y-58741000D02*
X71815000Y-60071000D01*
X69215000Y-61401000D02*
X64075000Y-61401000D01*
X70485000Y-58741000D02*
X71815000Y-58741000D01*
X69215000Y-58741000D02*
X64075000Y-58741000D01*
X64075000Y-58741000D02*
X64075000Y-61401000D01*
%TO.C,U1*%
X71140000Y-54356000D02*
X71140000Y-56306000D01*
X66020000Y-54356000D02*
X66020000Y-57806000D01*
X71140000Y-54356000D02*
X71140000Y-52406000D01*
X66020000Y-54356000D02*
X66020000Y-52406000D01*
%TO.C,J3*%
X75752000Y-51826000D02*
X75752000Y-59506000D01*
X73092000Y-50556000D02*
X73092000Y-49226000D01*
X73092000Y-59506000D02*
X75752000Y-59506000D01*
X73092000Y-51826000D02*
X75752000Y-51826000D01*
X73092000Y-49226000D02*
X74422000Y-49226000D01*
X73092000Y-51826000D02*
X73092000Y-59506000D01*
%TO.C,J2*%
X61578800Y-51826000D02*
X61578800Y-59506000D01*
X58918800Y-50556000D02*
X58918800Y-49226000D01*
X58918800Y-59506000D02*
X61578800Y-59506000D01*
X58918800Y-51826000D02*
X61578800Y-51826000D01*
X58918800Y-49226000D02*
X60248800Y-49226000D01*
X58918800Y-51826000D02*
X58918800Y-59506000D01*
%TO.C,J1*%
X71688000Y-50098000D02*
X71688000Y-47438000D01*
X66548000Y-50098000D02*
X71688000Y-50098000D01*
X65278000Y-50098000D02*
X63948000Y-50098000D01*
X66548000Y-47438000D02*
X71688000Y-47438000D01*
X63948000Y-50098000D02*
X63948000Y-48768000D01*
X66548000Y-50098000D02*
X66548000Y-47438000D01*
%TD*%
M02*
