%TF.GenerationSoftware,KiCad,Pcbnew,7.0.2-0*%
%TF.CreationDate,2024-02-15T18:07:50+00:00*%
%TF.ProjectId,rotor_test,726f746f-725f-4746-9573-742e6b696361,rev?*%
%TF.SameCoordinates,Original*%
%TF.FileFunction,Copper,L1,Top*%
%TF.FilePolarity,Positive*%
%FSLAX46Y46*%
G04 Gerber Fmt 4.6, Leading zero omitted, Abs format (unit mm)*
G04 Created by KiCad (PCBNEW 7.0.2-0) date 2024-02-15 18:07:50*
%MOMM*%
%LPD*%
G01*
G04 APERTURE LIST*
G04 Aperture macros list*
%AMRoundRect*
0 Rectangle with rounded corners*
0 $1 Rounding radius*
0 $2 $3 $4 $5 $6 $7 $8 $9 X,Y pos of 4 corners*
0 Add a 4 corners polygon primitive as box body*
4,1,4,$2,$3,$4,$5,$6,$7,$8,$9,$2,$3,0*
0 Add four circle primitives for the rounded corners*
1,1,$1+$1,$2,$3*
1,1,$1+$1,$4,$5*
1,1,$1+$1,$6,$7*
1,1,$1+$1,$8,$9*
0 Add four rect primitives between the rounded corners*
20,1,$1+$1,$2,$3,$4,$5,0*
20,1,$1+$1,$4,$5,$6,$7,0*
20,1,$1+$1,$6,$7,$8,$9,0*
20,1,$1+$1,$8,$9,$2,$3,0*%
G04 Aperture macros list end*
%TA.AperFunction,SMDPad,CuDef*%
%ADD10RoundRect,0.225000X0.250000X-0.225000X0.250000X0.225000X-0.250000X0.225000X-0.250000X-0.225000X0*%
%TD*%
%TA.AperFunction,ComponentPad*%
%ADD11O,1.700000X1.700000*%
%TD*%
%TA.AperFunction,ComponentPad*%
%ADD12R,1.700000X1.700000*%
%TD*%
%TA.AperFunction,SMDPad,CuDef*%
%ADD13RoundRect,0.150000X0.150000X-0.825000X0.150000X0.825000X-0.150000X0.825000X-0.150000X-0.825000X0*%
%TD*%
%TA.AperFunction,ViaPad*%
%ADD14C,0.600000*%
%TD*%
%TA.AperFunction,Conductor*%
%ADD15C,0.550000*%
%TD*%
G04 APERTURE END LIST*
D10*
%TO.P,C2,1*%
%TO.N,VCC*%
X64922400Y-56655000D03*
%TO.P,C2,2*%
%TO.N,GND*%
X64922400Y-55105000D03*
%TD*%
%TO.P,C1,1*%
%TO.N,VCC*%
X63401000Y-56655000D03*
%TO.P,C1,2*%
%TO.N,GND*%
X63401000Y-55105000D03*
%TD*%
D11*
%TO.P,J4,3,Pin_3*%
%TO.N,GND*%
X65405000Y-60071000D03*
%TO.P,J4,2,Pin_2*%
%TO.N,R1_ENCB*%
X67945000Y-60071000D03*
D12*
%TO.P,J4,1,Pin_1*%
%TO.N,R1_ENCA*%
X70485000Y-60071000D03*
%TD*%
D13*
%TO.P,U1,8,GND*%
%TO.N,GND*%
X66675000Y-51881000D03*
%TO.P,U1,7,PA3*%
%TO.N,unconnected-(U1-PA3-Pad7)*%
X67945000Y-51881000D03*
%TO.P,U1,6,~{RESET}/PA0*%
%TO.N,UPDI*%
X69215000Y-51881000D03*
%TO.P,U1,5,PA2*%
%TO.N,SCL*%
X70485000Y-51881000D03*
%TO.P,U1,4,PA1*%
%TO.N,SDA*%
X70485000Y-56831000D03*
%TO.P,U1,3,PA7*%
%TO.N,R1_ENCA*%
X69215000Y-56831000D03*
%TO.P,U1,2,PA6*%
%TO.N,R1_ENCB*%
X67945000Y-56831000D03*
%TO.P,U1,1,VCC*%
%TO.N,VCC*%
X66675000Y-56831000D03*
%TD*%
D12*
%TO.P,J3,1,Pin_1*%
%TO.N,SCL*%
X74422000Y-50556000D03*
D11*
%TO.P,J3,2,Pin_2*%
%TO.N,SDA*%
X74422000Y-53096000D03*
%TO.P,J3,3,Pin_3*%
%TO.N,VCC*%
X74422000Y-55636000D03*
%TO.P,J3,4,Pin_4*%
%TO.N,GND*%
X74422000Y-58176000D03*
%TD*%
D12*
%TO.P,J2,1,Pin_1*%
%TO.N,SCL*%
X60248800Y-50556000D03*
D11*
%TO.P,J2,2,Pin_2*%
%TO.N,SDA*%
X60248800Y-53096000D03*
%TO.P,J2,3,Pin_3*%
%TO.N,VCC*%
X60248800Y-55636000D03*
%TO.P,J2,4,Pin_4*%
%TO.N,GND*%
X60248800Y-58176000D03*
%TD*%
D12*
%TO.P,J1,1,Pin_1*%
%TO.N,VCC*%
X65278000Y-48768000D03*
D11*
%TO.P,J1,2,Pin_2*%
%TO.N,GND*%
X67818000Y-48768000D03*
%TO.P,J1,3,Pin_3*%
%TO.N,UPDI*%
X70358000Y-48768000D03*
%TD*%
D14*
%TO.N,SDA*%
X70485000Y-56769000D03*
%TO.N,SCL*%
X70485000Y-51943000D03*
%TO.N,GND*%
X67818000Y-50165000D03*
%TD*%
D15*
%TO.N,R1_ENCA*%
X69215000Y-58801000D02*
X70485000Y-60071000D01*
%TO.N,R1_ENCB*%
X67945000Y-56831000D02*
X67945000Y-60071000D01*
%TO.N,R1_ENCA*%
X69215000Y-56831000D02*
X69215000Y-58801000D01*
%TO.N,VCC*%
X66675000Y-56831000D02*
X66675000Y-55372000D01*
X66675000Y-55372000D02*
X67437000Y-54610000D01*
X67437000Y-54610000D02*
X72009000Y-54610000D01*
X73035000Y-55636000D02*
X74422000Y-55636000D01*
X72009000Y-54610000D02*
X73035000Y-55636000D01*
X61478000Y-55636000D02*
X62103000Y-55011000D01*
X62103000Y-51054000D02*
X64389000Y-48768000D01*
X64389000Y-48768000D02*
X65278000Y-48768000D01*
X62103000Y-55011000D02*
X62103000Y-51054000D01*
%TO.N,GND*%
X63401000Y-55105000D02*
X65291000Y-55105000D01*
X65291000Y-55105000D02*
X66675000Y-53721000D01*
X66675000Y-53721000D02*
X66675000Y-51881000D01*
%TO.N,SDA*%
X70485000Y-56831000D02*
X70485000Y-56769000D01*
%TO.N,SCL*%
X70485000Y-51881000D02*
X70485000Y-51943000D01*
%TO.N,UPDI*%
X70358000Y-48768000D02*
X69215000Y-49911000D01*
X69215000Y-49911000D02*
X69215000Y-51881000D01*
%TO.N,VCC*%
X66675000Y-56831000D02*
X66486000Y-56642000D01*
X66486000Y-56642000D02*
X63414000Y-56642000D01*
X63414000Y-56642000D02*
X63401000Y-56655000D01*
X61478000Y-55636000D02*
X60248800Y-55636000D01*
X63401000Y-56655000D02*
X62497000Y-56655000D01*
X62497000Y-56655000D02*
X61478000Y-55636000D01*
%TD*%
%TA.AperFunction,Conductor*%
%TO.N,GND*%
G36*
X76142540Y-47010184D02*
G01*
X76188294Y-47062988D01*
X76199500Y-47114499D01*
X76199500Y-61726220D01*
X76179815Y-61793259D01*
X76127011Y-61839014D01*
X76076722Y-61850214D01*
X63369285Y-61975500D01*
X58290500Y-61975500D01*
X58223460Y-61955815D01*
X58177706Y-61903011D01*
X58166500Y-61851500D01*
X58166500Y-55635999D01*
X58893140Y-55635999D01*
X58913736Y-55871407D01*
X58922316Y-55903427D01*
X58974897Y-56099663D01*
X59074765Y-56313830D01*
X59210305Y-56507401D01*
X59377399Y-56674495D01*
X59563396Y-56804732D01*
X59607019Y-56859307D01*
X59614212Y-56928806D01*
X59582690Y-56991160D01*
X59563395Y-57007880D01*
X59377719Y-57137892D01*
X59210690Y-57304921D01*
X59075200Y-57498421D01*
X58975369Y-57712507D01*
X58918164Y-57925999D01*
X58918164Y-57926000D01*
X59815114Y-57926000D01*
X59789307Y-57966156D01*
X59748800Y-58104111D01*
X59748800Y-58247889D01*
X59789307Y-58385844D01*
X59815114Y-58426000D01*
X58918164Y-58426000D01*
X58975369Y-58639492D01*
X59075199Y-58853576D01*
X59210693Y-59047081D01*
X59377718Y-59214106D01*
X59571223Y-59349600D01*
X59785307Y-59449430D01*
X59998798Y-59506634D01*
X59998799Y-59506634D01*
X59998799Y-58611501D01*
X60106485Y-58660680D01*
X60213037Y-58676000D01*
X60284563Y-58676000D01*
X60391115Y-58660680D01*
X60498800Y-58611501D01*
X60498800Y-59506633D01*
X60712290Y-59449430D01*
X60926376Y-59349600D01*
X61119881Y-59214106D01*
X61286906Y-59047081D01*
X61422400Y-58853576D01*
X61522230Y-58639492D01*
X61579436Y-58426000D01*
X60682486Y-58426000D01*
X60708293Y-58385844D01*
X60748800Y-58247889D01*
X60748800Y-58104111D01*
X60708293Y-57966156D01*
X60682486Y-57926000D01*
X61579436Y-57926000D01*
X61579435Y-57925999D01*
X61522230Y-57712507D01*
X61422399Y-57498421D01*
X61286909Y-57304921D01*
X61119881Y-57137893D01*
X60934204Y-57007880D01*
X60890580Y-56953303D01*
X60883387Y-56883804D01*
X60914909Y-56821450D01*
X60934199Y-56804734D01*
X61120201Y-56674495D01*
X61182305Y-56612390D01*
X61243629Y-56578905D01*
X61313321Y-56583889D01*
X61357668Y-56612390D01*
X61878168Y-57132890D01*
X61878171Y-57132894D01*
X61886853Y-57141576D01*
X62010424Y-57265147D01*
X62035329Y-57280796D01*
X62041636Y-57284759D01*
X62052969Y-57292800D01*
X62068169Y-57304921D01*
X62081798Y-57315790D01*
X62115021Y-57331789D01*
X62127176Y-57338507D01*
X62158394Y-57358122D01*
X62193202Y-57370301D01*
X62206038Y-57375619D01*
X62239249Y-57391613D01*
X62275194Y-57399817D01*
X62288534Y-57403660D01*
X62323343Y-57415841D01*
X62359990Y-57419969D01*
X62373667Y-57422293D01*
X62409622Y-57430501D01*
X62409624Y-57430501D01*
X62599639Y-57430501D01*
X62599647Y-57430500D01*
X62626363Y-57430500D01*
X62691460Y-57448962D01*
X62842300Y-57542002D01*
X63003292Y-57595349D01*
X63099522Y-57605180D01*
X63099523Y-57605180D01*
X63102655Y-57605500D01*
X63699344Y-57605499D01*
X63798708Y-57595349D01*
X63959697Y-57542003D01*
X63959699Y-57542002D01*
X64096603Y-57457558D01*
X64163995Y-57439117D01*
X64226797Y-57457558D01*
X64363700Y-57542002D01*
X64524692Y-57595349D01*
X64620922Y-57605180D01*
X64620923Y-57605180D01*
X64624055Y-57605500D01*
X65220744Y-57605499D01*
X65320108Y-57595349D01*
X65481097Y-57542003D01*
X65481099Y-57542002D01*
X65637780Y-57445360D01*
X65638360Y-57446301D01*
X65685917Y-57420334D01*
X65712275Y-57417500D01*
X65750500Y-57417500D01*
X65817539Y-57437185D01*
X65863294Y-57489989D01*
X65874500Y-57541499D01*
X65874500Y-57721694D01*
X65874690Y-57724114D01*
X65874691Y-57724128D01*
X65877402Y-57758572D01*
X65923255Y-57916397D01*
X66006919Y-58057865D01*
X66123135Y-58174081D01*
X66247938Y-58247889D01*
X66264602Y-58257744D01*
X66422427Y-58303597D01*
X66422431Y-58303598D01*
X66459306Y-58306500D01*
X66461751Y-58306500D01*
X66888249Y-58306500D01*
X66890694Y-58306500D01*
X66927569Y-58303598D01*
X67010906Y-58279386D01*
X67080773Y-58279585D01*
X67139444Y-58317526D01*
X67168288Y-58381164D01*
X67169500Y-58398462D01*
X67169500Y-58900803D01*
X67149815Y-58967842D01*
X67116625Y-59002376D01*
X67073601Y-59032502D01*
X66906508Y-59199595D01*
X66776269Y-59385596D01*
X66721692Y-59429220D01*
X66652193Y-59436413D01*
X66589839Y-59404891D01*
X66573119Y-59385595D01*
X66443109Y-59199921D01*
X66276081Y-59032893D01*
X66082576Y-58897399D01*
X65868492Y-58797569D01*
X65655000Y-58740364D01*
X65654999Y-59635498D01*
X65547315Y-59586320D01*
X65440763Y-59571000D01*
X65369237Y-59571000D01*
X65262685Y-59586320D01*
X65154999Y-59635498D01*
X65155000Y-58740364D01*
X65154999Y-58740364D01*
X64941507Y-58797569D01*
X64727421Y-58897400D01*
X64533921Y-59032890D01*
X64366890Y-59199921D01*
X64231400Y-59393421D01*
X64131569Y-59607507D01*
X64074364Y-59820999D01*
X64074364Y-59821000D01*
X64971314Y-59821000D01*
X64945507Y-59861156D01*
X64905000Y-59999111D01*
X64905000Y-60142889D01*
X64945507Y-60280844D01*
X64971314Y-60321000D01*
X64074364Y-60321000D01*
X64131569Y-60534492D01*
X64231399Y-60748576D01*
X64366893Y-60942081D01*
X64533918Y-61109106D01*
X64727423Y-61244600D01*
X64941509Y-61344430D01*
X65155000Y-61401634D01*
X65155000Y-60506501D01*
X65262685Y-60555680D01*
X65369237Y-60571000D01*
X65440763Y-60571000D01*
X65547315Y-60555680D01*
X65654999Y-60506501D01*
X65654999Y-61401633D01*
X65868490Y-61344430D01*
X66082576Y-61244600D01*
X66276081Y-61109106D01*
X66443109Y-60942078D01*
X66573119Y-60756405D01*
X66627696Y-60712780D01*
X66697194Y-60705586D01*
X66759549Y-60737109D01*
X66776265Y-60756400D01*
X66906505Y-60942401D01*
X67073599Y-61109495D01*
X67267170Y-61245035D01*
X67481337Y-61344903D01*
X67709592Y-61406063D01*
X67945000Y-61426659D01*
X68180408Y-61406063D01*
X68408663Y-61344903D01*
X68622830Y-61245035D01*
X68816401Y-61109495D01*
X68938329Y-60987566D01*
X68999648Y-60954084D01*
X69069340Y-60959068D01*
X69125274Y-61000939D01*
X69142189Y-61031916D01*
X69191204Y-61163331D01*
X69277454Y-61278546D01*
X69392669Y-61364796D01*
X69527517Y-61415091D01*
X69587127Y-61421500D01*
X71382872Y-61421499D01*
X71442483Y-61415091D01*
X71577331Y-61364796D01*
X71692546Y-61278546D01*
X71778796Y-61163331D01*
X71829091Y-61028483D01*
X71835500Y-60968873D01*
X71835499Y-59173128D01*
X71829091Y-59113517D01*
X71778796Y-58978669D01*
X71692546Y-58863454D01*
X71577331Y-58777204D01*
X71442483Y-58726909D01*
X71382873Y-58720500D01*
X71379551Y-58720500D01*
X70282585Y-58720500D01*
X70215546Y-58700815D01*
X70194904Y-58684181D01*
X70026819Y-58516096D01*
X69993334Y-58454773D01*
X69990500Y-58428415D01*
X69990500Y-58398462D01*
X70010185Y-58331423D01*
X70062989Y-58285668D01*
X70132147Y-58275724D01*
X70149086Y-58279383D01*
X70232431Y-58303598D01*
X70269306Y-58306500D01*
X70271751Y-58306500D01*
X70698249Y-58306500D01*
X70700694Y-58306500D01*
X70737569Y-58303598D01*
X70895398Y-58257744D01*
X71036865Y-58174081D01*
X71153081Y-58057865D01*
X71236744Y-57916398D01*
X71282598Y-57758569D01*
X71285500Y-57721694D01*
X71285500Y-56820914D01*
X71286280Y-56807029D01*
X71290565Y-56768999D01*
X71286280Y-56730969D01*
X71285500Y-56717084D01*
X71285500Y-55942751D01*
X71285500Y-55940306D01*
X71282598Y-55903431D01*
X71271868Y-55866500D01*
X71236744Y-55745602D01*
X71153080Y-55604134D01*
X71146127Y-55597181D01*
X71112642Y-55535858D01*
X71117626Y-55466166D01*
X71159498Y-55410233D01*
X71224962Y-55385816D01*
X71233808Y-55385500D01*
X71636416Y-55385500D01*
X71703455Y-55405185D01*
X71724097Y-55421819D01*
X72416168Y-56113890D01*
X72416171Y-56113894D01*
X72424853Y-56122576D01*
X72548424Y-56246147D01*
X72579641Y-56265762D01*
X72590976Y-56273805D01*
X72619797Y-56296790D01*
X72653015Y-56312786D01*
X72665186Y-56319512D01*
X72696394Y-56339122D01*
X72731193Y-56351298D01*
X72744035Y-56356618D01*
X72777248Y-56372613D01*
X72813179Y-56380813D01*
X72826536Y-56384661D01*
X72861343Y-56396841D01*
X72897997Y-56400970D01*
X72911675Y-56403295D01*
X72947622Y-56411500D01*
X72991448Y-56411500D01*
X73251804Y-56411500D01*
X73318843Y-56431185D01*
X73353378Y-56464376D01*
X73383505Y-56507401D01*
X73550599Y-56674495D01*
X73736596Y-56804732D01*
X73780219Y-56859307D01*
X73787412Y-56928806D01*
X73755890Y-56991160D01*
X73736595Y-57007880D01*
X73550919Y-57137892D01*
X73383890Y-57304921D01*
X73248400Y-57498421D01*
X73148569Y-57712507D01*
X73091364Y-57925999D01*
X73091364Y-57926000D01*
X73988314Y-57926000D01*
X73962507Y-57966156D01*
X73922000Y-58104111D01*
X73922000Y-58247889D01*
X73962507Y-58385844D01*
X73988314Y-58426000D01*
X73091364Y-58426000D01*
X73148569Y-58639492D01*
X73248399Y-58853576D01*
X73383893Y-59047081D01*
X73550918Y-59214106D01*
X73744423Y-59349600D01*
X73958509Y-59449430D01*
X74172000Y-59506634D01*
X74172000Y-58611501D01*
X74279685Y-58660680D01*
X74386237Y-58676000D01*
X74457763Y-58676000D01*
X74564315Y-58660680D01*
X74672000Y-58611501D01*
X74672000Y-59506633D01*
X74885490Y-59449430D01*
X75099576Y-59349600D01*
X75293081Y-59214106D01*
X75460106Y-59047081D01*
X75595600Y-58853576D01*
X75695430Y-58639492D01*
X75752636Y-58426000D01*
X74855686Y-58426000D01*
X74881493Y-58385844D01*
X74922000Y-58247889D01*
X74922000Y-58104111D01*
X74881493Y-57966156D01*
X74855686Y-57926000D01*
X75752636Y-57926000D01*
X75752635Y-57925999D01*
X75695430Y-57712507D01*
X75595599Y-57498421D01*
X75460109Y-57304921D01*
X75293081Y-57137893D01*
X75107404Y-57007880D01*
X75063780Y-56953303D01*
X75056587Y-56883804D01*
X75088109Y-56821450D01*
X75107399Y-56804734D01*
X75293401Y-56674495D01*
X75460495Y-56507401D01*
X75596035Y-56313830D01*
X75695903Y-56099663D01*
X75757063Y-55871408D01*
X75777659Y-55636000D01*
X75757906Y-55410233D01*
X75757063Y-55400592D01*
X75744847Y-55355000D01*
X75695903Y-55172337D01*
X75596035Y-54958171D01*
X75460495Y-54764599D01*
X75293401Y-54597505D01*
X75107839Y-54467573D01*
X75064216Y-54412998D01*
X75057022Y-54343500D01*
X75088545Y-54281145D01*
X75107837Y-54264428D01*
X75293401Y-54134495D01*
X75460495Y-53967401D01*
X75596035Y-53773830D01*
X75695903Y-53559663D01*
X75757063Y-53331408D01*
X75777659Y-53096000D01*
X75757063Y-52860592D01*
X75695903Y-52632337D01*
X75596035Y-52418171D01*
X75460495Y-52224599D01*
X75338569Y-52102672D01*
X75305084Y-52041350D01*
X75310068Y-51971658D01*
X75351940Y-51915725D01*
X75382915Y-51898810D01*
X75514331Y-51849796D01*
X75629546Y-51763546D01*
X75715796Y-51648331D01*
X75766091Y-51513483D01*
X75772500Y-51453873D01*
X75772499Y-49658128D01*
X75766091Y-49598517D01*
X75715796Y-49463669D01*
X75629546Y-49348454D01*
X75514331Y-49262204D01*
X75379483Y-49211909D01*
X75319873Y-49205500D01*
X75316550Y-49205500D01*
X73527439Y-49205500D01*
X73527420Y-49205500D01*
X73524128Y-49205501D01*
X73520848Y-49205853D01*
X73520840Y-49205854D01*
X73464515Y-49211909D01*
X73329669Y-49262204D01*
X73214454Y-49348454D01*
X73128204Y-49463668D01*
X73077909Y-49598516D01*
X73072025Y-49653248D01*
X73071500Y-49658127D01*
X73071500Y-49661448D01*
X73071500Y-49661449D01*
X73071500Y-51450560D01*
X73071500Y-51450578D01*
X73071501Y-51453872D01*
X73077909Y-51513483D01*
X73128204Y-51648331D01*
X73214454Y-51763546D01*
X73329669Y-51849796D01*
X73440371Y-51891085D01*
X73461082Y-51898810D01*
X73517016Y-51940681D01*
X73541433Y-52006146D01*
X73526581Y-52074419D01*
X73505431Y-52102673D01*
X73383503Y-52224601D01*
X73247965Y-52418170D01*
X73148097Y-52632336D01*
X73086936Y-52860592D01*
X73066340Y-53096000D01*
X73086936Y-53331407D01*
X73093660Y-53356500D01*
X73148097Y-53559663D01*
X73247965Y-53773830D01*
X73383505Y-53967401D01*
X73550599Y-54134495D01*
X73736160Y-54264426D01*
X73779783Y-54319002D01*
X73786976Y-54388501D01*
X73755454Y-54450855D01*
X73736159Y-54467575D01*
X73550595Y-54597508D01*
X73409594Y-54738510D01*
X73348271Y-54771995D01*
X73278579Y-54767011D01*
X73234232Y-54738510D01*
X72633377Y-54137655D01*
X72633376Y-54137653D01*
X72599018Y-54103295D01*
X72495576Y-53999853D01*
X72464359Y-53980238D01*
X72453026Y-53972196D01*
X72424202Y-53949210D01*
X72424201Y-53949209D01*
X72390981Y-53933211D01*
X72378811Y-53926485D01*
X72347605Y-53906877D01*
X72312815Y-53894703D01*
X72299972Y-53889384D01*
X72266752Y-53873387D01*
X72230818Y-53865185D01*
X72217460Y-53861336D01*
X72182657Y-53849158D01*
X72146018Y-53845030D01*
X72132311Y-53842701D01*
X72096379Y-53834500D01*
X72096378Y-53834500D01*
X72052552Y-53834500D01*
X67524378Y-53834500D01*
X67349622Y-53834500D01*
X67313675Y-53842703D01*
X67299981Y-53845030D01*
X67263340Y-53849158D01*
X67228541Y-53861335D01*
X67215185Y-53865183D01*
X67179248Y-53873386D01*
X67146030Y-53889382D01*
X67133191Y-53894700D01*
X67098393Y-53906877D01*
X67067180Y-53926489D01*
X67055012Y-53933214D01*
X67021797Y-53949209D01*
X66992966Y-53972200D01*
X66981630Y-53980243D01*
X66950426Y-53999850D01*
X66909688Y-54040589D01*
X66826853Y-54123424D01*
X66826851Y-54123426D01*
X66499422Y-54450855D01*
X66188424Y-54761853D01*
X66102420Y-54847857D01*
X66041096Y-54881341D01*
X65971405Y-54876357D01*
X65915471Y-54834485D01*
X65891381Y-54772776D01*
X65887256Y-54732394D01*
X65833946Y-54571513D01*
X65744973Y-54427267D01*
X65625132Y-54307426D01*
X65480886Y-54218453D01*
X65320006Y-54165143D01*
X65223845Y-54155319D01*
X65217568Y-54155000D01*
X65172400Y-54155000D01*
X65172400Y-55231000D01*
X65152715Y-55298039D01*
X65099911Y-55343794D01*
X65048400Y-55355000D01*
X63275000Y-55355000D01*
X63207961Y-55335315D01*
X63162206Y-55282511D01*
X63151000Y-55231000D01*
X63150999Y-54155000D01*
X63651000Y-54155000D01*
X63651000Y-54855000D01*
X64672399Y-54855000D01*
X64672399Y-54155000D01*
X64627235Y-54155000D01*
X64620951Y-54155321D01*
X64524794Y-54165143D01*
X64363914Y-54218453D01*
X64226795Y-54303029D01*
X64159403Y-54321469D01*
X64096602Y-54303028D01*
X63959486Y-54218453D01*
X63798606Y-54165143D01*
X63702445Y-54155319D01*
X63696168Y-54155000D01*
X63651000Y-54155000D01*
X63150999Y-54155000D01*
X63105835Y-54155000D01*
X63099548Y-54155321D01*
X63015100Y-54163947D01*
X62946407Y-54151177D01*
X62895524Y-54103295D01*
X62878500Y-54040589D01*
X62878500Y-52131000D01*
X65875000Y-52131000D01*
X65875000Y-52769196D01*
X65875191Y-52774076D01*
X65877900Y-52808493D01*
X65923717Y-52966197D01*
X66007317Y-53107557D01*
X66123442Y-53223682D01*
X66264799Y-53307280D01*
X66422511Y-53353099D01*
X66425000Y-53353295D01*
X66425000Y-52131000D01*
X65875000Y-52131000D01*
X62878500Y-52131000D01*
X62878500Y-51631000D01*
X65875000Y-51631000D01*
X66425000Y-51631000D01*
X66425000Y-50408703D01*
X66422512Y-50408900D01*
X66264799Y-50454719D01*
X66123442Y-50538317D01*
X66007317Y-50654442D01*
X65923717Y-50795802D01*
X65877900Y-50953506D01*
X65875191Y-50987923D01*
X65875000Y-50992803D01*
X65875000Y-51631000D01*
X62878500Y-51631000D01*
X62878500Y-51426583D01*
X62898185Y-51359544D01*
X62914814Y-51338907D01*
X64133878Y-50119842D01*
X64195199Y-50086359D01*
X64264889Y-50091342D01*
X64264891Y-50091343D01*
X64264892Y-50091344D01*
X64315524Y-50110229D01*
X64320517Y-50112091D01*
X64380127Y-50118500D01*
X66175872Y-50118499D01*
X66235483Y-50112091D01*
X66370331Y-50061796D01*
X66485546Y-49975546D01*
X66571796Y-49860331D01*
X66621003Y-49728399D01*
X66662873Y-49672467D01*
X66728337Y-49648050D01*
X66796610Y-49662901D01*
X66824865Y-49684053D01*
X66946918Y-49806106D01*
X67140423Y-49941600D01*
X67354509Y-50041430D01*
X67568000Y-50098634D01*
X67568000Y-49203501D01*
X67675685Y-49252680D01*
X67782237Y-49268000D01*
X67853763Y-49268000D01*
X67960315Y-49252680D01*
X68068000Y-49203501D01*
X68068000Y-50098633D01*
X68283407Y-50040917D01*
X68353257Y-50042580D01*
X68411119Y-50081743D01*
X68438623Y-50145971D01*
X68439500Y-50160692D01*
X68439500Y-50313537D01*
X68419815Y-50380576D01*
X68367011Y-50426331D01*
X68297853Y-50436275D01*
X68280905Y-50432613D01*
X68197572Y-50408402D01*
X68163128Y-50405691D01*
X68163114Y-50405690D01*
X68160694Y-50405500D01*
X67729306Y-50405500D01*
X67726886Y-50405690D01*
X67726871Y-50405691D01*
X67692427Y-50408402D01*
X67534602Y-50454255D01*
X67379652Y-50545893D01*
X67378528Y-50543992D01*
X67335986Y-50567214D01*
X67266296Y-50562219D01*
X67240446Y-50545603D01*
X67240040Y-50546291D01*
X67085200Y-50454719D01*
X66927487Y-50408900D01*
X66924999Y-50408703D01*
X66925000Y-53353295D01*
X66927488Y-53353099D01*
X67085200Y-53307280D01*
X67240040Y-53215709D01*
X67241245Y-53217746D01*
X67283269Y-53194792D01*
X67352962Y-53199766D01*
X67379305Y-53216693D01*
X67379652Y-53216107D01*
X67534602Y-53307744D01*
X67692427Y-53353597D01*
X67692431Y-53353598D01*
X67729306Y-53356500D01*
X67731751Y-53356500D01*
X68158249Y-53356500D01*
X68160694Y-53356500D01*
X68197569Y-53353598D01*
X68355398Y-53307744D01*
X68449543Y-53252066D01*
X68510349Y-53216107D01*
X68511545Y-53218129D01*
X68553633Y-53195144D01*
X68623325Y-53200123D01*
X68649250Y-53216784D01*
X68649651Y-53216107D01*
X68804602Y-53307744D01*
X68962427Y-53353597D01*
X68962431Y-53353598D01*
X68999306Y-53356500D01*
X69001751Y-53356500D01*
X69428249Y-53356500D01*
X69430694Y-53356500D01*
X69467569Y-53353598D01*
X69625398Y-53307744D01*
X69719543Y-53252066D01*
X69780349Y-53216107D01*
X69781545Y-53218129D01*
X69823633Y-53195144D01*
X69893325Y-53200123D01*
X69919250Y-53216784D01*
X69919651Y-53216107D01*
X70074602Y-53307744D01*
X70232427Y-53353597D01*
X70232431Y-53353598D01*
X70269306Y-53356500D01*
X70271751Y-53356500D01*
X70698249Y-53356500D01*
X70700694Y-53356500D01*
X70737569Y-53353598D01*
X70895398Y-53307744D01*
X71036865Y-53224081D01*
X71153081Y-53107865D01*
X71236744Y-52966398D01*
X71282598Y-52808569D01*
X71285500Y-52771694D01*
X71285500Y-51994914D01*
X71286280Y-51981030D01*
X71290565Y-51943000D01*
X71287492Y-51915725D01*
X71286279Y-51904967D01*
X71285500Y-51891085D01*
X71285500Y-50992751D01*
X71285500Y-50990306D01*
X71282598Y-50953431D01*
X71236744Y-50795602D01*
X71153081Y-50654135D01*
X71036865Y-50537919D01*
X70906763Y-50460977D01*
X70895397Y-50454255D01*
X70737572Y-50408402D01*
X70703128Y-50405691D01*
X70703114Y-50405690D01*
X70700694Y-50405500D01*
X70269306Y-50405500D01*
X70266886Y-50405690D01*
X70266871Y-50405691D01*
X70232427Y-50408402D01*
X70149095Y-50432613D01*
X70079226Y-50432414D01*
X70020556Y-50394472D01*
X69991712Y-50330834D01*
X69990500Y-50313537D01*
X69990500Y-50283584D01*
X70010185Y-50216545D01*
X70026819Y-50195903D01*
X70079008Y-50143714D01*
X70140331Y-50110229D01*
X70177497Y-50107867D01*
X70358000Y-50123659D01*
X70593408Y-50103063D01*
X70821663Y-50041903D01*
X71035830Y-49942035D01*
X71229401Y-49806495D01*
X71396495Y-49639401D01*
X71532035Y-49445830D01*
X71631903Y-49231663D01*
X71693063Y-49003408D01*
X71713659Y-48768000D01*
X71693063Y-48532592D01*
X71631903Y-48304337D01*
X71532035Y-48090171D01*
X71396495Y-47896599D01*
X71229401Y-47729505D01*
X71035830Y-47593965D01*
X70821663Y-47494097D01*
X70760502Y-47477709D01*
X70593407Y-47432936D01*
X70358000Y-47412340D01*
X70122592Y-47432936D01*
X69894336Y-47494097D01*
X69680170Y-47593965D01*
X69486598Y-47729505D01*
X69319508Y-47896595D01*
X69189269Y-48082596D01*
X69134692Y-48126220D01*
X69065193Y-48133413D01*
X69002839Y-48101891D01*
X68986119Y-48082595D01*
X68856109Y-47896921D01*
X68689081Y-47729893D01*
X68495576Y-47594399D01*
X68281492Y-47494569D01*
X68068000Y-47437364D01*
X68068000Y-48332498D01*
X67960315Y-48283320D01*
X67853763Y-48268000D01*
X67782237Y-48268000D01*
X67675685Y-48283320D01*
X67568000Y-48332498D01*
X67568000Y-47437364D01*
X67567999Y-47437364D01*
X67354507Y-47494569D01*
X67140421Y-47594400D01*
X66946924Y-47729888D01*
X66824865Y-47851947D01*
X66763542Y-47885431D01*
X66693850Y-47880447D01*
X66637917Y-47838575D01*
X66621002Y-47807598D01*
X66592018Y-47729888D01*
X66571796Y-47675669D01*
X66485546Y-47560454D01*
X66370331Y-47474204D01*
X66235483Y-47423909D01*
X66175873Y-47417500D01*
X66172550Y-47417500D01*
X64383439Y-47417500D01*
X64383420Y-47417500D01*
X64380128Y-47417501D01*
X64376848Y-47417853D01*
X64376840Y-47417854D01*
X64320515Y-47423909D01*
X64185669Y-47474204D01*
X64070454Y-47560454D01*
X63984204Y-47675668D01*
X63933909Y-47810516D01*
X63929455Y-47851947D01*
X63927500Y-47870127D01*
X63927500Y-47873448D01*
X63927500Y-47873449D01*
X63927500Y-48081414D01*
X63907815Y-48148453D01*
X63891180Y-48169096D01*
X63853996Y-48206278D01*
X63853992Y-48206284D01*
X61810980Y-50249296D01*
X61749657Y-50282781D01*
X61679965Y-50277797D01*
X61624032Y-50235925D01*
X61599615Y-50170461D01*
X61599299Y-50161615D01*
X61599299Y-49661439D01*
X61599299Y-49658128D01*
X61592891Y-49598517D01*
X61542596Y-49463669D01*
X61456346Y-49348454D01*
X61341131Y-49262204D01*
X61206283Y-49211909D01*
X61146673Y-49205500D01*
X61143350Y-49205500D01*
X59354239Y-49205500D01*
X59354220Y-49205500D01*
X59350928Y-49205501D01*
X59347648Y-49205853D01*
X59347640Y-49205854D01*
X59291315Y-49211909D01*
X59156469Y-49262204D01*
X59041254Y-49348454D01*
X58955004Y-49463668D01*
X58904709Y-49598516D01*
X58898825Y-49653248D01*
X58898300Y-49658127D01*
X58898300Y-49661448D01*
X58898300Y-49661449D01*
X58898300Y-51450560D01*
X58898300Y-51450578D01*
X58898301Y-51453872D01*
X58904709Y-51513483D01*
X58955004Y-51648331D01*
X59041254Y-51763546D01*
X59156469Y-51849796D01*
X59267171Y-51891085D01*
X59287882Y-51898810D01*
X59343816Y-51940681D01*
X59368233Y-52006146D01*
X59353381Y-52074419D01*
X59332231Y-52102673D01*
X59210303Y-52224601D01*
X59074765Y-52418170D01*
X58974897Y-52632336D01*
X58913736Y-52860592D01*
X58893140Y-53095999D01*
X58913736Y-53331407D01*
X58920460Y-53356500D01*
X58974897Y-53559663D01*
X59074765Y-53773830D01*
X59210305Y-53967401D01*
X59377399Y-54134495D01*
X59562960Y-54264426D01*
X59606583Y-54319002D01*
X59613776Y-54388501D01*
X59582254Y-54450855D01*
X59562959Y-54467575D01*
X59377395Y-54597508D01*
X59210305Y-54764598D01*
X59074765Y-54958170D01*
X58974897Y-55172336D01*
X58913736Y-55400592D01*
X58893140Y-55635999D01*
X58166500Y-55635999D01*
X58166500Y-47163578D01*
X58186185Y-47096539D01*
X58238989Y-47050784D01*
X58289275Y-47039584D01*
X63267856Y-46990500D01*
X76075503Y-46990500D01*
X76142540Y-47010184D01*
G37*
%TD.AperFunction*%
%TD*%
M02*
