0
SECTION
2
ENTITIES
0
CIRCLE
8
holes
62
1
10
20.71
20
45.72
40
0.5
0
CIRCLE
8
holes
62
1
10
20.71
20
43.18
40
0.5
0
CIRCLE
8
holes
62
1
10
20.71
20
40.64
40
0.5
0
CIRCLE
8
holes
62
1
10
20.71
20
38.1
40
0.5
0
CIRCLE
8
holes
62
1
10
20.71
20
35.56
40
0.5
0
CIRCLE
8
holes
62
1
10
20.71
20
33.02
40
0.5
0
CIRCLE
8
holes
62
1
10
20.71
20
30.48
40
0.5
0
CIRCLE
8
holes
62
1
10
20.71
20
27.94
40
0.5
0
CIRCLE
8
holes
62
1
10
23.25
20
45.72
40
0.5
0
CIRCLE
8
holes
62
1
10
23.25
20
43.18
40
0.5
0
CIRCLE
8
holes
62
1
10
23.25
20
40.64
40
0.5
0
CIRCLE
8
holes
62
1
10
23.25
20
38.1
40
0.5
0
CIRCLE
8
holes
62
1
10
23.25
20
35.56
40
0.5
0
CIRCLE
8
holes
62
1
10
23.25
20
33.02
40
0.5
0
CIRCLE
8
holes
62
1
10
23.25
20
30.48
40
0.5
0
CIRCLE
8
holes
62
1
10
23.25
20
27.94
40
0.5
0
CIRCLE
8
holes
62
1
10
133.75
20
57.15
40
0.5
0
CIRCLE
8
holes
62
1
10
133.75
20
54.61
40
0.5
0
CIRCLE
8
holes
62
1
10
133.75
20
52.07
40
0.5
0
CIRCLE
8
holes
62
1
10
133.75
20
49.53
40
0.5
0
CIRCLE
8
holes
62
1
10
136.29
20
57.15
40
0.5
0
CIRCLE
8
holes
62
1
10
136.29
20
54.61
40
0.5
0
CIRCLE
8
holes
62
1
10
136.29
20
52.07
40
0.5
0
CIRCLE
8
holes
62
1
10
136.29
20
49.53
40
0.5
0
CIRCLE
8
holes
62
1
10
138.83
20
57.15
40
0.5
0
CIRCLE
8
holes
62
1
10
138.83
20
54.61
40
0.5
0
CIRCLE
8
holes
62
1
10
138.83
20
52.07
40
0.5
0
CIRCLE
8
holes
62
1
10
138.83
20
49.53
40
0.5
0
CIRCLE
8
holes
62
1
10
141.38
20
57.15
40
0.5
0
CIRCLE
8
holes
62
1
10
141.38
20
54.61
40
0.5
0
CIRCLE
8
holes
62
1
10
141.38
20
52.07
40
0.5
0
CIRCLE
8
holes
62
1
10
141.38
20
49.53
40
0.5
0
CIRCLE
8
holes
62
1
10
192.17
20
57.15
40
0.5
0
CIRCLE
8
holes
62
1
10
192.17
20
54.61
40
0.5
0
CIRCLE
8
holes
62
1
10
192.17
20
52.07
40
0.5
0
CIRCLE
8
holes
62
1
10
197.25
20
57.15
40
0.5
0
CIRCLE
8
holes
62
1
10
197.25
20
54.61
40
0.5
0
CIRCLE
8
holes
62
1
10
197.25
20
52.07
40
0.5
0
CIRCLE
8
holes
62
1
10
202.33
20
57.15
40
0.5
0
CIRCLE
8
holes
62
1
10
202.33
20
54.61
40
0.5
0
CIRCLE
8
holes
62
1
10
202.33
20
52.07
40
0.5
0
CIRCLE
8
holes
62
1
10
214.93
20
47.44
40
0.5
0
CIRCLE
8
holes
62
1
10
214.93
20
44.9
40
0.5
0
CIRCLE
8
holes
62
1
10
217.47
20
47.44
40
0.5
0
CIRCLE
8
holes
62
1
10
217.47
20
44.9
40
0.5
0
CIRCLE
8
holes
62
1
10
220.01
20
47.44
40
0.5
0
CIRCLE
8
holes
62
1
10
220.01
20
44.9
40
0.5
0
CIRCLE
8
holes
62
1
10
222.55
20
47.44
40
0.5
0
CIRCLE
8
holes
62
1
10
222.55
20
44.9
40
0.5
0
CIRCLE
8
holes
62
1
10
225.09
20
47.44
40
0.5
0
CIRCLE
8
holes
62
1
10
225.09
20
44.9
40
0.5
0
CIRCLE
8
holes
62
1
10
227.63
20
47.44
40
0.5
0
CIRCLE
8
holes
62
1
10
227.63
20
44.9
40
0.5
0
CIRCLE
8
holes
62
1
10
230.17
20
47.44
40
0.5
0
CIRCLE
8
holes
62
1
10
230.17
20
44.9
40
0.5
0
CIRCLE
8
holes
62
1
10
232.71
20
47.44
40
0.5
0
CIRCLE
8
holes
62
1
10
232.71
20
44.9
40
0.5
0
CIRCLE
8
holes
62
1
10
103.27
20
62.865
40
0.508
0
CIRCLE
8
holes
62
1
10
103.27
20
60.325
40
0.508
0
CIRCLE
8
holes
62
1
10
103.27
20
57.785
40
0.508
0
CIRCLE
8
holes
62
1
10
103.27
20
55.245
40
0.508
0
CIRCLE
8
holes
62
1
10
103.27
20
52.705
40
0.508
0
CIRCLE
8
holes
62
1
10
103.27
20
50.165
40
0.508
0
CIRCLE
8
holes
62
1
10
103.27
20
47.625
40
0.508
0
CIRCLE
8
holes
62
1
10
103.27
20
45.085
40
0.508
0
CIRCLE
8
holes
62
1
10
103.27
20
42.545
40
0.508
0
CIRCLE
8
holes
62
1
10
103.27
20
40.005
40
0.508
0
CIRCLE
8
holes
62
1
10
103.27
20
37.465
40
0.508
0
CIRCLE
8
holes
62
1
10
103.27
20
34.925
40
0.508
0
CIRCLE
8
holes
62
1
10
103.27
20
32.385
40
0.508
0
CIRCLE
8
holes
62
1
10
103.27
20
29.845
40
0.508
0
CIRCLE
8
holes
62
1
10
103.27
20
27.305
40
0.508
0
CIRCLE
8
holes
62
1
10
118.51
20
62.865
40
0.508
0
CIRCLE
8
holes
62
1
10
118.51
20
60.325
40
0.508
0
CIRCLE
8
holes
62
1
10
118.51
20
57.785
40
0.508
0
CIRCLE
8
holes
62
1
10
118.51
20
55.245
40
0.508
0
CIRCLE
8
holes
62
1
10
118.51
20
52.705
40
0.508
0
CIRCLE
8
holes
62
1
10
118.51
20
50.165
40
0.508
0
CIRCLE
8
holes
62
1
10
118.51
20
47.625
40
0.508
0
CIRCLE
8
holes
62
1
10
118.51
20
45.085
40
0.508
0
CIRCLE
8
holes
62
1
10
118.51
20
42.545
40
0.508
0
CIRCLE
8
holes
62
1
10
118.51
20
40.005
40
0.508
0
CIRCLE
8
holes
62
1
10
118.51
20
37.465
40
0.508
0
CIRCLE
8
holes
62
1
10
118.51
20
34.925
40
0.508
0
CIRCLE
8
holes
62
1
10
118.51
20
32.385
40
0.508
0
CIRCLE
8
holes
62
1
10
118.51
20
29.845
40
0.508
0
CIRCLE
8
holes
62
1
10
118.51
20
27.305
40
0.508
0
CIRCLE
8
holes
62
1
10
91.84
20
11.43
40
0.55
0
CIRCLE
8
holes
62
1
10
91.84
20
8.89
40
0.55
0
CIRCLE
8
holes
62
1
10
91.84
20
6.35
40
0.55
0
CIRCLE
8
holes
62
1
10
96.285
20
8.89
40
0.6
0
CIRCLE
8
holes
62
1
10
121.685
20
8.89
40
0.6
0
CIRCLE
8
holes
62
1
10
44.215
20
17.78
40
0.65
0
CIRCLE
8
holes
62
1
10
66.215
20
17.78
40
0.65
0
CIRCLE
8
holes
62
1
10
42.945
20
7.62
40
0.76
0
CIRCLE
8
holes
62
1
10
48.025
20
7.62
40
0.76
0
CIRCLE
8
holes
62
1
10
53.105
20
7.62
40
0.76
0
CIRCLE
8
holes
62
1
10
58.185
20
7.62
40
0.76
0
CIRCLE
8
holes
62
1
10
63.265
20
7.62
40
0.76
0
CIRCLE
8
holes
62
1
10
68.345
20
7.62
40
0.76
0
CIRCLE
8
holes
62
1
10
19.195
20
9.21
40
0.925
0
CIRCLE
8
holes
62
1
10
19.195
20
6.03
40
0.925
0
CIRCLE
8
holes
62
1
10
22.27
20
7.62
40
0.925
0
CIRCLE
8
holes
62
1
10
27.07
20
7.62
40
0.925
0
CIRCLE
8
holes
62
1
10
31.77
20
7.62
40
0.925
0
CIRCLE
8
holes
62
1
10
34.945
20
9.21
40
0.925
0
CIRCLE
8
holes
62
1
10
34.945
20
6.03
40
0.925
0
CIRCLE
8
holes
62
1
10
5.0
20
62.5
40
1.6
0
CIRCLE
8
holes
62
1
10
5.0
20
4.5
40
1.6
0
CIRCLE
8
holes
62
1
10
92.5
20
43.5
40
1.6
0
CIRCLE
8
holes
62
1
10
148.5
20
21.5
40
1.6
0
CIRCLE
8
holes
62
1
10
233.0
20
62.5
40
1.6
0
CIRCLE
8
holes
62
1
10
233.0
20
4.5
40
1.6
0
CIRCLE
8
holes
62
1
10
55.465
20
17.78
40
1.35
0
CIRCLE
8
holes
62
1
10
75.18
20
8.89
40
1.75
0
LINE
8
box
62
7
10
0
20
2.0
11
0
21
65.0
0
LINE
8
box
62
7
10
2.0
20
67.0
11
236.0
21
67.0
0
LINE
8
box
62
7
10
238.0
20
65.0
11
238.0
21
2.0
0
LINE
8
box
62
7
10
236.0
20
0
11
2.0
21
0
0
ARC
8
box
62
7
10
2.0
20
2.0
40
2.0
50
180
51
270
0
ARC
8
box
62
7
10
2.0
20
65.0
40
2.0
50
90
51
180
0
ARC
8
box
62
7
10
236.0
20
65.0
40
2.0
50
0
51
90
0
ARC
8
box
62
7
10
236.0
20
2.0
40
2.0
50
270
51
0
0
ENDSEC
0
EOF
