0
SECTION
2
ENTITIES
0
CIRCLE
8
holes
62
1
10
214.93
20
22.1
40
0.5
0
CIRCLE
8
holes
62
1
10
214.93
20
19.56
40
0.5
0
CIRCLE
8
holes
62
1
10
217.47
20
22.1
40
0.5
0
CIRCLE
8
holes
62
1
10
217.47
20
19.56
40
0.5
0
CIRCLE
8
holes
62
1
10
220.01
20
22.1
40
0.5
0
CIRCLE
8
holes
62
1
10
220.01
20
19.56
40
0.5
0
CIRCLE
8
holes
62
1
10
222.55
20
22.1
40
0.5
0
CIRCLE
8
holes
62
1
10
222.55
20
19.56
40
0.5
0
CIRCLE
8
holes
62
1
10
225.09
20
22.1
40
0.5
0
CIRCLE
8
holes
62
1
10
225.09
20
19.56
40
0.5
0
CIRCLE
8
holes
62
1
10
227.63
20
22.1
40
0.5
0
CIRCLE
8
holes
62
1
10
227.63
20
19.56
40
0.5
0
CIRCLE
8
holes
62
1
10
230.17
20
22.1
40
0.5
0
CIRCLE
8
holes
62
1
10
230.17
20
19.56
40
0.5
0
CIRCLE
8
holes
62
1
10
232.71
20
22.1
40
0.5
0
CIRCLE
8
holes
62
1
10
232.71
20
19.56
40
0.5
0
CIRCLE
8
holes
62
1
10
19.0
20
40.0
40
0.55
0
CIRCLE
8
holes
62
1
10
27.0
20
7.0
40
0.55
0
CIRCLE
8
holes
62
1
10
29.16
20
40.0
40
0.55
0
CIRCLE
8
holes
62
1
10
35.0
20
62.0
40
0.55
0
CIRCLE
8
holes
62
1
10
37.16
20
7.0
40
0.55
0
CIRCLE
8
holes
62
1
10
43.0
20
40.0
40
0.55
0
CIRCLE
8
holes
62
1
10
45.16
20
62.0
40
0.55
0
CIRCLE
8
holes
62
1
10
51.0
20
7.0
40
0.55
0
CIRCLE
8
holes
62
1
10
53.16
20
40.0
40
0.55
0
CIRCLE
8
holes
62
1
10
59.0
20
62.0
40
0.55
0
CIRCLE
8
holes
62
1
10
61.16
20
7.0
40
0.55
0
CIRCLE
8
holes
62
1
10
67.0
20
40.0
40
0.55
0
CIRCLE
8
holes
62
1
10
69.16
20
62.0
40
0.55
0
CIRCLE
8
holes
62
1
10
75.0
20
7.0
40
0.55
0
CIRCLE
8
holes
62
1
10
77.16
20
40.0
40
0.55
0
CIRCLE
8
holes
62
1
10
83.0
20
62.0
40
0.55
0
CIRCLE
8
holes
62
1
10
85.16
20
7.0
40
0.55
0
CIRCLE
8
holes
62
1
10
91.0
20
40.0
40
0.55
0
CIRCLE
8
holes
62
1
10
93.16
20
62.0
40
0.55
0
CIRCLE
8
holes
62
1
10
99.0
20
7.0
40
0.55
0
CIRCLE
8
holes
62
1
10
101.16
20
40.0
40
0.55
0
CIRCLE
8
holes
62
1
10
107.0
20
62.0
40
0.55
0
CIRCLE
8
holes
62
1
10
109.16
20
7.0
40
0.55
0
CIRCLE
8
holes
62
1
10
115.0
20
40.0
40
0.55
0
CIRCLE
8
holes
62
1
10
117.16
20
62.0
40
0.55
0
CIRCLE
8
holes
62
1
10
123.0
20
7.0
40
0.55
0
CIRCLE
8
holes
62
1
10
125.16
20
40.0
40
0.55
0
CIRCLE
8
holes
62
1
10
131.0
20
62.0
40
0.55
0
CIRCLE
8
holes
62
1
10
133.16
20
7.0
40
0.55
0
CIRCLE
8
holes
62
1
10
139.0
20
40.0
40
0.55
0
CIRCLE
8
holes
62
1
10
141.16
20
62.0
40
0.55
0
CIRCLE
8
holes
62
1
10
147.0
20
7.0
40
0.55
0
CIRCLE
8
holes
62
1
10
149.16
20
40.0
40
0.55
0
CIRCLE
8
holes
62
1
10
155.0
20
62.0
40
0.55
0
CIRCLE
8
holes
62
1
10
157.16
20
7.0
40
0.55
0
CIRCLE
8
holes
62
1
10
163.0
20
40.0
40
0.55
0
CIRCLE
8
holes
62
1
10
165.16
20
62.0
40
0.55
0
CIRCLE
8
holes
62
1
10
171.0
20
7.0
40
0.55
0
CIRCLE
8
holes
62
1
10
173.16
20
40.0
40
0.55
0
CIRCLE
8
holes
62
1
10
179.0
20
62.0
40
0.55
0
CIRCLE
8
holes
62
1
10
181.16
20
7.0
40
0.55
0
CIRCLE
8
holes
62
1
10
187.0
20
40.0
40
0.55
0
CIRCLE
8
holes
62
1
10
189.16
20
62.0
40
0.55
0
CIRCLE
8
holes
62
1
10
195.0
20
7.0
40
0.55
0
CIRCLE
8
holes
62
1
10
197.16
20
40.0
40
0.55
0
CIRCLE
8
holes
62
1
10
203.0
20
62.0
40
0.55
0
CIRCLE
8
holes
62
1
10
205.16
20
7.0
40
0.55
0
CIRCLE
8
holes
62
1
10
211.0
20
40.0
40
0.55
0
CIRCLE
8
holes
62
1
10
213.16
20
62.0
40
0.55
0
CIRCLE
8
holes
62
1
10
221.16
20
40.0
40
0.55
0
CIRCLE
8
holes
62
1
10
222.92
20
12.5
40
0.55
0
CIRCLE
8
holes
62
1
10
225.42
20
45.0
40
0.55
0
CIRCLE
8
holes
62
1
10
227.92
20
50.5
40
0.55
0
CIRCLE
8
holes
62
1
10
233.08
20
12.5
40
0.55
0
CIRCLE
8
holes
62
1
10
235.58
20
45.0
40
0.55
0
CIRCLE
8
holes
62
1
10
238.08
20
50.5
40
0.55
0
CIRCLE
8
holes
62
1
10
4.0
20
34.5
40
0.6
0
CIRCLE
8
holes
62
1
10
12.0
20
12.5
40
0.6
0
CIRCLE
8
holes
62
1
10
19.0
20
34.5
40
0.6
0
CIRCLE
8
holes
62
1
10
20.0
20
56.5
40
0.6
0
CIRCLE
8
holes
62
1
10
27.0
20
12.5
40
0.6
0
CIRCLE
8
holes
62
1
10
28.0
20
34.5
40
0.6
0
CIRCLE
8
holes
62
1
10
35.0
20
56.5
40
0.6
0
CIRCLE
8
holes
62
1
10
36.0
20
12.5
40
0.6
0
CIRCLE
8
holes
62
1
10
43.0
20
34.5
40
0.6
0
CIRCLE
8
holes
62
1
10
44.0
20
56.5
40
0.6
0
CIRCLE
8
holes
62
1
10
51.0
20
12.5
40
0.6
0
CIRCLE
8
holes
62
1
10
52.0
20
34.5
40
0.6
0
CIRCLE
8
holes
62
1
10
59.0
20
56.5
40
0.6
0
CIRCLE
8
holes
62
1
10
60.0
20
12.5
40
0.6
0
CIRCLE
8
holes
62
1
10
67.0
20
34.5
40
0.6
0
CIRCLE
8
holes
62
1
10
68.0
20
56.5
40
0.6
0
CIRCLE
8
holes
62
1
10
75.0
20
12.5
40
0.6
0
CIRCLE
8
holes
62
1
10
76.0
20
34.5
40
0.6
0
CIRCLE
8
holes
62
1
10
83.0
20
56.5
40
0.6
0
CIRCLE
8
holes
62
1
10
84.0
20
12.5
40
0.6
0
CIRCLE
8
holes
62
1
10
91.0
20
34.5
40
0.6
0
CIRCLE
8
holes
62
1
10
92.0
20
56.5
40
0.6
0
CIRCLE
8
holes
62
1
10
99.0
20
12.5
40
0.6
0
CIRCLE
8
holes
62
1
10
100.0
20
34.5
40
0.6
0
CIRCLE
8
holes
62
1
10
107.0
20
56.5
40
0.6
0
CIRCLE
8
holes
62
1
10
108.0
20
12.5
40
0.6
0
CIRCLE
8
holes
62
1
10
115.0
20
34.5
40
0.6
0
CIRCLE
8
holes
62
1
10
116.0
20
56.5
40
0.6
0
CIRCLE
8
holes
62
1
10
123.0
20
12.5
40
0.6
0
CIRCLE
8
holes
62
1
10
124.0
20
34.5
40
0.6
0
CIRCLE
8
holes
62
1
10
131.0
20
56.5
40
0.6
0
CIRCLE
8
holes
62
1
10
132.0
20
12.5
40
0.6
0
CIRCLE
8
holes
62
1
10
139.0
20
34.5
40
0.6
0
CIRCLE
8
holes
62
1
10
140.0
20
56.5
40
0.6
0
CIRCLE
8
holes
62
1
10
147.0
20
12.5
40
0.6
0
CIRCLE
8
holes
62
1
10
148.0
20
34.5
40
0.6
0
CIRCLE
8
holes
62
1
10
155.0
20
56.5
40
0.6
0
CIRCLE
8
holes
62
1
10
156.0
20
12.5
40
0.6
0
CIRCLE
8
holes
62
1
10
163.0
20
34.5
40
0.6
0
CIRCLE
8
holes
62
1
10
164.0
20
56.5
40
0.6
0
CIRCLE
8
holes
62
1
10
171.0
20
12.5
40
0.6
0
CIRCLE
8
holes
62
1
10
172.0
20
34.5
40
0.6
0
CIRCLE
8
holes
62
1
10
179.0
20
56.5
40
0.6
0
CIRCLE
8
holes
62
1
10
180.0
20
12.5
40
0.6
0
CIRCLE
8
holes
62
1
10
187.0
20
34.5
40
0.6
0
CIRCLE
8
holes
62
1
10
188.0
20
56.5
40
0.6
0
CIRCLE
8
holes
62
1
10
195.0
20
12.5
40
0.6
0
CIRCLE
8
holes
62
1
10
196.0
20
34.5
40
0.6
0
CIRCLE
8
holes
62
1
10
203.0
20
56.5
40
0.6
0
CIRCLE
8
holes
62
1
10
204.0
20
12.5
40
0.6
0
CIRCLE
8
holes
62
1
10
211.0
20
34.5
40
0.6
0
CIRCLE
8
holes
62
1
10
212.0
20
56.5
40
0.6
0
CIRCLE
8
holes
62
1
10
216.0
20
34.5
40
0.6
0
CIRCLE
8
holes
62
1
10
219.0
20
12.5
40
0.6
0
CIRCLE
8
holes
62
1
10
227.0
20
56.5
40
0.6
0
CIRCLE
8
holes
62
1
10
231.0
20
34.5
40
0.6
0
CIRCLE
8
holes
62
1
10
12.5
20
34.5
40
1.5
0
CIRCLE
8
holes
62
1
10
20.5
20
12.5
40
1.5
0
CIRCLE
8
holes
62
1
10
28.5
20
56.5
40
1.5
0
CIRCLE
8
holes
62
1
10
36.5
20
34.5
40
1.5
0
CIRCLE
8
holes
62
1
10
44.5
20
12.5
40
1.5
0
CIRCLE
8
holes
62
1
10
52.5
20
56.5
40
1.5
0
CIRCLE
8
holes
62
1
10
60.5
20
34.5
40
1.5
0
CIRCLE
8
holes
62
1
10
68.5
20
12.5
40
1.5
0
CIRCLE
8
holes
62
1
10
76.5
20
56.5
40
1.5
0
CIRCLE
8
holes
62
1
10
84.5
20
34.5
40
1.5
0
CIRCLE
8
holes
62
1
10
92.5
20
12.5
40
1.5
0
CIRCLE
8
holes
62
1
10
100.5
20
56.5
40
1.5
0
CIRCLE
8
holes
62
1
10
108.5
20
34.5
40
1.5
0
CIRCLE
8
holes
62
1
10
116.5
20
12.5
40
1.5
0
CIRCLE
8
holes
62
1
10
124.5
20
56.5
40
1.5
0
CIRCLE
8
holes
62
1
10
132.5
20
34.5
40
1.5
0
CIRCLE
8
holes
62
1
10
140.5
20
12.5
40
1.5
0
CIRCLE
8
holes
62
1
10
148.5
20
56.5
40
1.5
0
CIRCLE
8
holes
62
1
10
156.5
20
34.5
40
1.5
0
CIRCLE
8
holes
62
1
10
164.5
20
12.5
40
1.5
0
CIRCLE
8
holes
62
1
10
172.5
20
56.5
40
1.5
0
CIRCLE
8
holes
62
1
10
180.5
20
34.5
40
1.5
0
CIRCLE
8
holes
62
1
10
188.5
20
12.5
40
1.5
0
CIRCLE
8
holes
62
1
10
196.5
20
56.5
40
1.5
0
CIRCLE
8
holes
62
1
10
204.5
20
34.5
40
1.5
0
CIRCLE
8
holes
62
1
10
212.5
20
12.5
40
1.5
0
CIRCLE
8
holes
62
1
10
220.5
20
56.5
40
1.5
0
CIRCLE
8
holes
62
1
10
224.5
20
34.5
40
1.5
0
CIRCLE
8
holes
62
1
10
5.0
20
62.5
40
1.6
0
CIRCLE
8
holes
62
1
10
5.0
20
4.5
40
1.6
0
CIRCLE
8
holes
62
1
10
93.5
20
48.5
40
1.6
0
CIRCLE
8
holes
62
1
10
149.5
20
25.5
40
1.6
0
CIRCLE
8
holes
62
1
10
233.0
20
62.5
40
1.6
0
CIRCLE
8
holes
62
1
10
233.0
20
4.5
40
1.6
0
LINE
8
box
62
7
10
0
20
2.0
11
0
21
65.0
0
LINE
8
box
62
7
10
2.0
20
67.0
11
236.0
21
67.0
0
LINE
8
box
62
7
10
238.0
20
65.0
11
238.0
21
2.0
0
LINE
8
box
62
7
10
236.0
20
0
11
2.0
21
0
0
ARC
8
box
62
7
10
2.0
20
2.0
40
2.0
50
180
51
270
0
ARC
8
box
62
7
10
2.0
20
65.0
40
2.0
50
90
51
180
0
ARC
8
box
62
7
10
236.0
20
65.0
40
2.0
50
0
51
90
0
ARC
8
box
62
7
10
236.0
20
2.0
40
2.0
50
270
51
0
0
ENDSEC
0
EOF
