%TF.GenerationSoftware,KiCad,Pcbnew,7.0.2-0*%
%TF.CreationDate,2024-02-08T13:36:38+00:00*%
%TF.ProjectId,plugboard,706c7567-626f-4617-9264-2e6b69636164,rev?*%
%TF.SameCoordinates,PX1312d00PY68e7780*%
%TF.FileFunction,Legend,Bot*%
%TF.FilePolarity,Positive*%
%FSLAX46Y46*%
G04 Gerber Fmt 4.6, Leading zero omitted, Abs format (unit mm)*
G04 Created by KiCad (PCBNEW 7.0.2-0) date 2024-02-08 13:36:38*
%MOMM*%
%LPD*%
G01*
G04 APERTURE LIST*
%ADD10C,0.150000*%
G04 APERTURE END LIST*
D10*
%TO.C,J20*%
X179309523Y31707381D02*
X179309523Y30993096D01*
X179309523Y30993096D02*
X179357142Y30850239D01*
X179357142Y30850239D02*
X179452380Y30755000D01*
X179452380Y30755000D02*
X179595237Y30707381D01*
X179595237Y30707381D02*
X179690475Y30707381D01*
X178880951Y31612143D02*
X178833332Y31659762D01*
X178833332Y31659762D02*
X178738094Y31707381D01*
X178738094Y31707381D02*
X178499999Y31707381D01*
X178499999Y31707381D02*
X178404761Y31659762D01*
X178404761Y31659762D02*
X178357142Y31612143D01*
X178357142Y31612143D02*
X178309523Y31516905D01*
X178309523Y31516905D02*
X178309523Y31421667D01*
X178309523Y31421667D02*
X178357142Y31278810D01*
X178357142Y31278810D02*
X178928570Y30707381D01*
X178928570Y30707381D02*
X178309523Y30707381D01*
X177690475Y31707381D02*
X177595237Y31707381D01*
X177595237Y31707381D02*
X177499999Y31659762D01*
X177499999Y31659762D02*
X177452380Y31612143D01*
X177452380Y31612143D02*
X177404761Y31516905D01*
X177404761Y31516905D02*
X177357142Y31326429D01*
X177357142Y31326429D02*
X177357142Y31088334D01*
X177357142Y31088334D02*
X177404761Y30897858D01*
X177404761Y30897858D02*
X177452380Y30802620D01*
X177452380Y30802620D02*
X177499999Y30755000D01*
X177499999Y30755000D02*
X177595237Y30707381D01*
X177595237Y30707381D02*
X177690475Y30707381D01*
X177690475Y30707381D02*
X177785713Y30755000D01*
X177785713Y30755000D02*
X177833332Y30802620D01*
X177833332Y30802620D02*
X177880951Y30897858D01*
X177880951Y30897858D02*
X177928570Y31088334D01*
X177928570Y31088334D02*
X177928570Y31326429D01*
X177928570Y31326429D02*
X177880951Y31516905D01*
X177880951Y31516905D02*
X177833332Y31612143D01*
X177833332Y31612143D02*
X177785713Y31659762D01*
X177785713Y31659762D02*
X177690475Y31707381D01*
%TO.C,J21*%
X153309523Y31707381D02*
X153309523Y30993096D01*
X153309523Y30993096D02*
X153357142Y30850239D01*
X153357142Y30850239D02*
X153452380Y30755000D01*
X153452380Y30755000D02*
X153595237Y30707381D01*
X153595237Y30707381D02*
X153690475Y30707381D01*
X152880951Y31612143D02*
X152833332Y31659762D01*
X152833332Y31659762D02*
X152738094Y31707381D01*
X152738094Y31707381D02*
X152499999Y31707381D01*
X152499999Y31707381D02*
X152404761Y31659762D01*
X152404761Y31659762D02*
X152357142Y31612143D01*
X152357142Y31612143D02*
X152309523Y31516905D01*
X152309523Y31516905D02*
X152309523Y31421667D01*
X152309523Y31421667D02*
X152357142Y31278810D01*
X152357142Y31278810D02*
X152928570Y30707381D01*
X152928570Y30707381D02*
X152309523Y30707381D01*
X151357142Y30707381D02*
X151928570Y30707381D01*
X151642856Y30707381D02*
X151642856Y31707381D01*
X151642856Y31707381D02*
X151738094Y31564524D01*
X151738094Y31564524D02*
X151833332Y31469286D01*
X151833332Y31469286D02*
X151928570Y31421667D01*
%TO.C,J19*%
X205309523Y31707381D02*
X205309523Y30993096D01*
X205309523Y30993096D02*
X205357142Y30850239D01*
X205357142Y30850239D02*
X205452380Y30755000D01*
X205452380Y30755000D02*
X205595237Y30707381D01*
X205595237Y30707381D02*
X205690475Y30707381D01*
X204309523Y30707381D02*
X204880951Y30707381D01*
X204595237Y30707381D02*
X204595237Y31707381D01*
X204595237Y31707381D02*
X204690475Y31564524D01*
X204690475Y31564524D02*
X204785713Y31469286D01*
X204785713Y31469286D02*
X204880951Y31421667D01*
X203833332Y30707381D02*
X203642856Y30707381D01*
X203642856Y30707381D02*
X203547618Y30755000D01*
X203547618Y30755000D02*
X203499999Y30802620D01*
X203499999Y30802620D02*
X203404761Y30945477D01*
X203404761Y30945477D02*
X203357142Y31135953D01*
X203357142Y31135953D02*
X203357142Y31516905D01*
X203357142Y31516905D02*
X203404761Y31612143D01*
X203404761Y31612143D02*
X203452380Y31659762D01*
X203452380Y31659762D02*
X203547618Y31707381D01*
X203547618Y31707381D02*
X203738094Y31707381D01*
X203738094Y31707381D02*
X203833332Y31659762D01*
X203833332Y31659762D02*
X203880951Y31612143D01*
X203880951Y31612143D02*
X203928570Y31516905D01*
X203928570Y31516905D02*
X203928570Y31278810D01*
X203928570Y31278810D02*
X203880951Y31183572D01*
X203880951Y31183572D02*
X203833332Y31135953D01*
X203833332Y31135953D02*
X203738094Y31088334D01*
X203738094Y31088334D02*
X203547618Y31088334D01*
X203547618Y31088334D02*
X203452380Y31135953D01*
X203452380Y31135953D02*
X203404761Y31183572D01*
X203404761Y31183572D02*
X203357142Y31278810D01*
%TO.C,J8*%
X56270333Y67484381D02*
X56270333Y66770096D01*
X56270333Y66770096D02*
X56317952Y66627239D01*
X56317952Y66627239D02*
X56413190Y66532000D01*
X56413190Y66532000D02*
X56556047Y66484381D01*
X56556047Y66484381D02*
X56651285Y66484381D01*
X55651285Y67055810D02*
X55746523Y67103429D01*
X55746523Y67103429D02*
X55794142Y67151048D01*
X55794142Y67151048D02*
X55841761Y67246286D01*
X55841761Y67246286D02*
X55841761Y67293905D01*
X55841761Y67293905D02*
X55794142Y67389143D01*
X55794142Y67389143D02*
X55746523Y67436762D01*
X55746523Y67436762D02*
X55651285Y67484381D01*
X55651285Y67484381D02*
X55460809Y67484381D01*
X55460809Y67484381D02*
X55365571Y67436762D01*
X55365571Y67436762D02*
X55317952Y67389143D01*
X55317952Y67389143D02*
X55270333Y67293905D01*
X55270333Y67293905D02*
X55270333Y67246286D01*
X55270333Y67246286D02*
X55317952Y67151048D01*
X55317952Y67151048D02*
X55365571Y67103429D01*
X55365571Y67103429D02*
X55460809Y67055810D01*
X55460809Y67055810D02*
X55651285Y67055810D01*
X55651285Y67055810D02*
X55746523Y67008191D01*
X55746523Y67008191D02*
X55794142Y66960572D01*
X55794142Y66960572D02*
X55841761Y66865334D01*
X55841761Y66865334D02*
X55841761Y66674858D01*
X55841761Y66674858D02*
X55794142Y66579620D01*
X55794142Y66579620D02*
X55746523Y66532000D01*
X55746523Y66532000D02*
X55651285Y66484381D01*
X55651285Y66484381D02*
X55460809Y66484381D01*
X55460809Y66484381D02*
X55365571Y66532000D01*
X55365571Y66532000D02*
X55317952Y66579620D01*
X55317952Y66579620D02*
X55270333Y66674858D01*
X55270333Y66674858D02*
X55270333Y66865334D01*
X55270333Y66865334D02*
X55317952Y66960572D01*
X55317952Y66960572D02*
X55365571Y67008191D01*
X55365571Y67008191D02*
X55460809Y67055810D01*
%TO.C,J1*%
X238270333Y67484381D02*
X238270333Y66770096D01*
X238270333Y66770096D02*
X238317952Y66627239D01*
X238317952Y66627239D02*
X238413190Y66532000D01*
X238413190Y66532000D02*
X238556047Y66484381D01*
X238556047Y66484381D02*
X238651285Y66484381D01*
X237270333Y66484381D02*
X237841761Y66484381D01*
X237556047Y66484381D02*
X237556047Y67484381D01*
X237556047Y67484381D02*
X237651285Y67341524D01*
X237651285Y67341524D02*
X237746523Y67246286D01*
X237746523Y67246286D02*
X237841761Y67198667D01*
%TO.C,J22*%
X127309523Y31707381D02*
X127309523Y30993096D01*
X127309523Y30993096D02*
X127357142Y30850239D01*
X127357142Y30850239D02*
X127452380Y30755000D01*
X127452380Y30755000D02*
X127595237Y30707381D01*
X127595237Y30707381D02*
X127690475Y30707381D01*
X126880951Y31612143D02*
X126833332Y31659762D01*
X126833332Y31659762D02*
X126738094Y31707381D01*
X126738094Y31707381D02*
X126499999Y31707381D01*
X126499999Y31707381D02*
X126404761Y31659762D01*
X126404761Y31659762D02*
X126357142Y31612143D01*
X126357142Y31612143D02*
X126309523Y31516905D01*
X126309523Y31516905D02*
X126309523Y31421667D01*
X126309523Y31421667D02*
X126357142Y31278810D01*
X126357142Y31278810D02*
X126928570Y30707381D01*
X126928570Y30707381D02*
X126309523Y30707381D01*
X125928570Y31612143D02*
X125880951Y31659762D01*
X125880951Y31659762D02*
X125785713Y31707381D01*
X125785713Y31707381D02*
X125547618Y31707381D01*
X125547618Y31707381D02*
X125452380Y31659762D01*
X125452380Y31659762D02*
X125404761Y31612143D01*
X125404761Y31612143D02*
X125357142Y31516905D01*
X125357142Y31516905D02*
X125357142Y31421667D01*
X125357142Y31421667D02*
X125404761Y31278810D01*
X125404761Y31278810D02*
X125976189Y30707381D01*
X125976189Y30707381D02*
X125357142Y30707381D01*
%TO.C,J5*%
X134270333Y67484381D02*
X134270333Y66770096D01*
X134270333Y66770096D02*
X134317952Y66627239D01*
X134317952Y66627239D02*
X134413190Y66532000D01*
X134413190Y66532000D02*
X134556047Y66484381D01*
X134556047Y66484381D02*
X134651285Y66484381D01*
X133317952Y67484381D02*
X133794142Y67484381D01*
X133794142Y67484381D02*
X133841761Y67008191D01*
X133841761Y67008191D02*
X133794142Y67055810D01*
X133794142Y67055810D02*
X133698904Y67103429D01*
X133698904Y67103429D02*
X133460809Y67103429D01*
X133460809Y67103429D02*
X133365571Y67055810D01*
X133365571Y67055810D02*
X133317952Y67008191D01*
X133317952Y67008191D02*
X133270333Y66912953D01*
X133270333Y66912953D02*
X133270333Y66674858D01*
X133270333Y66674858D02*
X133317952Y66579620D01*
X133317952Y66579620D02*
X133365571Y66532000D01*
X133365571Y66532000D02*
X133460809Y66484381D01*
X133460809Y66484381D02*
X133698904Y66484381D01*
X133698904Y66484381D02*
X133794142Y66532000D01*
X133794142Y66532000D02*
X133841761Y66579620D01*
%TO.C,J14*%
X114309523Y53707381D02*
X114309523Y52993096D01*
X114309523Y52993096D02*
X114357142Y52850239D01*
X114357142Y52850239D02*
X114452380Y52755000D01*
X114452380Y52755000D02*
X114595237Y52707381D01*
X114595237Y52707381D02*
X114690475Y52707381D01*
X113309523Y52707381D02*
X113880951Y52707381D01*
X113595237Y52707381D02*
X113595237Y53707381D01*
X113595237Y53707381D02*
X113690475Y53564524D01*
X113690475Y53564524D02*
X113785713Y53469286D01*
X113785713Y53469286D02*
X113880951Y53421667D01*
X112452380Y53374048D02*
X112452380Y52707381D01*
X112690475Y53755000D02*
X112928570Y53040715D01*
X112928570Y53040715D02*
X112309523Y53040715D01*
%TO.C,J23*%
X101309523Y31707381D02*
X101309523Y30993096D01*
X101309523Y30993096D02*
X101357142Y30850239D01*
X101357142Y30850239D02*
X101452380Y30755000D01*
X101452380Y30755000D02*
X101595237Y30707381D01*
X101595237Y30707381D02*
X101690475Y30707381D01*
X100880951Y31612143D02*
X100833332Y31659762D01*
X100833332Y31659762D02*
X100738094Y31707381D01*
X100738094Y31707381D02*
X100499999Y31707381D01*
X100499999Y31707381D02*
X100404761Y31659762D01*
X100404761Y31659762D02*
X100357142Y31612143D01*
X100357142Y31612143D02*
X100309523Y31516905D01*
X100309523Y31516905D02*
X100309523Y31421667D01*
X100309523Y31421667D02*
X100357142Y31278810D01*
X100357142Y31278810D02*
X100928570Y30707381D01*
X100928570Y30707381D02*
X100309523Y30707381D01*
X99976189Y31707381D02*
X99357142Y31707381D01*
X99357142Y31707381D02*
X99690475Y31326429D01*
X99690475Y31326429D02*
X99547618Y31326429D01*
X99547618Y31326429D02*
X99452380Y31278810D01*
X99452380Y31278810D02*
X99404761Y31231191D01*
X99404761Y31231191D02*
X99357142Y31135953D01*
X99357142Y31135953D02*
X99357142Y30897858D01*
X99357142Y30897858D02*
X99404761Y30802620D01*
X99404761Y30802620D02*
X99452380Y30755000D01*
X99452380Y30755000D02*
X99547618Y30707381D01*
X99547618Y30707381D02*
X99833332Y30707381D01*
X99833332Y30707381D02*
X99928570Y30755000D01*
X99928570Y30755000D02*
X99976189Y30802620D01*
%TO.C,J18*%
X231309523Y31707381D02*
X231309523Y30993096D01*
X231309523Y30993096D02*
X231357142Y30850239D01*
X231357142Y30850239D02*
X231452380Y30755000D01*
X231452380Y30755000D02*
X231595237Y30707381D01*
X231595237Y30707381D02*
X231690475Y30707381D01*
X230309523Y30707381D02*
X230880951Y30707381D01*
X230595237Y30707381D02*
X230595237Y31707381D01*
X230595237Y31707381D02*
X230690475Y31564524D01*
X230690475Y31564524D02*
X230785713Y31469286D01*
X230785713Y31469286D02*
X230880951Y31421667D01*
X229738094Y31278810D02*
X229833332Y31326429D01*
X229833332Y31326429D02*
X229880951Y31374048D01*
X229880951Y31374048D02*
X229928570Y31469286D01*
X229928570Y31469286D02*
X229928570Y31516905D01*
X229928570Y31516905D02*
X229880951Y31612143D01*
X229880951Y31612143D02*
X229833332Y31659762D01*
X229833332Y31659762D02*
X229738094Y31707381D01*
X229738094Y31707381D02*
X229547618Y31707381D01*
X229547618Y31707381D02*
X229452380Y31659762D01*
X229452380Y31659762D02*
X229404761Y31612143D01*
X229404761Y31612143D02*
X229357142Y31516905D01*
X229357142Y31516905D02*
X229357142Y31469286D01*
X229357142Y31469286D02*
X229404761Y31374048D01*
X229404761Y31374048D02*
X229452380Y31326429D01*
X229452380Y31326429D02*
X229547618Y31278810D01*
X229547618Y31278810D02*
X229738094Y31278810D01*
X229738094Y31278810D02*
X229833332Y31231191D01*
X229833332Y31231191D02*
X229880951Y31183572D01*
X229880951Y31183572D02*
X229928570Y31088334D01*
X229928570Y31088334D02*
X229928570Y30897858D01*
X229928570Y30897858D02*
X229880951Y30802620D01*
X229880951Y30802620D02*
X229833332Y30755000D01*
X229833332Y30755000D02*
X229738094Y30707381D01*
X229738094Y30707381D02*
X229547618Y30707381D01*
X229547618Y30707381D02*
X229452380Y30755000D01*
X229452380Y30755000D02*
X229404761Y30802620D01*
X229404761Y30802620D02*
X229357142Y30897858D01*
X229357142Y30897858D02*
X229357142Y31088334D01*
X229357142Y31088334D02*
X229404761Y31183572D01*
X229404761Y31183572D02*
X229452380Y31231191D01*
X229452380Y31231191D02*
X229547618Y31278810D01*
%TO.C,J12*%
X166309523Y53707381D02*
X166309523Y52993096D01*
X166309523Y52993096D02*
X166357142Y52850239D01*
X166357142Y52850239D02*
X166452380Y52755000D01*
X166452380Y52755000D02*
X166595237Y52707381D01*
X166595237Y52707381D02*
X166690475Y52707381D01*
X165309523Y52707381D02*
X165880951Y52707381D01*
X165595237Y52707381D02*
X165595237Y53707381D01*
X165595237Y53707381D02*
X165690475Y53564524D01*
X165690475Y53564524D02*
X165785713Y53469286D01*
X165785713Y53469286D02*
X165880951Y53421667D01*
X164928570Y53612143D02*
X164880951Y53659762D01*
X164880951Y53659762D02*
X164785713Y53707381D01*
X164785713Y53707381D02*
X164547618Y53707381D01*
X164547618Y53707381D02*
X164452380Y53659762D01*
X164452380Y53659762D02*
X164404761Y53612143D01*
X164404761Y53612143D02*
X164357142Y53516905D01*
X164357142Y53516905D02*
X164357142Y53421667D01*
X164357142Y53421667D02*
X164404761Y53278810D01*
X164404761Y53278810D02*
X164976189Y52707381D01*
X164976189Y52707381D02*
X164357142Y52707381D01*
%TO.C,J24*%
X75309523Y31707381D02*
X75309523Y30993096D01*
X75309523Y30993096D02*
X75357142Y30850239D01*
X75357142Y30850239D02*
X75452380Y30755000D01*
X75452380Y30755000D02*
X75595237Y30707381D01*
X75595237Y30707381D02*
X75690475Y30707381D01*
X74880951Y31612143D02*
X74833332Y31659762D01*
X74833332Y31659762D02*
X74738094Y31707381D01*
X74738094Y31707381D02*
X74499999Y31707381D01*
X74499999Y31707381D02*
X74404761Y31659762D01*
X74404761Y31659762D02*
X74357142Y31612143D01*
X74357142Y31612143D02*
X74309523Y31516905D01*
X74309523Y31516905D02*
X74309523Y31421667D01*
X74309523Y31421667D02*
X74357142Y31278810D01*
X74357142Y31278810D02*
X74928570Y30707381D01*
X74928570Y30707381D02*
X74309523Y30707381D01*
X73452380Y31374048D02*
X73452380Y30707381D01*
X73690475Y31755000D02*
X73928570Y31040715D01*
X73928570Y31040715D02*
X73309523Y31040715D01*
%TO.C,J15*%
X88309523Y53707381D02*
X88309523Y52993096D01*
X88309523Y52993096D02*
X88357142Y52850239D01*
X88357142Y52850239D02*
X88452380Y52755000D01*
X88452380Y52755000D02*
X88595237Y52707381D01*
X88595237Y52707381D02*
X88690475Y52707381D01*
X87309523Y52707381D02*
X87880951Y52707381D01*
X87595237Y52707381D02*
X87595237Y53707381D01*
X87595237Y53707381D02*
X87690475Y53564524D01*
X87690475Y53564524D02*
X87785713Y53469286D01*
X87785713Y53469286D02*
X87880951Y53421667D01*
X86404761Y53707381D02*
X86880951Y53707381D01*
X86880951Y53707381D02*
X86928570Y53231191D01*
X86928570Y53231191D02*
X86880951Y53278810D01*
X86880951Y53278810D02*
X86785713Y53326429D01*
X86785713Y53326429D02*
X86547618Y53326429D01*
X86547618Y53326429D02*
X86452380Y53278810D01*
X86452380Y53278810D02*
X86404761Y53231191D01*
X86404761Y53231191D02*
X86357142Y53135953D01*
X86357142Y53135953D02*
X86357142Y52897858D01*
X86357142Y52897858D02*
X86404761Y52802620D01*
X86404761Y52802620D02*
X86452380Y52755000D01*
X86452380Y52755000D02*
X86547618Y52707381D01*
X86547618Y52707381D02*
X86785713Y52707381D01*
X86785713Y52707381D02*
X86880951Y52755000D01*
X86880951Y52755000D02*
X86928570Y52802620D01*
%TO.C,J3*%
X186270333Y67484381D02*
X186270333Y66770096D01*
X186270333Y66770096D02*
X186317952Y66627239D01*
X186317952Y66627239D02*
X186413190Y66532000D01*
X186413190Y66532000D02*
X186556047Y66484381D01*
X186556047Y66484381D02*
X186651285Y66484381D01*
X185889380Y67484381D02*
X185270333Y67484381D01*
X185270333Y67484381D02*
X185603666Y67103429D01*
X185603666Y67103429D02*
X185460809Y67103429D01*
X185460809Y67103429D02*
X185365571Y67055810D01*
X185365571Y67055810D02*
X185317952Y67008191D01*
X185317952Y67008191D02*
X185270333Y66912953D01*
X185270333Y66912953D02*
X185270333Y66674858D01*
X185270333Y66674858D02*
X185317952Y66579620D01*
X185317952Y66579620D02*
X185365571Y66532000D01*
X185365571Y66532000D02*
X185460809Y66484381D01*
X185460809Y66484381D02*
X185746523Y66484381D01*
X185746523Y66484381D02*
X185841761Y66532000D01*
X185841761Y66532000D02*
X185889380Y66579620D01*
%TO.C,J4*%
X160270333Y67484381D02*
X160270333Y66770096D01*
X160270333Y66770096D02*
X160317952Y66627239D01*
X160317952Y66627239D02*
X160413190Y66532000D01*
X160413190Y66532000D02*
X160556047Y66484381D01*
X160556047Y66484381D02*
X160651285Y66484381D01*
X159365571Y67151048D02*
X159365571Y66484381D01*
X159603666Y67532000D02*
X159841761Y66817715D01*
X159841761Y66817715D02*
X159222714Y66817715D01*
%TO.C,J26*%
X23309523Y31707381D02*
X23309523Y30993096D01*
X23309523Y30993096D02*
X23357142Y30850239D01*
X23357142Y30850239D02*
X23452380Y30755000D01*
X23452380Y30755000D02*
X23595237Y30707381D01*
X23595237Y30707381D02*
X23690475Y30707381D01*
X22880951Y31612143D02*
X22833332Y31659762D01*
X22833332Y31659762D02*
X22738094Y31707381D01*
X22738094Y31707381D02*
X22499999Y31707381D01*
X22499999Y31707381D02*
X22404761Y31659762D01*
X22404761Y31659762D02*
X22357142Y31612143D01*
X22357142Y31612143D02*
X22309523Y31516905D01*
X22309523Y31516905D02*
X22309523Y31421667D01*
X22309523Y31421667D02*
X22357142Y31278810D01*
X22357142Y31278810D02*
X22928570Y30707381D01*
X22928570Y30707381D02*
X22309523Y30707381D01*
X21452380Y31707381D02*
X21642856Y31707381D01*
X21642856Y31707381D02*
X21738094Y31659762D01*
X21738094Y31659762D02*
X21785713Y31612143D01*
X21785713Y31612143D02*
X21880951Y31469286D01*
X21880951Y31469286D02*
X21928570Y31278810D01*
X21928570Y31278810D02*
X21928570Y30897858D01*
X21928570Y30897858D02*
X21880951Y30802620D01*
X21880951Y30802620D02*
X21833332Y30755000D01*
X21833332Y30755000D02*
X21738094Y30707381D01*
X21738094Y30707381D02*
X21547618Y30707381D01*
X21547618Y30707381D02*
X21452380Y30755000D01*
X21452380Y30755000D02*
X21404761Y30802620D01*
X21404761Y30802620D02*
X21357142Y30897858D01*
X21357142Y30897858D02*
X21357142Y31135953D01*
X21357142Y31135953D02*
X21404761Y31231191D01*
X21404761Y31231191D02*
X21452380Y31278810D01*
X21452380Y31278810D02*
X21547618Y31326429D01*
X21547618Y31326429D02*
X21738094Y31326429D01*
X21738094Y31326429D02*
X21833332Y31278810D01*
X21833332Y31278810D02*
X21880951Y31231191D01*
X21880951Y31231191D02*
X21928570Y31135953D01*
%TO.C,J9*%
X30270333Y67484381D02*
X30270333Y66770096D01*
X30270333Y66770096D02*
X30317952Y66627239D01*
X30317952Y66627239D02*
X30413190Y66532000D01*
X30413190Y66532000D02*
X30556047Y66484381D01*
X30556047Y66484381D02*
X30651285Y66484381D01*
X29746523Y66484381D02*
X29556047Y66484381D01*
X29556047Y66484381D02*
X29460809Y66532000D01*
X29460809Y66532000D02*
X29413190Y66579620D01*
X29413190Y66579620D02*
X29317952Y66722477D01*
X29317952Y66722477D02*
X29270333Y66912953D01*
X29270333Y66912953D02*
X29270333Y67293905D01*
X29270333Y67293905D02*
X29317952Y67389143D01*
X29317952Y67389143D02*
X29365571Y67436762D01*
X29365571Y67436762D02*
X29460809Y67484381D01*
X29460809Y67484381D02*
X29651285Y67484381D01*
X29651285Y67484381D02*
X29746523Y67436762D01*
X29746523Y67436762D02*
X29794142Y67389143D01*
X29794142Y67389143D02*
X29841761Y67293905D01*
X29841761Y67293905D02*
X29841761Y67055810D01*
X29841761Y67055810D02*
X29794142Y66960572D01*
X29794142Y66960572D02*
X29746523Y66912953D01*
X29746523Y66912953D02*
X29651285Y66865334D01*
X29651285Y66865334D02*
X29460809Y66865334D01*
X29460809Y66865334D02*
X29365571Y66912953D01*
X29365571Y66912953D02*
X29317952Y66960572D01*
X29317952Y66960572D02*
X29270333Y67055810D01*
%TO.C,J2*%
X212270333Y67484381D02*
X212270333Y66770096D01*
X212270333Y66770096D02*
X212317952Y66627239D01*
X212317952Y66627239D02*
X212413190Y66532000D01*
X212413190Y66532000D02*
X212556047Y66484381D01*
X212556047Y66484381D02*
X212651285Y66484381D01*
X211841761Y67389143D02*
X211794142Y67436762D01*
X211794142Y67436762D02*
X211698904Y67484381D01*
X211698904Y67484381D02*
X211460809Y67484381D01*
X211460809Y67484381D02*
X211365571Y67436762D01*
X211365571Y67436762D02*
X211317952Y67389143D01*
X211317952Y67389143D02*
X211270333Y67293905D01*
X211270333Y67293905D02*
X211270333Y67198667D01*
X211270333Y67198667D02*
X211317952Y67055810D01*
X211317952Y67055810D02*
X211889380Y66484381D01*
X211889380Y66484381D02*
X211270333Y66484381D01*
%TO.C,J25*%
X49309523Y31707381D02*
X49309523Y30993096D01*
X49309523Y30993096D02*
X49357142Y30850239D01*
X49357142Y30850239D02*
X49452380Y30755000D01*
X49452380Y30755000D02*
X49595237Y30707381D01*
X49595237Y30707381D02*
X49690475Y30707381D01*
X48880951Y31612143D02*
X48833332Y31659762D01*
X48833332Y31659762D02*
X48738094Y31707381D01*
X48738094Y31707381D02*
X48499999Y31707381D01*
X48499999Y31707381D02*
X48404761Y31659762D01*
X48404761Y31659762D02*
X48357142Y31612143D01*
X48357142Y31612143D02*
X48309523Y31516905D01*
X48309523Y31516905D02*
X48309523Y31421667D01*
X48309523Y31421667D02*
X48357142Y31278810D01*
X48357142Y31278810D02*
X48928570Y30707381D01*
X48928570Y30707381D02*
X48309523Y30707381D01*
X47404761Y31707381D02*
X47880951Y31707381D01*
X47880951Y31707381D02*
X47928570Y31231191D01*
X47928570Y31231191D02*
X47880951Y31278810D01*
X47880951Y31278810D02*
X47785713Y31326429D01*
X47785713Y31326429D02*
X47547618Y31326429D01*
X47547618Y31326429D02*
X47452380Y31278810D01*
X47452380Y31278810D02*
X47404761Y31231191D01*
X47404761Y31231191D02*
X47357142Y31135953D01*
X47357142Y31135953D02*
X47357142Y30897858D01*
X47357142Y30897858D02*
X47404761Y30802620D01*
X47404761Y30802620D02*
X47452380Y30755000D01*
X47452380Y30755000D02*
X47547618Y30707381D01*
X47547618Y30707381D02*
X47785713Y30707381D01*
X47785713Y30707381D02*
X47880951Y30755000D01*
X47880951Y30755000D02*
X47928570Y30802620D01*
%TO.C,J16*%
X62309523Y53707381D02*
X62309523Y52993096D01*
X62309523Y52993096D02*
X62357142Y52850239D01*
X62357142Y52850239D02*
X62452380Y52755000D01*
X62452380Y52755000D02*
X62595237Y52707381D01*
X62595237Y52707381D02*
X62690475Y52707381D01*
X61309523Y52707381D02*
X61880951Y52707381D01*
X61595237Y52707381D02*
X61595237Y53707381D01*
X61595237Y53707381D02*
X61690475Y53564524D01*
X61690475Y53564524D02*
X61785713Y53469286D01*
X61785713Y53469286D02*
X61880951Y53421667D01*
X60452380Y53707381D02*
X60642856Y53707381D01*
X60642856Y53707381D02*
X60738094Y53659762D01*
X60738094Y53659762D02*
X60785713Y53612143D01*
X60785713Y53612143D02*
X60880951Y53469286D01*
X60880951Y53469286D02*
X60928570Y53278810D01*
X60928570Y53278810D02*
X60928570Y52897858D01*
X60928570Y52897858D02*
X60880951Y52802620D01*
X60880951Y52802620D02*
X60833332Y52755000D01*
X60833332Y52755000D02*
X60738094Y52707381D01*
X60738094Y52707381D02*
X60547618Y52707381D01*
X60547618Y52707381D02*
X60452380Y52755000D01*
X60452380Y52755000D02*
X60404761Y52802620D01*
X60404761Y52802620D02*
X60357142Y52897858D01*
X60357142Y52897858D02*
X60357142Y53135953D01*
X60357142Y53135953D02*
X60404761Y53231191D01*
X60404761Y53231191D02*
X60452380Y53278810D01*
X60452380Y53278810D02*
X60547618Y53326429D01*
X60547618Y53326429D02*
X60738094Y53326429D01*
X60738094Y53326429D02*
X60833332Y53278810D01*
X60833332Y53278810D02*
X60880951Y53231191D01*
X60880951Y53231191D02*
X60928570Y53135953D01*
%TO.C,J13*%
X140309523Y53707381D02*
X140309523Y52993096D01*
X140309523Y52993096D02*
X140357142Y52850239D01*
X140357142Y52850239D02*
X140452380Y52755000D01*
X140452380Y52755000D02*
X140595237Y52707381D01*
X140595237Y52707381D02*
X140690475Y52707381D01*
X139309523Y52707381D02*
X139880951Y52707381D01*
X139595237Y52707381D02*
X139595237Y53707381D01*
X139595237Y53707381D02*
X139690475Y53564524D01*
X139690475Y53564524D02*
X139785713Y53469286D01*
X139785713Y53469286D02*
X139880951Y53421667D01*
X138976189Y53707381D02*
X138357142Y53707381D01*
X138357142Y53707381D02*
X138690475Y53326429D01*
X138690475Y53326429D02*
X138547618Y53326429D01*
X138547618Y53326429D02*
X138452380Y53278810D01*
X138452380Y53278810D02*
X138404761Y53231191D01*
X138404761Y53231191D02*
X138357142Y53135953D01*
X138357142Y53135953D02*
X138357142Y52897858D01*
X138357142Y52897858D02*
X138404761Y52802620D01*
X138404761Y52802620D02*
X138452380Y52755000D01*
X138452380Y52755000D02*
X138547618Y52707381D01*
X138547618Y52707381D02*
X138833332Y52707381D01*
X138833332Y52707381D02*
X138928570Y52755000D01*
X138928570Y52755000D02*
X138976189Y52802620D01*
%TO.C,J11*%
X192309523Y53707381D02*
X192309523Y52993096D01*
X192309523Y52993096D02*
X192357142Y52850239D01*
X192357142Y52850239D02*
X192452380Y52755000D01*
X192452380Y52755000D02*
X192595237Y52707381D01*
X192595237Y52707381D02*
X192690475Y52707381D01*
X191309523Y52707381D02*
X191880951Y52707381D01*
X191595237Y52707381D02*
X191595237Y53707381D01*
X191595237Y53707381D02*
X191690475Y53564524D01*
X191690475Y53564524D02*
X191785713Y53469286D01*
X191785713Y53469286D02*
X191880951Y53421667D01*
X190357142Y52707381D02*
X190928570Y52707381D01*
X190642856Y52707381D02*
X190642856Y53707381D01*
X190642856Y53707381D02*
X190738094Y53564524D01*
X190738094Y53564524D02*
X190833332Y53469286D01*
X190833332Y53469286D02*
X190928570Y53421667D01*
%TO.C,J7*%
X82270333Y67484381D02*
X82270333Y66770096D01*
X82270333Y66770096D02*
X82317952Y66627239D01*
X82317952Y66627239D02*
X82413190Y66532000D01*
X82413190Y66532000D02*
X82556047Y66484381D01*
X82556047Y66484381D02*
X82651285Y66484381D01*
X81889380Y67484381D02*
X81222714Y67484381D01*
X81222714Y67484381D02*
X81651285Y66484381D01*
%TO.C,J17*%
X36309523Y53707381D02*
X36309523Y52993096D01*
X36309523Y52993096D02*
X36357142Y52850239D01*
X36357142Y52850239D02*
X36452380Y52755000D01*
X36452380Y52755000D02*
X36595237Y52707381D01*
X36595237Y52707381D02*
X36690475Y52707381D01*
X35309523Y52707381D02*
X35880951Y52707381D01*
X35595237Y52707381D02*
X35595237Y53707381D01*
X35595237Y53707381D02*
X35690475Y53564524D01*
X35690475Y53564524D02*
X35785713Y53469286D01*
X35785713Y53469286D02*
X35880951Y53421667D01*
X34976189Y53707381D02*
X34309523Y53707381D01*
X34309523Y53707381D02*
X34738094Y52707381D01*
%TO.C,J6*%
X108270333Y67484381D02*
X108270333Y66770096D01*
X108270333Y66770096D02*
X108317952Y66627239D01*
X108317952Y66627239D02*
X108413190Y66532000D01*
X108413190Y66532000D02*
X108556047Y66484381D01*
X108556047Y66484381D02*
X108651285Y66484381D01*
X107365571Y67484381D02*
X107556047Y67484381D01*
X107556047Y67484381D02*
X107651285Y67436762D01*
X107651285Y67436762D02*
X107698904Y67389143D01*
X107698904Y67389143D02*
X107794142Y67246286D01*
X107794142Y67246286D02*
X107841761Y67055810D01*
X107841761Y67055810D02*
X107841761Y66674858D01*
X107841761Y66674858D02*
X107794142Y66579620D01*
X107794142Y66579620D02*
X107746523Y66532000D01*
X107746523Y66532000D02*
X107651285Y66484381D01*
X107651285Y66484381D02*
X107460809Y66484381D01*
X107460809Y66484381D02*
X107365571Y66532000D01*
X107365571Y66532000D02*
X107317952Y66579620D01*
X107317952Y66579620D02*
X107270333Y66674858D01*
X107270333Y66674858D02*
X107270333Y66912953D01*
X107270333Y66912953D02*
X107317952Y67008191D01*
X107317952Y67008191D02*
X107365571Y67055810D01*
X107365571Y67055810D02*
X107460809Y67103429D01*
X107460809Y67103429D02*
X107651285Y67103429D01*
X107651285Y67103429D02*
X107746523Y67055810D01*
X107746523Y67055810D02*
X107794142Y67008191D01*
X107794142Y67008191D02*
X107841761Y66912953D01*
%TO.C,J10*%
X218309523Y53707381D02*
X218309523Y52993096D01*
X218309523Y52993096D02*
X218357142Y52850239D01*
X218357142Y52850239D02*
X218452380Y52755000D01*
X218452380Y52755000D02*
X218595237Y52707381D01*
X218595237Y52707381D02*
X218690475Y52707381D01*
X217309523Y52707381D02*
X217880951Y52707381D01*
X217595237Y52707381D02*
X217595237Y53707381D01*
X217595237Y53707381D02*
X217690475Y53564524D01*
X217690475Y53564524D02*
X217785713Y53469286D01*
X217785713Y53469286D02*
X217880951Y53421667D01*
X216690475Y53707381D02*
X216595237Y53707381D01*
X216595237Y53707381D02*
X216499999Y53659762D01*
X216499999Y53659762D02*
X216452380Y53612143D01*
X216452380Y53612143D02*
X216404761Y53516905D01*
X216404761Y53516905D02*
X216357142Y53326429D01*
X216357142Y53326429D02*
X216357142Y53088334D01*
X216357142Y53088334D02*
X216404761Y52897858D01*
X216404761Y52897858D02*
X216452380Y52802620D01*
X216452380Y52802620D02*
X216499999Y52755000D01*
X216499999Y52755000D02*
X216595237Y52707381D01*
X216595237Y52707381D02*
X216690475Y52707381D01*
X216690475Y52707381D02*
X216785713Y52755000D01*
X216785713Y52755000D02*
X216833332Y52802620D01*
X216833332Y52802620D02*
X216880951Y52897858D01*
X216880951Y52897858D02*
X216928570Y53088334D01*
X216928570Y53088334D02*
X216928570Y53326429D01*
X216928570Y53326429D02*
X216880951Y53516905D01*
X216880951Y53516905D02*
X216833332Y53612143D01*
X216833332Y53612143D02*
X216785713Y53659762D01*
X216785713Y53659762D02*
X216690475Y53707381D01*
%TD*%
M02*
