%TF.GenerationSoftware,KiCad,Pcbnew,7.0.2-0*%
%TF.CreationDate,2024-02-08T13:36:38+00:00*%
%TF.ProjectId,plugboard,706c7567-626f-4617-9264-2e6b69636164,rev?*%
%TF.SameCoordinates,PX1312d00PY68e7780*%
%TF.FileFunction,Paste,Top*%
%TF.FilePolarity,Positive*%
%FSLAX46Y46*%
G04 Gerber Fmt 4.6, Leading zero omitted, Abs format (unit mm)*
G04 Created by KiCad (PCBNEW 7.0.2-0) date 2024-02-08 13:36:38*
%MOMM*%
%LPD*%
G01*
G04 APERTURE LIST*
G04 Aperture macros list*
%AMRoundRect*
0 Rectangle with rounded corners*
0 $1 Rounding radius*
0 $2 $3 $4 $5 $6 $7 $8 $9 X,Y pos of 4 corners*
0 Add a 4 corners polygon primitive as box body*
4,1,4,$2,$3,$4,$5,$6,$7,$8,$9,$2,$3,0*
0 Add four circle primitives for the rounded corners*
1,1,$1+$1,$2,$3*
1,1,$1+$1,$4,$5*
1,1,$1+$1,$6,$7*
1,1,$1+$1,$8,$9*
0 Add four rect primitives between the rounded corners*
20,1,$1+$1,$2,$3,$4,$5,0*
20,1,$1+$1,$4,$5,$6,$7,0*
20,1,$1+$1,$6,$7,$8,$9,0*
20,1,$1+$1,$8,$9,$2,$3,0*%
G04 Aperture macros list end*
%ADD10RoundRect,0.150000X-1.125000X-0.150000X1.125000X-0.150000X1.125000X0.150000X-1.125000X0.150000X0*%
G04 APERTURE END LIST*
D10*
%TO.C,U1*%
X82722000Y20333000D03*
X82722000Y19063000D03*
X82722000Y17793000D03*
X82722000Y16523000D03*
X82722000Y15253000D03*
X82722000Y13983000D03*
X82722000Y12713000D03*
X82722000Y11443000D03*
X82722000Y10173000D03*
X82722000Y8903000D03*
X82722000Y7633000D03*
X82722000Y6363000D03*
X82722000Y5093000D03*
X82722000Y3823000D03*
X92522000Y3828000D03*
X92522000Y5098000D03*
X92522000Y6368000D03*
X92522000Y7638000D03*
X92522000Y8908000D03*
X92522000Y10178000D03*
X92522000Y11448000D03*
X92522000Y12718000D03*
X92522000Y13988000D03*
X92522000Y15258000D03*
X92522000Y16528000D03*
X92522000Y17798000D03*
X92522000Y19068000D03*
X92522000Y20338000D03*
%TD*%
%TO.C,U2*%
X160600000Y20338000D03*
X160600000Y19068000D03*
X160600000Y17798000D03*
X160600000Y16528000D03*
X160600000Y15258000D03*
X160600000Y13988000D03*
X160600000Y12718000D03*
X160600000Y11448000D03*
X160600000Y10178000D03*
X160600000Y8908000D03*
X160600000Y7638000D03*
X160600000Y6368000D03*
X160600000Y5098000D03*
X160600000Y3828000D03*
X170400000Y3833000D03*
X170400000Y5103000D03*
X170400000Y6373000D03*
X170400000Y7643000D03*
X170400000Y8913000D03*
X170400000Y10183000D03*
X170400000Y11453000D03*
X170400000Y12723000D03*
X170400000Y13993000D03*
X170400000Y15263000D03*
X170400000Y16533000D03*
X170400000Y17803000D03*
X170400000Y19073000D03*
X170400000Y20343000D03*
%TD*%
M02*
