%TF.GenerationSoftware,KiCad,Pcbnew,7.0.2-0*%
%TF.CreationDate,2024-02-08T13:36:38+00:00*%
%TF.ProjectId,plugboard,706c7567-626f-4617-9264-2e6b69636164,rev?*%
%TF.SameCoordinates,PX1312d00PY68e7780*%
%TF.FileFunction,Legend,Top*%
%TF.FilePolarity,Positive*%
%FSLAX46Y46*%
G04 Gerber Fmt 4.6, Leading zero omitted, Abs format (unit mm)*
G04 Created by KiCad (PCBNEW 7.0.2-0) date 2024-02-08 13:36:38*
%MOMM*%
%LPD*%
G01*
G04 APERTURE LIST*
%ADD10C,0.300000*%
%ADD11C,0.150000*%
%ADD12C,0.120000*%
G04 APERTURE END LIST*
D10*
X100843711Y59141072D02*
X100843711Y60641072D01*
X101486569Y59141072D02*
X101486569Y59926786D01*
X101486569Y59926786D02*
X101415140Y60069643D01*
X101415140Y60069643D02*
X101272283Y60141072D01*
X101272283Y60141072D02*
X101057997Y60141072D01*
X101057997Y60141072D02*
X100915140Y60069643D01*
X100915140Y60069643D02*
X100843711Y59998215D01*
X101986569Y60141072D02*
X102557997Y60141072D01*
X102200854Y60641072D02*
X102200854Y59355358D01*
X102200854Y59355358D02*
X102272283Y59212500D01*
X102272283Y59212500D02*
X102415140Y59141072D01*
X102415140Y59141072D02*
X102557997Y59141072D01*
X102843712Y60141072D02*
X103415140Y60141072D01*
X103057997Y60641072D02*
X103057997Y59355358D01*
X103057997Y59355358D02*
X103129426Y59212500D01*
X103129426Y59212500D02*
X103272283Y59141072D01*
X103272283Y59141072D02*
X103415140Y59141072D01*
X103915140Y60141072D02*
X103915140Y58641072D01*
X103915140Y60069643D02*
X104057998Y60141072D01*
X104057998Y60141072D02*
X104343712Y60141072D01*
X104343712Y60141072D02*
X104486569Y60069643D01*
X104486569Y60069643D02*
X104557998Y59998215D01*
X104557998Y59998215D02*
X104629426Y59855358D01*
X104629426Y59855358D02*
X104629426Y59426786D01*
X104629426Y59426786D02*
X104557998Y59283929D01*
X104557998Y59283929D02*
X104486569Y59212500D01*
X104486569Y59212500D02*
X104343712Y59141072D01*
X104343712Y59141072D02*
X104057998Y59141072D01*
X104057998Y59141072D02*
X103915140Y59212500D01*
X105200855Y59212500D02*
X105343712Y59141072D01*
X105343712Y59141072D02*
X105629426Y59141072D01*
X105629426Y59141072D02*
X105772283Y59212500D01*
X105772283Y59212500D02*
X105843712Y59355358D01*
X105843712Y59355358D02*
X105843712Y59426786D01*
X105843712Y59426786D02*
X105772283Y59569643D01*
X105772283Y59569643D02*
X105629426Y59641072D01*
X105629426Y59641072D02*
X105415141Y59641072D01*
X105415141Y59641072D02*
X105272283Y59712500D01*
X105272283Y59712500D02*
X105200855Y59855358D01*
X105200855Y59855358D02*
X105200855Y59926786D01*
X105200855Y59926786D02*
X105272283Y60069643D01*
X105272283Y60069643D02*
X105415141Y60141072D01*
X105415141Y60141072D02*
X105629426Y60141072D01*
X105629426Y60141072D02*
X105772283Y60069643D01*
X106486569Y59283929D02*
X106557998Y59212500D01*
X106557998Y59212500D02*
X106486569Y59141072D01*
X106486569Y59141072D02*
X106415141Y59212500D01*
X106415141Y59212500D02*
X106486569Y59283929D01*
X106486569Y59283929D02*
X106486569Y59141072D01*
X106486569Y60069643D02*
X106557998Y59998215D01*
X106557998Y59998215D02*
X106486569Y59926786D01*
X106486569Y59926786D02*
X106415141Y59998215D01*
X106415141Y59998215D02*
X106486569Y60069643D01*
X106486569Y60069643D02*
X106486569Y59926786D01*
X108272284Y60712500D02*
X106986570Y58783929D01*
X109843713Y60712500D02*
X108557999Y58783929D01*
X110986571Y60141072D02*
X110986571Y58926786D01*
X110986571Y58926786D02*
X110915142Y58783929D01*
X110915142Y58783929D02*
X110843713Y58712500D01*
X110843713Y58712500D02*
X110700856Y58641072D01*
X110700856Y58641072D02*
X110486571Y58641072D01*
X110486571Y58641072D02*
X110343713Y58712500D01*
X110986571Y59212500D02*
X110843713Y59141072D01*
X110843713Y59141072D02*
X110557999Y59141072D01*
X110557999Y59141072D02*
X110415142Y59212500D01*
X110415142Y59212500D02*
X110343713Y59283929D01*
X110343713Y59283929D02*
X110272285Y59426786D01*
X110272285Y59426786D02*
X110272285Y59855358D01*
X110272285Y59855358D02*
X110343713Y59998215D01*
X110343713Y59998215D02*
X110415142Y60069643D01*
X110415142Y60069643D02*
X110557999Y60141072D01*
X110557999Y60141072D02*
X110843713Y60141072D01*
X110843713Y60141072D02*
X110986571Y60069643D01*
X111700856Y59141072D02*
X111700856Y60141072D01*
X111700856Y60641072D02*
X111629428Y60569643D01*
X111629428Y60569643D02*
X111700856Y60498215D01*
X111700856Y60498215D02*
X111772285Y60569643D01*
X111772285Y60569643D02*
X111700856Y60641072D01*
X111700856Y60641072D02*
X111700856Y60498215D01*
X112200857Y60141072D02*
X112772285Y60141072D01*
X112415142Y60641072D02*
X112415142Y59355358D01*
X112415142Y59355358D02*
X112486571Y59212500D01*
X112486571Y59212500D02*
X112629428Y59141072D01*
X112629428Y59141072D02*
X112772285Y59141072D01*
X113272285Y59141072D02*
X113272285Y60641072D01*
X113915143Y59141072D02*
X113915143Y59926786D01*
X113915143Y59926786D02*
X113843714Y60069643D01*
X113843714Y60069643D02*
X113700857Y60141072D01*
X113700857Y60141072D02*
X113486571Y60141072D01*
X113486571Y60141072D02*
X113343714Y60069643D01*
X113343714Y60069643D02*
X113272285Y59998215D01*
X115272286Y60141072D02*
X115272286Y59141072D01*
X114629428Y60141072D02*
X114629428Y59355358D01*
X114629428Y59355358D02*
X114700857Y59212500D01*
X114700857Y59212500D02*
X114843714Y59141072D01*
X114843714Y59141072D02*
X115058000Y59141072D01*
X115058000Y59141072D02*
X115200857Y59212500D01*
X115200857Y59212500D02*
X115272286Y59283929D01*
X115986571Y59141072D02*
X115986571Y60641072D01*
X115986571Y60069643D02*
X116129429Y60141072D01*
X116129429Y60141072D02*
X116415143Y60141072D01*
X116415143Y60141072D02*
X116558000Y60069643D01*
X116558000Y60069643D02*
X116629429Y59998215D01*
X116629429Y59998215D02*
X116700857Y59855358D01*
X116700857Y59855358D02*
X116700857Y59426786D01*
X116700857Y59426786D02*
X116629429Y59283929D01*
X116629429Y59283929D02*
X116558000Y59212500D01*
X116558000Y59212500D02*
X116415143Y59141072D01*
X116415143Y59141072D02*
X116129429Y59141072D01*
X116129429Y59141072D02*
X115986571Y59212500D01*
X117343714Y59283929D02*
X117415143Y59212500D01*
X117415143Y59212500D02*
X117343714Y59141072D01*
X117343714Y59141072D02*
X117272286Y59212500D01*
X117272286Y59212500D02*
X117343714Y59283929D01*
X117343714Y59283929D02*
X117343714Y59141072D01*
X118700858Y59212500D02*
X118558000Y59141072D01*
X118558000Y59141072D02*
X118272286Y59141072D01*
X118272286Y59141072D02*
X118129429Y59212500D01*
X118129429Y59212500D02*
X118058000Y59283929D01*
X118058000Y59283929D02*
X117986572Y59426786D01*
X117986572Y59426786D02*
X117986572Y59855358D01*
X117986572Y59855358D02*
X118058000Y59998215D01*
X118058000Y59998215D02*
X118129429Y60069643D01*
X118129429Y60069643D02*
X118272286Y60141072D01*
X118272286Y60141072D02*
X118558000Y60141072D01*
X118558000Y60141072D02*
X118700858Y60069643D01*
X119558000Y59141072D02*
X119415143Y59212500D01*
X119415143Y59212500D02*
X119343714Y59283929D01*
X119343714Y59283929D02*
X119272286Y59426786D01*
X119272286Y59426786D02*
X119272286Y59855358D01*
X119272286Y59855358D02*
X119343714Y59998215D01*
X119343714Y59998215D02*
X119415143Y60069643D01*
X119415143Y60069643D02*
X119558000Y60141072D01*
X119558000Y60141072D02*
X119772286Y60141072D01*
X119772286Y60141072D02*
X119915143Y60069643D01*
X119915143Y60069643D02*
X119986572Y59998215D01*
X119986572Y59998215D02*
X120058000Y59855358D01*
X120058000Y59855358D02*
X120058000Y59426786D01*
X120058000Y59426786D02*
X119986572Y59283929D01*
X119986572Y59283929D02*
X119915143Y59212500D01*
X119915143Y59212500D02*
X119772286Y59141072D01*
X119772286Y59141072D02*
X119558000Y59141072D01*
X120700857Y59141072D02*
X120700857Y60141072D01*
X120700857Y59998215D02*
X120772286Y60069643D01*
X120772286Y60069643D02*
X120915143Y60141072D01*
X120915143Y60141072D02*
X121129429Y60141072D01*
X121129429Y60141072D02*
X121272286Y60069643D01*
X121272286Y60069643D02*
X121343715Y59926786D01*
X121343715Y59926786D02*
X121343715Y59141072D01*
X121343715Y59926786D02*
X121415143Y60069643D01*
X121415143Y60069643D02*
X121558000Y60141072D01*
X121558000Y60141072D02*
X121772286Y60141072D01*
X121772286Y60141072D02*
X121915143Y60069643D01*
X121915143Y60069643D02*
X121986572Y59926786D01*
X121986572Y59926786D02*
X121986572Y59141072D01*
X123772286Y60712500D02*
X122486572Y58783929D01*
X124486572Y59141072D02*
X124343715Y59212500D01*
X124343715Y59212500D02*
X124272286Y59355358D01*
X124272286Y59355358D02*
X124272286Y60641072D01*
X125058000Y59141072D02*
X125058000Y60641072D01*
X125058000Y60069643D02*
X125200858Y60141072D01*
X125200858Y60141072D02*
X125486572Y60141072D01*
X125486572Y60141072D02*
X125629429Y60069643D01*
X125629429Y60069643D02*
X125700858Y59998215D01*
X125700858Y59998215D02*
X125772286Y59855358D01*
X125772286Y59855358D02*
X125772286Y59426786D01*
X125772286Y59426786D02*
X125700858Y59283929D01*
X125700858Y59283929D02*
X125629429Y59212500D01*
X125629429Y59212500D02*
X125486572Y59141072D01*
X125486572Y59141072D02*
X125200858Y59141072D01*
X125200858Y59141072D02*
X125058000Y59212500D01*
X126629429Y59141072D02*
X126486572Y59212500D01*
X126486572Y59212500D02*
X126415143Y59355358D01*
X126415143Y59355358D02*
X126415143Y60641072D01*
X127200857Y59141072D02*
X127200857Y60141072D01*
X127200857Y60641072D02*
X127129429Y60569643D01*
X127129429Y60569643D02*
X127200857Y60498215D01*
X127200857Y60498215D02*
X127272286Y60569643D01*
X127272286Y60569643D02*
X127200857Y60641072D01*
X127200857Y60641072D02*
X127200857Y60498215D01*
X128558001Y60141072D02*
X128558001Y58926786D01*
X128558001Y58926786D02*
X128486572Y58783929D01*
X128486572Y58783929D02*
X128415143Y58712500D01*
X128415143Y58712500D02*
X128272286Y58641072D01*
X128272286Y58641072D02*
X128058001Y58641072D01*
X128058001Y58641072D02*
X127915143Y58712500D01*
X128558001Y59212500D02*
X128415143Y59141072D01*
X128415143Y59141072D02*
X128129429Y59141072D01*
X128129429Y59141072D02*
X127986572Y59212500D01*
X127986572Y59212500D02*
X127915143Y59283929D01*
X127915143Y59283929D02*
X127843715Y59426786D01*
X127843715Y59426786D02*
X127843715Y59855358D01*
X127843715Y59855358D02*
X127915143Y59998215D01*
X127915143Y59998215D02*
X127986572Y60069643D01*
X127986572Y60069643D02*
X128129429Y60141072D01*
X128129429Y60141072D02*
X128415143Y60141072D01*
X128415143Y60141072D02*
X128558001Y60069643D01*
X129272286Y59141072D02*
X129272286Y60641072D01*
X129915144Y59141072D02*
X129915144Y59926786D01*
X129915144Y59926786D02*
X129843715Y60069643D01*
X129843715Y60069643D02*
X129700858Y60141072D01*
X129700858Y60141072D02*
X129486572Y60141072D01*
X129486572Y60141072D02*
X129343715Y60069643D01*
X129343715Y60069643D02*
X129272286Y59998215D01*
X131700858Y60712500D02*
X130415144Y58783929D01*
X132772287Y59212500D02*
X132629430Y59141072D01*
X132629430Y59141072D02*
X132343716Y59141072D01*
X132343716Y59141072D02*
X132200858Y59212500D01*
X132200858Y59212500D02*
X132129430Y59355358D01*
X132129430Y59355358D02*
X132129430Y59926786D01*
X132129430Y59926786D02*
X132200858Y60069643D01*
X132200858Y60069643D02*
X132343716Y60141072D01*
X132343716Y60141072D02*
X132629430Y60141072D01*
X132629430Y60141072D02*
X132772287Y60069643D01*
X132772287Y60069643D02*
X132843716Y59926786D01*
X132843716Y59926786D02*
X132843716Y59783929D01*
X132843716Y59783929D02*
X132129430Y59641072D01*
X133486572Y60141072D02*
X133486572Y59141072D01*
X133486572Y59998215D02*
X133558001Y60069643D01*
X133558001Y60069643D02*
X133700858Y60141072D01*
X133700858Y60141072D02*
X133915144Y60141072D01*
X133915144Y60141072D02*
X134058001Y60069643D01*
X134058001Y60069643D02*
X134129430Y59926786D01*
X134129430Y59926786D02*
X134129430Y59141072D01*
X134843715Y59141072D02*
X134843715Y60141072D01*
X134843715Y60641072D02*
X134772287Y60569643D01*
X134772287Y60569643D02*
X134843715Y60498215D01*
X134843715Y60498215D02*
X134915144Y60569643D01*
X134915144Y60569643D02*
X134843715Y60641072D01*
X134843715Y60641072D02*
X134843715Y60498215D01*
X136200859Y60141072D02*
X136200859Y58926786D01*
X136200859Y58926786D02*
X136129430Y58783929D01*
X136129430Y58783929D02*
X136058001Y58712500D01*
X136058001Y58712500D02*
X135915144Y58641072D01*
X135915144Y58641072D02*
X135700859Y58641072D01*
X135700859Y58641072D02*
X135558001Y58712500D01*
X136200859Y59212500D02*
X136058001Y59141072D01*
X136058001Y59141072D02*
X135772287Y59141072D01*
X135772287Y59141072D02*
X135629430Y59212500D01*
X135629430Y59212500D02*
X135558001Y59283929D01*
X135558001Y59283929D02*
X135486573Y59426786D01*
X135486573Y59426786D02*
X135486573Y59855358D01*
X135486573Y59855358D02*
X135558001Y59998215D01*
X135558001Y59998215D02*
X135629430Y60069643D01*
X135629430Y60069643D02*
X135772287Y60141072D01*
X135772287Y60141072D02*
X136058001Y60141072D01*
X136058001Y60141072D02*
X136200859Y60069643D01*
X136915144Y59141072D02*
X136915144Y60141072D01*
X136915144Y59998215D02*
X136986573Y60069643D01*
X136986573Y60069643D02*
X137129430Y60141072D01*
X137129430Y60141072D02*
X137343716Y60141072D01*
X137343716Y60141072D02*
X137486573Y60069643D01*
X137486573Y60069643D02*
X137558002Y59926786D01*
X137558002Y59926786D02*
X137558002Y59141072D01*
X137558002Y59926786D02*
X137629430Y60069643D01*
X137629430Y60069643D02*
X137772287Y60141072D01*
X137772287Y60141072D02*
X137986573Y60141072D01*
X137986573Y60141072D02*
X138129430Y60069643D01*
X138129430Y60069643D02*
X138200859Y59926786D01*
X138200859Y59926786D02*
X138200859Y59141072D01*
X139558002Y59141072D02*
X139558002Y59926786D01*
X139558002Y59926786D02*
X139486573Y60069643D01*
X139486573Y60069643D02*
X139343716Y60141072D01*
X139343716Y60141072D02*
X139058002Y60141072D01*
X139058002Y60141072D02*
X138915144Y60069643D01*
X139558002Y59212500D02*
X139415144Y59141072D01*
X139415144Y59141072D02*
X139058002Y59141072D01*
X139058002Y59141072D02*
X138915144Y59212500D01*
X138915144Y59212500D02*
X138843716Y59355358D01*
X138843716Y59355358D02*
X138843716Y59498215D01*
X138843716Y59498215D02*
X138915144Y59641072D01*
X138915144Y59641072D02*
X139058002Y59712500D01*
X139058002Y59712500D02*
X139415144Y59712500D01*
X139415144Y59712500D02*
X139558002Y59783929D01*
X140272287Y59712500D02*
X141415145Y59712500D01*
X142129430Y59141072D02*
X142129430Y60141072D01*
X142129430Y60641072D02*
X142058002Y60569643D01*
X142058002Y60569643D02*
X142129430Y60498215D01*
X142129430Y60498215D02*
X142200859Y60569643D01*
X142200859Y60569643D02*
X142129430Y60641072D01*
X142129430Y60641072D02*
X142129430Y60498215D01*
X142843716Y59141072D02*
X142843716Y60141072D01*
X142843716Y60641072D02*
X142772288Y60569643D01*
X142772288Y60569643D02*
X142843716Y60498215D01*
X142843716Y60498215D02*
X142915145Y60569643D01*
X142915145Y60569643D02*
X142843716Y60641072D01*
X142843716Y60641072D02*
X142843716Y60498215D01*
X143558002Y59141072D02*
X143558002Y60641072D01*
X143558002Y60069643D02*
X143700860Y60141072D01*
X143700860Y60141072D02*
X143986574Y60141072D01*
X143986574Y60141072D02*
X144129431Y60069643D01*
X144129431Y60069643D02*
X144200860Y59998215D01*
X144200860Y59998215D02*
X144272288Y59855358D01*
X144272288Y59855358D02*
X144272288Y59426786D01*
X144272288Y59426786D02*
X144200860Y59283929D01*
X144200860Y59283929D02*
X144129431Y59212500D01*
X144129431Y59212500D02*
X143986574Y59141072D01*
X143986574Y59141072D02*
X143700860Y59141072D01*
X143700860Y59141072D02*
X143558002Y59212500D01*
X144915145Y59712500D02*
X146058003Y59712500D01*
X146986574Y59141072D02*
X146843717Y59212500D01*
X146843717Y59212500D02*
X146772288Y59355358D01*
X146772288Y59355358D02*
X146772288Y60641072D01*
X147415145Y60141072D02*
X148200860Y60141072D01*
X148200860Y60141072D02*
X147415145Y59141072D01*
X147415145Y59141072D02*
X148200860Y59141072D01*
X148772288Y59141072D02*
X148772288Y60641072D01*
X148772288Y60069643D02*
X148915146Y60141072D01*
X148915146Y60141072D02*
X149200860Y60141072D01*
X149200860Y60141072D02*
X149343717Y60069643D01*
X149343717Y60069643D02*
X149415146Y59998215D01*
X149415146Y59998215D02*
X149486574Y59855358D01*
X149486574Y59855358D02*
X149486574Y59426786D01*
X149486574Y59426786D02*
X149415146Y59283929D01*
X149415146Y59283929D02*
X149343717Y59212500D01*
X149343717Y59212500D02*
X149200860Y59141072D01*
X149200860Y59141072D02*
X148915146Y59141072D01*
X148915146Y59141072D02*
X148772288Y59212500D01*
X150058003Y60498215D02*
X150129431Y60569643D01*
X150129431Y60569643D02*
X150272289Y60641072D01*
X150272289Y60641072D02*
X150629431Y60641072D01*
X150629431Y60641072D02*
X150772289Y60569643D01*
X150772289Y60569643D02*
X150843717Y60498215D01*
X150843717Y60498215D02*
X150915146Y60355358D01*
X150915146Y60355358D02*
X150915146Y60212500D01*
X150915146Y60212500D02*
X150843717Y59998215D01*
X150843717Y59998215D02*
X149986574Y59141072D01*
X149986574Y59141072D02*
X150915146Y59141072D01*
X151415145Y60641072D02*
X152343717Y60641072D01*
X152343717Y60641072D02*
X151843717Y60069643D01*
X151843717Y60069643D02*
X152058002Y60069643D01*
X152058002Y60069643D02*
X152200860Y59998215D01*
X152200860Y59998215D02*
X152272288Y59926786D01*
X152272288Y59926786D02*
X152343717Y59783929D01*
X152343717Y59783929D02*
X152343717Y59426786D01*
X152343717Y59426786D02*
X152272288Y59283929D01*
X152272288Y59283929D02*
X152200860Y59212500D01*
X152200860Y59212500D02*
X152058002Y59141072D01*
X152058002Y59141072D02*
X151629431Y59141072D01*
X151629431Y59141072D02*
X151486574Y59212500D01*
X151486574Y59212500D02*
X151415145Y59283929D01*
X112700856Y17461072D02*
X113557999Y17461072D01*
X113129427Y15961072D02*
X113129427Y17461072D01*
X114057998Y15961072D02*
X114057998Y17461072D01*
X114057998Y16746786D02*
X114915141Y16746786D01*
X114915141Y15961072D02*
X114915141Y17461072D01*
X115629427Y15961072D02*
X115629427Y17461072D01*
X116272285Y16032500D02*
X116486571Y15961072D01*
X116486571Y15961072D02*
X116843713Y15961072D01*
X116843713Y15961072D02*
X116986571Y16032500D01*
X116986571Y16032500D02*
X117057999Y16103929D01*
X117057999Y16103929D02*
X117129428Y16246786D01*
X117129428Y16246786D02*
X117129428Y16389643D01*
X117129428Y16389643D02*
X117057999Y16532500D01*
X117057999Y16532500D02*
X116986571Y16603929D01*
X116986571Y16603929D02*
X116843713Y16675358D01*
X116843713Y16675358D02*
X116557999Y16746786D01*
X116557999Y16746786D02*
X116415142Y16818215D01*
X116415142Y16818215D02*
X116343713Y16889643D01*
X116343713Y16889643D02*
X116272285Y17032500D01*
X116272285Y17032500D02*
X116272285Y17175358D01*
X116272285Y17175358D02*
X116343713Y17318215D01*
X116343713Y17318215D02*
X116415142Y17389643D01*
X116415142Y17389643D02*
X116557999Y17461072D01*
X116557999Y17461072D02*
X116915142Y17461072D01*
X116915142Y17461072D02*
X117129428Y17389643D01*
X118843713Y16032500D02*
X119057999Y15961072D01*
X119057999Y15961072D02*
X119415141Y15961072D01*
X119415141Y15961072D02*
X119557999Y16032500D01*
X119557999Y16032500D02*
X119629427Y16103929D01*
X119629427Y16103929D02*
X119700856Y16246786D01*
X119700856Y16246786D02*
X119700856Y16389643D01*
X119700856Y16389643D02*
X119629427Y16532500D01*
X119629427Y16532500D02*
X119557999Y16603929D01*
X119557999Y16603929D02*
X119415141Y16675358D01*
X119415141Y16675358D02*
X119129427Y16746786D01*
X119129427Y16746786D02*
X118986570Y16818215D01*
X118986570Y16818215D02*
X118915141Y16889643D01*
X118915141Y16889643D02*
X118843713Y17032500D01*
X118843713Y17032500D02*
X118843713Y17175358D01*
X118843713Y17175358D02*
X118915141Y17318215D01*
X118915141Y17318215D02*
X118986570Y17389643D01*
X118986570Y17389643D02*
X119129427Y17461072D01*
X119129427Y17461072D02*
X119486570Y17461072D01*
X119486570Y17461072D02*
X119700856Y17389643D01*
X120343712Y15961072D02*
X120343712Y17461072D01*
X121057998Y15961072D02*
X121057998Y17461072D01*
X121057998Y17461072D02*
X121415141Y17461072D01*
X121415141Y17461072D02*
X121629427Y17389643D01*
X121629427Y17389643D02*
X121772284Y17246786D01*
X121772284Y17246786D02*
X121843713Y17103929D01*
X121843713Y17103929D02*
X121915141Y16818215D01*
X121915141Y16818215D02*
X121915141Y16603929D01*
X121915141Y16603929D02*
X121843713Y16318215D01*
X121843713Y16318215D02*
X121772284Y16175358D01*
X121772284Y16175358D02*
X121629427Y16032500D01*
X121629427Y16032500D02*
X121415141Y15961072D01*
X121415141Y15961072D02*
X121057998Y15961072D01*
X122557998Y16746786D02*
X123057998Y16746786D01*
X123272284Y15961072D02*
X122557998Y15961072D01*
X122557998Y15961072D02*
X122557998Y17461072D01*
X122557998Y17461072D02*
X123272284Y17461072D01*
X125057998Y15961072D02*
X125057998Y17461072D01*
X125772284Y15961072D02*
X125772284Y17461072D01*
X125772284Y17461072D02*
X126629427Y15961072D01*
X126629427Y15961072D02*
X126629427Y17461072D01*
X127129428Y17461072D02*
X127986571Y17461072D01*
X127557999Y15961072D02*
X127557999Y17461072D01*
X128772285Y17461072D02*
X129057999Y17461072D01*
X129057999Y17461072D02*
X129200856Y17389643D01*
X129200856Y17389643D02*
X129343713Y17246786D01*
X129343713Y17246786D02*
X129415142Y16961072D01*
X129415142Y16961072D02*
X129415142Y16461072D01*
X129415142Y16461072D02*
X129343713Y16175358D01*
X129343713Y16175358D02*
X129200856Y16032500D01*
X129200856Y16032500D02*
X129057999Y15961072D01*
X129057999Y15961072D02*
X128772285Y15961072D01*
X128772285Y15961072D02*
X128629428Y16032500D01*
X128629428Y16032500D02*
X128486570Y16175358D01*
X128486570Y16175358D02*
X128415142Y16461072D01*
X128415142Y16461072D02*
X128415142Y16961072D01*
X128415142Y16961072D02*
X128486570Y17246786D01*
X128486570Y17246786D02*
X128629428Y17389643D01*
X128629428Y17389643D02*
X128772285Y17461072D01*
X131200856Y15961072D02*
X131200856Y17461072D01*
X131200856Y17461072D02*
X131700856Y16389643D01*
X131700856Y16389643D02*
X132200856Y17461072D01*
X132200856Y17461072D02*
X132200856Y15961072D01*
X132843714Y16389643D02*
X133558000Y16389643D01*
X132700857Y15961072D02*
X133200857Y17461072D01*
X133200857Y17461072D02*
X133700857Y15961072D01*
X135057999Y16103929D02*
X134986571Y16032500D01*
X134986571Y16032500D02*
X134772285Y15961072D01*
X134772285Y15961072D02*
X134629428Y15961072D01*
X134629428Y15961072D02*
X134415142Y16032500D01*
X134415142Y16032500D02*
X134272285Y16175358D01*
X134272285Y16175358D02*
X134200856Y16318215D01*
X134200856Y16318215D02*
X134129428Y16603929D01*
X134129428Y16603929D02*
X134129428Y16818215D01*
X134129428Y16818215D02*
X134200856Y17103929D01*
X134200856Y17103929D02*
X134272285Y17246786D01*
X134272285Y17246786D02*
X134415142Y17389643D01*
X134415142Y17389643D02*
X134629428Y17461072D01*
X134629428Y17461072D02*
X134772285Y17461072D01*
X134772285Y17461072D02*
X134986571Y17389643D01*
X134986571Y17389643D02*
X135057999Y17318215D01*
X135700856Y15961072D02*
X135700856Y17461072D01*
X135700856Y16746786D02*
X136557999Y16746786D01*
X136557999Y15961072D02*
X136557999Y17461072D01*
X137272285Y15961072D02*
X137272285Y17461072D01*
X137986571Y15961072D02*
X137986571Y17461072D01*
X137986571Y17461072D02*
X138843714Y15961072D01*
X138843714Y15961072D02*
X138843714Y17461072D01*
X139558000Y16746786D02*
X140058000Y16746786D01*
X140272286Y15961072D02*
X139558000Y15961072D01*
X139558000Y15961072D02*
X139558000Y17461072D01*
X139558000Y17461072D02*
X140272286Y17461072D01*
X198900857Y36479500D02*
X199115143Y36408072D01*
X199115143Y36408072D02*
X199472285Y36408072D01*
X199472285Y36408072D02*
X199615143Y36479500D01*
X199615143Y36479500D02*
X199686571Y36550929D01*
X199686571Y36550929D02*
X199758000Y36693786D01*
X199758000Y36693786D02*
X199758000Y36836643D01*
X199758000Y36836643D02*
X199686571Y36979500D01*
X199686571Y36979500D02*
X199615143Y37050929D01*
X199615143Y37050929D02*
X199472285Y37122358D01*
X199472285Y37122358D02*
X199186571Y37193786D01*
X199186571Y37193786D02*
X199043714Y37265215D01*
X199043714Y37265215D02*
X198972285Y37336643D01*
X198972285Y37336643D02*
X198900857Y37479500D01*
X198900857Y37479500D02*
X198900857Y37622358D01*
X198900857Y37622358D02*
X198972285Y37765215D01*
X198972285Y37765215D02*
X199043714Y37836643D01*
X199043714Y37836643D02*
X199186571Y37908072D01*
X199186571Y37908072D02*
X199543714Y37908072D01*
X199543714Y37908072D02*
X199758000Y37836643D01*
X201257999Y36550929D02*
X201186571Y36479500D01*
X201186571Y36479500D02*
X200972285Y36408072D01*
X200972285Y36408072D02*
X200829428Y36408072D01*
X200829428Y36408072D02*
X200615142Y36479500D01*
X200615142Y36479500D02*
X200472285Y36622358D01*
X200472285Y36622358D02*
X200400856Y36765215D01*
X200400856Y36765215D02*
X200329428Y37050929D01*
X200329428Y37050929D02*
X200329428Y37265215D01*
X200329428Y37265215D02*
X200400856Y37550929D01*
X200400856Y37550929D02*
X200472285Y37693786D01*
X200472285Y37693786D02*
X200615142Y37836643D01*
X200615142Y37836643D02*
X200829428Y37908072D01*
X200829428Y37908072D02*
X200972285Y37908072D01*
X200972285Y37908072D02*
X201186571Y37836643D01*
X201186571Y37836643D02*
X201257999Y37765215D01*
X202615142Y36408072D02*
X201900856Y36408072D01*
X201900856Y36408072D02*
X201900856Y37908072D01*
X198829429Y39019500D02*
X199043715Y38948072D01*
X199043715Y38948072D02*
X199400857Y38948072D01*
X199400857Y38948072D02*
X199543715Y39019500D01*
X199543715Y39019500D02*
X199615143Y39090929D01*
X199615143Y39090929D02*
X199686572Y39233786D01*
X199686572Y39233786D02*
X199686572Y39376643D01*
X199686572Y39376643D02*
X199615143Y39519500D01*
X199615143Y39519500D02*
X199543715Y39590929D01*
X199543715Y39590929D02*
X199400857Y39662358D01*
X199400857Y39662358D02*
X199115143Y39733786D01*
X199115143Y39733786D02*
X198972286Y39805215D01*
X198972286Y39805215D02*
X198900857Y39876643D01*
X198900857Y39876643D02*
X198829429Y40019500D01*
X198829429Y40019500D02*
X198829429Y40162358D01*
X198829429Y40162358D02*
X198900857Y40305215D01*
X198900857Y40305215D02*
X198972286Y40376643D01*
X198972286Y40376643D02*
X199115143Y40448072D01*
X199115143Y40448072D02*
X199472286Y40448072D01*
X199472286Y40448072D02*
X199686572Y40376643D01*
X200329428Y38948072D02*
X200329428Y40448072D01*
X200329428Y40448072D02*
X200686571Y40448072D01*
X200686571Y40448072D02*
X200900857Y40376643D01*
X200900857Y40376643D02*
X201043714Y40233786D01*
X201043714Y40233786D02*
X201115143Y40090929D01*
X201115143Y40090929D02*
X201186571Y39805215D01*
X201186571Y39805215D02*
X201186571Y39590929D01*
X201186571Y39590929D02*
X201115143Y39305215D01*
X201115143Y39305215D02*
X201043714Y39162358D01*
X201043714Y39162358D02*
X200900857Y39019500D01*
X200900857Y39019500D02*
X200686571Y38948072D01*
X200686571Y38948072D02*
X200329428Y38948072D01*
X201758000Y39376643D02*
X202472286Y39376643D01*
X201615143Y38948072D02*
X202115143Y40448072D01*
X202115143Y40448072D02*
X202615143Y38948072D01*
X198742143Y42988072D02*
X199242143Y41488072D01*
X199242143Y41488072D02*
X199742143Y42988072D01*
X200242142Y41488072D02*
X200242142Y42988072D01*
X200242142Y42988072D02*
X200599285Y42988072D01*
X200599285Y42988072D02*
X200813571Y42916643D01*
X200813571Y42916643D02*
X200956428Y42773786D01*
X200956428Y42773786D02*
X201027857Y42630929D01*
X201027857Y42630929D02*
X201099285Y42345215D01*
X201099285Y42345215D02*
X201099285Y42130929D01*
X201099285Y42130929D02*
X201027857Y41845215D01*
X201027857Y41845215D02*
X200956428Y41702358D01*
X200956428Y41702358D02*
X200813571Y41559500D01*
X200813571Y41559500D02*
X200599285Y41488072D01*
X200599285Y41488072D02*
X200242142Y41488072D01*
X201742142Y41488072D02*
X201742142Y42988072D01*
X201742142Y42988072D02*
X202099285Y42988072D01*
X202099285Y42988072D02*
X202313571Y42916643D01*
X202313571Y42916643D02*
X202456428Y42773786D01*
X202456428Y42773786D02*
X202527857Y42630929D01*
X202527857Y42630929D02*
X202599285Y42345215D01*
X202599285Y42345215D02*
X202599285Y42130929D01*
X202599285Y42130929D02*
X202527857Y41845215D01*
X202527857Y41845215D02*
X202456428Y41702358D01*
X202456428Y41702358D02*
X202313571Y41559500D01*
X202313571Y41559500D02*
X202099285Y41488072D01*
X202099285Y41488072D02*
X201742142Y41488072D01*
X198885001Y45528072D02*
X199385001Y44028072D01*
X199385001Y44028072D02*
X199885001Y45528072D01*
X200313572Y44099500D02*
X200527858Y44028072D01*
X200527858Y44028072D02*
X200885000Y44028072D01*
X200885000Y44028072D02*
X201027858Y44099500D01*
X201027858Y44099500D02*
X201099286Y44170929D01*
X201099286Y44170929D02*
X201170715Y44313786D01*
X201170715Y44313786D02*
X201170715Y44456643D01*
X201170715Y44456643D02*
X201099286Y44599500D01*
X201099286Y44599500D02*
X201027858Y44670929D01*
X201027858Y44670929D02*
X200885000Y44742358D01*
X200885000Y44742358D02*
X200599286Y44813786D01*
X200599286Y44813786D02*
X200456429Y44885215D01*
X200456429Y44885215D02*
X200385000Y44956643D01*
X200385000Y44956643D02*
X200313572Y45099500D01*
X200313572Y45099500D02*
X200313572Y45242358D01*
X200313572Y45242358D02*
X200385000Y45385215D01*
X200385000Y45385215D02*
X200456429Y45456643D01*
X200456429Y45456643D02*
X200599286Y45528072D01*
X200599286Y45528072D02*
X200956429Y45528072D01*
X200956429Y45528072D02*
X201170715Y45456643D01*
X201742143Y44099500D02*
X201956429Y44028072D01*
X201956429Y44028072D02*
X202313571Y44028072D01*
X202313571Y44028072D02*
X202456429Y44099500D01*
X202456429Y44099500D02*
X202527857Y44170929D01*
X202527857Y44170929D02*
X202599286Y44313786D01*
X202599286Y44313786D02*
X202599286Y44456643D01*
X202599286Y44456643D02*
X202527857Y44599500D01*
X202527857Y44599500D02*
X202456429Y44670929D01*
X202456429Y44670929D02*
X202313571Y44742358D01*
X202313571Y44742358D02*
X202027857Y44813786D01*
X202027857Y44813786D02*
X201885000Y44885215D01*
X201885000Y44885215D02*
X201813571Y44956643D01*
X201813571Y44956643D02*
X201742143Y45099500D01*
X201742143Y45099500D02*
X201742143Y45242358D01*
X201742143Y45242358D02*
X201813571Y45385215D01*
X201813571Y45385215D02*
X201885000Y45456643D01*
X201885000Y45456643D02*
X202027857Y45528072D01*
X202027857Y45528072D02*
X202385000Y45528072D01*
X202385000Y45528072D02*
X202599286Y45456643D01*
X119970714Y41162429D02*
X119899286Y41091000D01*
X119899286Y41091000D02*
X119685000Y41019572D01*
X119685000Y41019572D02*
X119542143Y41019572D01*
X119542143Y41019572D02*
X119327857Y41091000D01*
X119327857Y41091000D02*
X119185000Y41233858D01*
X119185000Y41233858D02*
X119113571Y41376715D01*
X119113571Y41376715D02*
X119042143Y41662429D01*
X119042143Y41662429D02*
X119042143Y41876715D01*
X119042143Y41876715D02*
X119113571Y42162429D01*
X119113571Y42162429D02*
X119185000Y42305286D01*
X119185000Y42305286D02*
X119327857Y42448143D01*
X119327857Y42448143D02*
X119542143Y42519572D01*
X119542143Y42519572D02*
X119685000Y42519572D01*
X119685000Y42519572D02*
X119899286Y42448143D01*
X119899286Y42448143D02*
X119970714Y42376715D01*
X120613571Y42519572D02*
X120613571Y41305286D01*
X120613571Y41305286D02*
X120685000Y41162429D01*
X120685000Y41162429D02*
X120756429Y41091000D01*
X120756429Y41091000D02*
X120899286Y41019572D01*
X120899286Y41019572D02*
X121185000Y41019572D01*
X121185000Y41019572D02*
X121327857Y41091000D01*
X121327857Y41091000D02*
X121399286Y41162429D01*
X121399286Y41162429D02*
X121470714Y41305286D01*
X121470714Y41305286D02*
X121470714Y42519572D01*
X122185000Y41805286D02*
X122685000Y41805286D01*
X122899286Y41019572D02*
X122185000Y41019572D01*
X122185000Y41019572D02*
X122185000Y42519572D01*
X122185000Y42519572D02*
X122899286Y42519572D01*
X123542143Y41019572D02*
X123542143Y42519572D01*
X123542143Y42519572D02*
X123899286Y42519572D01*
X123899286Y42519572D02*
X124113572Y42448143D01*
X124113572Y42448143D02*
X124256429Y42305286D01*
X124256429Y42305286D02*
X124327858Y42162429D01*
X124327858Y42162429D02*
X124399286Y41876715D01*
X124399286Y41876715D02*
X124399286Y41662429D01*
X124399286Y41662429D02*
X124327858Y41376715D01*
X124327858Y41376715D02*
X124256429Y41233858D01*
X124256429Y41233858D02*
X124113572Y41091000D01*
X124113572Y41091000D02*
X123899286Y41019572D01*
X123899286Y41019572D02*
X123542143Y41019572D01*
X126542143Y40519572D02*
X126542143Y42662429D01*
X128970714Y41019572D02*
X128827857Y41091000D01*
X128827857Y41091000D02*
X128756428Y41233858D01*
X128756428Y41233858D02*
X128756428Y42519572D01*
X129399285Y42019572D02*
X130185000Y42019572D01*
X130185000Y42019572D02*
X129399285Y41019572D01*
X129399285Y41019572D02*
X130185000Y41019572D01*
X130756428Y41019572D02*
X130756428Y42519572D01*
X130756428Y41948143D02*
X130899286Y42019572D01*
X130899286Y42019572D02*
X131185000Y42019572D01*
X131185000Y42019572D02*
X131327857Y41948143D01*
X131327857Y41948143D02*
X131399286Y41876715D01*
X131399286Y41876715D02*
X131470714Y41733858D01*
X131470714Y41733858D02*
X131470714Y41305286D01*
X131470714Y41305286D02*
X131399286Y41162429D01*
X131399286Y41162429D02*
X131327857Y41091000D01*
X131327857Y41091000D02*
X131185000Y41019572D01*
X131185000Y41019572D02*
X130899286Y41019572D01*
X130899286Y41019572D02*
X130756428Y41091000D01*
X132042143Y42376715D02*
X132113571Y42448143D01*
X132113571Y42448143D02*
X132256429Y42519572D01*
X132256429Y42519572D02*
X132613571Y42519572D01*
X132613571Y42519572D02*
X132756429Y42448143D01*
X132756429Y42448143D02*
X132827857Y42376715D01*
X132827857Y42376715D02*
X132899286Y42233858D01*
X132899286Y42233858D02*
X132899286Y42091000D01*
X132899286Y42091000D02*
X132827857Y41876715D01*
X132827857Y41876715D02*
X131970714Y41019572D01*
X131970714Y41019572D02*
X132899286Y41019572D01*
X133399285Y42519572D02*
X134327857Y42519572D01*
X134327857Y42519572D02*
X133827857Y41948143D01*
X133827857Y41948143D02*
X134042142Y41948143D01*
X134042142Y41948143D02*
X134185000Y41876715D01*
X134185000Y41876715D02*
X134256428Y41805286D01*
X134256428Y41805286D02*
X134327857Y41662429D01*
X134327857Y41662429D02*
X134327857Y41305286D01*
X134327857Y41305286D02*
X134256428Y41162429D01*
X134256428Y41162429D02*
X134185000Y41091000D01*
X134185000Y41091000D02*
X134042142Y41019572D01*
X134042142Y41019572D02*
X133613571Y41019572D01*
X133613571Y41019572D02*
X133470714Y41091000D01*
X133470714Y41091000D02*
X133399285Y41162429D01*
X116720713Y39375286D02*
X117220713Y39375286D01*
X117434999Y38589572D02*
X116720713Y38589572D01*
X116720713Y38589572D02*
X116720713Y40089572D01*
X116720713Y40089572D02*
X117434999Y40089572D01*
X118077856Y39589572D02*
X118077856Y38589572D01*
X118077856Y39446715D02*
X118149285Y39518143D01*
X118149285Y39518143D02*
X118292142Y39589572D01*
X118292142Y39589572D02*
X118506428Y39589572D01*
X118506428Y39589572D02*
X118649285Y39518143D01*
X118649285Y39518143D02*
X118720714Y39375286D01*
X118720714Y39375286D02*
X118720714Y38589572D01*
X119434999Y38589572D02*
X119434999Y39589572D01*
X119434999Y40089572D02*
X119363571Y40018143D01*
X119363571Y40018143D02*
X119434999Y39946715D01*
X119434999Y39946715D02*
X119506428Y40018143D01*
X119506428Y40018143D02*
X119434999Y40089572D01*
X119434999Y40089572D02*
X119434999Y39946715D01*
X120792143Y39589572D02*
X120792143Y38375286D01*
X120792143Y38375286D02*
X120720714Y38232429D01*
X120720714Y38232429D02*
X120649285Y38161000D01*
X120649285Y38161000D02*
X120506428Y38089572D01*
X120506428Y38089572D02*
X120292143Y38089572D01*
X120292143Y38089572D02*
X120149285Y38161000D01*
X120792143Y38661000D02*
X120649285Y38589572D01*
X120649285Y38589572D02*
X120363571Y38589572D01*
X120363571Y38589572D02*
X120220714Y38661000D01*
X120220714Y38661000D02*
X120149285Y38732429D01*
X120149285Y38732429D02*
X120077857Y38875286D01*
X120077857Y38875286D02*
X120077857Y39303858D01*
X120077857Y39303858D02*
X120149285Y39446715D01*
X120149285Y39446715D02*
X120220714Y39518143D01*
X120220714Y39518143D02*
X120363571Y39589572D01*
X120363571Y39589572D02*
X120649285Y39589572D01*
X120649285Y39589572D02*
X120792143Y39518143D01*
X121506428Y38589572D02*
X121506428Y39589572D01*
X121506428Y39446715D02*
X121577857Y39518143D01*
X121577857Y39518143D02*
X121720714Y39589572D01*
X121720714Y39589572D02*
X121935000Y39589572D01*
X121935000Y39589572D02*
X122077857Y39518143D01*
X122077857Y39518143D02*
X122149286Y39375286D01*
X122149286Y39375286D02*
X122149286Y38589572D01*
X122149286Y39375286D02*
X122220714Y39518143D01*
X122220714Y39518143D02*
X122363571Y39589572D01*
X122363571Y39589572D02*
X122577857Y39589572D01*
X122577857Y39589572D02*
X122720714Y39518143D01*
X122720714Y39518143D02*
X122792143Y39375286D01*
X122792143Y39375286D02*
X122792143Y38589572D01*
X124149286Y38589572D02*
X124149286Y39375286D01*
X124149286Y39375286D02*
X124077857Y39518143D01*
X124077857Y39518143D02*
X123935000Y39589572D01*
X123935000Y39589572D02*
X123649286Y39589572D01*
X123649286Y39589572D02*
X123506428Y39518143D01*
X124149286Y38661000D02*
X124006428Y38589572D01*
X124006428Y38589572D02*
X123649286Y38589572D01*
X123649286Y38589572D02*
X123506428Y38661000D01*
X123506428Y38661000D02*
X123435000Y38803858D01*
X123435000Y38803858D02*
X123435000Y38946715D01*
X123435000Y38946715D02*
X123506428Y39089572D01*
X123506428Y39089572D02*
X123649286Y39161000D01*
X123649286Y39161000D02*
X124006428Y39161000D01*
X124006428Y39161000D02*
X124149286Y39232429D01*
X126006428Y38589572D02*
X126006428Y40089572D01*
X126006428Y40089572D02*
X126577857Y40089572D01*
X126577857Y40089572D02*
X126720714Y40018143D01*
X126720714Y40018143D02*
X126792143Y39946715D01*
X126792143Y39946715D02*
X126863571Y39803858D01*
X126863571Y39803858D02*
X126863571Y39589572D01*
X126863571Y39589572D02*
X126792143Y39446715D01*
X126792143Y39446715D02*
X126720714Y39375286D01*
X126720714Y39375286D02*
X126577857Y39303858D01*
X126577857Y39303858D02*
X126006428Y39303858D01*
X127720714Y38589572D02*
X127577857Y38661000D01*
X127577857Y38661000D02*
X127506428Y38803858D01*
X127506428Y38803858D02*
X127506428Y40089572D01*
X128935000Y39589572D02*
X128935000Y38589572D01*
X128292142Y39589572D02*
X128292142Y38803858D01*
X128292142Y38803858D02*
X128363571Y38661000D01*
X128363571Y38661000D02*
X128506428Y38589572D01*
X128506428Y38589572D02*
X128720714Y38589572D01*
X128720714Y38589572D02*
X128863571Y38661000D01*
X128863571Y38661000D02*
X128935000Y38732429D01*
X130292143Y39589572D02*
X130292143Y38375286D01*
X130292143Y38375286D02*
X130220714Y38232429D01*
X130220714Y38232429D02*
X130149285Y38161000D01*
X130149285Y38161000D02*
X130006428Y38089572D01*
X130006428Y38089572D02*
X129792143Y38089572D01*
X129792143Y38089572D02*
X129649285Y38161000D01*
X130292143Y38661000D02*
X130149285Y38589572D01*
X130149285Y38589572D02*
X129863571Y38589572D01*
X129863571Y38589572D02*
X129720714Y38661000D01*
X129720714Y38661000D02*
X129649285Y38732429D01*
X129649285Y38732429D02*
X129577857Y38875286D01*
X129577857Y38875286D02*
X129577857Y39303858D01*
X129577857Y39303858D02*
X129649285Y39446715D01*
X129649285Y39446715D02*
X129720714Y39518143D01*
X129720714Y39518143D02*
X129863571Y39589572D01*
X129863571Y39589572D02*
X130149285Y39589572D01*
X130149285Y39589572D02*
X130292143Y39518143D01*
X131006428Y38589572D02*
X131006428Y40089572D01*
X131006428Y39518143D02*
X131149286Y39589572D01*
X131149286Y39589572D02*
X131435000Y39589572D01*
X131435000Y39589572D02*
X131577857Y39518143D01*
X131577857Y39518143D02*
X131649286Y39446715D01*
X131649286Y39446715D02*
X131720714Y39303858D01*
X131720714Y39303858D02*
X131720714Y38875286D01*
X131720714Y38875286D02*
X131649286Y38732429D01*
X131649286Y38732429D02*
X131577857Y38661000D01*
X131577857Y38661000D02*
X131435000Y38589572D01*
X131435000Y38589572D02*
X131149286Y38589572D01*
X131149286Y38589572D02*
X131006428Y38661000D01*
X132577857Y38589572D02*
X132435000Y38661000D01*
X132435000Y38661000D02*
X132363571Y38732429D01*
X132363571Y38732429D02*
X132292143Y38875286D01*
X132292143Y38875286D02*
X132292143Y39303858D01*
X132292143Y39303858D02*
X132363571Y39446715D01*
X132363571Y39446715D02*
X132435000Y39518143D01*
X132435000Y39518143D02*
X132577857Y39589572D01*
X132577857Y39589572D02*
X132792143Y39589572D01*
X132792143Y39589572D02*
X132935000Y39518143D01*
X132935000Y39518143D02*
X133006429Y39446715D01*
X133006429Y39446715D02*
X133077857Y39303858D01*
X133077857Y39303858D02*
X133077857Y38875286D01*
X133077857Y38875286D02*
X133006429Y38732429D01*
X133006429Y38732429D02*
X132935000Y38661000D01*
X132935000Y38661000D02*
X132792143Y38589572D01*
X132792143Y38589572D02*
X132577857Y38589572D01*
X134363572Y38589572D02*
X134363572Y39375286D01*
X134363572Y39375286D02*
X134292143Y39518143D01*
X134292143Y39518143D02*
X134149286Y39589572D01*
X134149286Y39589572D02*
X133863572Y39589572D01*
X133863572Y39589572D02*
X133720714Y39518143D01*
X134363572Y38661000D02*
X134220714Y38589572D01*
X134220714Y38589572D02*
X133863572Y38589572D01*
X133863572Y38589572D02*
X133720714Y38661000D01*
X133720714Y38661000D02*
X133649286Y38803858D01*
X133649286Y38803858D02*
X133649286Y38946715D01*
X133649286Y38946715D02*
X133720714Y39089572D01*
X133720714Y39089572D02*
X133863572Y39161000D01*
X133863572Y39161000D02*
X134220714Y39161000D01*
X134220714Y39161000D02*
X134363572Y39232429D01*
X135077857Y38589572D02*
X135077857Y39589572D01*
X135077857Y39303858D02*
X135149286Y39446715D01*
X135149286Y39446715D02*
X135220715Y39518143D01*
X135220715Y39518143D02*
X135363572Y39589572D01*
X135363572Y39589572D02*
X135506429Y39589572D01*
X136649286Y38589572D02*
X136649286Y40089572D01*
X136649286Y38661000D02*
X136506428Y38589572D01*
X136506428Y38589572D02*
X136220714Y38589572D01*
X136220714Y38589572D02*
X136077857Y38661000D01*
X136077857Y38661000D02*
X136006428Y38732429D01*
X136006428Y38732429D02*
X135935000Y38875286D01*
X135935000Y38875286D02*
X135935000Y39303858D01*
X135935000Y39303858D02*
X136006428Y39446715D01*
X136006428Y39446715D02*
X136077857Y39518143D01*
X136077857Y39518143D02*
X136220714Y39589572D01*
X136220714Y39589572D02*
X136506428Y39589572D01*
X136506428Y39589572D02*
X136649286Y39518143D01*
X124542143Y37159572D02*
X124899286Y36159572D01*
X124899286Y36159572D02*
X125256429Y37159572D01*
X126613572Y36159572D02*
X125756429Y36159572D01*
X126185000Y36159572D02*
X126185000Y37659572D01*
X126185000Y37659572D02*
X126042143Y37445286D01*
X126042143Y37445286D02*
X125899286Y37302429D01*
X125899286Y37302429D02*
X125756429Y37231000D01*
X127256428Y36302429D02*
X127327857Y36231000D01*
X127327857Y36231000D02*
X127256428Y36159572D01*
X127256428Y36159572D02*
X127185000Y36231000D01*
X127185000Y36231000D02*
X127256428Y36302429D01*
X127256428Y36302429D02*
X127256428Y36159572D01*
X128256429Y37659572D02*
X128399286Y37659572D01*
X128399286Y37659572D02*
X128542143Y37588143D01*
X128542143Y37588143D02*
X128613572Y37516715D01*
X128613572Y37516715D02*
X128685000Y37373858D01*
X128685000Y37373858D02*
X128756429Y37088143D01*
X128756429Y37088143D02*
X128756429Y36731000D01*
X128756429Y36731000D02*
X128685000Y36445286D01*
X128685000Y36445286D02*
X128613572Y36302429D01*
X128613572Y36302429D02*
X128542143Y36231000D01*
X128542143Y36231000D02*
X128399286Y36159572D01*
X128399286Y36159572D02*
X128256429Y36159572D01*
X128256429Y36159572D02*
X128113572Y36231000D01*
X128113572Y36231000D02*
X128042143Y36302429D01*
X128042143Y36302429D02*
X127970714Y36445286D01*
X127970714Y36445286D02*
X127899286Y36731000D01*
X127899286Y36731000D02*
X127899286Y37088143D01*
X127899286Y37088143D02*
X127970714Y37373858D01*
X127970714Y37373858D02*
X128042143Y37516715D01*
X128042143Y37516715D02*
X128113572Y37588143D01*
X128113572Y37588143D02*
X128256429Y37659572D01*
X122613572Y35229572D02*
X121899286Y35229572D01*
X121899286Y35229572D02*
X121827858Y34515286D01*
X121827858Y34515286D02*
X121899286Y34586715D01*
X121899286Y34586715D02*
X122042144Y34658143D01*
X122042144Y34658143D02*
X122399286Y34658143D01*
X122399286Y34658143D02*
X122542144Y34586715D01*
X122542144Y34586715D02*
X122613572Y34515286D01*
X122613572Y34515286D02*
X122685001Y34372429D01*
X122685001Y34372429D02*
X122685001Y34015286D01*
X122685001Y34015286D02*
X122613572Y33872429D01*
X122613572Y33872429D02*
X122542144Y33801000D01*
X122542144Y33801000D02*
X122399286Y33729572D01*
X122399286Y33729572D02*
X122042144Y33729572D01*
X122042144Y33729572D02*
X121899286Y33801000D01*
X121899286Y33801000D02*
X121827858Y33872429D01*
X124399286Y35301000D02*
X123113572Y33372429D01*
X125185001Y35229572D02*
X125327858Y35229572D01*
X125327858Y35229572D02*
X125470715Y35158143D01*
X125470715Y35158143D02*
X125542144Y35086715D01*
X125542144Y35086715D02*
X125613572Y34943858D01*
X125613572Y34943858D02*
X125685001Y34658143D01*
X125685001Y34658143D02*
X125685001Y34301000D01*
X125685001Y34301000D02*
X125613572Y34015286D01*
X125613572Y34015286D02*
X125542144Y33872429D01*
X125542144Y33872429D02*
X125470715Y33801000D01*
X125470715Y33801000D02*
X125327858Y33729572D01*
X125327858Y33729572D02*
X125185001Y33729572D01*
X125185001Y33729572D02*
X125042144Y33801000D01*
X125042144Y33801000D02*
X124970715Y33872429D01*
X124970715Y33872429D02*
X124899286Y34015286D01*
X124899286Y34015286D02*
X124827858Y34301000D01*
X124827858Y34301000D02*
X124827858Y34658143D01*
X124827858Y34658143D02*
X124899286Y34943858D01*
X124899286Y34943858D02*
X124970715Y35086715D01*
X124970715Y35086715D02*
X125042144Y35158143D01*
X125042144Y35158143D02*
X125185001Y35229572D01*
X126256429Y35086715D02*
X126327857Y35158143D01*
X126327857Y35158143D02*
X126470715Y35229572D01*
X126470715Y35229572D02*
X126827857Y35229572D01*
X126827857Y35229572D02*
X126970715Y35158143D01*
X126970715Y35158143D02*
X127042143Y35086715D01*
X127042143Y35086715D02*
X127113572Y34943858D01*
X127113572Y34943858D02*
X127113572Y34801000D01*
X127113572Y34801000D02*
X127042143Y34586715D01*
X127042143Y34586715D02*
X126185000Y33729572D01*
X126185000Y33729572D02*
X127113572Y33729572D01*
X128827857Y35301000D02*
X127542143Y33372429D01*
X129256429Y35086715D02*
X129327857Y35158143D01*
X129327857Y35158143D02*
X129470715Y35229572D01*
X129470715Y35229572D02*
X129827857Y35229572D01*
X129827857Y35229572D02*
X129970715Y35158143D01*
X129970715Y35158143D02*
X130042143Y35086715D01*
X130042143Y35086715D02*
X130113572Y34943858D01*
X130113572Y34943858D02*
X130113572Y34801000D01*
X130113572Y34801000D02*
X130042143Y34586715D01*
X130042143Y34586715D02*
X129185000Y33729572D01*
X129185000Y33729572D02*
X130113572Y33729572D01*
X131399286Y34729572D02*
X131399286Y33729572D01*
X131042143Y35301000D02*
X130685000Y34229572D01*
X130685000Y34229572D02*
X131613571Y34229572D01*
D11*
%TO.C,J29*%
X234450476Y47207381D02*
X234450476Y46493096D01*
X234450476Y46493096D02*
X234402857Y46350239D01*
X234402857Y46350239D02*
X234307619Y46255000D01*
X234307619Y46255000D02*
X234164762Y46207381D01*
X234164762Y46207381D02*
X234069524Y46207381D01*
X234879048Y47112143D02*
X234926667Y47159762D01*
X234926667Y47159762D02*
X235021905Y47207381D01*
X235021905Y47207381D02*
X235260000Y47207381D01*
X235260000Y47207381D02*
X235355238Y47159762D01*
X235355238Y47159762D02*
X235402857Y47112143D01*
X235402857Y47112143D02*
X235450476Y47016905D01*
X235450476Y47016905D02*
X235450476Y46921667D01*
X235450476Y46921667D02*
X235402857Y46778810D01*
X235402857Y46778810D02*
X234831429Y46207381D01*
X234831429Y46207381D02*
X235450476Y46207381D01*
X235926667Y46207381D02*
X236117143Y46207381D01*
X236117143Y46207381D02*
X236212381Y46255000D01*
X236212381Y46255000D02*
X236260000Y46302620D01*
X236260000Y46302620D02*
X236355238Y46445477D01*
X236355238Y46445477D02*
X236402857Y46635953D01*
X236402857Y46635953D02*
X236402857Y47016905D01*
X236402857Y47016905D02*
X236355238Y47112143D01*
X236355238Y47112143D02*
X236307619Y47159762D01*
X236307619Y47159762D02*
X236212381Y47207381D01*
X236212381Y47207381D02*
X236021905Y47207381D01*
X236021905Y47207381D02*
X235926667Y47159762D01*
X235926667Y47159762D02*
X235879048Y47112143D01*
X235879048Y47112143D02*
X235831429Y47016905D01*
X235831429Y47016905D02*
X235831429Y46778810D01*
X235831429Y46778810D02*
X235879048Y46683572D01*
X235879048Y46683572D02*
X235926667Y46635953D01*
X235926667Y46635953D02*
X236021905Y46588334D01*
X236021905Y46588334D02*
X236212381Y46588334D01*
X236212381Y46588334D02*
X236307619Y46635953D01*
X236307619Y46635953D02*
X236355238Y46683572D01*
X236355238Y46683572D02*
X236402857Y46778810D01*
%TO.C,J28*%
X16930476Y47207381D02*
X16930476Y46493096D01*
X16930476Y46493096D02*
X16882857Y46350239D01*
X16882857Y46350239D02*
X16787619Y46255000D01*
X16787619Y46255000D02*
X16644762Y46207381D01*
X16644762Y46207381D02*
X16549524Y46207381D01*
X17359048Y47112143D02*
X17406667Y47159762D01*
X17406667Y47159762D02*
X17501905Y47207381D01*
X17501905Y47207381D02*
X17740000Y47207381D01*
X17740000Y47207381D02*
X17835238Y47159762D01*
X17835238Y47159762D02*
X17882857Y47112143D01*
X17882857Y47112143D02*
X17930476Y47016905D01*
X17930476Y47016905D02*
X17930476Y46921667D01*
X17930476Y46921667D02*
X17882857Y46778810D01*
X17882857Y46778810D02*
X17311429Y46207381D01*
X17311429Y46207381D02*
X17930476Y46207381D01*
X18501905Y46778810D02*
X18406667Y46826429D01*
X18406667Y46826429D02*
X18359048Y46874048D01*
X18359048Y46874048D02*
X18311429Y46969286D01*
X18311429Y46969286D02*
X18311429Y47016905D01*
X18311429Y47016905D02*
X18359048Y47112143D01*
X18359048Y47112143D02*
X18406667Y47159762D01*
X18406667Y47159762D02*
X18501905Y47207381D01*
X18501905Y47207381D02*
X18692381Y47207381D01*
X18692381Y47207381D02*
X18787619Y47159762D01*
X18787619Y47159762D02*
X18835238Y47112143D01*
X18835238Y47112143D02*
X18882857Y47016905D01*
X18882857Y47016905D02*
X18882857Y46969286D01*
X18882857Y46969286D02*
X18835238Y46874048D01*
X18835238Y46874048D02*
X18787619Y46826429D01*
X18787619Y46826429D02*
X18692381Y46778810D01*
X18692381Y46778810D02*
X18501905Y46778810D01*
X18501905Y46778810D02*
X18406667Y46731191D01*
X18406667Y46731191D02*
X18359048Y46683572D01*
X18359048Y46683572D02*
X18311429Y46588334D01*
X18311429Y46588334D02*
X18311429Y46397858D01*
X18311429Y46397858D02*
X18359048Y46302620D01*
X18359048Y46302620D02*
X18406667Y46255000D01*
X18406667Y46255000D02*
X18501905Y46207381D01*
X18501905Y46207381D02*
X18692381Y46207381D01*
X18692381Y46207381D02*
X18787619Y46255000D01*
X18787619Y46255000D02*
X18835238Y46302620D01*
X18835238Y46302620D02*
X18882857Y46397858D01*
X18882857Y46397858D02*
X18882857Y46588334D01*
X18882857Y46588334D02*
X18835238Y46683572D01*
X18835238Y46683572D02*
X18787619Y46731191D01*
X18787619Y46731191D02*
X18692381Y46778810D01*
%TO.C,J27*%
X203690476Y47672381D02*
X203690476Y46958096D01*
X203690476Y46958096D02*
X203642857Y46815239D01*
X203642857Y46815239D02*
X203547619Y46720000D01*
X203547619Y46720000D02*
X203404762Y46672381D01*
X203404762Y46672381D02*
X203309524Y46672381D01*
X204119048Y47577143D02*
X204166667Y47624762D01*
X204166667Y47624762D02*
X204261905Y47672381D01*
X204261905Y47672381D02*
X204500000Y47672381D01*
X204500000Y47672381D02*
X204595238Y47624762D01*
X204595238Y47624762D02*
X204642857Y47577143D01*
X204642857Y47577143D02*
X204690476Y47481905D01*
X204690476Y47481905D02*
X204690476Y47386667D01*
X204690476Y47386667D02*
X204642857Y47243810D01*
X204642857Y47243810D02*
X204071429Y46672381D01*
X204071429Y46672381D02*
X204690476Y46672381D01*
X205023810Y47672381D02*
X205690476Y47672381D01*
X205690476Y47672381D02*
X205261905Y46672381D01*
%TO.C,U1*%
X86860095Y22520381D02*
X86860095Y21710858D01*
X86860095Y21710858D02*
X86907714Y21615620D01*
X86907714Y21615620D02*
X86955333Y21568000D01*
X86955333Y21568000D02*
X87050571Y21520381D01*
X87050571Y21520381D02*
X87241047Y21520381D01*
X87241047Y21520381D02*
X87336285Y21568000D01*
X87336285Y21568000D02*
X87383904Y21615620D01*
X87383904Y21615620D02*
X87431523Y21710858D01*
X87431523Y21710858D02*
X87431523Y22520381D01*
X88431523Y21520381D02*
X87860095Y21520381D01*
X88145809Y21520381D02*
X88145809Y22520381D01*
X88145809Y22520381D02*
X88050571Y22377524D01*
X88050571Y22377524D02*
X87955333Y22282286D01*
X87955333Y22282286D02*
X87860095Y22234667D01*
%TO.C,U2*%
X164738095Y22525381D02*
X164738095Y21715858D01*
X164738095Y21715858D02*
X164785714Y21620620D01*
X164785714Y21620620D02*
X164833333Y21573000D01*
X164833333Y21573000D02*
X164928571Y21525381D01*
X164928571Y21525381D02*
X165119047Y21525381D01*
X165119047Y21525381D02*
X165214285Y21573000D01*
X165214285Y21573000D02*
X165261904Y21620620D01*
X165261904Y21620620D02*
X165309523Y21715858D01*
X165309523Y21715858D02*
X165309523Y22525381D01*
X165738095Y22430143D02*
X165785714Y22477762D01*
X165785714Y22477762D02*
X165880952Y22525381D01*
X165880952Y22525381D02*
X166119047Y22525381D01*
X166119047Y22525381D02*
X166214285Y22477762D01*
X166214285Y22477762D02*
X166261904Y22430143D01*
X166261904Y22430143D02*
X166309523Y22334905D01*
X166309523Y22334905D02*
X166309523Y22239667D01*
X166309523Y22239667D02*
X166261904Y22096810D01*
X166261904Y22096810D02*
X165690476Y21525381D01*
X165690476Y21525381D02*
X166309523Y21525381D01*
D12*
%TO.C,J27*%
X203357000Y46075000D02*
X204657000Y46075000D01*
X203357000Y44775000D02*
X203357000Y46075000D01*
X203357000Y43535000D02*
X203357000Y36169000D01*
X203357000Y43535000D02*
X205643000Y43535000D01*
X203357000Y36169000D02*
X205643000Y36169000D01*
X205643000Y43535000D02*
X205643000Y36169000D01*
%TO.C,U1*%
X83762000Y21143000D02*
X83762000Y20898000D01*
X83762000Y20898000D02*
X81947000Y20898000D01*
X83762000Y3023000D02*
X83762000Y3268000D01*
X87622000Y21143000D02*
X83762000Y21143000D01*
X87622000Y21143000D02*
X91482000Y21143000D01*
X87622000Y3023000D02*
X83762000Y3023000D01*
X87622000Y3023000D02*
X91482000Y3023000D01*
X91482000Y21143000D02*
X91482000Y20898000D01*
X91482000Y3023000D02*
X91482000Y3268000D01*
%TO.C,U2*%
X161640000Y21148000D02*
X161640000Y20903000D01*
X161640000Y20903000D02*
X159825000Y20903000D01*
X161640000Y3028000D02*
X161640000Y3273000D01*
X165500000Y21148000D02*
X161640000Y21148000D01*
X165500000Y21148000D02*
X169360000Y21148000D01*
X165500000Y3028000D02*
X161640000Y3028000D01*
X165500000Y3028000D02*
X169360000Y3028000D01*
X169360000Y21148000D02*
X169360000Y20903000D01*
X169360000Y3028000D02*
X169360000Y3273000D01*
%TD*%
M02*
