M48
; DRILL file {KiCad 7.0.2-0} date 2024 February 08, Thursday 13:36:34
; FORMAT={-:-/ absolute / metric / decimal}
; #@! TF.CreationDate,2024-02-08T13:36:34+00:00
; #@! TF.GenerationSoftware,Kicad,Pcbnew,7.0.2-0
; #@! TF.FileFunction,MixedPlating,1,2
FMAT,2
METRIC
; #@! TA.AperFunction,Plated,PTH,ViaDrill
T1C0.400
; #@! TA.AperFunction,Plated,PTH,ViaDrill
T2C0.500
; #@! TA.AperFunction,Plated,PTH,ComponentDrill
T3C1.000
; #@! TA.AperFunction,Plated,PTH,ComponentDrill
T4C7.940
; #@! TA.AperFunction,NonPlated,NPTH,ComponentDrill
T5C8.000
%
G90
G05
T1
X31.054Y59.962
X56.2Y60.724
X80.205Y14.605
X84.8Y15.2
X84.8Y14.0
X86.225Y9.475
X86.5Y11.5
X88.495Y19.068
X88.712Y13.48
X88.712Y7.384
X89.22Y17.29
X90.0Y5.0
X90.236Y17.798
X90.25Y10.5
X95.316Y17.29
X95.316Y16.02
X121.982Y17.54
X134.178Y19.322
X154.75Y4.0
X155.99Y2.01
X156.025Y3.225
X157.038Y17.544
X157.292Y16.528
X162.88Y10.178
X163.574Y14.428
X164.645Y17.548
X164.658Y19.576
X164.658Y18.56
X165.42Y14.496
X166.432Y14.492
X167.452Y14.496
X172.269Y16.283
X173.275Y5.079
X173.417Y16.405
X182.057Y4.209
X183.962Y18.814
X188.534Y18.814
X197.932Y28.974
X200.0Y31.25
X201.0Y35.0
T2
X35.88Y69.36
X61.28Y69.36
X63.75Y8.5
X87.696Y69.36
X95.75Y4.25
X113.5Y14.5
X113.604Y69.36
X139.004Y69.36
X155.9Y61.3
X165.42Y69.36
X192.09Y69.36
X217.236Y69.36
T3
X204.5Y44.805
X204.5Y42.265
X204.5Y39.725
X204.5Y37.185
T4
X17.74Y39.67
X22.5Y66.93
X22.5Y24.17
X35.5Y46.17
X48.5Y66.93
X48.5Y24.17
X61.5Y46.17
X74.5Y66.93
X74.5Y24.17
X87.5Y46.17
X100.5Y66.93
X100.5Y24.17
X113.5Y46.17
X126.5Y66.93
X126.5Y24.17
X139.5Y46.17
X152.5Y66.93
X152.5Y24.17
X165.5Y46.17
X178.5Y66.93
X178.5Y24.17
X191.5Y46.17
X204.5Y66.93
X204.5Y24.17
X217.5Y46.17
X230.5Y66.93
X230.5Y24.17
X235.26Y39.67
T5
X22.5Y53.93
X22.5Y11.17
X35.5Y33.17
X48.5Y53.93
X48.5Y11.17
X61.5Y33.17
X74.5Y53.93
X74.5Y11.17
X87.5Y33.17
X100.5Y53.93
X100.5Y11.17
X113.5Y33.17
X126.5Y53.93
X126.5Y11.17
X139.5Y33.17
X152.5Y53.93
X152.5Y11.17
X165.5Y33.17
X178.5Y53.93
X178.5Y11.17
X191.5Y33.17
X204.5Y53.93
X204.5Y11.17
X217.5Y33.17
X230.5Y53.93
X230.5Y11.17
T0
M30
