%TF.GenerationSoftware,KiCad,Pcbnew,7.0.2-0*%
%TF.CreationDate,2024-02-08T13:36:38+00:00*%
%TF.ProjectId,plugboard,706c7567-626f-4617-9264-2e6b69636164,rev?*%
%TF.SameCoordinates,PX1312d00PY68e7780*%
%TF.FileFunction,Profile,NP*%
%FSLAX46Y46*%
G04 Gerber Fmt 4.6, Leading zero omitted, Abs format (unit mm)*
G04 Created by KiCad (PCBNEW 7.0.2-0) date 2024-02-08 13:36:38*
%MOMM*%
%LPD*%
G01*
G04 APERTURE LIST*
%TA.AperFunction,Profile*%
%ADD10C,0.100000*%
%TD*%
%TA.AperFunction,Profile*%
%ADD11C,0.200000*%
%TD*%
G04 APERTURE END LIST*
D10*
X11500000Y73000000D02*
X241500000Y73000000D01*
X241500000Y0D01*
X11500000Y0D01*
X11500000Y73000000D01*
D11*
%TO.C,J20*%
X182500000Y11170000D02*
G75*
G03*
X182500000Y11170000I-4000000J0D01*
G01*
%TO.C,J21*%
X156500000Y11170000D02*
G75*
G03*
X156500000Y11170000I-4000000J0D01*
G01*
%TO.C,J19*%
X208500000Y11170000D02*
G75*
G03*
X208500000Y11170000I-4000000J0D01*
G01*
%TO.C,J8*%
X52500000Y53930000D02*
G75*
G03*
X52500000Y53930000I-4000000J0D01*
G01*
%TO.C,J1*%
X234500000Y53930000D02*
G75*
G03*
X234500000Y53930000I-4000000J0D01*
G01*
%TO.C,J22*%
X130500000Y11170000D02*
G75*
G03*
X130500000Y11170000I-4000000J0D01*
G01*
%TO.C,J5*%
X130500000Y53930000D02*
G75*
G03*
X130500000Y53930000I-4000000J0D01*
G01*
%TO.C,J14*%
X117500000Y33170000D02*
G75*
G03*
X117500000Y33170000I-4000000J0D01*
G01*
%TO.C,J23*%
X104500000Y11170000D02*
G75*
G03*
X104500000Y11170000I-4000000J0D01*
G01*
%TO.C,J18*%
X234500000Y11170000D02*
G75*
G03*
X234500000Y11170000I-4000000J0D01*
G01*
%TO.C,J12*%
X169500000Y33170000D02*
G75*
G03*
X169500000Y33170000I-4000000J0D01*
G01*
%TO.C,J24*%
X78500000Y11170000D02*
G75*
G03*
X78500000Y11170000I-4000000J0D01*
G01*
%TO.C,J15*%
X91500000Y33170000D02*
G75*
G03*
X91500000Y33170000I-4000000J0D01*
G01*
%TO.C,J3*%
X182500000Y53930000D02*
G75*
G03*
X182500000Y53930000I-4000000J0D01*
G01*
%TO.C,J4*%
X156500000Y53930000D02*
G75*
G03*
X156500000Y53930000I-4000000J0D01*
G01*
%TO.C,J26*%
X26500000Y11170000D02*
G75*
G03*
X26500000Y11170000I-4000000J0D01*
G01*
%TO.C,J9*%
X26500000Y53930000D02*
G75*
G03*
X26500000Y53930000I-4000000J0D01*
G01*
%TO.C,J2*%
X208500000Y53930000D02*
G75*
G03*
X208500000Y53930000I-4000000J0D01*
G01*
%TO.C,J25*%
X52500000Y11170000D02*
G75*
G03*
X52500000Y11170000I-4000000J0D01*
G01*
%TO.C,J16*%
X65500000Y33170000D02*
G75*
G03*
X65500000Y33170000I-4000000J0D01*
G01*
%TO.C,J13*%
X143500000Y33170000D02*
G75*
G03*
X143500000Y33170000I-4000000J0D01*
G01*
%TO.C,J11*%
X195500000Y33170000D02*
G75*
G03*
X195500000Y33170000I-4000000J0D01*
G01*
%TO.C,J7*%
X78500000Y53930000D02*
G75*
G03*
X78500000Y53930000I-4000000J0D01*
G01*
%TO.C,J17*%
X39500000Y33170000D02*
G75*
G03*
X39500000Y33170000I-4000000J0D01*
G01*
%TO.C,J6*%
X104500000Y53930000D02*
G75*
G03*
X104500000Y53930000I-4000000J0D01*
G01*
%TO.C,J10*%
X221500000Y33170000D02*
G75*
G03*
X221500000Y33170000I-4000000J0D01*
G01*
%TD*%
M02*
