%TF.GenerationSoftware,KiCad,Pcbnew,7.0.2-0*%
%TF.CreationDate,2024-03-30T13:55:00+00:00*%
%TF.ProjectId,cont_board,636f6e74-5f62-46f6-9172-642e6b696361,rev?*%
%TF.SameCoordinates,PX17d7840PY791ddc0*%
%TF.FileFunction,Paste,Top*%
%TF.FilePolarity,Positive*%
%FSLAX46Y46*%
G04 Gerber Fmt 4.6, Leading zero omitted, Abs format (unit mm)*
G04 Created by KiCad (PCBNEW 7.0.2-0) date 2024-03-30 13:55:00*
%MOMM*%
%LPD*%
G01*
G04 APERTURE LIST*
G04 Aperture macros list*
%AMRoundRect*
0 Rectangle with rounded corners*
0 $1 Rounding radius*
0 $2 $3 $4 $5 $6 $7 $8 $9 X,Y pos of 4 corners*
0 Add a 4 corners polygon primitive as box body*
4,1,4,$2,$3,$4,$5,$6,$7,$8,$9,$2,$3,0*
0 Add four circle primitives for the rounded corners*
1,1,$1+$1,$2,$3*
1,1,$1+$1,$4,$5*
1,1,$1+$1,$6,$7*
1,1,$1+$1,$8,$9*
0 Add four rect primitives between the rounded corners*
20,1,$1+$1,$2,$3,$4,$5,0*
20,1,$1+$1,$4,$5,$6,$7,0*
20,1,$1+$1,$6,$7,$8,$9,0*
20,1,$1+$1,$8,$9,$2,$3,0*%
G04 Aperture macros list end*
%ADD10RoundRect,0.225000X0.250000X-0.225000X0.250000X0.225000X-0.250000X0.225000X-0.250000X-0.225000X0*%
%ADD11RoundRect,0.150000X0.150000X-0.825000X0.150000X0.825000X-0.150000X0.825000X-0.150000X-0.825000X0*%
%TA.AperFunction,Profile*%
%ADD12C,0.100000*%
%TD*%
G04 APERTURE END LIST*
D10*
%TO.C,C9*%
X152673000Y16829000D03*
X152673000Y18379000D03*
%TD*%
%TO.C,C7*%
X132099000Y16764000D03*
X132099000Y18314000D03*
%TD*%
%TO.C,C5*%
X140989000Y16764000D03*
X140989000Y18314000D03*
%TD*%
%TO.C,C8*%
X130448000Y16764000D03*
X130448000Y18314000D03*
%TD*%
%TO.C,C10*%
X151149000Y16829000D03*
X151149000Y18379000D03*
%TD*%
D11*
%TO.C,U6*%
X144164000Y16764000D03*
X145434000Y16764000D03*
X146704000Y16764000D03*
X147974000Y16764000D03*
X147974000Y21714000D03*
X146704000Y21714000D03*
X145434000Y21714000D03*
X144164000Y21714000D03*
%TD*%
%TO.C,U7*%
X133877000Y16764000D03*
X135147000Y16764000D03*
X136417000Y16764000D03*
X137687000Y16764000D03*
X137687000Y21714000D03*
X136417000Y21714000D03*
X135147000Y21714000D03*
X133877000Y21714000D03*
%TD*%
%TO.C,U8*%
X154324000Y16829000D03*
X155594000Y16829000D03*
X156864000Y16829000D03*
X158134000Y16829000D03*
X158134000Y21779000D03*
X156864000Y21779000D03*
X155594000Y21779000D03*
X154324000Y21779000D03*
%TD*%
D10*
%TO.C,C4*%
X142513000Y16764000D03*
X142513000Y18314000D03*
%TD*%
D12*
X0Y2000000D02*
X0Y65000000D01*
X238000000Y65000000D02*
X238000000Y2000000D01*
X2000000Y67000000D02*
X236000000Y67000000D01*
X236000000Y0D02*
X2000000Y0D01*
X236000000Y0D02*
G75*
G03*
X238000000Y2000000I0J2000000D01*
G01*
X2000000Y67000000D02*
G75*
G03*
X0Y65000000I0J-2000000D01*
G01*
X0Y2000000D02*
G75*
G03*
X2000000Y0I2000000J0D01*
G01*
X238000000Y65000000D02*
G75*
G03*
X236000000Y67000000I-2000000J0D01*
G01*
M02*
