%TF.GenerationSoftware,KiCad,Pcbnew,7.0.2-0*%
%TF.CreationDate,2023-12-06T17:59:10+00:00*%
%TF.ProjectId,cont_board,636f6e74-5f62-46f6-9172-642e6b696361,rev?*%
%TF.SameCoordinates,Original*%
%TF.FileFunction,Legend,Bot*%
%TF.FilePolarity,Positive*%
%FSLAX46Y46*%
G04 Gerber Fmt 4.6, Leading zero omitted, Abs format (unit mm)*
G04 Created by KiCad (PCBNEW 7.0.2-0) date 2023-12-06 17:59:10*
%MOMM*%
%LPD*%
G01*
G04 APERTURE LIST*
%ADD10C,0.150000*%
%ADD11C,0.120000*%
%TA.AperFunction,Profile*%
%ADD12C,0.100000*%
%TD*%
G04 APERTURE END LIST*
D10*
%TO.C,A1*%
X141708094Y-97490619D02*
X141708094Y-96490619D01*
X141708094Y-96490619D02*
X141469999Y-96490619D01*
X141469999Y-96490619D02*
X141327142Y-96538238D01*
X141327142Y-96538238D02*
X141231904Y-96633476D01*
X141231904Y-96633476D02*
X141184285Y-96728714D01*
X141184285Y-96728714D02*
X141136666Y-96919190D01*
X141136666Y-96919190D02*
X141136666Y-97062047D01*
X141136666Y-97062047D02*
X141184285Y-97252523D01*
X141184285Y-97252523D02*
X141231904Y-97347761D01*
X141231904Y-97347761D02*
X141327142Y-97443000D01*
X141327142Y-97443000D02*
X141469999Y-97490619D01*
X141469999Y-97490619D02*
X141708094Y-97490619D01*
X140517618Y-96490619D02*
X140422380Y-96490619D01*
X140422380Y-96490619D02*
X140327142Y-96538238D01*
X140327142Y-96538238D02*
X140279523Y-96585857D01*
X140279523Y-96585857D02*
X140231904Y-96681095D01*
X140231904Y-96681095D02*
X140184285Y-96871571D01*
X140184285Y-96871571D02*
X140184285Y-97109666D01*
X140184285Y-97109666D02*
X140231904Y-97300142D01*
X140231904Y-97300142D02*
X140279523Y-97395380D01*
X140279523Y-97395380D02*
X140327142Y-97443000D01*
X140327142Y-97443000D02*
X140422380Y-97490619D01*
X140422380Y-97490619D02*
X140517618Y-97490619D01*
X140517618Y-97490619D02*
X140612856Y-97443000D01*
X140612856Y-97443000D02*
X140660475Y-97395380D01*
X140660475Y-97395380D02*
X140708094Y-97300142D01*
X140708094Y-97300142D02*
X140755713Y-97109666D01*
X140755713Y-97109666D02*
X140755713Y-96871571D01*
X140755713Y-96871571D02*
X140708094Y-96681095D01*
X140708094Y-96681095D02*
X140660475Y-96585857D01*
X140660475Y-96585857D02*
X140612856Y-96538238D01*
X140612856Y-96538238D02*
X140517618Y-96490619D01*
%TO.C,PL3*%
X260502619Y-79687143D02*
X259502619Y-79687143D01*
X259502619Y-79687143D02*
X259502619Y-80068095D01*
X259502619Y-80068095D02*
X259550238Y-80163333D01*
X259550238Y-80163333D02*
X259597857Y-80210952D01*
X259597857Y-80210952D02*
X259693095Y-80258571D01*
X259693095Y-80258571D02*
X259835952Y-80258571D01*
X259835952Y-80258571D02*
X259931190Y-80210952D01*
X259931190Y-80210952D02*
X259978809Y-80163333D01*
X259978809Y-80163333D02*
X260026428Y-80068095D01*
X260026428Y-80068095D02*
X260026428Y-79687143D01*
X260502619Y-81163333D02*
X260502619Y-80687143D01*
X260502619Y-80687143D02*
X259502619Y-80687143D01*
X259502619Y-81401429D02*
X259502619Y-82020476D01*
X259502619Y-82020476D02*
X259883571Y-81687143D01*
X259883571Y-81687143D02*
X259883571Y-81830000D01*
X259883571Y-81830000D02*
X259931190Y-81925238D01*
X259931190Y-81925238D02*
X259978809Y-81972857D01*
X259978809Y-81972857D02*
X260074047Y-82020476D01*
X260074047Y-82020476D02*
X260312142Y-82020476D01*
X260312142Y-82020476D02*
X260407380Y-81972857D01*
X260407380Y-81972857D02*
X260455000Y-81925238D01*
X260455000Y-81925238D02*
X260502619Y-81830000D01*
X260502619Y-81830000D02*
X260502619Y-81544286D01*
X260502619Y-81544286D02*
X260455000Y-81449048D01*
X260455000Y-81449048D02*
X260407380Y-81401429D01*
D11*
X238600000Y-83430000D02*
X238600000Y-78230000D01*
X256440000Y-83430000D02*
X238600000Y-83430000D01*
X256440000Y-83430000D02*
X256440000Y-80830000D01*
X257710000Y-83430000D02*
X259040000Y-83430000D01*
X259040000Y-83430000D02*
X259040000Y-82100000D01*
X256440000Y-80830000D02*
X259040000Y-80830000D01*
X259040000Y-80830000D02*
X259040000Y-78230000D01*
X259040000Y-78230000D02*
X238600000Y-78230000D01*
%TD*%
D12*
X25000000Y-125000000D02*
X25000000Y-62000000D01*
X27000000Y-60000000D02*
X261000000Y-60000000D01*
X263000000Y-62000000D02*
X263000000Y-125000000D01*
X261000000Y-127000000D02*
X27000000Y-127000000D01*
X261000000Y-127000000D02*
G75*
G03*
X263000000Y-125000000I0J2000000D01*
G01*
X27000000Y-60000000D02*
G75*
G03*
X25000000Y-62000000I0J-2000000D01*
G01*
X25000000Y-125000000D02*
G75*
G03*
X27000000Y-127000000I2000000J0D01*
G01*
X263000000Y-62000000D02*
G75*
G03*
X261000000Y-60000000I-2000000J0D01*
G01*
M02*
