%TF.GenerationSoftware,KiCad,Pcbnew,7.0.2-0*%
%TF.CreationDate,2024-02-08T13:43:01+00:00*%
%TF.ProjectId,cont_board,636f6e74-5f62-46f6-9172-642e6b696361,rev?*%
%TF.SameCoordinates,PX17d7840PY791ddc0*%
%TF.FileFunction,Legend,Bot*%
%TF.FilePolarity,Positive*%
%FSLAX46Y46*%
G04 Gerber Fmt 4.6, Leading zero omitted, Abs format (unit mm)*
G04 Created by KiCad (PCBNEW 7.0.2-0) date 2024-02-08 13:43:01*
%MOMM*%
%LPD*%
G01*
G04 APERTURE LIST*
%ADD10C,0.150000*%
%ADD11C,0.120000*%
%TA.AperFunction,Profile*%
%ADD12C,0.100000*%
%TD*%
G04 APERTURE END LIST*
D10*
X97951904Y62352381D02*
X97951904Y63352381D01*
X97951904Y63352381D02*
X97713809Y63352381D01*
X97713809Y63352381D02*
X97570952Y63304762D01*
X97570952Y63304762D02*
X97475714Y63209524D01*
X97475714Y63209524D02*
X97428095Y63114286D01*
X97428095Y63114286D02*
X97380476Y62923810D01*
X97380476Y62923810D02*
X97380476Y62780953D01*
X97380476Y62780953D02*
X97428095Y62590477D01*
X97428095Y62590477D02*
X97475714Y62495239D01*
X97475714Y62495239D02*
X97570952Y62400000D01*
X97570952Y62400000D02*
X97713809Y62352381D01*
X97713809Y62352381D02*
X97951904Y62352381D01*
X96428095Y62352381D02*
X96999523Y62352381D01*
X96713809Y62352381D02*
X96713809Y63352381D01*
X96713809Y63352381D02*
X96809047Y63209524D01*
X96809047Y63209524D02*
X96904285Y63114286D01*
X96904285Y63114286D02*
X96999523Y63066667D01*
X96094761Y63352381D02*
X95475714Y63352381D01*
X95475714Y63352381D02*
X95809047Y62971429D01*
X95809047Y62971429D02*
X95666190Y62971429D01*
X95666190Y62971429D02*
X95570952Y62923810D01*
X95570952Y62923810D02*
X95523333Y62876191D01*
X95523333Y62876191D02*
X95475714Y62780953D01*
X95475714Y62780953D02*
X95475714Y62542858D01*
X95475714Y62542858D02*
X95523333Y62447620D01*
X95523333Y62447620D02*
X95570952Y62400000D01*
X95570952Y62400000D02*
X95666190Y62352381D01*
X95666190Y62352381D02*
X95951904Y62352381D01*
X95951904Y62352381D02*
X96047142Y62400000D01*
X96047142Y62400000D02*
X96094761Y62447620D01*
%TO.C,A1*%
X116708094Y29509381D02*
X116708094Y30509381D01*
X116708094Y30509381D02*
X116469999Y30509381D01*
X116469999Y30509381D02*
X116327142Y30461762D01*
X116327142Y30461762D02*
X116231904Y30366524D01*
X116231904Y30366524D02*
X116184285Y30271286D01*
X116184285Y30271286D02*
X116136666Y30080810D01*
X116136666Y30080810D02*
X116136666Y29937953D01*
X116136666Y29937953D02*
X116184285Y29747477D01*
X116184285Y29747477D02*
X116231904Y29652239D01*
X116231904Y29652239D02*
X116327142Y29557000D01*
X116327142Y29557000D02*
X116469999Y29509381D01*
X116469999Y29509381D02*
X116708094Y29509381D01*
X115517618Y30509381D02*
X115422380Y30509381D01*
X115422380Y30509381D02*
X115327142Y30461762D01*
X115327142Y30461762D02*
X115279523Y30414143D01*
X115279523Y30414143D02*
X115231904Y30318905D01*
X115231904Y30318905D02*
X115184285Y30128429D01*
X115184285Y30128429D02*
X115184285Y29890334D01*
X115184285Y29890334D02*
X115231904Y29699858D01*
X115231904Y29699858D02*
X115279523Y29604620D01*
X115279523Y29604620D02*
X115327142Y29557000D01*
X115327142Y29557000D02*
X115422380Y29509381D01*
X115422380Y29509381D02*
X115517618Y29509381D01*
X115517618Y29509381D02*
X115612856Y29557000D01*
X115612856Y29557000D02*
X115660475Y29604620D01*
X115660475Y29604620D02*
X115708094Y29699858D01*
X115708094Y29699858D02*
X115755713Y29890334D01*
X115755713Y29890334D02*
X115755713Y30128429D01*
X115755713Y30128429D02*
X115708094Y30318905D01*
X115708094Y30318905D02*
X115660475Y30414143D01*
X115660475Y30414143D02*
X115612856Y30461762D01*
X115612856Y30461762D02*
X115517618Y30509381D01*
%TO.C,PL3*%
X235502619Y47312857D02*
X234502619Y47312857D01*
X234502619Y47312857D02*
X234502619Y46931905D01*
X234502619Y46931905D02*
X234550238Y46836667D01*
X234550238Y46836667D02*
X234597857Y46789048D01*
X234597857Y46789048D02*
X234693095Y46741429D01*
X234693095Y46741429D02*
X234835952Y46741429D01*
X234835952Y46741429D02*
X234931190Y46789048D01*
X234931190Y46789048D02*
X234978809Y46836667D01*
X234978809Y46836667D02*
X235026428Y46931905D01*
X235026428Y46931905D02*
X235026428Y47312857D01*
X235502619Y45836667D02*
X235502619Y46312857D01*
X235502619Y46312857D02*
X234502619Y46312857D01*
X234502619Y45598571D02*
X234502619Y44979524D01*
X234502619Y44979524D02*
X234883571Y45312857D01*
X234883571Y45312857D02*
X234883571Y45170000D01*
X234883571Y45170000D02*
X234931190Y45074762D01*
X234931190Y45074762D02*
X234978809Y45027143D01*
X234978809Y45027143D02*
X235074047Y44979524D01*
X235074047Y44979524D02*
X235312142Y44979524D01*
X235312142Y44979524D02*
X235407380Y45027143D01*
X235407380Y45027143D02*
X235455000Y45074762D01*
X235455000Y45074762D02*
X235502619Y45170000D01*
X235502619Y45170000D02*
X235502619Y45455714D01*
X235502619Y45455714D02*
X235455000Y45550952D01*
X235455000Y45550952D02*
X235407380Y45598571D01*
D11*
X213600000Y43570000D02*
X213600000Y48770000D01*
X231440000Y43570000D02*
X213600000Y43570000D01*
X231440000Y43570000D02*
X231440000Y46170000D01*
X232710000Y43570000D02*
X234040000Y43570000D01*
X234040000Y43570000D02*
X234040000Y44900000D01*
X231440000Y46170000D02*
X234040000Y46170000D01*
X234040000Y46170000D02*
X234040000Y48770000D01*
X234040000Y48770000D02*
X213600000Y48770000D01*
%TD*%
D12*
X0Y2000000D02*
X0Y65000000D01*
X2000000Y67000000D02*
X236000000Y67000000D01*
X238000000Y65000000D02*
X238000000Y2000000D01*
X236000000Y0D02*
X2000000Y0D01*
X236000000Y0D02*
G75*
G03*
X238000000Y2000000I0J2000000D01*
G01*
X2000000Y67000000D02*
G75*
G03*
X0Y65000000I0J-2000000D01*
G01*
X0Y2000000D02*
G75*
G03*
X2000000Y0I2000000J0D01*
G01*
X238000000Y65000000D02*
G75*
G03*
X236000000Y67000000I-2000000J0D01*
G01*
M02*
