%TF.GenerationSoftware,KiCad,Pcbnew,7.0.2-0*%
%TF.CreationDate,2024-02-08T13:43:01+00:00*%
%TF.ProjectId,cont_board,636f6e74-5f62-46f6-9172-642e6b696361,rev?*%
%TF.SameCoordinates,PX17d7840PY791ddc0*%
%TF.FileFunction,Legend,Top*%
%TF.FilePolarity,Positive*%
%FSLAX46Y46*%
G04 Gerber Fmt 4.6, Leading zero omitted, Abs format (unit mm)*
G04 Created by KiCad (PCBNEW 7.0.2-0) date 2024-02-08 13:43:01*
%MOMM*%
%LPD*%
G01*
G04 APERTURE LIST*
%ADD10C,0.575000*%
%ADD11C,0.150000*%
%ADD12C,0.400000*%
%ADD13C,0.300000*%
%ADD14C,0.360000*%
%ADD15C,0.100000*%
%ADD16C,0.120000*%
%TA.AperFunction,Profile*%
%ADD17C,0.100000*%
%TD*%
G04 APERTURE END LIST*
D10*
X189917500Y57150000D02*
G75*
G03*
X189917500Y57150000I-287500J0D01*
G01*
X94929500Y6350000D02*
G75*
G03*
X94929500Y6350000I-287500J0D01*
G01*
X158802500Y60960000D02*
G75*
G03*
X158802500Y60960000I-287500J0D01*
G01*
X200458500Y57150000D02*
G75*
G03*
X200458500Y57150000I-287500J0D01*
G01*
X195378500Y57150000D02*
G75*
G03*
X195378500Y57150000I-287500J0D01*
G01*
X173407500Y34290000D02*
G75*
G03*
X173407500Y34290000I-287500J0D01*
G01*
X173407500Y60960000D02*
G75*
G03*
X173407500Y60960000I-287500J0D01*
G01*
X44883500Y28448000D02*
G75*
G03*
X44883500Y28448000I-287500J0D01*
G01*
D11*
X123828095Y42032381D02*
X123828095Y43032381D01*
X123828095Y43032381D02*
X124066190Y43032381D01*
X124066190Y43032381D02*
X124209047Y42984762D01*
X124209047Y42984762D02*
X124304285Y42889524D01*
X124304285Y42889524D02*
X124351904Y42794286D01*
X124351904Y42794286D02*
X124399523Y42603810D01*
X124399523Y42603810D02*
X124399523Y42460953D01*
X124399523Y42460953D02*
X124351904Y42270477D01*
X124351904Y42270477D02*
X124304285Y42175239D01*
X124304285Y42175239D02*
X124209047Y42080000D01*
X124209047Y42080000D02*
X124066190Y42032381D01*
X124066190Y42032381D02*
X123828095Y42032381D01*
X125256666Y42699048D02*
X125256666Y42032381D01*
X125018571Y43080000D02*
X124780476Y42365715D01*
X124780476Y42365715D02*
X125399523Y42365715D01*
X96665904Y55018096D02*
X97142094Y55018096D01*
X96570666Y54732381D02*
X96903999Y55732381D01*
X96903999Y55732381D02*
X97237332Y54732381D01*
X97761142Y55732381D02*
X97856380Y55732381D01*
X97856380Y55732381D02*
X97951618Y55684762D01*
X97951618Y55684762D02*
X97999237Y55637143D01*
X97999237Y55637143D02*
X98046856Y55541905D01*
X98046856Y55541905D02*
X98094475Y55351429D01*
X98094475Y55351429D02*
X98094475Y55113334D01*
X98094475Y55113334D02*
X98046856Y54922858D01*
X98046856Y54922858D02*
X97999237Y54827620D01*
X97999237Y54827620D02*
X97951618Y54780000D01*
X97951618Y54780000D02*
X97856380Y54732381D01*
X97856380Y54732381D02*
X97761142Y54732381D01*
X97761142Y54732381D02*
X97665904Y54780000D01*
X97665904Y54780000D02*
X97618285Y54827620D01*
X97618285Y54827620D02*
X97570666Y54922858D01*
X97570666Y54922858D02*
X97523047Y55113334D01*
X97523047Y55113334D02*
X97523047Y55351429D01*
X97523047Y55351429D02*
X97570666Y55541905D01*
X97570666Y55541905D02*
X97618285Y55637143D01*
X97618285Y55637143D02*
X97665904Y55684762D01*
X97665904Y55684762D02*
X97761142Y55732381D01*
X95665904Y60812381D02*
X96284951Y60812381D01*
X96284951Y60812381D02*
X95951618Y60431429D01*
X95951618Y60431429D02*
X96094475Y60431429D01*
X96094475Y60431429D02*
X96189713Y60383810D01*
X96189713Y60383810D02*
X96237332Y60336191D01*
X96237332Y60336191D02*
X96284951Y60240953D01*
X96284951Y60240953D02*
X96284951Y60002858D01*
X96284951Y60002858D02*
X96237332Y59907620D01*
X96237332Y59907620D02*
X96189713Y59860000D01*
X96189713Y59860000D02*
X96094475Y59812381D01*
X96094475Y59812381D02*
X95808761Y59812381D01*
X95808761Y59812381D02*
X95713523Y59860000D01*
X95713523Y59860000D02*
X95665904Y59907620D01*
X96570666Y60812381D02*
X96903999Y59812381D01*
X96903999Y59812381D02*
X97237332Y60812381D01*
X97475428Y60812381D02*
X98094475Y60812381D01*
X98094475Y60812381D02*
X97761142Y60431429D01*
X97761142Y60431429D02*
X97903999Y60431429D01*
X97903999Y60431429D02*
X97999237Y60383810D01*
X97999237Y60383810D02*
X98046856Y60336191D01*
X98046856Y60336191D02*
X98094475Y60240953D01*
X98094475Y60240953D02*
X98094475Y60002858D01*
X98094475Y60002858D02*
X98046856Y59907620D01*
X98046856Y59907620D02*
X97999237Y59860000D01*
X97999237Y59860000D02*
X97903999Y59812381D01*
X97903999Y59812381D02*
X97618285Y59812381D01*
X97618285Y59812381D02*
X97523047Y59860000D01*
X97523047Y59860000D02*
X97475428Y59907620D01*
X123828095Y39492381D02*
X123828095Y40492381D01*
X123828095Y40492381D02*
X124066190Y40492381D01*
X124066190Y40492381D02*
X124209047Y40444762D01*
X124209047Y40444762D02*
X124304285Y40349524D01*
X124304285Y40349524D02*
X124351904Y40254286D01*
X124351904Y40254286D02*
X124399523Y40063810D01*
X124399523Y40063810D02*
X124399523Y39920953D01*
X124399523Y39920953D02*
X124351904Y39730477D01*
X124351904Y39730477D02*
X124304285Y39635239D01*
X124304285Y39635239D02*
X124209047Y39540000D01*
X124209047Y39540000D02*
X124066190Y39492381D01*
X124066190Y39492381D02*
X123828095Y39492381D01*
X124732857Y40492381D02*
X125351904Y40492381D01*
X125351904Y40492381D02*
X125018571Y40111429D01*
X125018571Y40111429D02*
X125161428Y40111429D01*
X125161428Y40111429D02*
X125256666Y40063810D01*
X125256666Y40063810D02*
X125304285Y40016191D01*
X125304285Y40016191D02*
X125351904Y39920953D01*
X125351904Y39920953D02*
X125351904Y39682858D01*
X125351904Y39682858D02*
X125304285Y39587620D01*
X125304285Y39587620D02*
X125256666Y39540000D01*
X125256666Y39540000D02*
X125161428Y39492381D01*
X125161428Y39492381D02*
X124875714Y39492381D01*
X124875714Y39492381D02*
X124780476Y39540000D01*
X124780476Y39540000D02*
X124732857Y39587620D01*
D12*
X18351428Y2655286D02*
X19380000Y2655286D01*
X18865714Y855286D02*
X18865714Y2655286D01*
X19980000Y1798143D02*
X20580000Y1798143D01*
X20837143Y855286D02*
X19980000Y855286D01*
X19980000Y855286D02*
X19980000Y2655286D01*
X19980000Y2655286D02*
X20837143Y2655286D01*
X21522857Y941000D02*
X21780000Y855286D01*
X21780000Y855286D02*
X22208571Y855286D01*
X22208571Y855286D02*
X22380000Y941000D01*
X22380000Y941000D02*
X22465714Y1026715D01*
X22465714Y1026715D02*
X22551428Y1198143D01*
X22551428Y1198143D02*
X22551428Y1369572D01*
X22551428Y1369572D02*
X22465714Y1541000D01*
X22465714Y1541000D02*
X22380000Y1626715D01*
X22380000Y1626715D02*
X22208571Y1712429D01*
X22208571Y1712429D02*
X21865714Y1798143D01*
X21865714Y1798143D02*
X21694285Y1883858D01*
X21694285Y1883858D02*
X21608571Y1969572D01*
X21608571Y1969572D02*
X21522857Y2141000D01*
X21522857Y2141000D02*
X21522857Y2312429D01*
X21522857Y2312429D02*
X21608571Y2483858D01*
X21608571Y2483858D02*
X21694285Y2569572D01*
X21694285Y2569572D02*
X21865714Y2655286D01*
X21865714Y2655286D02*
X22294285Y2655286D01*
X22294285Y2655286D02*
X22551428Y2569572D01*
X23065714Y2655286D02*
X24094286Y2655286D01*
X23580000Y855286D02*
X23580000Y2655286D01*
X27437144Y2055286D02*
X26065715Y1541000D01*
X26065715Y1541000D02*
X27437144Y1026715D01*
X28294286Y1541000D02*
X29665715Y1541000D01*
D13*
X179414285Y7692429D02*
X179342857Y7621000D01*
X179342857Y7621000D02*
X179128571Y7549572D01*
X179128571Y7549572D02*
X178985714Y7549572D01*
X178985714Y7549572D02*
X178771428Y7621000D01*
X178771428Y7621000D02*
X178628571Y7763858D01*
X178628571Y7763858D02*
X178557142Y7906715D01*
X178557142Y7906715D02*
X178485714Y8192429D01*
X178485714Y8192429D02*
X178485714Y8406715D01*
X178485714Y8406715D02*
X178557142Y8692429D01*
X178557142Y8692429D02*
X178628571Y8835286D01*
X178628571Y8835286D02*
X178771428Y8978143D01*
X178771428Y8978143D02*
X178985714Y9049572D01*
X178985714Y9049572D02*
X179128571Y9049572D01*
X179128571Y9049572D02*
X179342857Y8978143D01*
X179342857Y8978143D02*
X179414285Y8906715D01*
X180057142Y9049572D02*
X180057142Y7835286D01*
X180057142Y7835286D02*
X180128571Y7692429D01*
X180128571Y7692429D02*
X180200000Y7621000D01*
X180200000Y7621000D02*
X180342857Y7549572D01*
X180342857Y7549572D02*
X180628571Y7549572D01*
X180628571Y7549572D02*
X180771428Y7621000D01*
X180771428Y7621000D02*
X180842857Y7692429D01*
X180842857Y7692429D02*
X180914285Y7835286D01*
X180914285Y7835286D02*
X180914285Y9049572D01*
X181628571Y8335286D02*
X182128571Y8335286D01*
X182342857Y7549572D02*
X181628571Y7549572D01*
X181628571Y7549572D02*
X181628571Y9049572D01*
X181628571Y9049572D02*
X182342857Y9049572D01*
X182985714Y7549572D02*
X182985714Y9049572D01*
X182985714Y9049572D02*
X183342857Y9049572D01*
X183342857Y9049572D02*
X183557143Y8978143D01*
X183557143Y8978143D02*
X183700000Y8835286D01*
X183700000Y8835286D02*
X183771429Y8692429D01*
X183771429Y8692429D02*
X183842857Y8406715D01*
X183842857Y8406715D02*
X183842857Y8192429D01*
X183842857Y8192429D02*
X183771429Y7906715D01*
X183771429Y7906715D02*
X183700000Y7763858D01*
X183700000Y7763858D02*
X183557143Y7621000D01*
X183557143Y7621000D02*
X183342857Y7549572D01*
X183342857Y7549572D02*
X182985714Y7549572D01*
X185985714Y7049572D02*
X185985714Y9192429D01*
X188914285Y7549572D02*
X188199999Y7549572D01*
X188199999Y7549572D02*
X188199999Y9049572D01*
X189271428Y9049572D02*
X190271428Y9049572D01*
X190271428Y9049572D02*
X189271428Y7549572D01*
X189271428Y7549572D02*
X190271428Y7549572D01*
X191342856Y8335286D02*
X191557142Y8263858D01*
X191557142Y8263858D02*
X191628571Y8192429D01*
X191628571Y8192429D02*
X191699999Y8049572D01*
X191699999Y8049572D02*
X191699999Y7835286D01*
X191699999Y7835286D02*
X191628571Y7692429D01*
X191628571Y7692429D02*
X191557142Y7621000D01*
X191557142Y7621000D02*
X191414285Y7549572D01*
X191414285Y7549572D02*
X190842856Y7549572D01*
X190842856Y7549572D02*
X190842856Y9049572D01*
X190842856Y9049572D02*
X191342856Y9049572D01*
X191342856Y9049572D02*
X191485714Y8978143D01*
X191485714Y8978143D02*
X191557142Y8906715D01*
X191557142Y8906715D02*
X191628571Y8763858D01*
X191628571Y8763858D02*
X191628571Y8621000D01*
X191628571Y8621000D02*
X191557142Y8478143D01*
X191557142Y8478143D02*
X191485714Y8406715D01*
X191485714Y8406715D02*
X191342856Y8335286D01*
X191342856Y8335286D02*
X190842856Y8335286D01*
X193485713Y8121000D02*
X194628571Y8121000D01*
X196485713Y8335286D02*
X196985713Y8335286D01*
X197199999Y7549572D02*
X196485713Y7549572D01*
X196485713Y7549572D02*
X196485713Y9049572D01*
X196485713Y9049572D02*
X197199999Y9049572D01*
X197842856Y8549572D02*
X197842856Y7549572D01*
X197842856Y8406715D02*
X197914285Y8478143D01*
X197914285Y8478143D02*
X198057142Y8549572D01*
X198057142Y8549572D02*
X198271428Y8549572D01*
X198271428Y8549572D02*
X198414285Y8478143D01*
X198414285Y8478143D02*
X198485714Y8335286D01*
X198485714Y8335286D02*
X198485714Y7549572D01*
X199199999Y7549572D02*
X199199999Y8549572D01*
X199199999Y9049572D02*
X199128571Y8978143D01*
X199128571Y8978143D02*
X199199999Y8906715D01*
X199199999Y8906715D02*
X199271428Y8978143D01*
X199271428Y8978143D02*
X199199999Y9049572D01*
X199199999Y9049572D02*
X199199999Y8906715D01*
X200557143Y8549572D02*
X200557143Y7335286D01*
X200557143Y7335286D02*
X200485714Y7192429D01*
X200485714Y7192429D02*
X200414285Y7121000D01*
X200414285Y7121000D02*
X200271428Y7049572D01*
X200271428Y7049572D02*
X200057143Y7049572D01*
X200057143Y7049572D02*
X199914285Y7121000D01*
X200557143Y7621000D02*
X200414285Y7549572D01*
X200414285Y7549572D02*
X200128571Y7549572D01*
X200128571Y7549572D02*
X199985714Y7621000D01*
X199985714Y7621000D02*
X199914285Y7692429D01*
X199914285Y7692429D02*
X199842857Y7835286D01*
X199842857Y7835286D02*
X199842857Y8263858D01*
X199842857Y8263858D02*
X199914285Y8406715D01*
X199914285Y8406715D02*
X199985714Y8478143D01*
X199985714Y8478143D02*
X200128571Y8549572D01*
X200128571Y8549572D02*
X200414285Y8549572D01*
X200414285Y8549572D02*
X200557143Y8478143D01*
X201271428Y7549572D02*
X201271428Y8549572D01*
X201271428Y8406715D02*
X201342857Y8478143D01*
X201342857Y8478143D02*
X201485714Y8549572D01*
X201485714Y8549572D02*
X201700000Y8549572D01*
X201700000Y8549572D02*
X201842857Y8478143D01*
X201842857Y8478143D02*
X201914286Y8335286D01*
X201914286Y8335286D02*
X201914286Y7549572D01*
X201914286Y8335286D02*
X201985714Y8478143D01*
X201985714Y8478143D02*
X202128571Y8549572D01*
X202128571Y8549572D02*
X202342857Y8549572D01*
X202342857Y8549572D02*
X202485714Y8478143D01*
X202485714Y8478143D02*
X202557143Y8335286D01*
X202557143Y8335286D02*
X202557143Y7549572D01*
X203914286Y7549572D02*
X203914286Y8335286D01*
X203914286Y8335286D02*
X203842857Y8478143D01*
X203842857Y8478143D02*
X203700000Y8549572D01*
X203700000Y8549572D02*
X203414286Y8549572D01*
X203414286Y8549572D02*
X203271428Y8478143D01*
X203914286Y7621000D02*
X203771428Y7549572D01*
X203771428Y7549572D02*
X203414286Y7549572D01*
X203414286Y7549572D02*
X203271428Y7621000D01*
X203271428Y7621000D02*
X203200000Y7763858D01*
X203200000Y7763858D02*
X203200000Y7906715D01*
X203200000Y7906715D02*
X203271428Y8049572D01*
X203271428Y8049572D02*
X203414286Y8121000D01*
X203414286Y8121000D02*
X203771428Y8121000D01*
X203771428Y8121000D02*
X203914286Y8192429D01*
X206628571Y7692429D02*
X206557143Y7621000D01*
X206557143Y7621000D02*
X206342857Y7549572D01*
X206342857Y7549572D02*
X206200000Y7549572D01*
X206200000Y7549572D02*
X205985714Y7621000D01*
X205985714Y7621000D02*
X205842857Y7763858D01*
X205842857Y7763858D02*
X205771428Y7906715D01*
X205771428Y7906715D02*
X205700000Y8192429D01*
X205700000Y8192429D02*
X205700000Y8406715D01*
X205700000Y8406715D02*
X205771428Y8692429D01*
X205771428Y8692429D02*
X205842857Y8835286D01*
X205842857Y8835286D02*
X205985714Y8978143D01*
X205985714Y8978143D02*
X206200000Y9049572D01*
X206200000Y9049572D02*
X206342857Y9049572D01*
X206342857Y9049572D02*
X206557143Y8978143D01*
X206557143Y8978143D02*
X206628571Y8906715D01*
X207485714Y7549572D02*
X207342857Y7621000D01*
X207342857Y7621000D02*
X207271428Y7692429D01*
X207271428Y7692429D02*
X207200000Y7835286D01*
X207200000Y7835286D02*
X207200000Y8263858D01*
X207200000Y8263858D02*
X207271428Y8406715D01*
X207271428Y8406715D02*
X207342857Y8478143D01*
X207342857Y8478143D02*
X207485714Y8549572D01*
X207485714Y8549572D02*
X207700000Y8549572D01*
X207700000Y8549572D02*
X207842857Y8478143D01*
X207842857Y8478143D02*
X207914286Y8406715D01*
X207914286Y8406715D02*
X207985714Y8263858D01*
X207985714Y8263858D02*
X207985714Y7835286D01*
X207985714Y7835286D02*
X207914286Y7692429D01*
X207914286Y7692429D02*
X207842857Y7621000D01*
X207842857Y7621000D02*
X207700000Y7549572D01*
X207700000Y7549572D02*
X207485714Y7549572D01*
X208628571Y8549572D02*
X208628571Y7549572D01*
X208628571Y8406715D02*
X208700000Y8478143D01*
X208700000Y8478143D02*
X208842857Y8549572D01*
X208842857Y8549572D02*
X209057143Y8549572D01*
X209057143Y8549572D02*
X209200000Y8478143D01*
X209200000Y8478143D02*
X209271429Y8335286D01*
X209271429Y8335286D02*
X209271429Y7549572D01*
X209771429Y8549572D02*
X210342857Y8549572D01*
X209985714Y9049572D02*
X209985714Y7763858D01*
X209985714Y7763858D02*
X210057143Y7621000D01*
X210057143Y7621000D02*
X210200000Y7549572D01*
X210200000Y7549572D02*
X210342857Y7549572D01*
X210842857Y7549572D02*
X210842857Y8549572D01*
X210842857Y8263858D02*
X210914286Y8406715D01*
X210914286Y8406715D02*
X210985715Y8478143D01*
X210985715Y8478143D02*
X211128572Y8549572D01*
X211128572Y8549572D02*
X211271429Y8549572D01*
X211985714Y7549572D02*
X211842857Y7621000D01*
X211842857Y7621000D02*
X211771428Y7692429D01*
X211771428Y7692429D02*
X211700000Y7835286D01*
X211700000Y7835286D02*
X211700000Y8263858D01*
X211700000Y8263858D02*
X211771428Y8406715D01*
X211771428Y8406715D02*
X211842857Y8478143D01*
X211842857Y8478143D02*
X211985714Y8549572D01*
X211985714Y8549572D02*
X212200000Y8549572D01*
X212200000Y8549572D02*
X212342857Y8478143D01*
X212342857Y8478143D02*
X212414286Y8406715D01*
X212414286Y8406715D02*
X212485714Y8263858D01*
X212485714Y8263858D02*
X212485714Y7835286D01*
X212485714Y7835286D02*
X212414286Y7692429D01*
X212414286Y7692429D02*
X212342857Y7621000D01*
X212342857Y7621000D02*
X212200000Y7549572D01*
X212200000Y7549572D02*
X211985714Y7549572D01*
X213342857Y7549572D02*
X213200000Y7621000D01*
X213200000Y7621000D02*
X213128571Y7763858D01*
X213128571Y7763858D02*
X213128571Y9049572D01*
X215557142Y8335286D02*
X215771428Y8263858D01*
X215771428Y8263858D02*
X215842857Y8192429D01*
X215842857Y8192429D02*
X215914285Y8049572D01*
X215914285Y8049572D02*
X215914285Y7835286D01*
X215914285Y7835286D02*
X215842857Y7692429D01*
X215842857Y7692429D02*
X215771428Y7621000D01*
X215771428Y7621000D02*
X215628571Y7549572D01*
X215628571Y7549572D02*
X215057142Y7549572D01*
X215057142Y7549572D02*
X215057142Y9049572D01*
X215057142Y9049572D02*
X215557142Y9049572D01*
X215557142Y9049572D02*
X215700000Y8978143D01*
X215700000Y8978143D02*
X215771428Y8906715D01*
X215771428Y8906715D02*
X215842857Y8763858D01*
X215842857Y8763858D02*
X215842857Y8621000D01*
X215842857Y8621000D02*
X215771428Y8478143D01*
X215771428Y8478143D02*
X215700000Y8406715D01*
X215700000Y8406715D02*
X215557142Y8335286D01*
X215557142Y8335286D02*
X215057142Y8335286D01*
X216771428Y7549572D02*
X216628571Y7621000D01*
X216628571Y7621000D02*
X216557142Y7692429D01*
X216557142Y7692429D02*
X216485714Y7835286D01*
X216485714Y7835286D02*
X216485714Y8263858D01*
X216485714Y8263858D02*
X216557142Y8406715D01*
X216557142Y8406715D02*
X216628571Y8478143D01*
X216628571Y8478143D02*
X216771428Y8549572D01*
X216771428Y8549572D02*
X216985714Y8549572D01*
X216985714Y8549572D02*
X217128571Y8478143D01*
X217128571Y8478143D02*
X217200000Y8406715D01*
X217200000Y8406715D02*
X217271428Y8263858D01*
X217271428Y8263858D02*
X217271428Y7835286D01*
X217271428Y7835286D02*
X217200000Y7692429D01*
X217200000Y7692429D02*
X217128571Y7621000D01*
X217128571Y7621000D02*
X216985714Y7549572D01*
X216985714Y7549572D02*
X216771428Y7549572D01*
X218557143Y7549572D02*
X218557143Y8335286D01*
X218557143Y8335286D02*
X218485714Y8478143D01*
X218485714Y8478143D02*
X218342857Y8549572D01*
X218342857Y8549572D02*
X218057143Y8549572D01*
X218057143Y8549572D02*
X217914285Y8478143D01*
X218557143Y7621000D02*
X218414285Y7549572D01*
X218414285Y7549572D02*
X218057143Y7549572D01*
X218057143Y7549572D02*
X217914285Y7621000D01*
X217914285Y7621000D02*
X217842857Y7763858D01*
X217842857Y7763858D02*
X217842857Y7906715D01*
X217842857Y7906715D02*
X217914285Y8049572D01*
X217914285Y8049572D02*
X218057143Y8121000D01*
X218057143Y8121000D02*
X218414285Y8121000D01*
X218414285Y8121000D02*
X218557143Y8192429D01*
X219271428Y7549572D02*
X219271428Y8549572D01*
X219271428Y8263858D02*
X219342857Y8406715D01*
X219342857Y8406715D02*
X219414286Y8478143D01*
X219414286Y8478143D02*
X219557143Y8549572D01*
X219557143Y8549572D02*
X219700000Y8549572D01*
X220842857Y7549572D02*
X220842857Y9049572D01*
X220842857Y7621000D02*
X220699999Y7549572D01*
X220699999Y7549572D02*
X220414285Y7549572D01*
X220414285Y7549572D02*
X220271428Y7621000D01*
X220271428Y7621000D02*
X220199999Y7692429D01*
X220199999Y7692429D02*
X220128571Y7835286D01*
X220128571Y7835286D02*
X220128571Y8263858D01*
X220128571Y8263858D02*
X220199999Y8406715D01*
X220199999Y8406715D02*
X220271428Y8478143D01*
X220271428Y8478143D02*
X220414285Y8549572D01*
X220414285Y8549572D02*
X220699999Y8549572D01*
X220699999Y8549572D02*
X220842857Y8478143D01*
X222557142Y8549572D02*
X222914285Y7549572D01*
X222914285Y7549572D02*
X223271428Y8549572D01*
X224628571Y7549572D02*
X223771428Y7549572D01*
X224199999Y7549572D02*
X224199999Y9049572D01*
X224199999Y9049572D02*
X224057142Y8835286D01*
X224057142Y8835286D02*
X223914285Y8692429D01*
X223914285Y8692429D02*
X223771428Y8621000D01*
X225271427Y7692429D02*
X225342856Y7621000D01*
X225342856Y7621000D02*
X225271427Y7549572D01*
X225271427Y7549572D02*
X225199999Y7621000D01*
X225199999Y7621000D02*
X225271427Y7692429D01*
X225271427Y7692429D02*
X225271427Y7549572D01*
X225914285Y8906715D02*
X225985713Y8978143D01*
X225985713Y8978143D02*
X226128571Y9049572D01*
X226128571Y9049572D02*
X226485713Y9049572D01*
X226485713Y9049572D02*
X226628571Y8978143D01*
X226628571Y8978143D02*
X226699999Y8906715D01*
X226699999Y8906715D02*
X226771428Y8763858D01*
X226771428Y8763858D02*
X226771428Y8621000D01*
X226771428Y8621000D02*
X226699999Y8406715D01*
X226699999Y8406715D02*
X225842856Y7549572D01*
X225842856Y7549572D02*
X226771428Y7549572D01*
D11*
X96665904Y39778096D02*
X97142094Y39778096D01*
X96570666Y39492381D02*
X96903999Y40492381D01*
X96903999Y40492381D02*
X97237332Y39492381D01*
X97999237Y40492381D02*
X97808761Y40492381D01*
X97808761Y40492381D02*
X97713523Y40444762D01*
X97713523Y40444762D02*
X97665904Y40397143D01*
X97665904Y40397143D02*
X97570666Y40254286D01*
X97570666Y40254286D02*
X97523047Y40063810D01*
X97523047Y40063810D02*
X97523047Y39682858D01*
X97523047Y39682858D02*
X97570666Y39587620D01*
X97570666Y39587620D02*
X97618285Y39540000D01*
X97618285Y39540000D02*
X97713523Y39492381D01*
X97713523Y39492381D02*
X97903999Y39492381D01*
X97903999Y39492381D02*
X97999237Y39540000D01*
X97999237Y39540000D02*
X98046856Y39587620D01*
X98046856Y39587620D02*
X98094475Y39682858D01*
X98094475Y39682858D02*
X98094475Y39920953D01*
X98094475Y39920953D02*
X98046856Y40016191D01*
X98046856Y40016191D02*
X97999237Y40063810D01*
X97999237Y40063810D02*
X97903999Y40111429D01*
X97903999Y40111429D02*
X97713523Y40111429D01*
X97713523Y40111429D02*
X97618285Y40063810D01*
X97618285Y40063810D02*
X97570666Y40016191D01*
X97570666Y40016191D02*
X97523047Y39920953D01*
X94856380Y57558096D02*
X95332570Y57558096D01*
X94761142Y57272381D02*
X95094475Y58272381D01*
X95094475Y58272381D02*
X95427808Y57272381D01*
X96332570Y57272381D02*
X95999237Y57748572D01*
X95761142Y57272381D02*
X95761142Y58272381D01*
X95761142Y58272381D02*
X96142094Y58272381D01*
X96142094Y58272381D02*
X96237332Y58224762D01*
X96237332Y58224762D02*
X96284951Y58177143D01*
X96284951Y58177143D02*
X96332570Y58081905D01*
X96332570Y58081905D02*
X96332570Y57939048D01*
X96332570Y57939048D02*
X96284951Y57843810D01*
X96284951Y57843810D02*
X96237332Y57796191D01*
X96237332Y57796191D02*
X96142094Y57748572D01*
X96142094Y57748572D02*
X95761142Y57748572D01*
X96761142Y57796191D02*
X97094475Y57796191D01*
X97237332Y57272381D02*
X96761142Y57272381D01*
X96761142Y57272381D02*
X96761142Y58272381D01*
X96761142Y58272381D02*
X97237332Y58272381D01*
X97999237Y57796191D02*
X97665904Y57796191D01*
X97665904Y57272381D02*
X97665904Y58272381D01*
X97665904Y58272381D02*
X98142094Y58272381D01*
D13*
X142953809Y52814096D02*
X143387142Y51514096D01*
X143387142Y51514096D02*
X143820476Y52814096D01*
X144996666Y51637905D02*
X144934762Y51576000D01*
X144934762Y51576000D02*
X144749047Y51514096D01*
X144749047Y51514096D02*
X144625238Y51514096D01*
X144625238Y51514096D02*
X144439524Y51576000D01*
X144439524Y51576000D02*
X144315714Y51699810D01*
X144315714Y51699810D02*
X144253809Y51823620D01*
X144253809Y51823620D02*
X144191905Y52071239D01*
X144191905Y52071239D02*
X144191905Y52256953D01*
X144191905Y52256953D02*
X144253809Y52504572D01*
X144253809Y52504572D02*
X144315714Y52628381D01*
X144315714Y52628381D02*
X144439524Y52752191D01*
X144439524Y52752191D02*
X144625238Y52814096D01*
X144625238Y52814096D02*
X144749047Y52814096D01*
X144749047Y52814096D02*
X144934762Y52752191D01*
X144934762Y52752191D02*
X144996666Y52690286D01*
X146296666Y51637905D02*
X146234762Y51576000D01*
X146234762Y51576000D02*
X146049047Y51514096D01*
X146049047Y51514096D02*
X145925238Y51514096D01*
X145925238Y51514096D02*
X145739524Y51576000D01*
X145739524Y51576000D02*
X145615714Y51699810D01*
X145615714Y51699810D02*
X145553809Y51823620D01*
X145553809Y51823620D02*
X145491905Y52071239D01*
X145491905Y52071239D02*
X145491905Y52256953D01*
X145491905Y52256953D02*
X145553809Y52504572D01*
X145553809Y52504572D02*
X145615714Y52628381D01*
X145615714Y52628381D02*
X145739524Y52752191D01*
X145739524Y52752191D02*
X145925238Y52814096D01*
X145925238Y52814096D02*
X146049047Y52814096D01*
X146049047Y52814096D02*
X146234762Y52752191D01*
X146234762Y52752191D02*
X146296666Y52690286D01*
D11*
X96380189Y31872381D02*
X96046856Y32348572D01*
X95808761Y31872381D02*
X95808761Y32872381D01*
X95808761Y32872381D02*
X96189713Y32872381D01*
X96189713Y32872381D02*
X96284951Y32824762D01*
X96284951Y32824762D02*
X96332570Y32777143D01*
X96332570Y32777143D02*
X96380189Y32681905D01*
X96380189Y32681905D02*
X96380189Y32539048D01*
X96380189Y32539048D02*
X96332570Y32443810D01*
X96332570Y32443810D02*
X96284951Y32396191D01*
X96284951Y32396191D02*
X96189713Y32348572D01*
X96189713Y32348572D02*
X95808761Y32348572D01*
X96761142Y31920000D02*
X96903999Y31872381D01*
X96903999Y31872381D02*
X97142094Y31872381D01*
X97142094Y31872381D02*
X97237332Y31920000D01*
X97237332Y31920000D02*
X97284951Y31967620D01*
X97284951Y31967620D02*
X97332570Y32062858D01*
X97332570Y32062858D02*
X97332570Y32158096D01*
X97332570Y32158096D02*
X97284951Y32253334D01*
X97284951Y32253334D02*
X97237332Y32300953D01*
X97237332Y32300953D02*
X97142094Y32348572D01*
X97142094Y32348572D02*
X96951618Y32396191D01*
X96951618Y32396191D02*
X96856380Y32443810D01*
X96856380Y32443810D02*
X96808761Y32491429D01*
X96808761Y32491429D02*
X96761142Y32586667D01*
X96761142Y32586667D02*
X96761142Y32681905D01*
X96761142Y32681905D02*
X96808761Y32777143D01*
X96808761Y32777143D02*
X96856380Y32824762D01*
X96856380Y32824762D02*
X96951618Y32872381D01*
X96951618Y32872381D02*
X97189713Y32872381D01*
X97189713Y32872381D02*
X97332570Y32824762D01*
X97618285Y32872381D02*
X98189713Y32872381D01*
X97903999Y31872381D02*
X97903999Y32872381D01*
X123828095Y26792381D02*
X123828095Y27792381D01*
X123828095Y27792381D02*
X124066190Y27792381D01*
X124066190Y27792381D02*
X124209047Y27744762D01*
X124209047Y27744762D02*
X124304285Y27649524D01*
X124304285Y27649524D02*
X124351904Y27554286D01*
X124351904Y27554286D02*
X124399523Y27363810D01*
X124399523Y27363810D02*
X124399523Y27220953D01*
X124399523Y27220953D02*
X124351904Y27030477D01*
X124351904Y27030477D02*
X124304285Y26935239D01*
X124304285Y26935239D02*
X124209047Y26840000D01*
X124209047Y26840000D02*
X124066190Y26792381D01*
X124066190Y26792381D02*
X123828095Y26792381D01*
X125351904Y26792381D02*
X124780476Y26792381D01*
X125066190Y26792381D02*
X125066190Y27792381D01*
X125066190Y27792381D02*
X124970952Y27649524D01*
X124970952Y27649524D02*
X124875714Y27554286D01*
X124875714Y27554286D02*
X124780476Y27506667D01*
X123828095Y52192381D02*
X123828095Y53192381D01*
X123828095Y53192381D02*
X124066190Y53192381D01*
X124066190Y53192381D02*
X124209047Y53144762D01*
X124209047Y53144762D02*
X124304285Y53049524D01*
X124304285Y53049524D02*
X124351904Y52954286D01*
X124351904Y52954286D02*
X124399523Y52763810D01*
X124399523Y52763810D02*
X124399523Y52620953D01*
X124399523Y52620953D02*
X124351904Y52430477D01*
X124351904Y52430477D02*
X124304285Y52335239D01*
X124304285Y52335239D02*
X124209047Y52240000D01*
X124209047Y52240000D02*
X124066190Y52192381D01*
X124066190Y52192381D02*
X123828095Y52192381D01*
X124970952Y52763810D02*
X124875714Y52811429D01*
X124875714Y52811429D02*
X124828095Y52859048D01*
X124828095Y52859048D02*
X124780476Y52954286D01*
X124780476Y52954286D02*
X124780476Y53001905D01*
X124780476Y53001905D02*
X124828095Y53097143D01*
X124828095Y53097143D02*
X124875714Y53144762D01*
X124875714Y53144762D02*
X124970952Y53192381D01*
X124970952Y53192381D02*
X125161428Y53192381D01*
X125161428Y53192381D02*
X125256666Y53144762D01*
X125256666Y53144762D02*
X125304285Y53097143D01*
X125304285Y53097143D02*
X125351904Y53001905D01*
X125351904Y53001905D02*
X125351904Y52954286D01*
X125351904Y52954286D02*
X125304285Y52859048D01*
X125304285Y52859048D02*
X125256666Y52811429D01*
X125256666Y52811429D02*
X125161428Y52763810D01*
X125161428Y52763810D02*
X124970952Y52763810D01*
X124970952Y52763810D02*
X124875714Y52716191D01*
X124875714Y52716191D02*
X124828095Y52668572D01*
X124828095Y52668572D02*
X124780476Y52573334D01*
X124780476Y52573334D02*
X124780476Y52382858D01*
X124780476Y52382858D02*
X124828095Y52287620D01*
X124828095Y52287620D02*
X124875714Y52240000D01*
X124875714Y52240000D02*
X124970952Y52192381D01*
X124970952Y52192381D02*
X125161428Y52192381D01*
X125161428Y52192381D02*
X125256666Y52240000D01*
X125256666Y52240000D02*
X125304285Y52287620D01*
X125304285Y52287620D02*
X125351904Y52382858D01*
X125351904Y52382858D02*
X125351904Y52573334D01*
X125351904Y52573334D02*
X125304285Y52668572D01*
X125304285Y52668572D02*
X125256666Y52716191D01*
X125256666Y52716191D02*
X125161428Y52763810D01*
X123828095Y29332381D02*
X123828095Y30332381D01*
X123828095Y30332381D02*
X124066190Y30332381D01*
X124066190Y30332381D02*
X124209047Y30284762D01*
X124209047Y30284762D02*
X124304285Y30189524D01*
X124304285Y30189524D02*
X124351904Y30094286D01*
X124351904Y30094286D02*
X124399523Y29903810D01*
X124399523Y29903810D02*
X124399523Y29760953D01*
X124399523Y29760953D02*
X124351904Y29570477D01*
X124351904Y29570477D02*
X124304285Y29475239D01*
X124304285Y29475239D02*
X124209047Y29380000D01*
X124209047Y29380000D02*
X124066190Y29332381D01*
X124066190Y29332381D02*
X123828095Y29332381D01*
X125018571Y30332381D02*
X125113809Y30332381D01*
X125113809Y30332381D02*
X125209047Y30284762D01*
X125209047Y30284762D02*
X125256666Y30237143D01*
X125256666Y30237143D02*
X125304285Y30141905D01*
X125304285Y30141905D02*
X125351904Y29951429D01*
X125351904Y29951429D02*
X125351904Y29713334D01*
X125351904Y29713334D02*
X125304285Y29522858D01*
X125304285Y29522858D02*
X125256666Y29427620D01*
X125256666Y29427620D02*
X125209047Y29380000D01*
X125209047Y29380000D02*
X125113809Y29332381D01*
X125113809Y29332381D02*
X125018571Y29332381D01*
X125018571Y29332381D02*
X124923333Y29380000D01*
X124923333Y29380000D02*
X124875714Y29427620D01*
X124875714Y29427620D02*
X124828095Y29522858D01*
X124828095Y29522858D02*
X124780476Y29713334D01*
X124780476Y29713334D02*
X124780476Y29951429D01*
X124780476Y29951429D02*
X124828095Y30141905D01*
X124828095Y30141905D02*
X124875714Y30237143D01*
X124875714Y30237143D02*
X124923333Y30284762D01*
X124923333Y30284762D02*
X125018571Y30332381D01*
X96665904Y52478096D02*
X97142094Y52478096D01*
X96570666Y52192381D02*
X96903999Y53192381D01*
X96903999Y53192381D02*
X97237332Y52192381D01*
X98094475Y52192381D02*
X97523047Y52192381D01*
X97808761Y52192381D02*
X97808761Y53192381D01*
X97808761Y53192381D02*
X97713523Y53049524D01*
X97713523Y53049524D02*
X97618285Y52954286D01*
X97618285Y52954286D02*
X97523047Y52906667D01*
D13*
X17219428Y58833572D02*
X16505142Y58833572D01*
X16505142Y58833572D02*
X16433714Y58119286D01*
X16433714Y58119286D02*
X16505142Y58190715D01*
X16505142Y58190715D02*
X16648000Y58262143D01*
X16648000Y58262143D02*
X17005142Y58262143D01*
X17005142Y58262143D02*
X17148000Y58190715D01*
X17148000Y58190715D02*
X17219428Y58119286D01*
X17219428Y58119286D02*
X17290857Y57976429D01*
X17290857Y57976429D02*
X17290857Y57619286D01*
X17290857Y57619286D02*
X17219428Y57476429D01*
X17219428Y57476429D02*
X17148000Y57405000D01*
X17148000Y57405000D02*
X17005142Y57333572D01*
X17005142Y57333572D02*
X16648000Y57333572D01*
X16648000Y57333572D02*
X16505142Y57405000D01*
X16505142Y57405000D02*
X16433714Y57476429D01*
X17719428Y58833572D02*
X18219428Y57333572D01*
X18219428Y57333572D02*
X18719428Y58833572D01*
X20362285Y58333572D02*
X19219427Y57905000D01*
X19219427Y57905000D02*
X20362285Y57476429D01*
X21076570Y57905000D02*
X22219428Y57905000D01*
D11*
X95999237Y30284762D02*
X95903999Y30332381D01*
X95903999Y30332381D02*
X95761142Y30332381D01*
X95761142Y30332381D02*
X95618285Y30284762D01*
X95618285Y30284762D02*
X95523047Y30189524D01*
X95523047Y30189524D02*
X95475428Y30094286D01*
X95475428Y30094286D02*
X95427809Y29903810D01*
X95427809Y29903810D02*
X95427809Y29760953D01*
X95427809Y29760953D02*
X95475428Y29570477D01*
X95475428Y29570477D02*
X95523047Y29475239D01*
X95523047Y29475239D02*
X95618285Y29380000D01*
X95618285Y29380000D02*
X95761142Y29332381D01*
X95761142Y29332381D02*
X95856380Y29332381D01*
X95856380Y29332381D02*
X95999237Y29380000D01*
X95999237Y29380000D02*
X96046856Y29427620D01*
X96046856Y29427620D02*
X96046856Y29760953D01*
X96046856Y29760953D02*
X95856380Y29760953D01*
X96475428Y29332381D02*
X96475428Y30332381D01*
X96475428Y30332381D02*
X97046856Y29332381D01*
X97046856Y29332381D02*
X97046856Y30332381D01*
X97523047Y29332381D02*
X97523047Y30332381D01*
X97523047Y30332381D02*
X97761142Y30332381D01*
X97761142Y30332381D02*
X97903999Y30284762D01*
X97903999Y30284762D02*
X97999237Y30189524D01*
X97999237Y30189524D02*
X98046856Y30094286D01*
X98046856Y30094286D02*
X98094475Y29903810D01*
X98094475Y29903810D02*
X98094475Y29760953D01*
X98094475Y29760953D02*
X98046856Y29570477D01*
X98046856Y29570477D02*
X97999237Y29475239D01*
X97999237Y29475239D02*
X97903999Y29380000D01*
X97903999Y29380000D02*
X97761142Y29332381D01*
X97761142Y29332381D02*
X97523047Y29332381D01*
X96665904Y44858096D02*
X97142094Y44858096D01*
X96570666Y44572381D02*
X96903999Y45572381D01*
X96903999Y45572381D02*
X97237332Y44572381D01*
X97999237Y45239048D02*
X97999237Y44572381D01*
X97761142Y45620000D02*
X97523047Y44905715D01*
X97523047Y44905715D02*
X98142094Y44905715D01*
X178755571Y4932381D02*
X178850809Y4932381D01*
X178850809Y4932381D02*
X178946047Y4884762D01*
X178946047Y4884762D02*
X178993666Y4837143D01*
X178993666Y4837143D02*
X179041285Y4741905D01*
X179041285Y4741905D02*
X179088904Y4551429D01*
X179088904Y4551429D02*
X179088904Y4313334D01*
X179088904Y4313334D02*
X179041285Y4122858D01*
X179041285Y4122858D02*
X178993666Y4027620D01*
X178993666Y4027620D02*
X178946047Y3980000D01*
X178946047Y3980000D02*
X178850809Y3932381D01*
X178850809Y3932381D02*
X178755571Y3932381D01*
X178755571Y3932381D02*
X178660333Y3980000D01*
X178660333Y3980000D02*
X178612714Y4027620D01*
X178612714Y4027620D02*
X178565095Y4122858D01*
X178565095Y4122858D02*
X178517476Y4313334D01*
X178517476Y4313334D02*
X178517476Y4551429D01*
X178517476Y4551429D02*
X178565095Y4741905D01*
X178565095Y4741905D02*
X178612714Y4837143D01*
X178612714Y4837143D02*
X178660333Y4884762D01*
X178660333Y4884762D02*
X178755571Y4932381D01*
X179946047Y4599048D02*
X179946047Y3932381D01*
X179707952Y4980000D02*
X179469857Y4265715D01*
X179469857Y4265715D02*
X180088904Y4265715D01*
X181184142Y4980000D02*
X180327000Y3694286D01*
X182041285Y3932381D02*
X181469857Y3932381D01*
X181755571Y3932381D02*
X181755571Y4932381D01*
X181755571Y4932381D02*
X181660333Y4789524D01*
X181660333Y4789524D02*
X181565095Y4694286D01*
X181565095Y4694286D02*
X181469857Y4646667D01*
X182422238Y4837143D02*
X182469857Y4884762D01*
X182469857Y4884762D02*
X182565095Y4932381D01*
X182565095Y4932381D02*
X182803190Y4932381D01*
X182803190Y4932381D02*
X182898428Y4884762D01*
X182898428Y4884762D02*
X182946047Y4837143D01*
X182946047Y4837143D02*
X182993666Y4741905D01*
X182993666Y4741905D02*
X182993666Y4646667D01*
X182993666Y4646667D02*
X182946047Y4503810D01*
X182946047Y4503810D02*
X182374619Y3932381D01*
X182374619Y3932381D02*
X182993666Y3932381D01*
X184136523Y4980000D02*
X183279381Y3694286D01*
X184422238Y4837143D02*
X184469857Y4884762D01*
X184469857Y4884762D02*
X184565095Y4932381D01*
X184565095Y4932381D02*
X184803190Y4932381D01*
X184803190Y4932381D02*
X184898428Y4884762D01*
X184898428Y4884762D02*
X184946047Y4837143D01*
X184946047Y4837143D02*
X184993666Y4741905D01*
X184993666Y4741905D02*
X184993666Y4646667D01*
X184993666Y4646667D02*
X184946047Y4503810D01*
X184946047Y4503810D02*
X184374619Y3932381D01*
X184374619Y3932381D02*
X184993666Y3932381D01*
X185612714Y4932381D02*
X185707952Y4932381D01*
X185707952Y4932381D02*
X185803190Y4884762D01*
X185803190Y4884762D02*
X185850809Y4837143D01*
X185850809Y4837143D02*
X185898428Y4741905D01*
X185898428Y4741905D02*
X185946047Y4551429D01*
X185946047Y4551429D02*
X185946047Y4313334D01*
X185946047Y4313334D02*
X185898428Y4122858D01*
X185898428Y4122858D02*
X185850809Y4027620D01*
X185850809Y4027620D02*
X185803190Y3980000D01*
X185803190Y3980000D02*
X185707952Y3932381D01*
X185707952Y3932381D02*
X185612714Y3932381D01*
X185612714Y3932381D02*
X185517476Y3980000D01*
X185517476Y3980000D02*
X185469857Y4027620D01*
X185469857Y4027620D02*
X185422238Y4122858D01*
X185422238Y4122858D02*
X185374619Y4313334D01*
X185374619Y4313334D02*
X185374619Y4551429D01*
X185374619Y4551429D02*
X185422238Y4741905D01*
X185422238Y4741905D02*
X185469857Y4837143D01*
X185469857Y4837143D02*
X185517476Y4884762D01*
X185517476Y4884762D02*
X185612714Y4932381D01*
X186327000Y4837143D02*
X186374619Y4884762D01*
X186374619Y4884762D02*
X186469857Y4932381D01*
X186469857Y4932381D02*
X186707952Y4932381D01*
X186707952Y4932381D02*
X186803190Y4884762D01*
X186803190Y4884762D02*
X186850809Y4837143D01*
X186850809Y4837143D02*
X186898428Y4741905D01*
X186898428Y4741905D02*
X186898428Y4646667D01*
X186898428Y4646667D02*
X186850809Y4503810D01*
X186850809Y4503810D02*
X186279381Y3932381D01*
X186279381Y3932381D02*
X186898428Y3932381D01*
X187231762Y4932381D02*
X187850809Y4932381D01*
X187850809Y4932381D02*
X187517476Y4551429D01*
X187517476Y4551429D02*
X187660333Y4551429D01*
X187660333Y4551429D02*
X187755571Y4503810D01*
X187755571Y4503810D02*
X187803190Y4456191D01*
X187803190Y4456191D02*
X187850809Y4360953D01*
X187850809Y4360953D02*
X187850809Y4122858D01*
X187850809Y4122858D02*
X187803190Y4027620D01*
X187803190Y4027620D02*
X187755571Y3980000D01*
X187755571Y3980000D02*
X187660333Y3932381D01*
X187660333Y3932381D02*
X187374619Y3932381D01*
X187374619Y3932381D02*
X187279381Y3980000D01*
X187279381Y3980000D02*
X187231762Y4027620D01*
X189041286Y4313334D02*
X189803191Y4313334D01*
X191184143Y3932381D02*
X191088905Y3980000D01*
X191088905Y3980000D02*
X191041286Y4075239D01*
X191041286Y4075239D02*
X191041286Y4932381D01*
X191993667Y3932381D02*
X191993667Y4456191D01*
X191993667Y4456191D02*
X191946048Y4551429D01*
X191946048Y4551429D02*
X191850810Y4599048D01*
X191850810Y4599048D02*
X191660334Y4599048D01*
X191660334Y4599048D02*
X191565096Y4551429D01*
X191993667Y3980000D02*
X191898429Y3932381D01*
X191898429Y3932381D02*
X191660334Y3932381D01*
X191660334Y3932381D02*
X191565096Y3980000D01*
X191565096Y3980000D02*
X191517477Y4075239D01*
X191517477Y4075239D02*
X191517477Y4170477D01*
X191517477Y4170477D02*
X191565096Y4265715D01*
X191565096Y4265715D02*
X191660334Y4313334D01*
X191660334Y4313334D02*
X191898429Y4313334D01*
X191898429Y4313334D02*
X191993667Y4360953D01*
X192422239Y3980000D02*
X192517477Y3932381D01*
X192517477Y3932381D02*
X192707953Y3932381D01*
X192707953Y3932381D02*
X192803191Y3980000D01*
X192803191Y3980000D02*
X192850810Y4075239D01*
X192850810Y4075239D02*
X192850810Y4122858D01*
X192850810Y4122858D02*
X192803191Y4218096D01*
X192803191Y4218096D02*
X192707953Y4265715D01*
X192707953Y4265715D02*
X192565096Y4265715D01*
X192565096Y4265715D02*
X192469858Y4313334D01*
X192469858Y4313334D02*
X192422239Y4408572D01*
X192422239Y4408572D02*
X192422239Y4456191D01*
X192422239Y4456191D02*
X192469858Y4551429D01*
X192469858Y4551429D02*
X192565096Y4599048D01*
X192565096Y4599048D02*
X192707953Y4599048D01*
X192707953Y4599048D02*
X192803191Y4551429D01*
X193136525Y4599048D02*
X193517477Y4599048D01*
X193279382Y4932381D02*
X193279382Y4075239D01*
X193279382Y4075239D02*
X193327001Y3980000D01*
X193327001Y3980000D02*
X193422239Y3932381D01*
X193422239Y3932381D02*
X193517477Y3932381D01*
X194612716Y3932381D02*
X194612716Y4599048D01*
X194612716Y4408572D02*
X194660335Y4503810D01*
X194660335Y4503810D02*
X194707954Y4551429D01*
X194707954Y4551429D02*
X194803192Y4599048D01*
X194803192Y4599048D02*
X194898430Y4599048D01*
X195612716Y3980000D02*
X195517478Y3932381D01*
X195517478Y3932381D02*
X195327002Y3932381D01*
X195327002Y3932381D02*
X195231764Y3980000D01*
X195231764Y3980000D02*
X195184145Y4075239D01*
X195184145Y4075239D02*
X195184145Y4456191D01*
X195184145Y4456191D02*
X195231764Y4551429D01*
X195231764Y4551429D02*
X195327002Y4599048D01*
X195327002Y4599048D02*
X195517478Y4599048D01*
X195517478Y4599048D02*
X195612716Y4551429D01*
X195612716Y4551429D02*
X195660335Y4456191D01*
X195660335Y4456191D02*
X195660335Y4360953D01*
X195660335Y4360953D02*
X195184145Y4265715D01*
X195993669Y4599048D02*
X196231764Y3932381D01*
X196231764Y3932381D02*
X196469859Y4599048D01*
X196850812Y4027620D02*
X196898431Y3980000D01*
X196898431Y3980000D02*
X196850812Y3932381D01*
X196850812Y3932381D02*
X196803193Y3980000D01*
X196803193Y3980000D02*
X196850812Y4027620D01*
X196850812Y4027620D02*
X196850812Y3932381D01*
X198279383Y4932381D02*
X198374621Y4932381D01*
X198374621Y4932381D02*
X198469859Y4884762D01*
X198469859Y4884762D02*
X198517478Y4837143D01*
X198517478Y4837143D02*
X198565097Y4741905D01*
X198565097Y4741905D02*
X198612716Y4551429D01*
X198612716Y4551429D02*
X198612716Y4313334D01*
X198612716Y4313334D02*
X198565097Y4122858D01*
X198565097Y4122858D02*
X198517478Y4027620D01*
X198517478Y4027620D02*
X198469859Y3980000D01*
X198469859Y3980000D02*
X198374621Y3932381D01*
X198374621Y3932381D02*
X198279383Y3932381D01*
X198279383Y3932381D02*
X198184145Y3980000D01*
X198184145Y3980000D02*
X198136526Y4027620D01*
X198136526Y4027620D02*
X198088907Y4122858D01*
X198088907Y4122858D02*
X198041288Y4313334D01*
X198041288Y4313334D02*
X198041288Y4551429D01*
X198041288Y4551429D02*
X198088907Y4741905D01*
X198088907Y4741905D02*
X198136526Y4837143D01*
X198136526Y4837143D02*
X198184145Y4884762D01*
X198184145Y4884762D02*
X198279383Y4932381D01*
X198946050Y4932381D02*
X199612716Y4932381D01*
X199612716Y4932381D02*
X199184145Y3932381D01*
X200707954Y4980000D02*
X199850812Y3694286D01*
X201565097Y3932381D02*
X200993669Y3932381D01*
X201279383Y3932381D02*
X201279383Y4932381D01*
X201279383Y4932381D02*
X201184145Y4789524D01*
X201184145Y4789524D02*
X201088907Y4694286D01*
X201088907Y4694286D02*
X200993669Y4646667D01*
X201946050Y4837143D02*
X201993669Y4884762D01*
X201993669Y4884762D02*
X202088907Y4932381D01*
X202088907Y4932381D02*
X202327002Y4932381D01*
X202327002Y4932381D02*
X202422240Y4884762D01*
X202422240Y4884762D02*
X202469859Y4837143D01*
X202469859Y4837143D02*
X202517478Y4741905D01*
X202517478Y4741905D02*
X202517478Y4646667D01*
X202517478Y4646667D02*
X202469859Y4503810D01*
X202469859Y4503810D02*
X201898431Y3932381D01*
X201898431Y3932381D02*
X202517478Y3932381D01*
X203660335Y4980000D02*
X202803193Y3694286D01*
X203946050Y4837143D02*
X203993669Y4884762D01*
X203993669Y4884762D02*
X204088907Y4932381D01*
X204088907Y4932381D02*
X204327002Y4932381D01*
X204327002Y4932381D02*
X204422240Y4884762D01*
X204422240Y4884762D02*
X204469859Y4837143D01*
X204469859Y4837143D02*
X204517478Y4741905D01*
X204517478Y4741905D02*
X204517478Y4646667D01*
X204517478Y4646667D02*
X204469859Y4503810D01*
X204469859Y4503810D02*
X203898431Y3932381D01*
X203898431Y3932381D02*
X204517478Y3932381D01*
X205136526Y4932381D02*
X205231764Y4932381D01*
X205231764Y4932381D02*
X205327002Y4884762D01*
X205327002Y4884762D02*
X205374621Y4837143D01*
X205374621Y4837143D02*
X205422240Y4741905D01*
X205422240Y4741905D02*
X205469859Y4551429D01*
X205469859Y4551429D02*
X205469859Y4313334D01*
X205469859Y4313334D02*
X205422240Y4122858D01*
X205422240Y4122858D02*
X205374621Y4027620D01*
X205374621Y4027620D02*
X205327002Y3980000D01*
X205327002Y3980000D02*
X205231764Y3932381D01*
X205231764Y3932381D02*
X205136526Y3932381D01*
X205136526Y3932381D02*
X205041288Y3980000D01*
X205041288Y3980000D02*
X204993669Y4027620D01*
X204993669Y4027620D02*
X204946050Y4122858D01*
X204946050Y4122858D02*
X204898431Y4313334D01*
X204898431Y4313334D02*
X204898431Y4551429D01*
X204898431Y4551429D02*
X204946050Y4741905D01*
X204946050Y4741905D02*
X204993669Y4837143D01*
X204993669Y4837143D02*
X205041288Y4884762D01*
X205041288Y4884762D02*
X205136526Y4932381D01*
X205850812Y4837143D02*
X205898431Y4884762D01*
X205898431Y4884762D02*
X205993669Y4932381D01*
X205993669Y4932381D02*
X206231764Y4932381D01*
X206231764Y4932381D02*
X206327002Y4884762D01*
X206327002Y4884762D02*
X206374621Y4837143D01*
X206374621Y4837143D02*
X206422240Y4741905D01*
X206422240Y4741905D02*
X206422240Y4646667D01*
X206422240Y4646667D02*
X206374621Y4503810D01*
X206374621Y4503810D02*
X205803193Y3932381D01*
X205803193Y3932381D02*
X206422240Y3932381D01*
X206755574Y4932381D02*
X207374621Y4932381D01*
X207374621Y4932381D02*
X207041288Y4551429D01*
X207041288Y4551429D02*
X207184145Y4551429D01*
X207184145Y4551429D02*
X207279383Y4503810D01*
X207279383Y4503810D02*
X207327002Y4456191D01*
X207327002Y4456191D02*
X207374621Y4360953D01*
X207374621Y4360953D02*
X207374621Y4122858D01*
X207374621Y4122858D02*
X207327002Y4027620D01*
X207327002Y4027620D02*
X207279383Y3980000D01*
X207279383Y3980000D02*
X207184145Y3932381D01*
X207184145Y3932381D02*
X206898431Y3932381D01*
X206898431Y3932381D02*
X206803193Y3980000D01*
X206803193Y3980000D02*
X206755574Y4027620D01*
X97189713Y35412381D02*
X96713523Y35412381D01*
X96713523Y35412381D02*
X96665904Y34936191D01*
X96665904Y34936191D02*
X96713523Y34983810D01*
X96713523Y34983810D02*
X96808761Y35031429D01*
X96808761Y35031429D02*
X97046856Y35031429D01*
X97046856Y35031429D02*
X97142094Y34983810D01*
X97142094Y34983810D02*
X97189713Y34936191D01*
X97189713Y34936191D02*
X97237332Y34840953D01*
X97237332Y34840953D02*
X97237332Y34602858D01*
X97237332Y34602858D02*
X97189713Y34507620D01*
X97189713Y34507620D02*
X97142094Y34460000D01*
X97142094Y34460000D02*
X97046856Y34412381D01*
X97046856Y34412381D02*
X96808761Y34412381D01*
X96808761Y34412381D02*
X96713523Y34460000D01*
X96713523Y34460000D02*
X96665904Y34507620D01*
X97523047Y35412381D02*
X97856380Y34412381D01*
X97856380Y34412381D02*
X98189713Y35412381D01*
X124399523Y31872381D02*
X124066190Y32348572D01*
X123828095Y31872381D02*
X123828095Y32872381D01*
X123828095Y32872381D02*
X124209047Y32872381D01*
X124209047Y32872381D02*
X124304285Y32824762D01*
X124304285Y32824762D02*
X124351904Y32777143D01*
X124351904Y32777143D02*
X124399523Y32681905D01*
X124399523Y32681905D02*
X124399523Y32539048D01*
X124399523Y32539048D02*
X124351904Y32443810D01*
X124351904Y32443810D02*
X124304285Y32396191D01*
X124304285Y32396191D02*
X124209047Y32348572D01*
X124209047Y32348572D02*
X123828095Y32348572D01*
X124780476Y31920000D02*
X124923333Y31872381D01*
X124923333Y31872381D02*
X125161428Y31872381D01*
X125161428Y31872381D02*
X125256666Y31920000D01*
X125256666Y31920000D02*
X125304285Y31967620D01*
X125304285Y31967620D02*
X125351904Y32062858D01*
X125351904Y32062858D02*
X125351904Y32158096D01*
X125351904Y32158096D02*
X125304285Y32253334D01*
X125304285Y32253334D02*
X125256666Y32300953D01*
X125256666Y32300953D02*
X125161428Y32348572D01*
X125161428Y32348572D02*
X124970952Y32396191D01*
X124970952Y32396191D02*
X124875714Y32443810D01*
X124875714Y32443810D02*
X124828095Y32491429D01*
X124828095Y32491429D02*
X124780476Y32586667D01*
X124780476Y32586667D02*
X124780476Y32681905D01*
X124780476Y32681905D02*
X124828095Y32777143D01*
X124828095Y32777143D02*
X124875714Y32824762D01*
X124875714Y32824762D02*
X124970952Y32872381D01*
X124970952Y32872381D02*
X125209047Y32872381D01*
X125209047Y32872381D02*
X125351904Y32824762D01*
X125637619Y32872381D02*
X126209047Y32872381D01*
X125923333Y31872381D02*
X125923333Y32872381D01*
D14*
X67908285Y1596429D02*
X67836857Y1525000D01*
X67836857Y1525000D02*
X67622571Y1453572D01*
X67622571Y1453572D02*
X67479714Y1453572D01*
X67479714Y1453572D02*
X67265428Y1525000D01*
X67265428Y1525000D02*
X67122571Y1667858D01*
X67122571Y1667858D02*
X67051142Y1810715D01*
X67051142Y1810715D02*
X66979714Y2096429D01*
X66979714Y2096429D02*
X66979714Y2310715D01*
X66979714Y2310715D02*
X67051142Y2596429D01*
X67051142Y2596429D02*
X67122571Y2739286D01*
X67122571Y2739286D02*
X67265428Y2882143D01*
X67265428Y2882143D02*
X67479714Y2953572D01*
X67479714Y2953572D02*
X67622571Y2953572D01*
X67622571Y2953572D02*
X67836857Y2882143D01*
X67836857Y2882143D02*
X67908285Y2810715D01*
X68479714Y2810715D02*
X68551142Y2882143D01*
X68551142Y2882143D02*
X68694000Y2953572D01*
X68694000Y2953572D02*
X69051142Y2953572D01*
X69051142Y2953572D02*
X69194000Y2882143D01*
X69194000Y2882143D02*
X69265428Y2810715D01*
X69265428Y2810715D02*
X69336857Y2667858D01*
X69336857Y2667858D02*
X69336857Y2525000D01*
X69336857Y2525000D02*
X69265428Y2310715D01*
X69265428Y2310715D02*
X68408285Y1453572D01*
X68408285Y1453572D02*
X69336857Y1453572D01*
X69979713Y2025000D02*
X71122571Y2025000D01*
X70551142Y1453572D02*
X70551142Y2596429D01*
D11*
X123828095Y59812381D02*
X123828095Y60812381D01*
X123828095Y60812381D02*
X124066190Y60812381D01*
X124066190Y60812381D02*
X124209047Y60764762D01*
X124209047Y60764762D02*
X124304285Y60669524D01*
X124304285Y60669524D02*
X124351904Y60574286D01*
X124351904Y60574286D02*
X124399523Y60383810D01*
X124399523Y60383810D02*
X124399523Y60240953D01*
X124399523Y60240953D02*
X124351904Y60050477D01*
X124351904Y60050477D02*
X124304285Y59955239D01*
X124304285Y59955239D02*
X124209047Y59860000D01*
X124209047Y59860000D02*
X124066190Y59812381D01*
X124066190Y59812381D02*
X123828095Y59812381D01*
X125351904Y59812381D02*
X124780476Y59812381D01*
X125066190Y59812381D02*
X125066190Y60812381D01*
X125066190Y60812381D02*
X124970952Y60669524D01*
X124970952Y60669524D02*
X124875714Y60574286D01*
X124875714Y60574286D02*
X124780476Y60526667D01*
X126304285Y59812381D02*
X125732857Y59812381D01*
X126018571Y59812381D02*
X126018571Y60812381D01*
X126018571Y60812381D02*
X125923333Y60669524D01*
X125923333Y60669524D02*
X125828095Y60574286D01*
X125828095Y60574286D02*
X125732857Y60526667D01*
X96665904Y49938096D02*
X97142094Y49938096D01*
X96570666Y49652381D02*
X96903999Y50652381D01*
X96903999Y50652381D02*
X97237332Y49652381D01*
X97523047Y50557143D02*
X97570666Y50604762D01*
X97570666Y50604762D02*
X97665904Y50652381D01*
X97665904Y50652381D02*
X97903999Y50652381D01*
X97903999Y50652381D02*
X97999237Y50604762D01*
X97999237Y50604762D02*
X98046856Y50557143D01*
X98046856Y50557143D02*
X98094475Y50461905D01*
X98094475Y50461905D02*
X98094475Y50366667D01*
X98094475Y50366667D02*
X98046856Y50223810D01*
X98046856Y50223810D02*
X97475428Y49652381D01*
X97475428Y49652381D02*
X98094475Y49652381D01*
X214831428Y50221572D02*
X214117142Y50221572D01*
X214117142Y50221572D02*
X214117142Y51721572D01*
X215974286Y50221572D02*
X215974286Y51007286D01*
X215974286Y51007286D02*
X215902857Y51150143D01*
X215902857Y51150143D02*
X215760000Y51221572D01*
X215760000Y51221572D02*
X215474286Y51221572D01*
X215474286Y51221572D02*
X215331428Y51150143D01*
X215974286Y50293000D02*
X215831428Y50221572D01*
X215831428Y50221572D02*
X215474286Y50221572D01*
X215474286Y50221572D02*
X215331428Y50293000D01*
X215331428Y50293000D02*
X215260000Y50435858D01*
X215260000Y50435858D02*
X215260000Y50578715D01*
X215260000Y50578715D02*
X215331428Y50721572D01*
X215331428Y50721572D02*
X215474286Y50793000D01*
X215474286Y50793000D02*
X215831428Y50793000D01*
X215831428Y50793000D02*
X215974286Y50864429D01*
X216688571Y50221572D02*
X216688571Y51221572D01*
X216688571Y51078715D02*
X216760000Y51150143D01*
X216760000Y51150143D02*
X216902857Y51221572D01*
X216902857Y51221572D02*
X217117143Y51221572D01*
X217117143Y51221572D02*
X217260000Y51150143D01*
X217260000Y51150143D02*
X217331429Y51007286D01*
X217331429Y51007286D02*
X217331429Y50221572D01*
X217331429Y51007286D02*
X217402857Y51150143D01*
X217402857Y51150143D02*
X217545714Y51221572D01*
X217545714Y51221572D02*
X217760000Y51221572D01*
X217760000Y51221572D02*
X217902857Y51150143D01*
X217902857Y51150143D02*
X217974286Y51007286D01*
X217974286Y51007286D02*
X217974286Y50221572D01*
X218688571Y51221572D02*
X218688571Y49721572D01*
X218688571Y51150143D02*
X218831429Y51221572D01*
X218831429Y51221572D02*
X219117143Y51221572D01*
X219117143Y51221572D02*
X219260000Y51150143D01*
X219260000Y51150143D02*
X219331429Y51078715D01*
X219331429Y51078715D02*
X219402857Y50935858D01*
X219402857Y50935858D02*
X219402857Y50507286D01*
X219402857Y50507286D02*
X219331429Y50364429D01*
X219331429Y50364429D02*
X219260000Y50293000D01*
X219260000Y50293000D02*
X219117143Y50221572D01*
X219117143Y50221572D02*
X218831429Y50221572D01*
X218831429Y50221572D02*
X218688571Y50293000D01*
X221688571Y51007286D02*
X221902857Y50935858D01*
X221902857Y50935858D02*
X221974286Y50864429D01*
X221974286Y50864429D02*
X222045714Y50721572D01*
X222045714Y50721572D02*
X222045714Y50507286D01*
X222045714Y50507286D02*
X221974286Y50364429D01*
X221974286Y50364429D02*
X221902857Y50293000D01*
X221902857Y50293000D02*
X221760000Y50221572D01*
X221760000Y50221572D02*
X221188571Y50221572D01*
X221188571Y50221572D02*
X221188571Y51721572D01*
X221188571Y51721572D02*
X221688571Y51721572D01*
X221688571Y51721572D02*
X221831429Y51650143D01*
X221831429Y51650143D02*
X221902857Y51578715D01*
X221902857Y51578715D02*
X221974286Y51435858D01*
X221974286Y51435858D02*
X221974286Y51293000D01*
X221974286Y51293000D02*
X221902857Y51150143D01*
X221902857Y51150143D02*
X221831429Y51078715D01*
X221831429Y51078715D02*
X221688571Y51007286D01*
X221688571Y51007286D02*
X221188571Y51007286D01*
X222902857Y50221572D02*
X222760000Y50293000D01*
X222760000Y50293000D02*
X222688571Y50364429D01*
X222688571Y50364429D02*
X222617143Y50507286D01*
X222617143Y50507286D02*
X222617143Y50935858D01*
X222617143Y50935858D02*
X222688571Y51078715D01*
X222688571Y51078715D02*
X222760000Y51150143D01*
X222760000Y51150143D02*
X222902857Y51221572D01*
X222902857Y51221572D02*
X223117143Y51221572D01*
X223117143Y51221572D02*
X223260000Y51150143D01*
X223260000Y51150143D02*
X223331429Y51078715D01*
X223331429Y51078715D02*
X223402857Y50935858D01*
X223402857Y50935858D02*
X223402857Y50507286D01*
X223402857Y50507286D02*
X223331429Y50364429D01*
X223331429Y50364429D02*
X223260000Y50293000D01*
X223260000Y50293000D02*
X223117143Y50221572D01*
X223117143Y50221572D02*
X222902857Y50221572D01*
X224688572Y50221572D02*
X224688572Y51007286D01*
X224688572Y51007286D02*
X224617143Y51150143D01*
X224617143Y51150143D02*
X224474286Y51221572D01*
X224474286Y51221572D02*
X224188572Y51221572D01*
X224188572Y51221572D02*
X224045714Y51150143D01*
X224688572Y50293000D02*
X224545714Y50221572D01*
X224545714Y50221572D02*
X224188572Y50221572D01*
X224188572Y50221572D02*
X224045714Y50293000D01*
X224045714Y50293000D02*
X223974286Y50435858D01*
X223974286Y50435858D02*
X223974286Y50578715D01*
X223974286Y50578715D02*
X224045714Y50721572D01*
X224045714Y50721572D02*
X224188572Y50793000D01*
X224188572Y50793000D02*
X224545714Y50793000D01*
X224545714Y50793000D02*
X224688572Y50864429D01*
X225402857Y50221572D02*
X225402857Y51221572D01*
X225402857Y50935858D02*
X225474286Y51078715D01*
X225474286Y51078715D02*
X225545715Y51150143D01*
X225545715Y51150143D02*
X225688572Y51221572D01*
X225688572Y51221572D02*
X225831429Y51221572D01*
X226974286Y50221572D02*
X226974286Y51721572D01*
X226974286Y50293000D02*
X226831428Y50221572D01*
X226831428Y50221572D02*
X226545714Y50221572D01*
X226545714Y50221572D02*
X226402857Y50293000D01*
X226402857Y50293000D02*
X226331428Y50364429D01*
X226331428Y50364429D02*
X226260000Y50507286D01*
X226260000Y50507286D02*
X226260000Y50935858D01*
X226260000Y50935858D02*
X226331428Y51078715D01*
X226331428Y51078715D02*
X226402857Y51150143D01*
X226402857Y51150143D02*
X226545714Y51221572D01*
X226545714Y51221572D02*
X226831428Y51221572D01*
X226831428Y51221572D02*
X226974286Y51150143D01*
X229688571Y50364429D02*
X229617143Y50293000D01*
X229617143Y50293000D02*
X229402857Y50221572D01*
X229402857Y50221572D02*
X229260000Y50221572D01*
X229260000Y50221572D02*
X229045714Y50293000D01*
X229045714Y50293000D02*
X228902857Y50435858D01*
X228902857Y50435858D02*
X228831428Y50578715D01*
X228831428Y50578715D02*
X228760000Y50864429D01*
X228760000Y50864429D02*
X228760000Y51078715D01*
X228760000Y51078715D02*
X228831428Y51364429D01*
X228831428Y51364429D02*
X228902857Y51507286D01*
X228902857Y51507286D02*
X229045714Y51650143D01*
X229045714Y51650143D02*
X229260000Y51721572D01*
X229260000Y51721572D02*
X229402857Y51721572D01*
X229402857Y51721572D02*
X229617143Y51650143D01*
X229617143Y51650143D02*
X229688571Y51578715D01*
X230545714Y50221572D02*
X230402857Y50293000D01*
X230402857Y50293000D02*
X230331428Y50364429D01*
X230331428Y50364429D02*
X230260000Y50507286D01*
X230260000Y50507286D02*
X230260000Y50935858D01*
X230260000Y50935858D02*
X230331428Y51078715D01*
X230331428Y51078715D02*
X230402857Y51150143D01*
X230402857Y51150143D02*
X230545714Y51221572D01*
X230545714Y51221572D02*
X230760000Y51221572D01*
X230760000Y51221572D02*
X230902857Y51150143D01*
X230902857Y51150143D02*
X230974286Y51078715D01*
X230974286Y51078715D02*
X231045714Y50935858D01*
X231045714Y50935858D02*
X231045714Y50507286D01*
X231045714Y50507286D02*
X230974286Y50364429D01*
X230974286Y50364429D02*
X230902857Y50293000D01*
X230902857Y50293000D02*
X230760000Y50221572D01*
X230760000Y50221572D02*
X230545714Y50221572D01*
X231688571Y51221572D02*
X231688571Y50221572D01*
X231688571Y51078715D02*
X231760000Y51150143D01*
X231760000Y51150143D02*
X231902857Y51221572D01*
X231902857Y51221572D02*
X232117143Y51221572D01*
X232117143Y51221572D02*
X232260000Y51150143D01*
X232260000Y51150143D02*
X232331429Y51007286D01*
X232331429Y51007286D02*
X232331429Y50221572D01*
X233045714Y51221572D02*
X233045714Y50221572D01*
X233045714Y51078715D02*
X233117143Y51150143D01*
X233117143Y51150143D02*
X233260000Y51221572D01*
X233260000Y51221572D02*
X233474286Y51221572D01*
X233474286Y51221572D02*
X233617143Y51150143D01*
X233617143Y51150143D02*
X233688572Y51007286D01*
X233688572Y51007286D02*
X233688572Y50221572D01*
X234402857Y50364429D02*
X234474286Y50293000D01*
X234474286Y50293000D02*
X234402857Y50221572D01*
X234402857Y50221572D02*
X234331429Y50293000D01*
X234331429Y50293000D02*
X234402857Y50364429D01*
X234402857Y50364429D02*
X234402857Y50221572D01*
X15639000Y25431715D02*
X15710428Y25646000D01*
X15710428Y25646000D02*
X15710428Y26003143D01*
X15710428Y26003143D02*
X15639000Y26146000D01*
X15639000Y26146000D02*
X15567571Y26217429D01*
X15567571Y26217429D02*
X15424714Y26288858D01*
X15424714Y26288858D02*
X15281857Y26288858D01*
X15281857Y26288858D02*
X15139000Y26217429D01*
X15139000Y26217429D02*
X15067571Y26146000D01*
X15067571Y26146000D02*
X14996142Y26003143D01*
X14996142Y26003143D02*
X14924714Y25717429D01*
X14924714Y25717429D02*
X14853285Y25574572D01*
X14853285Y25574572D02*
X14781857Y25503143D01*
X14781857Y25503143D02*
X14639000Y25431715D01*
X14639000Y25431715D02*
X14496142Y25431715D01*
X14496142Y25431715D02*
X14353285Y25503143D01*
X14353285Y25503143D02*
X14281857Y25574572D01*
X14281857Y25574572D02*
X14210428Y25717429D01*
X14210428Y25717429D02*
X14210428Y26074572D01*
X14210428Y26074572D02*
X14281857Y26288858D01*
X14710428Y26788857D02*
X15710428Y27074571D01*
X15710428Y27074571D02*
X14996142Y27360286D01*
X14996142Y27360286D02*
X15710428Y27646000D01*
X15710428Y27646000D02*
X14710428Y27931714D01*
X15710428Y28503143D02*
X14710428Y28503143D01*
X14210428Y28503143D02*
X14281857Y28431715D01*
X14281857Y28431715D02*
X14353285Y28503143D01*
X14353285Y28503143D02*
X14281857Y28574572D01*
X14281857Y28574572D02*
X14210428Y28503143D01*
X14210428Y28503143D02*
X14353285Y28503143D01*
X14710428Y29003144D02*
X14710428Y29574572D01*
X14210428Y29217429D02*
X15496142Y29217429D01*
X15496142Y29217429D02*
X15639000Y29288858D01*
X15639000Y29288858D02*
X15710428Y29431715D01*
X15710428Y29431715D02*
X15710428Y29574572D01*
X15639000Y30717429D02*
X15710428Y30574572D01*
X15710428Y30574572D02*
X15710428Y30288858D01*
X15710428Y30288858D02*
X15639000Y30146001D01*
X15639000Y30146001D02*
X15567571Y30074572D01*
X15567571Y30074572D02*
X15424714Y30003144D01*
X15424714Y30003144D02*
X14996142Y30003144D01*
X14996142Y30003144D02*
X14853285Y30074572D01*
X14853285Y30074572D02*
X14781857Y30146001D01*
X14781857Y30146001D02*
X14710428Y30288858D01*
X14710428Y30288858D02*
X14710428Y30574572D01*
X14710428Y30574572D02*
X14781857Y30717429D01*
X15710428Y31360286D02*
X14210428Y31360286D01*
X15710428Y32003143D02*
X14924714Y32003143D01*
X14924714Y32003143D02*
X14781857Y31931715D01*
X14781857Y31931715D02*
X14710428Y31788858D01*
X14710428Y31788858D02*
X14710428Y31574572D01*
X14710428Y31574572D02*
X14781857Y31431715D01*
X14781857Y31431715D02*
X14853285Y31360286D01*
X14924714Y34360286D02*
X14996142Y34574572D01*
X14996142Y34574572D02*
X15067571Y34646001D01*
X15067571Y34646001D02*
X15210428Y34717429D01*
X15210428Y34717429D02*
X15424714Y34717429D01*
X15424714Y34717429D02*
X15567571Y34646001D01*
X15567571Y34646001D02*
X15639000Y34574572D01*
X15639000Y34574572D02*
X15710428Y34431715D01*
X15710428Y34431715D02*
X15710428Y33860286D01*
X15710428Y33860286D02*
X14210428Y33860286D01*
X14210428Y33860286D02*
X14210428Y34360286D01*
X14210428Y34360286D02*
X14281857Y34503143D01*
X14281857Y34503143D02*
X14353285Y34574572D01*
X14353285Y34574572D02*
X14496142Y34646001D01*
X14496142Y34646001D02*
X14639000Y34646001D01*
X14639000Y34646001D02*
X14781857Y34574572D01*
X14781857Y34574572D02*
X14853285Y34503143D01*
X14853285Y34503143D02*
X14924714Y34360286D01*
X14924714Y34360286D02*
X14924714Y33860286D01*
X15710428Y35574572D02*
X15639000Y35431715D01*
X15639000Y35431715D02*
X15567571Y35360286D01*
X15567571Y35360286D02*
X15424714Y35288858D01*
X15424714Y35288858D02*
X14996142Y35288858D01*
X14996142Y35288858D02*
X14853285Y35360286D01*
X14853285Y35360286D02*
X14781857Y35431715D01*
X14781857Y35431715D02*
X14710428Y35574572D01*
X14710428Y35574572D02*
X14710428Y35788858D01*
X14710428Y35788858D02*
X14781857Y35931715D01*
X14781857Y35931715D02*
X14853285Y36003143D01*
X14853285Y36003143D02*
X14996142Y36074572D01*
X14996142Y36074572D02*
X15424714Y36074572D01*
X15424714Y36074572D02*
X15567571Y36003143D01*
X15567571Y36003143D02*
X15639000Y35931715D01*
X15639000Y35931715D02*
X15710428Y35788858D01*
X15710428Y35788858D02*
X15710428Y35574572D01*
X15710428Y37360286D02*
X14924714Y37360286D01*
X14924714Y37360286D02*
X14781857Y37288858D01*
X14781857Y37288858D02*
X14710428Y37146001D01*
X14710428Y37146001D02*
X14710428Y36860286D01*
X14710428Y36860286D02*
X14781857Y36717429D01*
X15639000Y37360286D02*
X15710428Y37217429D01*
X15710428Y37217429D02*
X15710428Y36860286D01*
X15710428Y36860286D02*
X15639000Y36717429D01*
X15639000Y36717429D02*
X15496142Y36646001D01*
X15496142Y36646001D02*
X15353285Y36646001D01*
X15353285Y36646001D02*
X15210428Y36717429D01*
X15210428Y36717429D02*
X15139000Y36860286D01*
X15139000Y36860286D02*
X15139000Y37217429D01*
X15139000Y37217429D02*
X15067571Y37360286D01*
X15710428Y38074572D02*
X14710428Y38074572D01*
X14996142Y38074572D02*
X14853285Y38146001D01*
X14853285Y38146001D02*
X14781857Y38217429D01*
X14781857Y38217429D02*
X14710428Y38360287D01*
X14710428Y38360287D02*
X14710428Y38503144D01*
X15710428Y39646000D02*
X14210428Y39646000D01*
X15639000Y39646000D02*
X15710428Y39503143D01*
X15710428Y39503143D02*
X15710428Y39217429D01*
X15710428Y39217429D02*
X15639000Y39074572D01*
X15639000Y39074572D02*
X15567571Y39003143D01*
X15567571Y39003143D02*
X15424714Y38931715D01*
X15424714Y38931715D02*
X14996142Y38931715D01*
X14996142Y38931715D02*
X14853285Y39003143D01*
X14853285Y39003143D02*
X14781857Y39074572D01*
X14781857Y39074572D02*
X14710428Y39217429D01*
X14710428Y39217429D02*
X14710428Y39503143D01*
X14710428Y39503143D02*
X14781857Y39646000D01*
X15567571Y42360286D02*
X15639000Y42288858D01*
X15639000Y42288858D02*
X15710428Y42074572D01*
X15710428Y42074572D02*
X15710428Y41931715D01*
X15710428Y41931715D02*
X15639000Y41717429D01*
X15639000Y41717429D02*
X15496142Y41574572D01*
X15496142Y41574572D02*
X15353285Y41503143D01*
X15353285Y41503143D02*
X15067571Y41431715D01*
X15067571Y41431715D02*
X14853285Y41431715D01*
X14853285Y41431715D02*
X14567571Y41503143D01*
X14567571Y41503143D02*
X14424714Y41574572D01*
X14424714Y41574572D02*
X14281857Y41717429D01*
X14281857Y41717429D02*
X14210428Y41931715D01*
X14210428Y41931715D02*
X14210428Y42074572D01*
X14210428Y42074572D02*
X14281857Y42288858D01*
X14281857Y42288858D02*
X14353285Y42360286D01*
X15710428Y43217429D02*
X15639000Y43074572D01*
X15639000Y43074572D02*
X15567571Y43003143D01*
X15567571Y43003143D02*
X15424714Y42931715D01*
X15424714Y42931715D02*
X14996142Y42931715D01*
X14996142Y42931715D02*
X14853285Y43003143D01*
X14853285Y43003143D02*
X14781857Y43074572D01*
X14781857Y43074572D02*
X14710428Y43217429D01*
X14710428Y43217429D02*
X14710428Y43431715D01*
X14710428Y43431715D02*
X14781857Y43574572D01*
X14781857Y43574572D02*
X14853285Y43646000D01*
X14853285Y43646000D02*
X14996142Y43717429D01*
X14996142Y43717429D02*
X15424714Y43717429D01*
X15424714Y43717429D02*
X15567571Y43646000D01*
X15567571Y43646000D02*
X15639000Y43574572D01*
X15639000Y43574572D02*
X15710428Y43431715D01*
X15710428Y43431715D02*
X15710428Y43217429D01*
X14710428Y44360286D02*
X15710428Y44360286D01*
X14853285Y44360286D02*
X14781857Y44431715D01*
X14781857Y44431715D02*
X14710428Y44574572D01*
X14710428Y44574572D02*
X14710428Y44788858D01*
X14710428Y44788858D02*
X14781857Y44931715D01*
X14781857Y44931715D02*
X14924714Y45003143D01*
X14924714Y45003143D02*
X15710428Y45003143D01*
X14710428Y45717429D02*
X15710428Y45717429D01*
X14853285Y45717429D02*
X14781857Y45788858D01*
X14781857Y45788858D02*
X14710428Y45931715D01*
X14710428Y45931715D02*
X14710428Y46146001D01*
X14710428Y46146001D02*
X14781857Y46288858D01*
X14781857Y46288858D02*
X14924714Y46360286D01*
X14924714Y46360286D02*
X15710428Y46360286D01*
X15567571Y47074572D02*
X15639000Y47146001D01*
X15639000Y47146001D02*
X15710428Y47074572D01*
X15710428Y47074572D02*
X15639000Y47003144D01*
X15639000Y47003144D02*
X15567571Y47074572D01*
X15567571Y47074572D02*
X15710428Y47074572D01*
D14*
X47231142Y2239286D02*
X47445428Y2167858D01*
X47445428Y2167858D02*
X47516857Y2096429D01*
X47516857Y2096429D02*
X47588285Y1953572D01*
X47588285Y1953572D02*
X47588285Y1739286D01*
X47588285Y1739286D02*
X47516857Y1596429D01*
X47516857Y1596429D02*
X47445428Y1525000D01*
X47445428Y1525000D02*
X47302571Y1453572D01*
X47302571Y1453572D02*
X46731142Y1453572D01*
X46731142Y1453572D02*
X46731142Y2953572D01*
X46731142Y2953572D02*
X47231142Y2953572D01*
X47231142Y2953572D02*
X47374000Y2882143D01*
X47374000Y2882143D02*
X47445428Y2810715D01*
X47445428Y2810715D02*
X47516857Y2667858D01*
X47516857Y2667858D02*
X47516857Y2525000D01*
X47516857Y2525000D02*
X47445428Y2382143D01*
X47445428Y2382143D02*
X47374000Y2310715D01*
X47374000Y2310715D02*
X47231142Y2239286D01*
X47231142Y2239286D02*
X46731142Y2239286D01*
X48231142Y2025000D02*
X49374000Y2025000D01*
X48802571Y1453572D02*
X48802571Y2596429D01*
D11*
X96665904Y37238096D02*
X97142094Y37238096D01*
X96570666Y36952381D02*
X96903999Y37952381D01*
X96903999Y37952381D02*
X97237332Y36952381D01*
X97475428Y37952381D02*
X98142094Y37952381D01*
X98142094Y37952381D02*
X97713523Y36952381D01*
X123828095Y49652381D02*
X123828095Y50652381D01*
X123828095Y50652381D02*
X124066190Y50652381D01*
X124066190Y50652381D02*
X124209047Y50604762D01*
X124209047Y50604762D02*
X124304285Y50509524D01*
X124304285Y50509524D02*
X124351904Y50414286D01*
X124351904Y50414286D02*
X124399523Y50223810D01*
X124399523Y50223810D02*
X124399523Y50080953D01*
X124399523Y50080953D02*
X124351904Y49890477D01*
X124351904Y49890477D02*
X124304285Y49795239D01*
X124304285Y49795239D02*
X124209047Y49700000D01*
X124209047Y49700000D02*
X124066190Y49652381D01*
X124066190Y49652381D02*
X123828095Y49652381D01*
X124732857Y50652381D02*
X125399523Y50652381D01*
X125399523Y50652381D02*
X124970952Y49652381D01*
X96665904Y47398096D02*
X97142094Y47398096D01*
X96570666Y47112381D02*
X96903999Y48112381D01*
X96903999Y48112381D02*
X97237332Y47112381D01*
X97475428Y48112381D02*
X98094475Y48112381D01*
X98094475Y48112381D02*
X97761142Y47731429D01*
X97761142Y47731429D02*
X97903999Y47731429D01*
X97903999Y47731429D02*
X97999237Y47683810D01*
X97999237Y47683810D02*
X98046856Y47636191D01*
X98046856Y47636191D02*
X98094475Y47540953D01*
X98094475Y47540953D02*
X98094475Y47302858D01*
X98094475Y47302858D02*
X98046856Y47207620D01*
X98046856Y47207620D02*
X97999237Y47160000D01*
X97999237Y47160000D02*
X97903999Y47112381D01*
X97903999Y47112381D02*
X97618285Y47112381D01*
X97618285Y47112381D02*
X97523047Y47160000D01*
X97523047Y47160000D02*
X97475428Y47207620D01*
X132718095Y45080381D02*
X132718095Y46080381D01*
X133146666Y45985143D02*
X133194285Y46032762D01*
X133194285Y46032762D02*
X133289523Y46080381D01*
X133289523Y46080381D02*
X133527618Y46080381D01*
X133527618Y46080381D02*
X133622856Y46032762D01*
X133622856Y46032762D02*
X133670475Y45985143D01*
X133670475Y45985143D02*
X133718094Y45889905D01*
X133718094Y45889905D02*
X133718094Y45794667D01*
X133718094Y45794667D02*
X133670475Y45651810D01*
X133670475Y45651810D02*
X133099047Y45080381D01*
X133099047Y45080381D02*
X133718094Y45080381D01*
X134718094Y45175620D02*
X134670475Y45128000D01*
X134670475Y45128000D02*
X134527618Y45080381D01*
X134527618Y45080381D02*
X134432380Y45080381D01*
X134432380Y45080381D02*
X134289523Y45128000D01*
X134289523Y45128000D02*
X134194285Y45223239D01*
X134194285Y45223239D02*
X134146666Y45318477D01*
X134146666Y45318477D02*
X134099047Y45508953D01*
X134099047Y45508953D02*
X134099047Y45651810D01*
X134099047Y45651810D02*
X134146666Y45842286D01*
X134146666Y45842286D02*
X134194285Y45937524D01*
X134194285Y45937524D02*
X134289523Y46032762D01*
X134289523Y46032762D02*
X134432380Y46080381D01*
X134432380Y46080381D02*
X134527618Y46080381D01*
X134527618Y46080381D02*
X134670475Y46032762D01*
X134670475Y46032762D02*
X134718094Y45985143D01*
X136241904Y45604191D02*
X136384761Y45556572D01*
X136384761Y45556572D02*
X136432380Y45508953D01*
X136432380Y45508953D02*
X136479999Y45413715D01*
X136479999Y45413715D02*
X136479999Y45270858D01*
X136479999Y45270858D02*
X136432380Y45175620D01*
X136432380Y45175620D02*
X136384761Y45128000D01*
X136384761Y45128000D02*
X136289523Y45080381D01*
X136289523Y45080381D02*
X135908571Y45080381D01*
X135908571Y45080381D02*
X135908571Y46080381D01*
X135908571Y46080381D02*
X136241904Y46080381D01*
X136241904Y46080381D02*
X136337142Y46032762D01*
X136337142Y46032762D02*
X136384761Y45985143D01*
X136384761Y45985143D02*
X136432380Y45889905D01*
X136432380Y45889905D02*
X136432380Y45794667D01*
X136432380Y45794667D02*
X136384761Y45699429D01*
X136384761Y45699429D02*
X136337142Y45651810D01*
X136337142Y45651810D02*
X136241904Y45604191D01*
X136241904Y45604191D02*
X135908571Y45604191D01*
X136908571Y45080381D02*
X136908571Y45747048D01*
X136908571Y45556572D02*
X136956190Y45651810D01*
X136956190Y45651810D02*
X137003809Y45699429D01*
X137003809Y45699429D02*
X137099047Y45747048D01*
X137099047Y45747048D02*
X137194285Y45747048D01*
X137908571Y45128000D02*
X137813333Y45080381D01*
X137813333Y45080381D02*
X137622857Y45080381D01*
X137622857Y45080381D02*
X137527619Y45128000D01*
X137527619Y45128000D02*
X137480000Y45223239D01*
X137480000Y45223239D02*
X137480000Y45604191D01*
X137480000Y45604191D02*
X137527619Y45699429D01*
X137527619Y45699429D02*
X137622857Y45747048D01*
X137622857Y45747048D02*
X137813333Y45747048D01*
X137813333Y45747048D02*
X137908571Y45699429D01*
X137908571Y45699429D02*
X137956190Y45604191D01*
X137956190Y45604191D02*
X137956190Y45508953D01*
X137956190Y45508953D02*
X137480000Y45413715D01*
X138813333Y45080381D02*
X138813333Y45604191D01*
X138813333Y45604191D02*
X138765714Y45699429D01*
X138765714Y45699429D02*
X138670476Y45747048D01*
X138670476Y45747048D02*
X138480000Y45747048D01*
X138480000Y45747048D02*
X138384762Y45699429D01*
X138813333Y45128000D02*
X138718095Y45080381D01*
X138718095Y45080381D02*
X138480000Y45080381D01*
X138480000Y45080381D02*
X138384762Y45128000D01*
X138384762Y45128000D02*
X138337143Y45223239D01*
X138337143Y45223239D02*
X138337143Y45318477D01*
X138337143Y45318477D02*
X138384762Y45413715D01*
X138384762Y45413715D02*
X138480000Y45461334D01*
X138480000Y45461334D02*
X138718095Y45461334D01*
X138718095Y45461334D02*
X138813333Y45508953D01*
X139289524Y45080381D02*
X139289524Y46080381D01*
X139384762Y45461334D02*
X139670476Y45080381D01*
X139670476Y45747048D02*
X139289524Y45366096D01*
X140241905Y45080381D02*
X140146667Y45128000D01*
X140146667Y45128000D02*
X140099048Y45175620D01*
X140099048Y45175620D02*
X140051429Y45270858D01*
X140051429Y45270858D02*
X140051429Y45556572D01*
X140051429Y45556572D02*
X140099048Y45651810D01*
X140099048Y45651810D02*
X140146667Y45699429D01*
X140146667Y45699429D02*
X140241905Y45747048D01*
X140241905Y45747048D02*
X140384762Y45747048D01*
X140384762Y45747048D02*
X140480000Y45699429D01*
X140480000Y45699429D02*
X140527619Y45651810D01*
X140527619Y45651810D02*
X140575238Y45556572D01*
X140575238Y45556572D02*
X140575238Y45270858D01*
X140575238Y45270858D02*
X140527619Y45175620D01*
X140527619Y45175620D02*
X140480000Y45128000D01*
X140480000Y45128000D02*
X140384762Y45080381D01*
X140384762Y45080381D02*
X140241905Y45080381D01*
X141432381Y45747048D02*
X141432381Y45080381D01*
X141003810Y45747048D02*
X141003810Y45223239D01*
X141003810Y45223239D02*
X141051429Y45128000D01*
X141051429Y45128000D02*
X141146667Y45080381D01*
X141146667Y45080381D02*
X141289524Y45080381D01*
X141289524Y45080381D02*
X141384762Y45128000D01*
X141384762Y45128000D02*
X141432381Y45175620D01*
X141765715Y45747048D02*
X142146667Y45747048D01*
X141908572Y46080381D02*
X141908572Y45223239D01*
X141908572Y45223239D02*
X141956191Y45128000D01*
X141956191Y45128000D02*
X142051429Y45080381D01*
X142051429Y45080381D02*
X142146667Y45080381D01*
X142432382Y45128000D02*
X142527620Y45080381D01*
X142527620Y45080381D02*
X142718096Y45080381D01*
X142718096Y45080381D02*
X142813334Y45128000D01*
X142813334Y45128000D02*
X142860953Y45223239D01*
X142860953Y45223239D02*
X142860953Y45270858D01*
X142860953Y45270858D02*
X142813334Y45366096D01*
X142813334Y45366096D02*
X142718096Y45413715D01*
X142718096Y45413715D02*
X142575239Y45413715D01*
X142575239Y45413715D02*
X142480001Y45461334D01*
X142480001Y45461334D02*
X142432382Y45556572D01*
X142432382Y45556572D02*
X142432382Y45604191D01*
X142432382Y45604191D02*
X142480001Y45699429D01*
X142480001Y45699429D02*
X142575239Y45747048D01*
X142575239Y45747048D02*
X142718096Y45747048D01*
X142718096Y45747048D02*
X142813334Y45699429D01*
D13*
X143077619Y56656000D02*
X143263333Y56594096D01*
X143263333Y56594096D02*
X143572857Y56594096D01*
X143572857Y56594096D02*
X143696666Y56656000D01*
X143696666Y56656000D02*
X143758571Y56717905D01*
X143758571Y56717905D02*
X143820476Y56841715D01*
X143820476Y56841715D02*
X143820476Y56965524D01*
X143820476Y56965524D02*
X143758571Y57089334D01*
X143758571Y57089334D02*
X143696666Y57151239D01*
X143696666Y57151239D02*
X143572857Y57213143D01*
X143572857Y57213143D02*
X143325238Y57275048D01*
X143325238Y57275048D02*
X143201428Y57336953D01*
X143201428Y57336953D02*
X143139523Y57398858D01*
X143139523Y57398858D02*
X143077619Y57522667D01*
X143077619Y57522667D02*
X143077619Y57646477D01*
X143077619Y57646477D02*
X143139523Y57770286D01*
X143139523Y57770286D02*
X143201428Y57832191D01*
X143201428Y57832191D02*
X143325238Y57894096D01*
X143325238Y57894096D02*
X143634761Y57894096D01*
X143634761Y57894096D02*
X143820476Y57832191D01*
X145120475Y56717905D02*
X145058571Y56656000D01*
X145058571Y56656000D02*
X144872856Y56594096D01*
X144872856Y56594096D02*
X144749047Y56594096D01*
X144749047Y56594096D02*
X144563333Y56656000D01*
X144563333Y56656000D02*
X144439523Y56779810D01*
X144439523Y56779810D02*
X144377618Y56903620D01*
X144377618Y56903620D02*
X144315714Y57151239D01*
X144315714Y57151239D02*
X144315714Y57336953D01*
X144315714Y57336953D02*
X144377618Y57584572D01*
X144377618Y57584572D02*
X144439523Y57708381D01*
X144439523Y57708381D02*
X144563333Y57832191D01*
X144563333Y57832191D02*
X144749047Y57894096D01*
X144749047Y57894096D02*
X144872856Y57894096D01*
X144872856Y57894096D02*
X145058571Y57832191D01*
X145058571Y57832191D02*
X145120475Y57770286D01*
X146296666Y56594096D02*
X145677618Y56594096D01*
X145677618Y56594096D02*
X145677618Y57894096D01*
D14*
X41936857Y2953572D02*
X42079714Y2953572D01*
X42079714Y2953572D02*
X42222571Y2882143D01*
X42222571Y2882143D02*
X42294000Y2810715D01*
X42294000Y2810715D02*
X42365428Y2667858D01*
X42365428Y2667858D02*
X42436857Y2382143D01*
X42436857Y2382143D02*
X42436857Y2025000D01*
X42436857Y2025000D02*
X42365428Y1739286D01*
X42365428Y1739286D02*
X42294000Y1596429D01*
X42294000Y1596429D02*
X42222571Y1525000D01*
X42222571Y1525000D02*
X42079714Y1453572D01*
X42079714Y1453572D02*
X41936857Y1453572D01*
X41936857Y1453572D02*
X41794000Y1525000D01*
X41794000Y1525000D02*
X41722571Y1596429D01*
X41722571Y1596429D02*
X41651142Y1739286D01*
X41651142Y1739286D02*
X41579714Y2025000D01*
X41579714Y2025000D02*
X41579714Y2382143D01*
X41579714Y2382143D02*
X41651142Y2667858D01*
X41651142Y2667858D02*
X41722571Y2810715D01*
X41722571Y2810715D02*
X41794000Y2882143D01*
X41794000Y2882143D02*
X41936857Y2953572D01*
X42865428Y2953572D02*
X43365428Y1453572D01*
X43365428Y1453572D02*
X43865428Y2953572D01*
D13*
X236238857Y44125572D02*
X235381714Y44125572D01*
X235810285Y44125572D02*
X235810285Y45625572D01*
X235810285Y45625572D02*
X235667428Y45411286D01*
X235667428Y45411286D02*
X235524571Y45268429D01*
X235524571Y45268429D02*
X235381714Y45197000D01*
D11*
X95999238Y27792381D02*
X96332571Y26792381D01*
X96332571Y26792381D02*
X96665904Y27792381D01*
X96999238Y26792381D02*
X96999238Y27792381D01*
X97475428Y26792381D02*
X97475428Y27792381D01*
X97475428Y27792381D02*
X98046856Y26792381D01*
X98046856Y26792381D02*
X98046856Y27792381D01*
D13*
X143820476Y50212191D02*
X143696666Y50274096D01*
X143696666Y50274096D02*
X143510952Y50274096D01*
X143510952Y50274096D02*
X143325238Y50212191D01*
X143325238Y50212191D02*
X143201428Y50088381D01*
X143201428Y50088381D02*
X143139523Y49964572D01*
X143139523Y49964572D02*
X143077619Y49716953D01*
X143077619Y49716953D02*
X143077619Y49531239D01*
X143077619Y49531239D02*
X143139523Y49283620D01*
X143139523Y49283620D02*
X143201428Y49159810D01*
X143201428Y49159810D02*
X143325238Y49036000D01*
X143325238Y49036000D02*
X143510952Y48974096D01*
X143510952Y48974096D02*
X143634761Y48974096D01*
X143634761Y48974096D02*
X143820476Y49036000D01*
X143820476Y49036000D02*
X143882380Y49097905D01*
X143882380Y49097905D02*
X143882380Y49531239D01*
X143882380Y49531239D02*
X143634761Y49531239D01*
X144439523Y48974096D02*
X144439523Y50274096D01*
X144439523Y50274096D02*
X145182380Y48974096D01*
X145182380Y48974096D02*
X145182380Y50274096D01*
X145801428Y48974096D02*
X145801428Y50274096D01*
X145801428Y50274096D02*
X146110952Y50274096D01*
X146110952Y50274096D02*
X146296666Y50212191D01*
X146296666Y50212191D02*
X146420476Y50088381D01*
X146420476Y50088381D02*
X146482381Y49964572D01*
X146482381Y49964572D02*
X146544285Y49716953D01*
X146544285Y49716953D02*
X146544285Y49531239D01*
X146544285Y49531239D02*
X146482381Y49283620D01*
X146482381Y49283620D02*
X146420476Y49159810D01*
X146420476Y49159810D02*
X146296666Y49036000D01*
X146296666Y49036000D02*
X146110952Y48974096D01*
X146110952Y48974096D02*
X145801428Y48974096D01*
D11*
X123828095Y57272381D02*
X123828095Y58272381D01*
X123828095Y58272381D02*
X124066190Y58272381D01*
X124066190Y58272381D02*
X124209047Y58224762D01*
X124209047Y58224762D02*
X124304285Y58129524D01*
X124304285Y58129524D02*
X124351904Y58034286D01*
X124351904Y58034286D02*
X124399523Y57843810D01*
X124399523Y57843810D02*
X124399523Y57700953D01*
X124399523Y57700953D02*
X124351904Y57510477D01*
X124351904Y57510477D02*
X124304285Y57415239D01*
X124304285Y57415239D02*
X124209047Y57320000D01*
X124209047Y57320000D02*
X124066190Y57272381D01*
X124066190Y57272381D02*
X123828095Y57272381D01*
X125351904Y57272381D02*
X124780476Y57272381D01*
X125066190Y57272381D02*
X125066190Y58272381D01*
X125066190Y58272381D02*
X124970952Y58129524D01*
X124970952Y58129524D02*
X124875714Y58034286D01*
X124875714Y58034286D02*
X124780476Y57986667D01*
X125970952Y58272381D02*
X126066190Y58272381D01*
X126066190Y58272381D02*
X126161428Y58224762D01*
X126161428Y58224762D02*
X126209047Y58177143D01*
X126209047Y58177143D02*
X126256666Y58081905D01*
X126256666Y58081905D02*
X126304285Y57891429D01*
X126304285Y57891429D02*
X126304285Y57653334D01*
X126304285Y57653334D02*
X126256666Y57462858D01*
X126256666Y57462858D02*
X126209047Y57367620D01*
X126209047Y57367620D02*
X126161428Y57320000D01*
X126161428Y57320000D02*
X126066190Y57272381D01*
X126066190Y57272381D02*
X125970952Y57272381D01*
X125970952Y57272381D02*
X125875714Y57320000D01*
X125875714Y57320000D02*
X125828095Y57367620D01*
X125828095Y57367620D02*
X125780476Y57462858D01*
X125780476Y57462858D02*
X125732857Y57653334D01*
X125732857Y57653334D02*
X125732857Y57891429D01*
X125732857Y57891429D02*
X125780476Y58081905D01*
X125780476Y58081905D02*
X125828095Y58177143D01*
X125828095Y58177143D02*
X125875714Y58224762D01*
X125875714Y58224762D02*
X125970952Y58272381D01*
X96665904Y42318096D02*
X97142094Y42318096D01*
X96570666Y42032381D02*
X96903999Y43032381D01*
X96903999Y43032381D02*
X97237332Y42032381D01*
X98046856Y43032381D02*
X97570666Y43032381D01*
X97570666Y43032381D02*
X97523047Y42556191D01*
X97523047Y42556191D02*
X97570666Y42603810D01*
X97570666Y42603810D02*
X97665904Y42651429D01*
X97665904Y42651429D02*
X97903999Y42651429D01*
X97903999Y42651429D02*
X97999237Y42603810D01*
X97999237Y42603810D02*
X98046856Y42556191D01*
X98046856Y42556191D02*
X98094475Y42460953D01*
X98094475Y42460953D02*
X98094475Y42222858D01*
X98094475Y42222858D02*
X98046856Y42127620D01*
X98046856Y42127620D02*
X97999237Y42080000D01*
X97999237Y42080000D02*
X97903999Y42032381D01*
X97903999Y42032381D02*
X97665904Y42032381D01*
X97665904Y42032381D02*
X97570666Y42080000D01*
X97570666Y42080000D02*
X97523047Y42127620D01*
D14*
X62804571Y2176000D02*
X64176000Y2176000D01*
D11*
X123828095Y54732381D02*
X123828095Y55732381D01*
X123828095Y55732381D02*
X124066190Y55732381D01*
X124066190Y55732381D02*
X124209047Y55684762D01*
X124209047Y55684762D02*
X124304285Y55589524D01*
X124304285Y55589524D02*
X124351904Y55494286D01*
X124351904Y55494286D02*
X124399523Y55303810D01*
X124399523Y55303810D02*
X124399523Y55160953D01*
X124399523Y55160953D02*
X124351904Y54970477D01*
X124351904Y54970477D02*
X124304285Y54875239D01*
X124304285Y54875239D02*
X124209047Y54780000D01*
X124209047Y54780000D02*
X124066190Y54732381D01*
X124066190Y54732381D02*
X123828095Y54732381D01*
X124875714Y54732381D02*
X125066190Y54732381D01*
X125066190Y54732381D02*
X125161428Y54780000D01*
X125161428Y54780000D02*
X125209047Y54827620D01*
X125209047Y54827620D02*
X125304285Y54970477D01*
X125304285Y54970477D02*
X125351904Y55160953D01*
X125351904Y55160953D02*
X125351904Y55541905D01*
X125351904Y55541905D02*
X125304285Y55637143D01*
X125304285Y55637143D02*
X125256666Y55684762D01*
X125256666Y55684762D02*
X125161428Y55732381D01*
X125161428Y55732381D02*
X124970952Y55732381D01*
X124970952Y55732381D02*
X124875714Y55684762D01*
X124875714Y55684762D02*
X124828095Y55637143D01*
X124828095Y55637143D02*
X124780476Y55541905D01*
X124780476Y55541905D02*
X124780476Y55303810D01*
X124780476Y55303810D02*
X124828095Y55208572D01*
X124828095Y55208572D02*
X124875714Y55160953D01*
X124875714Y55160953D02*
X124970952Y55113334D01*
X124970952Y55113334D02*
X125161428Y55113334D01*
X125161428Y55113334D02*
X125256666Y55160953D01*
X125256666Y55160953D02*
X125304285Y55208572D01*
X125304285Y55208572D02*
X125351904Y55303810D01*
X123828095Y62352381D02*
X123828095Y63352381D01*
X123828095Y63352381D02*
X124066190Y63352381D01*
X124066190Y63352381D02*
X124209047Y63304762D01*
X124209047Y63304762D02*
X124304285Y63209524D01*
X124304285Y63209524D02*
X124351904Y63114286D01*
X124351904Y63114286D02*
X124399523Y62923810D01*
X124399523Y62923810D02*
X124399523Y62780953D01*
X124399523Y62780953D02*
X124351904Y62590477D01*
X124351904Y62590477D02*
X124304285Y62495239D01*
X124304285Y62495239D02*
X124209047Y62400000D01*
X124209047Y62400000D02*
X124066190Y62352381D01*
X124066190Y62352381D02*
X123828095Y62352381D01*
X125351904Y62352381D02*
X124780476Y62352381D01*
X125066190Y62352381D02*
X125066190Y63352381D01*
X125066190Y63352381D02*
X124970952Y63209524D01*
X124970952Y63209524D02*
X124875714Y63114286D01*
X124875714Y63114286D02*
X124780476Y63066667D01*
X125732857Y63257143D02*
X125780476Y63304762D01*
X125780476Y63304762D02*
X125875714Y63352381D01*
X125875714Y63352381D02*
X126113809Y63352381D01*
X126113809Y63352381D02*
X126209047Y63304762D01*
X126209047Y63304762D02*
X126256666Y63257143D01*
X126256666Y63257143D02*
X126304285Y63161905D01*
X126304285Y63161905D02*
X126304285Y63066667D01*
X126304285Y63066667D02*
X126256666Y62923810D01*
X126256666Y62923810D02*
X125685238Y62352381D01*
X125685238Y62352381D02*
X126304285Y62352381D01*
X95618285Y62352381D02*
X95618285Y63352381D01*
X95618285Y63352381D02*
X95856380Y63352381D01*
X95856380Y63352381D02*
X95999237Y63304762D01*
X95999237Y63304762D02*
X96094475Y63209524D01*
X96094475Y63209524D02*
X96142094Y63114286D01*
X96142094Y63114286D02*
X96189713Y62923810D01*
X96189713Y62923810D02*
X96189713Y62780953D01*
X96189713Y62780953D02*
X96142094Y62590477D01*
X96142094Y62590477D02*
X96094475Y62495239D01*
X96094475Y62495239D02*
X95999237Y62400000D01*
X95999237Y62400000D02*
X95856380Y62352381D01*
X95856380Y62352381D02*
X95618285Y62352381D01*
X97142094Y62352381D02*
X96570666Y62352381D01*
X96856380Y62352381D02*
X96856380Y63352381D01*
X96856380Y63352381D02*
X96761142Y63209524D01*
X96761142Y63209524D02*
X96665904Y63114286D01*
X96665904Y63114286D02*
X96570666Y63066667D01*
X97475428Y63352381D02*
X98094475Y63352381D01*
X98094475Y63352381D02*
X97761142Y62971429D01*
X97761142Y62971429D02*
X97903999Y62971429D01*
X97903999Y62971429D02*
X97999237Y62923810D01*
X97999237Y62923810D02*
X98046856Y62876191D01*
X98046856Y62876191D02*
X98094475Y62780953D01*
X98094475Y62780953D02*
X98094475Y62542858D01*
X98094475Y62542858D02*
X98046856Y62447620D01*
X98046856Y62447620D02*
X97999237Y62400000D01*
X97999237Y62400000D02*
X97903999Y62352381D01*
X97903999Y62352381D02*
X97618285Y62352381D01*
X97618285Y62352381D02*
X97523047Y62400000D01*
X97523047Y62400000D02*
X97475428Y62447620D01*
D13*
X143077619Y54116000D02*
X143263333Y54054096D01*
X143263333Y54054096D02*
X143572857Y54054096D01*
X143572857Y54054096D02*
X143696666Y54116000D01*
X143696666Y54116000D02*
X143758571Y54177905D01*
X143758571Y54177905D02*
X143820476Y54301715D01*
X143820476Y54301715D02*
X143820476Y54425524D01*
X143820476Y54425524D02*
X143758571Y54549334D01*
X143758571Y54549334D02*
X143696666Y54611239D01*
X143696666Y54611239D02*
X143572857Y54673143D01*
X143572857Y54673143D02*
X143325238Y54735048D01*
X143325238Y54735048D02*
X143201428Y54796953D01*
X143201428Y54796953D02*
X143139523Y54858858D01*
X143139523Y54858858D02*
X143077619Y54982667D01*
X143077619Y54982667D02*
X143077619Y55106477D01*
X143077619Y55106477D02*
X143139523Y55230286D01*
X143139523Y55230286D02*
X143201428Y55292191D01*
X143201428Y55292191D02*
X143325238Y55354096D01*
X143325238Y55354096D02*
X143634761Y55354096D01*
X143634761Y55354096D02*
X143820476Y55292191D01*
X144377618Y54054096D02*
X144377618Y55354096D01*
X144377618Y55354096D02*
X144687142Y55354096D01*
X144687142Y55354096D02*
X144872856Y55292191D01*
X144872856Y55292191D02*
X144996666Y55168381D01*
X144996666Y55168381D02*
X145058571Y55044572D01*
X145058571Y55044572D02*
X145120475Y54796953D01*
X145120475Y54796953D02*
X145120475Y54611239D01*
X145120475Y54611239D02*
X145058571Y54363620D01*
X145058571Y54363620D02*
X144996666Y54239810D01*
X144996666Y54239810D02*
X144872856Y54116000D01*
X144872856Y54116000D02*
X144687142Y54054096D01*
X144687142Y54054096D02*
X144377618Y54054096D01*
X145615714Y54425524D02*
X146234761Y54425524D01*
X145491904Y54054096D02*
X145925237Y55354096D01*
X145925237Y55354096D02*
X146358571Y54054096D01*
X154760428Y16161572D02*
X154046142Y16161572D01*
X154046142Y16161572D02*
X153974714Y15447286D01*
X153974714Y15447286D02*
X154046142Y15518715D01*
X154046142Y15518715D02*
X154189000Y15590143D01*
X154189000Y15590143D02*
X154546142Y15590143D01*
X154546142Y15590143D02*
X154689000Y15518715D01*
X154689000Y15518715D02*
X154760428Y15447286D01*
X154760428Y15447286D02*
X154831857Y15304429D01*
X154831857Y15304429D02*
X154831857Y14947286D01*
X154831857Y14947286D02*
X154760428Y14804429D01*
X154760428Y14804429D02*
X154689000Y14733000D01*
X154689000Y14733000D02*
X154546142Y14661572D01*
X154546142Y14661572D02*
X154189000Y14661572D01*
X154189000Y14661572D02*
X154046142Y14733000D01*
X154046142Y14733000D02*
X153974714Y14804429D01*
X155260428Y16161572D02*
X155760428Y14661572D01*
X155760428Y14661572D02*
X156260428Y16161572D01*
X157903285Y15661572D02*
X156760427Y15233000D01*
X156760427Y15233000D02*
X157903285Y14804429D01*
X158617570Y15233000D02*
X159760428Y15233000D01*
D11*
X124351904Y35364762D02*
X124256666Y35412381D01*
X124256666Y35412381D02*
X124113809Y35412381D01*
X124113809Y35412381D02*
X123970952Y35364762D01*
X123970952Y35364762D02*
X123875714Y35269524D01*
X123875714Y35269524D02*
X123828095Y35174286D01*
X123828095Y35174286D02*
X123780476Y34983810D01*
X123780476Y34983810D02*
X123780476Y34840953D01*
X123780476Y34840953D02*
X123828095Y34650477D01*
X123828095Y34650477D02*
X123875714Y34555239D01*
X123875714Y34555239D02*
X123970952Y34460000D01*
X123970952Y34460000D02*
X124113809Y34412381D01*
X124113809Y34412381D02*
X124209047Y34412381D01*
X124209047Y34412381D02*
X124351904Y34460000D01*
X124351904Y34460000D02*
X124399523Y34507620D01*
X124399523Y34507620D02*
X124399523Y34840953D01*
X124399523Y34840953D02*
X124209047Y34840953D01*
X124828095Y34412381D02*
X124828095Y35412381D01*
X124828095Y35412381D02*
X125399523Y34412381D01*
X125399523Y34412381D02*
X125399523Y35412381D01*
X125875714Y34412381D02*
X125875714Y35412381D01*
X125875714Y35412381D02*
X126113809Y35412381D01*
X126113809Y35412381D02*
X126256666Y35364762D01*
X126256666Y35364762D02*
X126351904Y35269524D01*
X126351904Y35269524D02*
X126399523Y35174286D01*
X126399523Y35174286D02*
X126447142Y34983810D01*
X126447142Y34983810D02*
X126447142Y34840953D01*
X126447142Y34840953D02*
X126399523Y34650477D01*
X126399523Y34650477D02*
X126351904Y34555239D01*
X126351904Y34555239D02*
X126256666Y34460000D01*
X126256666Y34460000D02*
X126113809Y34412381D01*
X126113809Y34412381D02*
X125875714Y34412381D01*
X123828095Y36952381D02*
X123828095Y37952381D01*
X123828095Y37952381D02*
X124066190Y37952381D01*
X124066190Y37952381D02*
X124209047Y37904762D01*
X124209047Y37904762D02*
X124304285Y37809524D01*
X124304285Y37809524D02*
X124351904Y37714286D01*
X124351904Y37714286D02*
X124399523Y37523810D01*
X124399523Y37523810D02*
X124399523Y37380953D01*
X124399523Y37380953D02*
X124351904Y37190477D01*
X124351904Y37190477D02*
X124304285Y37095239D01*
X124304285Y37095239D02*
X124209047Y37000000D01*
X124209047Y37000000D02*
X124066190Y36952381D01*
X124066190Y36952381D02*
X123828095Y36952381D01*
X124780476Y37857143D02*
X124828095Y37904762D01*
X124828095Y37904762D02*
X124923333Y37952381D01*
X124923333Y37952381D02*
X125161428Y37952381D01*
X125161428Y37952381D02*
X125256666Y37904762D01*
X125256666Y37904762D02*
X125304285Y37857143D01*
X125304285Y37857143D02*
X125351904Y37761905D01*
X125351904Y37761905D02*
X125351904Y37666667D01*
X125351904Y37666667D02*
X125304285Y37523810D01*
X125304285Y37523810D02*
X124732857Y36952381D01*
X124732857Y36952381D02*
X125351904Y36952381D01*
D14*
X52319142Y2025000D02*
X53462000Y2025000D01*
D11*
X178565095Y5710381D02*
X178565095Y6710381D01*
X178993666Y5710381D02*
X178993666Y6234191D01*
X178993666Y6234191D02*
X178946047Y6329429D01*
X178946047Y6329429D02*
X178850809Y6377048D01*
X178850809Y6377048D02*
X178707952Y6377048D01*
X178707952Y6377048D02*
X178612714Y6329429D01*
X178612714Y6329429D02*
X178565095Y6281810D01*
X179327000Y6377048D02*
X179707952Y6377048D01*
X179469857Y6710381D02*
X179469857Y5853239D01*
X179469857Y5853239D02*
X179517476Y5758000D01*
X179517476Y5758000D02*
X179612714Y5710381D01*
X179612714Y5710381D02*
X179707952Y5710381D01*
X179898429Y6377048D02*
X180279381Y6377048D01*
X180041286Y6710381D02*
X180041286Y5853239D01*
X180041286Y5853239D02*
X180088905Y5758000D01*
X180088905Y5758000D02*
X180184143Y5710381D01*
X180184143Y5710381D02*
X180279381Y5710381D01*
X180612715Y6377048D02*
X180612715Y5377048D01*
X180612715Y6329429D02*
X180707953Y6377048D01*
X180707953Y6377048D02*
X180898429Y6377048D01*
X180898429Y6377048D02*
X180993667Y6329429D01*
X180993667Y6329429D02*
X181041286Y6281810D01*
X181041286Y6281810D02*
X181088905Y6186572D01*
X181088905Y6186572D02*
X181088905Y5900858D01*
X181088905Y5900858D02*
X181041286Y5805620D01*
X181041286Y5805620D02*
X180993667Y5758000D01*
X180993667Y5758000D02*
X180898429Y5710381D01*
X180898429Y5710381D02*
X180707953Y5710381D01*
X180707953Y5710381D02*
X180612715Y5758000D01*
X181469858Y5758000D02*
X181565096Y5710381D01*
X181565096Y5710381D02*
X181755572Y5710381D01*
X181755572Y5710381D02*
X181850810Y5758000D01*
X181850810Y5758000D02*
X181898429Y5853239D01*
X181898429Y5853239D02*
X181898429Y5900858D01*
X181898429Y5900858D02*
X181850810Y5996096D01*
X181850810Y5996096D02*
X181755572Y6043715D01*
X181755572Y6043715D02*
X181612715Y6043715D01*
X181612715Y6043715D02*
X181517477Y6091334D01*
X181517477Y6091334D02*
X181469858Y6186572D01*
X181469858Y6186572D02*
X181469858Y6234191D01*
X181469858Y6234191D02*
X181517477Y6329429D01*
X181517477Y6329429D02*
X181612715Y6377048D01*
X181612715Y6377048D02*
X181755572Y6377048D01*
X181755572Y6377048D02*
X181850810Y6329429D01*
X182327001Y5805620D02*
X182374620Y5758000D01*
X182374620Y5758000D02*
X182327001Y5710381D01*
X182327001Y5710381D02*
X182279382Y5758000D01*
X182279382Y5758000D02*
X182327001Y5805620D01*
X182327001Y5805620D02*
X182327001Y5710381D01*
X182327001Y6329429D02*
X182374620Y6281810D01*
X182374620Y6281810D02*
X182327001Y6234191D01*
X182327001Y6234191D02*
X182279382Y6281810D01*
X182279382Y6281810D02*
X182327001Y6329429D01*
X182327001Y6329429D02*
X182327001Y6234191D01*
X183517476Y6758000D02*
X182660334Y5472286D01*
X184565095Y6758000D02*
X183707953Y5472286D01*
X185327000Y6377048D02*
X185327000Y5567524D01*
X185327000Y5567524D02*
X185279381Y5472286D01*
X185279381Y5472286D02*
X185231762Y5424667D01*
X185231762Y5424667D02*
X185136524Y5377048D01*
X185136524Y5377048D02*
X184993667Y5377048D01*
X184993667Y5377048D02*
X184898429Y5424667D01*
X185327000Y5758000D02*
X185231762Y5710381D01*
X185231762Y5710381D02*
X185041286Y5710381D01*
X185041286Y5710381D02*
X184946048Y5758000D01*
X184946048Y5758000D02*
X184898429Y5805620D01*
X184898429Y5805620D02*
X184850810Y5900858D01*
X184850810Y5900858D02*
X184850810Y6186572D01*
X184850810Y6186572D02*
X184898429Y6281810D01*
X184898429Y6281810D02*
X184946048Y6329429D01*
X184946048Y6329429D02*
X185041286Y6377048D01*
X185041286Y6377048D02*
X185231762Y6377048D01*
X185231762Y6377048D02*
X185327000Y6329429D01*
X185803191Y5710381D02*
X185803191Y6377048D01*
X185803191Y6710381D02*
X185755572Y6662762D01*
X185755572Y6662762D02*
X185803191Y6615143D01*
X185803191Y6615143D02*
X185850810Y6662762D01*
X185850810Y6662762D02*
X185803191Y6710381D01*
X185803191Y6710381D02*
X185803191Y6615143D01*
X186136524Y6377048D02*
X186517476Y6377048D01*
X186279381Y6710381D02*
X186279381Y5853239D01*
X186279381Y5853239D02*
X186327000Y5758000D01*
X186327000Y5758000D02*
X186422238Y5710381D01*
X186422238Y5710381D02*
X186517476Y5710381D01*
X186850810Y5710381D02*
X186850810Y6710381D01*
X187279381Y5710381D02*
X187279381Y6234191D01*
X187279381Y6234191D02*
X187231762Y6329429D01*
X187231762Y6329429D02*
X187136524Y6377048D01*
X187136524Y6377048D02*
X186993667Y6377048D01*
X186993667Y6377048D02*
X186898429Y6329429D01*
X186898429Y6329429D02*
X186850810Y6281810D01*
X188184143Y6377048D02*
X188184143Y5710381D01*
X187755572Y6377048D02*
X187755572Y5853239D01*
X187755572Y5853239D02*
X187803191Y5758000D01*
X187803191Y5758000D02*
X187898429Y5710381D01*
X187898429Y5710381D02*
X188041286Y5710381D01*
X188041286Y5710381D02*
X188136524Y5758000D01*
X188136524Y5758000D02*
X188184143Y5805620D01*
X188660334Y5710381D02*
X188660334Y6710381D01*
X188660334Y6329429D02*
X188755572Y6377048D01*
X188755572Y6377048D02*
X188946048Y6377048D01*
X188946048Y6377048D02*
X189041286Y6329429D01*
X189041286Y6329429D02*
X189088905Y6281810D01*
X189088905Y6281810D02*
X189136524Y6186572D01*
X189136524Y6186572D02*
X189136524Y5900858D01*
X189136524Y5900858D02*
X189088905Y5805620D01*
X189088905Y5805620D02*
X189041286Y5758000D01*
X189041286Y5758000D02*
X188946048Y5710381D01*
X188946048Y5710381D02*
X188755572Y5710381D01*
X188755572Y5710381D02*
X188660334Y5758000D01*
X189565096Y5805620D02*
X189612715Y5758000D01*
X189612715Y5758000D02*
X189565096Y5710381D01*
X189565096Y5710381D02*
X189517477Y5758000D01*
X189517477Y5758000D02*
X189565096Y5805620D01*
X189565096Y5805620D02*
X189565096Y5710381D01*
X190469857Y5758000D02*
X190374619Y5710381D01*
X190374619Y5710381D02*
X190184143Y5710381D01*
X190184143Y5710381D02*
X190088905Y5758000D01*
X190088905Y5758000D02*
X190041286Y5805620D01*
X190041286Y5805620D02*
X189993667Y5900858D01*
X189993667Y5900858D02*
X189993667Y6186572D01*
X189993667Y6186572D02*
X190041286Y6281810D01*
X190041286Y6281810D02*
X190088905Y6329429D01*
X190088905Y6329429D02*
X190184143Y6377048D01*
X190184143Y6377048D02*
X190374619Y6377048D01*
X190374619Y6377048D02*
X190469857Y6329429D01*
X191041286Y5710381D02*
X190946048Y5758000D01*
X190946048Y5758000D02*
X190898429Y5805620D01*
X190898429Y5805620D02*
X190850810Y5900858D01*
X190850810Y5900858D02*
X190850810Y6186572D01*
X190850810Y6186572D02*
X190898429Y6281810D01*
X190898429Y6281810D02*
X190946048Y6329429D01*
X190946048Y6329429D02*
X191041286Y6377048D01*
X191041286Y6377048D02*
X191184143Y6377048D01*
X191184143Y6377048D02*
X191279381Y6329429D01*
X191279381Y6329429D02*
X191327000Y6281810D01*
X191327000Y6281810D02*
X191374619Y6186572D01*
X191374619Y6186572D02*
X191374619Y5900858D01*
X191374619Y5900858D02*
X191327000Y5805620D01*
X191327000Y5805620D02*
X191279381Y5758000D01*
X191279381Y5758000D02*
X191184143Y5710381D01*
X191184143Y5710381D02*
X191041286Y5710381D01*
X191803191Y5710381D02*
X191803191Y6377048D01*
X191803191Y6281810D02*
X191850810Y6329429D01*
X191850810Y6329429D02*
X191946048Y6377048D01*
X191946048Y6377048D02*
X192088905Y6377048D01*
X192088905Y6377048D02*
X192184143Y6329429D01*
X192184143Y6329429D02*
X192231762Y6234191D01*
X192231762Y6234191D02*
X192231762Y5710381D01*
X192231762Y6234191D02*
X192279381Y6329429D01*
X192279381Y6329429D02*
X192374619Y6377048D01*
X192374619Y6377048D02*
X192517476Y6377048D01*
X192517476Y6377048D02*
X192612715Y6329429D01*
X192612715Y6329429D02*
X192660334Y6234191D01*
X192660334Y6234191D02*
X192660334Y5710381D01*
X193850809Y6758000D02*
X192993667Y5472286D01*
X194327000Y5710381D02*
X194231762Y5758000D01*
X194231762Y5758000D02*
X194184143Y5853239D01*
X194184143Y5853239D02*
X194184143Y6710381D01*
X194707953Y5710381D02*
X194707953Y6710381D01*
X194707953Y6329429D02*
X194803191Y6377048D01*
X194803191Y6377048D02*
X194993667Y6377048D01*
X194993667Y6377048D02*
X195088905Y6329429D01*
X195088905Y6329429D02*
X195136524Y6281810D01*
X195136524Y6281810D02*
X195184143Y6186572D01*
X195184143Y6186572D02*
X195184143Y5900858D01*
X195184143Y5900858D02*
X195136524Y5805620D01*
X195136524Y5805620D02*
X195088905Y5758000D01*
X195088905Y5758000D02*
X194993667Y5710381D01*
X194993667Y5710381D02*
X194803191Y5710381D01*
X194803191Y5710381D02*
X194707953Y5758000D01*
X195755572Y5710381D02*
X195660334Y5758000D01*
X195660334Y5758000D02*
X195612715Y5853239D01*
X195612715Y5853239D02*
X195612715Y6710381D01*
X196136525Y5710381D02*
X196136525Y6377048D01*
X196136525Y6710381D02*
X196088906Y6662762D01*
X196088906Y6662762D02*
X196136525Y6615143D01*
X196136525Y6615143D02*
X196184144Y6662762D01*
X196184144Y6662762D02*
X196136525Y6710381D01*
X196136525Y6710381D02*
X196136525Y6615143D01*
X197041286Y6377048D02*
X197041286Y5567524D01*
X197041286Y5567524D02*
X196993667Y5472286D01*
X196993667Y5472286D02*
X196946048Y5424667D01*
X196946048Y5424667D02*
X196850810Y5377048D01*
X196850810Y5377048D02*
X196707953Y5377048D01*
X196707953Y5377048D02*
X196612715Y5424667D01*
X197041286Y5758000D02*
X196946048Y5710381D01*
X196946048Y5710381D02*
X196755572Y5710381D01*
X196755572Y5710381D02*
X196660334Y5758000D01*
X196660334Y5758000D02*
X196612715Y5805620D01*
X196612715Y5805620D02*
X196565096Y5900858D01*
X196565096Y5900858D02*
X196565096Y6186572D01*
X196565096Y6186572D02*
X196612715Y6281810D01*
X196612715Y6281810D02*
X196660334Y6329429D01*
X196660334Y6329429D02*
X196755572Y6377048D01*
X196755572Y6377048D02*
X196946048Y6377048D01*
X196946048Y6377048D02*
X197041286Y6329429D01*
X197517477Y5710381D02*
X197517477Y6710381D01*
X197946048Y5710381D02*
X197946048Y6234191D01*
X197946048Y6234191D02*
X197898429Y6329429D01*
X197898429Y6329429D02*
X197803191Y6377048D01*
X197803191Y6377048D02*
X197660334Y6377048D01*
X197660334Y6377048D02*
X197565096Y6329429D01*
X197565096Y6329429D02*
X197517477Y6281810D01*
X199136524Y6758000D02*
X198279382Y5472286D01*
X199850810Y5758000D02*
X199755572Y5710381D01*
X199755572Y5710381D02*
X199565096Y5710381D01*
X199565096Y5710381D02*
X199469858Y5758000D01*
X199469858Y5758000D02*
X199422239Y5853239D01*
X199422239Y5853239D02*
X199422239Y6234191D01*
X199422239Y6234191D02*
X199469858Y6329429D01*
X199469858Y6329429D02*
X199565096Y6377048D01*
X199565096Y6377048D02*
X199755572Y6377048D01*
X199755572Y6377048D02*
X199850810Y6329429D01*
X199850810Y6329429D02*
X199898429Y6234191D01*
X199898429Y6234191D02*
X199898429Y6138953D01*
X199898429Y6138953D02*
X199422239Y6043715D01*
X200327001Y6377048D02*
X200327001Y5710381D01*
X200327001Y6281810D02*
X200374620Y6329429D01*
X200374620Y6329429D02*
X200469858Y6377048D01*
X200469858Y6377048D02*
X200612715Y6377048D01*
X200612715Y6377048D02*
X200707953Y6329429D01*
X200707953Y6329429D02*
X200755572Y6234191D01*
X200755572Y6234191D02*
X200755572Y5710381D01*
X201231763Y5710381D02*
X201231763Y6377048D01*
X201231763Y6710381D02*
X201184144Y6662762D01*
X201184144Y6662762D02*
X201231763Y6615143D01*
X201231763Y6615143D02*
X201279382Y6662762D01*
X201279382Y6662762D02*
X201231763Y6710381D01*
X201231763Y6710381D02*
X201231763Y6615143D01*
X202136524Y6377048D02*
X202136524Y5567524D01*
X202136524Y5567524D02*
X202088905Y5472286D01*
X202088905Y5472286D02*
X202041286Y5424667D01*
X202041286Y5424667D02*
X201946048Y5377048D01*
X201946048Y5377048D02*
X201803191Y5377048D01*
X201803191Y5377048D02*
X201707953Y5424667D01*
X202136524Y5758000D02*
X202041286Y5710381D01*
X202041286Y5710381D02*
X201850810Y5710381D01*
X201850810Y5710381D02*
X201755572Y5758000D01*
X201755572Y5758000D02*
X201707953Y5805620D01*
X201707953Y5805620D02*
X201660334Y5900858D01*
X201660334Y5900858D02*
X201660334Y6186572D01*
X201660334Y6186572D02*
X201707953Y6281810D01*
X201707953Y6281810D02*
X201755572Y6329429D01*
X201755572Y6329429D02*
X201850810Y6377048D01*
X201850810Y6377048D02*
X202041286Y6377048D01*
X202041286Y6377048D02*
X202136524Y6329429D01*
X202612715Y5710381D02*
X202612715Y6377048D01*
X202612715Y6281810D02*
X202660334Y6329429D01*
X202660334Y6329429D02*
X202755572Y6377048D01*
X202755572Y6377048D02*
X202898429Y6377048D01*
X202898429Y6377048D02*
X202993667Y6329429D01*
X202993667Y6329429D02*
X203041286Y6234191D01*
X203041286Y6234191D02*
X203041286Y5710381D01*
X203041286Y6234191D02*
X203088905Y6329429D01*
X203088905Y6329429D02*
X203184143Y6377048D01*
X203184143Y6377048D02*
X203327000Y6377048D01*
X203327000Y6377048D02*
X203422239Y6329429D01*
X203422239Y6329429D02*
X203469858Y6234191D01*
X203469858Y6234191D02*
X203469858Y5710381D01*
X204374619Y5710381D02*
X204374619Y6234191D01*
X204374619Y6234191D02*
X204327000Y6329429D01*
X204327000Y6329429D02*
X204231762Y6377048D01*
X204231762Y6377048D02*
X204041286Y6377048D01*
X204041286Y6377048D02*
X203946048Y6329429D01*
X204374619Y5758000D02*
X204279381Y5710381D01*
X204279381Y5710381D02*
X204041286Y5710381D01*
X204041286Y5710381D02*
X203946048Y5758000D01*
X203946048Y5758000D02*
X203898429Y5853239D01*
X203898429Y5853239D02*
X203898429Y5948477D01*
X203898429Y5948477D02*
X203946048Y6043715D01*
X203946048Y6043715D02*
X204041286Y6091334D01*
X204041286Y6091334D02*
X204279381Y6091334D01*
X204279381Y6091334D02*
X204374619Y6138953D01*
X204850810Y6091334D02*
X205612715Y6091334D01*
X206088905Y5710381D02*
X206088905Y6377048D01*
X206088905Y6710381D02*
X206041286Y6662762D01*
X206041286Y6662762D02*
X206088905Y6615143D01*
X206088905Y6615143D02*
X206136524Y6662762D01*
X206136524Y6662762D02*
X206088905Y6710381D01*
X206088905Y6710381D02*
X206088905Y6615143D01*
X206565095Y5710381D02*
X206565095Y6377048D01*
X206565095Y6710381D02*
X206517476Y6662762D01*
X206517476Y6662762D02*
X206565095Y6615143D01*
X206565095Y6615143D02*
X206612714Y6662762D01*
X206612714Y6662762D02*
X206565095Y6710381D01*
X206565095Y6710381D02*
X206565095Y6615143D01*
X207041285Y5710381D02*
X207041285Y6710381D01*
X207041285Y6329429D02*
X207136523Y6377048D01*
X207136523Y6377048D02*
X207326999Y6377048D01*
X207326999Y6377048D02*
X207422237Y6329429D01*
X207422237Y6329429D02*
X207469856Y6281810D01*
X207469856Y6281810D02*
X207517475Y6186572D01*
X207517475Y6186572D02*
X207517475Y5900858D01*
X207517475Y5900858D02*
X207469856Y5805620D01*
X207469856Y5805620D02*
X207422237Y5758000D01*
X207422237Y5758000D02*
X207326999Y5710381D01*
X207326999Y5710381D02*
X207136523Y5710381D01*
X207136523Y5710381D02*
X207041285Y5758000D01*
X207946047Y6091334D02*
X208707952Y6091334D01*
X209326999Y5710381D02*
X209231761Y5758000D01*
X209231761Y5758000D02*
X209184142Y5853239D01*
X209184142Y5853239D02*
X209184142Y6710381D01*
X209612714Y6377048D02*
X210136523Y6377048D01*
X210136523Y6377048D02*
X209612714Y5710381D01*
X209612714Y5710381D02*
X210136523Y5710381D01*
X210517476Y5710381D02*
X210517476Y6710381D01*
X210517476Y6329429D02*
X210612714Y6377048D01*
X210612714Y6377048D02*
X210803190Y6377048D01*
X210803190Y6377048D02*
X210898428Y6329429D01*
X210898428Y6329429D02*
X210946047Y6281810D01*
X210946047Y6281810D02*
X210993666Y6186572D01*
X210993666Y6186572D02*
X210993666Y5900858D01*
X210993666Y5900858D02*
X210946047Y5805620D01*
X210946047Y5805620D02*
X210898428Y5758000D01*
X210898428Y5758000D02*
X210803190Y5710381D01*
X210803190Y5710381D02*
X210612714Y5710381D01*
X210612714Y5710381D02*
X210517476Y5758000D01*
X211374619Y6615143D02*
X211422238Y6662762D01*
X211422238Y6662762D02*
X211517476Y6710381D01*
X211517476Y6710381D02*
X211755571Y6710381D01*
X211755571Y6710381D02*
X211850809Y6662762D01*
X211850809Y6662762D02*
X211898428Y6615143D01*
X211898428Y6615143D02*
X211946047Y6519905D01*
X211946047Y6519905D02*
X211946047Y6424667D01*
X211946047Y6424667D02*
X211898428Y6281810D01*
X211898428Y6281810D02*
X211327000Y5710381D01*
X211327000Y5710381D02*
X211946047Y5710381D01*
X212279381Y6710381D02*
X212898428Y6710381D01*
X212898428Y6710381D02*
X212565095Y6329429D01*
X212565095Y6329429D02*
X212707952Y6329429D01*
X212707952Y6329429D02*
X212803190Y6281810D01*
X212803190Y6281810D02*
X212850809Y6234191D01*
X212850809Y6234191D02*
X212898428Y6138953D01*
X212898428Y6138953D02*
X212898428Y5900858D01*
X212898428Y5900858D02*
X212850809Y5805620D01*
X212850809Y5805620D02*
X212803190Y5758000D01*
X212803190Y5758000D02*
X212707952Y5710381D01*
X212707952Y5710381D02*
X212422238Y5710381D01*
X212422238Y5710381D02*
X212327000Y5758000D01*
X212327000Y5758000D02*
X212279381Y5805620D01*
D14*
X57240285Y1596429D02*
X57168857Y1525000D01*
X57168857Y1525000D02*
X56954571Y1453572D01*
X56954571Y1453572D02*
X56811714Y1453572D01*
X56811714Y1453572D02*
X56597428Y1525000D01*
X56597428Y1525000D02*
X56454571Y1667858D01*
X56454571Y1667858D02*
X56383142Y1810715D01*
X56383142Y1810715D02*
X56311714Y2096429D01*
X56311714Y2096429D02*
X56311714Y2310715D01*
X56311714Y2310715D02*
X56383142Y2596429D01*
X56383142Y2596429D02*
X56454571Y2739286D01*
X56454571Y2739286D02*
X56597428Y2882143D01*
X56597428Y2882143D02*
X56811714Y2953572D01*
X56811714Y2953572D02*
X56954571Y2953572D01*
X56954571Y2953572D02*
X57168857Y2882143D01*
X57168857Y2882143D02*
X57240285Y2810715D01*
X58668857Y1453572D02*
X57811714Y1453572D01*
X58240285Y1453572D02*
X58240285Y2953572D01*
X58240285Y2953572D02*
X58097428Y2739286D01*
X58097428Y2739286D02*
X57954571Y2596429D01*
X57954571Y2596429D02*
X57811714Y2525000D01*
X59311713Y2025000D02*
X60454571Y2025000D01*
X59883142Y1453572D02*
X59883142Y2596429D01*
D11*
X123828095Y44572381D02*
X123828095Y45572381D01*
X123828095Y45572381D02*
X124066190Y45572381D01*
X124066190Y45572381D02*
X124209047Y45524762D01*
X124209047Y45524762D02*
X124304285Y45429524D01*
X124304285Y45429524D02*
X124351904Y45334286D01*
X124351904Y45334286D02*
X124399523Y45143810D01*
X124399523Y45143810D02*
X124399523Y45000953D01*
X124399523Y45000953D02*
X124351904Y44810477D01*
X124351904Y44810477D02*
X124304285Y44715239D01*
X124304285Y44715239D02*
X124209047Y44620000D01*
X124209047Y44620000D02*
X124066190Y44572381D01*
X124066190Y44572381D02*
X123828095Y44572381D01*
X125304285Y45572381D02*
X124828095Y45572381D01*
X124828095Y45572381D02*
X124780476Y45096191D01*
X124780476Y45096191D02*
X124828095Y45143810D01*
X124828095Y45143810D02*
X124923333Y45191429D01*
X124923333Y45191429D02*
X125161428Y45191429D01*
X125161428Y45191429D02*
X125256666Y45143810D01*
X125256666Y45143810D02*
X125304285Y45096191D01*
X125304285Y45096191D02*
X125351904Y45000953D01*
X125351904Y45000953D02*
X125351904Y44762858D01*
X125351904Y44762858D02*
X125304285Y44667620D01*
X125304285Y44667620D02*
X125256666Y44620000D01*
X125256666Y44620000D02*
X125161428Y44572381D01*
X125161428Y44572381D02*
X124923333Y44572381D01*
X124923333Y44572381D02*
X124828095Y44620000D01*
X124828095Y44620000D02*
X124780476Y44667620D01*
X123828095Y47112381D02*
X123828095Y48112381D01*
X123828095Y48112381D02*
X124066190Y48112381D01*
X124066190Y48112381D02*
X124209047Y48064762D01*
X124209047Y48064762D02*
X124304285Y47969524D01*
X124304285Y47969524D02*
X124351904Y47874286D01*
X124351904Y47874286D02*
X124399523Y47683810D01*
X124399523Y47683810D02*
X124399523Y47540953D01*
X124399523Y47540953D02*
X124351904Y47350477D01*
X124351904Y47350477D02*
X124304285Y47255239D01*
X124304285Y47255239D02*
X124209047Y47160000D01*
X124209047Y47160000D02*
X124066190Y47112381D01*
X124066190Y47112381D02*
X123828095Y47112381D01*
X125256666Y48112381D02*
X125066190Y48112381D01*
X125066190Y48112381D02*
X124970952Y48064762D01*
X124970952Y48064762D02*
X124923333Y48017143D01*
X124923333Y48017143D02*
X124828095Y47874286D01*
X124828095Y47874286D02*
X124780476Y47683810D01*
X124780476Y47683810D02*
X124780476Y47302858D01*
X124780476Y47302858D02*
X124828095Y47207620D01*
X124828095Y47207620D02*
X124875714Y47160000D01*
X124875714Y47160000D02*
X124970952Y47112381D01*
X124970952Y47112381D02*
X125161428Y47112381D01*
X125161428Y47112381D02*
X125256666Y47160000D01*
X125256666Y47160000D02*
X125304285Y47207620D01*
X125304285Y47207620D02*
X125351904Y47302858D01*
X125351904Y47302858D02*
X125351904Y47540953D01*
X125351904Y47540953D02*
X125304285Y47636191D01*
X125304285Y47636191D02*
X125256666Y47683810D01*
X125256666Y47683810D02*
X125161428Y47731429D01*
X125161428Y47731429D02*
X124970952Y47731429D01*
X124970952Y47731429D02*
X124875714Y47683810D01*
X124875714Y47683810D02*
X124828095Y47636191D01*
X124828095Y47636191D02*
X124780476Y47540953D01*
%TO.C,C1*%
X62463333Y29477620D02*
X62415714Y29430000D01*
X62415714Y29430000D02*
X62272857Y29382381D01*
X62272857Y29382381D02*
X62177619Y29382381D01*
X62177619Y29382381D02*
X62034762Y29430000D01*
X62034762Y29430000D02*
X61939524Y29525239D01*
X61939524Y29525239D02*
X61891905Y29620477D01*
X61891905Y29620477D02*
X61844286Y29810953D01*
X61844286Y29810953D02*
X61844286Y29953810D01*
X61844286Y29953810D02*
X61891905Y30144286D01*
X61891905Y30144286D02*
X61939524Y30239524D01*
X61939524Y30239524D02*
X62034762Y30334762D01*
X62034762Y30334762D02*
X62177619Y30382381D01*
X62177619Y30382381D02*
X62272857Y30382381D01*
X62272857Y30382381D02*
X62415714Y30334762D01*
X62415714Y30334762D02*
X62463333Y30287143D01*
X63415714Y29382381D02*
X62844286Y29382381D01*
X63130000Y29382381D02*
X63130000Y30382381D01*
X63130000Y30382381D02*
X63034762Y30239524D01*
X63034762Y30239524D02*
X62939524Y30144286D01*
X62939524Y30144286D02*
X62844286Y30096667D01*
%TO.C,JP4*%
X166698666Y19587381D02*
X166698666Y18873096D01*
X166698666Y18873096D02*
X166651047Y18730239D01*
X166651047Y18730239D02*
X166555809Y18635000D01*
X166555809Y18635000D02*
X166412952Y18587381D01*
X166412952Y18587381D02*
X166317714Y18587381D01*
X167174857Y18587381D02*
X167174857Y19587381D01*
X167174857Y19587381D02*
X167555809Y19587381D01*
X167555809Y19587381D02*
X167651047Y19539762D01*
X167651047Y19539762D02*
X167698666Y19492143D01*
X167698666Y19492143D02*
X167746285Y19396905D01*
X167746285Y19396905D02*
X167746285Y19254048D01*
X167746285Y19254048D02*
X167698666Y19158810D01*
X167698666Y19158810D02*
X167651047Y19111191D01*
X167651047Y19111191D02*
X167555809Y19063572D01*
X167555809Y19063572D02*
X167174857Y19063572D01*
X168603428Y19254048D02*
X168603428Y18587381D01*
X168365333Y19635000D02*
X168127238Y18920715D01*
X168127238Y18920715D02*
X168746285Y18920715D01*
X166809809Y17317381D02*
X166333619Y17317381D01*
X166333619Y17317381D02*
X166333619Y18317381D01*
X166905048Y17222143D02*
X167666952Y17222143D01*
X167857429Y17603096D02*
X168333619Y17603096D01*
X167762191Y17317381D02*
X168095524Y18317381D01*
X168095524Y18317381D02*
X168428857Y17317381D01*
X168714572Y18222143D02*
X168762191Y18269762D01*
X168762191Y18269762D02*
X168857429Y18317381D01*
X168857429Y18317381D02*
X169095524Y18317381D01*
X169095524Y18317381D02*
X169190762Y18269762D01*
X169190762Y18269762D02*
X169238381Y18222143D01*
X169238381Y18222143D02*
X169286000Y18126905D01*
X169286000Y18126905D02*
X169286000Y18031667D01*
X169286000Y18031667D02*
X169238381Y17888810D01*
X169238381Y17888810D02*
X168666953Y17317381D01*
X168666953Y17317381D02*
X169286000Y17317381D01*
X160645714Y17952381D02*
X160074286Y17952381D01*
X160360000Y17952381D02*
X160360000Y18952381D01*
X160360000Y18952381D02*
X160264762Y18809524D01*
X160264762Y18809524D02*
X160169524Y18714286D01*
X160169524Y18714286D02*
X160074286Y18666667D01*
X165226667Y18952381D02*
X165845714Y18952381D01*
X165845714Y18952381D02*
X165512381Y18571429D01*
X165512381Y18571429D02*
X165655238Y18571429D01*
X165655238Y18571429D02*
X165750476Y18523810D01*
X165750476Y18523810D02*
X165798095Y18476191D01*
X165798095Y18476191D02*
X165845714Y18380953D01*
X165845714Y18380953D02*
X165845714Y18142858D01*
X165845714Y18142858D02*
X165798095Y18047620D01*
X165798095Y18047620D02*
X165750476Y18000000D01*
X165750476Y18000000D02*
X165655238Y17952381D01*
X165655238Y17952381D02*
X165369524Y17952381D01*
X165369524Y17952381D02*
X165274286Y18000000D01*
X165274286Y18000000D02*
X165226667Y18047620D01*
%TO.C,H3*%
X227603095Y62402381D02*
X227603095Y63402381D01*
X227603095Y62926191D02*
X228174523Y62926191D01*
X228174523Y62402381D02*
X228174523Y63402381D01*
X228555476Y63402381D02*
X229174523Y63402381D01*
X229174523Y63402381D02*
X228841190Y63021429D01*
X228841190Y63021429D02*
X228984047Y63021429D01*
X228984047Y63021429D02*
X229079285Y62973810D01*
X229079285Y62973810D02*
X229126904Y62926191D01*
X229126904Y62926191D02*
X229174523Y62830953D01*
X229174523Y62830953D02*
X229174523Y62592858D01*
X229174523Y62592858D02*
X229126904Y62497620D01*
X229126904Y62497620D02*
X229079285Y62450000D01*
X229079285Y62450000D02*
X228984047Y62402381D01*
X228984047Y62402381D02*
X228698333Y62402381D01*
X228698333Y62402381D02*
X228603095Y62450000D01*
X228603095Y62450000D02*
X228555476Y62497620D01*
%TO.C,F1*%
X43881666Y24191191D02*
X43548333Y24191191D01*
X43548333Y23667381D02*
X43548333Y24667381D01*
X43548333Y24667381D02*
X44024523Y24667381D01*
X44929285Y23667381D02*
X44357857Y23667381D01*
X44643571Y23667381D02*
X44643571Y24667381D01*
X44643571Y24667381D02*
X44548333Y24524524D01*
X44548333Y24524524D02*
X44453095Y24429286D01*
X44453095Y24429286D02*
X44357857Y24381667D01*
X47350856Y23667381D02*
X46779428Y23667381D01*
X47065142Y23667381D02*
X47065142Y24667381D01*
X47065142Y24667381D02*
X46969904Y24524524D01*
X46969904Y24524524D02*
X46874666Y24429286D01*
X46874666Y24429286D02*
X46779428Y24381667D01*
X47731809Y23953096D02*
X48207999Y23953096D01*
X47636571Y23667381D02*
X47969904Y24667381D01*
X47969904Y24667381D02*
X48303237Y23667381D01*
X49350857Y23715000D02*
X49493714Y23667381D01*
X49493714Y23667381D02*
X49731809Y23667381D01*
X49731809Y23667381D02*
X49827047Y23715000D01*
X49827047Y23715000D02*
X49874666Y23762620D01*
X49874666Y23762620D02*
X49922285Y23857858D01*
X49922285Y23857858D02*
X49922285Y23953096D01*
X49922285Y23953096D02*
X49874666Y24048334D01*
X49874666Y24048334D02*
X49827047Y24095953D01*
X49827047Y24095953D02*
X49731809Y24143572D01*
X49731809Y24143572D02*
X49541333Y24191191D01*
X49541333Y24191191D02*
X49446095Y24238810D01*
X49446095Y24238810D02*
X49398476Y24286429D01*
X49398476Y24286429D02*
X49350857Y24381667D01*
X49350857Y24381667D02*
X49350857Y24476905D01*
X49350857Y24476905D02*
X49398476Y24572143D01*
X49398476Y24572143D02*
X49446095Y24619762D01*
X49446095Y24619762D02*
X49541333Y24667381D01*
X49541333Y24667381D02*
X49779428Y24667381D01*
X49779428Y24667381D02*
X49922285Y24619762D01*
X50493714Y23667381D02*
X50398476Y23715000D01*
X50398476Y23715000D02*
X50350857Y23810239D01*
X50350857Y23810239D02*
X50350857Y24667381D01*
X51017524Y23667381D02*
X50922286Y23715000D01*
X50922286Y23715000D02*
X50874667Y23762620D01*
X50874667Y23762620D02*
X50827048Y23857858D01*
X50827048Y23857858D02*
X50827048Y24143572D01*
X50827048Y24143572D02*
X50874667Y24238810D01*
X50874667Y24238810D02*
X50922286Y24286429D01*
X50922286Y24286429D02*
X51017524Y24334048D01*
X51017524Y24334048D02*
X51160381Y24334048D01*
X51160381Y24334048D02*
X51255619Y24286429D01*
X51255619Y24286429D02*
X51303238Y24238810D01*
X51303238Y24238810D02*
X51350857Y24143572D01*
X51350857Y24143572D02*
X51350857Y23857858D01*
X51350857Y23857858D02*
X51303238Y23762620D01*
X51303238Y23762620D02*
X51255619Y23715000D01*
X51255619Y23715000D02*
X51160381Y23667381D01*
X51160381Y23667381D02*
X51017524Y23667381D01*
X51684191Y24334048D02*
X51874667Y23667381D01*
X51874667Y23667381D02*
X52065143Y24143572D01*
X52065143Y24143572D02*
X52255619Y23667381D01*
X52255619Y23667381D02*
X52446095Y24334048D01*
X53922286Y24191191D02*
X54065143Y24143572D01*
X54065143Y24143572D02*
X54112762Y24095953D01*
X54112762Y24095953D02*
X54160381Y24000715D01*
X54160381Y24000715D02*
X54160381Y23857858D01*
X54160381Y23857858D02*
X54112762Y23762620D01*
X54112762Y23762620D02*
X54065143Y23715000D01*
X54065143Y23715000D02*
X53969905Y23667381D01*
X53969905Y23667381D02*
X53588953Y23667381D01*
X53588953Y23667381D02*
X53588953Y24667381D01*
X53588953Y24667381D02*
X53922286Y24667381D01*
X53922286Y24667381D02*
X54017524Y24619762D01*
X54017524Y24619762D02*
X54065143Y24572143D01*
X54065143Y24572143D02*
X54112762Y24476905D01*
X54112762Y24476905D02*
X54112762Y24381667D01*
X54112762Y24381667D02*
X54065143Y24286429D01*
X54065143Y24286429D02*
X54017524Y24238810D01*
X54017524Y24238810D02*
X53922286Y24191191D01*
X53922286Y24191191D02*
X53588953Y24191191D01*
X54731810Y23667381D02*
X54636572Y23715000D01*
X54636572Y23715000D02*
X54588953Y23810239D01*
X54588953Y23810239D02*
X54588953Y24667381D01*
X55255620Y23667381D02*
X55160382Y23715000D01*
X55160382Y23715000D02*
X55112763Y23762620D01*
X55112763Y23762620D02*
X55065144Y23857858D01*
X55065144Y23857858D02*
X55065144Y24143572D01*
X55065144Y24143572D02*
X55112763Y24238810D01*
X55112763Y24238810D02*
X55160382Y24286429D01*
X55160382Y24286429D02*
X55255620Y24334048D01*
X55255620Y24334048D02*
X55398477Y24334048D01*
X55398477Y24334048D02*
X55493715Y24286429D01*
X55493715Y24286429D02*
X55541334Y24238810D01*
X55541334Y24238810D02*
X55588953Y24143572D01*
X55588953Y24143572D02*
X55588953Y23857858D01*
X55588953Y23857858D02*
X55541334Y23762620D01*
X55541334Y23762620D02*
X55493715Y23715000D01*
X55493715Y23715000D02*
X55398477Y23667381D01*
X55398477Y23667381D02*
X55255620Y23667381D01*
X55922287Y24334048D02*
X56112763Y23667381D01*
X56112763Y23667381D02*
X56303239Y24143572D01*
X56303239Y24143572D02*
X56493715Y23667381D01*
X56493715Y23667381D02*
X56684191Y24334048D01*
%TO.C,C6*%
X93578333Y36502620D02*
X93530714Y36455000D01*
X93530714Y36455000D02*
X93387857Y36407381D01*
X93387857Y36407381D02*
X93292619Y36407381D01*
X93292619Y36407381D02*
X93149762Y36455000D01*
X93149762Y36455000D02*
X93054524Y36550239D01*
X93054524Y36550239D02*
X93006905Y36645477D01*
X93006905Y36645477D02*
X92959286Y36835953D01*
X92959286Y36835953D02*
X92959286Y36978810D01*
X92959286Y36978810D02*
X93006905Y37169286D01*
X93006905Y37169286D02*
X93054524Y37264524D01*
X93054524Y37264524D02*
X93149762Y37359762D01*
X93149762Y37359762D02*
X93292619Y37407381D01*
X93292619Y37407381D02*
X93387857Y37407381D01*
X93387857Y37407381D02*
X93530714Y37359762D01*
X93530714Y37359762D02*
X93578333Y37312143D01*
X94435476Y37407381D02*
X94245000Y37407381D01*
X94245000Y37407381D02*
X94149762Y37359762D01*
X94149762Y37359762D02*
X94102143Y37312143D01*
X94102143Y37312143D02*
X94006905Y37169286D01*
X94006905Y37169286D02*
X93959286Y36978810D01*
X93959286Y36978810D02*
X93959286Y36597858D01*
X93959286Y36597858D02*
X94006905Y36502620D01*
X94006905Y36502620D02*
X94054524Y36455000D01*
X94054524Y36455000D02*
X94149762Y36407381D01*
X94149762Y36407381D02*
X94340238Y36407381D01*
X94340238Y36407381D02*
X94435476Y36455000D01*
X94435476Y36455000D02*
X94483095Y36502620D01*
X94483095Y36502620D02*
X94530714Y36597858D01*
X94530714Y36597858D02*
X94530714Y36835953D01*
X94530714Y36835953D02*
X94483095Y36931191D01*
X94483095Y36931191D02*
X94435476Y36978810D01*
X94435476Y36978810D02*
X94340238Y37026429D01*
X94340238Y37026429D02*
X94149762Y37026429D01*
X94149762Y37026429D02*
X94054524Y36978810D01*
X94054524Y36978810D02*
X94006905Y36931191D01*
X94006905Y36931191D02*
X93959286Y36835953D01*
%TO.C,JP5*%
X167206666Y16539381D02*
X167206666Y15825096D01*
X167206666Y15825096D02*
X167159047Y15682239D01*
X167159047Y15682239D02*
X167063809Y15587000D01*
X167063809Y15587000D02*
X166920952Y15539381D01*
X166920952Y15539381D02*
X166825714Y15539381D01*
X167682857Y15539381D02*
X167682857Y16539381D01*
X167682857Y16539381D02*
X168063809Y16539381D01*
X168063809Y16539381D02*
X168159047Y16491762D01*
X168159047Y16491762D02*
X168206666Y16444143D01*
X168206666Y16444143D02*
X168254285Y16348905D01*
X168254285Y16348905D02*
X168254285Y16206048D01*
X168254285Y16206048D02*
X168206666Y16110810D01*
X168206666Y16110810D02*
X168159047Y16063191D01*
X168159047Y16063191D02*
X168063809Y16015572D01*
X168063809Y16015572D02*
X167682857Y16015572D01*
X169159047Y16539381D02*
X168682857Y16539381D01*
X168682857Y16539381D02*
X168635238Y16063191D01*
X168635238Y16063191D02*
X168682857Y16110810D01*
X168682857Y16110810D02*
X168778095Y16158429D01*
X168778095Y16158429D02*
X169016190Y16158429D01*
X169016190Y16158429D02*
X169111428Y16110810D01*
X169111428Y16110810D02*
X169159047Y16063191D01*
X169159047Y16063191D02*
X169206666Y15967953D01*
X169206666Y15967953D02*
X169206666Y15729858D01*
X169206666Y15729858D02*
X169159047Y15634620D01*
X169159047Y15634620D02*
X169111428Y15587000D01*
X169111428Y15587000D02*
X169016190Y15539381D01*
X169016190Y15539381D02*
X168778095Y15539381D01*
X168778095Y15539381D02*
X168682857Y15587000D01*
X168682857Y15587000D02*
X168635238Y15634620D01*
X166809809Y14269381D02*
X166333619Y14269381D01*
X166333619Y14269381D02*
X166333619Y15269381D01*
X166905048Y14174143D02*
X167666952Y14174143D01*
X167857429Y14555096D02*
X168333619Y14555096D01*
X167762191Y14269381D02*
X168095524Y15269381D01*
X168095524Y15269381D02*
X168428857Y14269381D01*
X169286000Y14269381D02*
X168714572Y14269381D01*
X169000286Y14269381D02*
X169000286Y15269381D01*
X169000286Y15269381D02*
X168905048Y15126524D01*
X168905048Y15126524D02*
X168809810Y15031286D01*
X168809810Y15031286D02*
X168714572Y14983667D01*
X165226667Y15777381D02*
X165845714Y15777381D01*
X165845714Y15777381D02*
X165512381Y15396429D01*
X165512381Y15396429D02*
X165655238Y15396429D01*
X165655238Y15396429D02*
X165750476Y15348810D01*
X165750476Y15348810D02*
X165798095Y15301191D01*
X165798095Y15301191D02*
X165845714Y15205953D01*
X165845714Y15205953D02*
X165845714Y14967858D01*
X165845714Y14967858D02*
X165798095Y14872620D01*
X165798095Y14872620D02*
X165750476Y14825000D01*
X165750476Y14825000D02*
X165655238Y14777381D01*
X165655238Y14777381D02*
X165369524Y14777381D01*
X165369524Y14777381D02*
X165274286Y14825000D01*
X165274286Y14825000D02*
X165226667Y14872620D01*
X160645714Y14777381D02*
X160074286Y14777381D01*
X160360000Y14777381D02*
X160360000Y15777381D01*
X160360000Y15777381D02*
X160264762Y15634524D01*
X160264762Y15634524D02*
X160169524Y15539286D01*
X160169524Y15539286D02*
X160074286Y15491667D01*
%TO.C,U3*%
X178708095Y63817381D02*
X178708095Y63007858D01*
X178708095Y63007858D02*
X178755714Y62912620D01*
X178755714Y62912620D02*
X178803333Y62865000D01*
X178803333Y62865000D02*
X178898571Y62817381D01*
X178898571Y62817381D02*
X179089047Y62817381D01*
X179089047Y62817381D02*
X179184285Y62865000D01*
X179184285Y62865000D02*
X179231904Y62912620D01*
X179231904Y62912620D02*
X179279523Y63007858D01*
X179279523Y63007858D02*
X179279523Y63817381D01*
X179660476Y63817381D02*
X180279523Y63817381D01*
X180279523Y63817381D02*
X179946190Y63436429D01*
X179946190Y63436429D02*
X180089047Y63436429D01*
X180089047Y63436429D02*
X180184285Y63388810D01*
X180184285Y63388810D02*
X180231904Y63341191D01*
X180231904Y63341191D02*
X180279523Y63245953D01*
X180279523Y63245953D02*
X180279523Y63007858D01*
X180279523Y63007858D02*
X180231904Y62912620D01*
X180231904Y62912620D02*
X180184285Y62865000D01*
X180184285Y62865000D02*
X180089047Y62817381D01*
X180089047Y62817381D02*
X179803333Y62817381D01*
X179803333Y62817381D02*
X179708095Y62865000D01*
X179708095Y62865000D02*
X179660476Y62912620D01*
%TO.C,C3*%
X68178333Y47257620D02*
X68130714Y47210000D01*
X68130714Y47210000D02*
X67987857Y47162381D01*
X67987857Y47162381D02*
X67892619Y47162381D01*
X67892619Y47162381D02*
X67749762Y47210000D01*
X67749762Y47210000D02*
X67654524Y47305239D01*
X67654524Y47305239D02*
X67606905Y47400477D01*
X67606905Y47400477D02*
X67559286Y47590953D01*
X67559286Y47590953D02*
X67559286Y47733810D01*
X67559286Y47733810D02*
X67606905Y47924286D01*
X67606905Y47924286D02*
X67654524Y48019524D01*
X67654524Y48019524D02*
X67749762Y48114762D01*
X67749762Y48114762D02*
X67892619Y48162381D01*
X67892619Y48162381D02*
X67987857Y48162381D01*
X67987857Y48162381D02*
X68130714Y48114762D01*
X68130714Y48114762D02*
X68178333Y48067143D01*
X68511667Y48162381D02*
X69130714Y48162381D01*
X69130714Y48162381D02*
X68797381Y47781429D01*
X68797381Y47781429D02*
X68940238Y47781429D01*
X68940238Y47781429D02*
X69035476Y47733810D01*
X69035476Y47733810D02*
X69083095Y47686191D01*
X69083095Y47686191D02*
X69130714Y47590953D01*
X69130714Y47590953D02*
X69130714Y47352858D01*
X69130714Y47352858D02*
X69083095Y47257620D01*
X69083095Y47257620D02*
X69035476Y47210000D01*
X69035476Y47210000D02*
X68940238Y47162381D01*
X68940238Y47162381D02*
X68654524Y47162381D01*
X68654524Y47162381D02*
X68559286Y47210000D01*
X68559286Y47210000D02*
X68511667Y47257620D01*
%TO.C,J5*%
X99761666Y65732381D02*
X99761666Y65018096D01*
X99761666Y65018096D02*
X99714047Y64875239D01*
X99714047Y64875239D02*
X99618809Y64780000D01*
X99618809Y64780000D02*
X99475952Y64732381D01*
X99475952Y64732381D02*
X99380714Y64732381D01*
X100714047Y65732381D02*
X100237857Y65732381D01*
X100237857Y65732381D02*
X100190238Y65256191D01*
X100190238Y65256191D02*
X100237857Y65303810D01*
X100237857Y65303810D02*
X100333095Y65351429D01*
X100333095Y65351429D02*
X100571190Y65351429D01*
X100571190Y65351429D02*
X100666428Y65303810D01*
X100666428Y65303810D02*
X100714047Y65256191D01*
X100714047Y65256191D02*
X100761666Y65160953D01*
X100761666Y65160953D02*
X100761666Y64922858D01*
X100761666Y64922858D02*
X100714047Y64827620D01*
X100714047Y64827620D02*
X100666428Y64780000D01*
X100666428Y64780000D02*
X100571190Y64732381D01*
X100571190Y64732381D02*
X100333095Y64732381D01*
X100333095Y64732381D02*
X100237857Y64780000D01*
X100237857Y64780000D02*
X100190238Y64827620D01*
%TO.C,Q2*%
X197154761Y59132143D02*
X197059523Y59179762D01*
X197059523Y59179762D02*
X196964285Y59275000D01*
X196964285Y59275000D02*
X196821428Y59417858D01*
X196821428Y59417858D02*
X196726190Y59465477D01*
X196726190Y59465477D02*
X196630952Y59465477D01*
X196678571Y59227381D02*
X196583333Y59275000D01*
X196583333Y59275000D02*
X196488095Y59370239D01*
X196488095Y59370239D02*
X196440476Y59560715D01*
X196440476Y59560715D02*
X196440476Y59894048D01*
X196440476Y59894048D02*
X196488095Y60084524D01*
X196488095Y60084524D02*
X196583333Y60179762D01*
X196583333Y60179762D02*
X196678571Y60227381D01*
X196678571Y60227381D02*
X196869047Y60227381D01*
X196869047Y60227381D02*
X196964285Y60179762D01*
X196964285Y60179762D02*
X197059523Y60084524D01*
X197059523Y60084524D02*
X197107142Y59894048D01*
X197107142Y59894048D02*
X197107142Y59560715D01*
X197107142Y59560715D02*
X197059523Y59370239D01*
X197059523Y59370239D02*
X196964285Y59275000D01*
X196964285Y59275000D02*
X196869047Y59227381D01*
X196869047Y59227381D02*
X196678571Y59227381D01*
X197488095Y60132143D02*
X197535714Y60179762D01*
X197535714Y60179762D02*
X197630952Y60227381D01*
X197630952Y60227381D02*
X197869047Y60227381D01*
X197869047Y60227381D02*
X197964285Y60179762D01*
X197964285Y60179762D02*
X198011904Y60132143D01*
X198011904Y60132143D02*
X198059523Y60036905D01*
X198059523Y60036905D02*
X198059523Y59941667D01*
X198059523Y59941667D02*
X198011904Y59798810D01*
X198011904Y59798810D02*
X197440476Y59227381D01*
X197440476Y59227381D02*
X198059523Y59227381D01*
%TO.C,J3*%
X138496666Y60017381D02*
X138496666Y59303096D01*
X138496666Y59303096D02*
X138449047Y59160239D01*
X138449047Y59160239D02*
X138353809Y59065000D01*
X138353809Y59065000D02*
X138210952Y59017381D01*
X138210952Y59017381D02*
X138115714Y59017381D01*
X138877619Y60017381D02*
X139496666Y60017381D01*
X139496666Y60017381D02*
X139163333Y59636429D01*
X139163333Y59636429D02*
X139306190Y59636429D01*
X139306190Y59636429D02*
X139401428Y59588810D01*
X139401428Y59588810D02*
X139449047Y59541191D01*
X139449047Y59541191D02*
X139496666Y59445953D01*
X139496666Y59445953D02*
X139496666Y59207858D01*
X139496666Y59207858D02*
X139449047Y59112620D01*
X139449047Y59112620D02*
X139401428Y59065000D01*
X139401428Y59065000D02*
X139306190Y59017381D01*
X139306190Y59017381D02*
X139020476Y59017381D01*
X139020476Y59017381D02*
X138925238Y59065000D01*
X138925238Y59065000D02*
X138877619Y59112620D01*
%TO.C,A1*%
X110175714Y22048096D02*
X110651904Y22048096D01*
X110080476Y21762381D02*
X110413809Y22762381D01*
X110413809Y22762381D02*
X110747142Y21762381D01*
X111604285Y21762381D02*
X111032857Y21762381D01*
X111318571Y21762381D02*
X111318571Y22762381D01*
X111318571Y22762381D02*
X111223333Y22619524D01*
X111223333Y22619524D02*
X111128095Y22524286D01*
X111128095Y22524286D02*
X111032857Y22476667D01*
X115231905Y29255381D02*
X115231905Y30255381D01*
X115231905Y30255381D02*
X115470000Y30255381D01*
X115470000Y30255381D02*
X115612857Y30207762D01*
X115612857Y30207762D02*
X115708095Y30112524D01*
X115708095Y30112524D02*
X115755714Y30017286D01*
X115755714Y30017286D02*
X115803333Y29826810D01*
X115803333Y29826810D02*
X115803333Y29683953D01*
X115803333Y29683953D02*
X115755714Y29493477D01*
X115755714Y29493477D02*
X115708095Y29398239D01*
X115708095Y29398239D02*
X115612857Y29303000D01*
X115612857Y29303000D02*
X115470000Y29255381D01*
X115470000Y29255381D02*
X115231905Y29255381D01*
X116422381Y30255381D02*
X116517619Y30255381D01*
X116517619Y30255381D02*
X116612857Y30207762D01*
X116612857Y30207762D02*
X116660476Y30160143D01*
X116660476Y30160143D02*
X116708095Y30064905D01*
X116708095Y30064905D02*
X116755714Y29874429D01*
X116755714Y29874429D02*
X116755714Y29636334D01*
X116755714Y29636334D02*
X116708095Y29445858D01*
X116708095Y29445858D02*
X116660476Y29350620D01*
X116660476Y29350620D02*
X116612857Y29303000D01*
X116612857Y29303000D02*
X116517619Y29255381D01*
X116517619Y29255381D02*
X116422381Y29255381D01*
X116422381Y29255381D02*
X116327143Y29303000D01*
X116327143Y29303000D02*
X116279524Y29350620D01*
X116279524Y29350620D02*
X116231905Y29445858D01*
X116231905Y29445858D02*
X116184286Y29636334D01*
X116184286Y29636334D02*
X116184286Y29874429D01*
X116184286Y29874429D02*
X116231905Y30064905D01*
X116231905Y30064905D02*
X116279524Y30160143D01*
X116279524Y30160143D02*
X116327143Y30207762D01*
X116327143Y30207762D02*
X116422381Y30255381D01*
%TO.C,PL2*%
X20837143Y21377381D02*
X20837143Y22377381D01*
X20837143Y22377381D02*
X21218095Y22377381D01*
X21218095Y22377381D02*
X21313333Y22329762D01*
X21313333Y22329762D02*
X21360952Y22282143D01*
X21360952Y22282143D02*
X21408571Y22186905D01*
X21408571Y22186905D02*
X21408571Y22044048D01*
X21408571Y22044048D02*
X21360952Y21948810D01*
X21360952Y21948810D02*
X21313333Y21901191D01*
X21313333Y21901191D02*
X21218095Y21853572D01*
X21218095Y21853572D02*
X20837143Y21853572D01*
X22313333Y21377381D02*
X21837143Y21377381D01*
X21837143Y21377381D02*
X21837143Y22377381D01*
X22599048Y22282143D02*
X22646667Y22329762D01*
X22646667Y22329762D02*
X22741905Y22377381D01*
X22741905Y22377381D02*
X22980000Y22377381D01*
X22980000Y22377381D02*
X23075238Y22329762D01*
X23075238Y22329762D02*
X23122857Y22282143D01*
X23122857Y22282143D02*
X23170476Y22186905D01*
X23170476Y22186905D02*
X23170476Y22091667D01*
X23170476Y22091667D02*
X23122857Y21948810D01*
X23122857Y21948810D02*
X22551429Y21377381D01*
X22551429Y21377381D02*
X23170476Y21377381D01*
%TO.C,R7*%
X77703333Y51607381D02*
X77370000Y52083572D01*
X77131905Y51607381D02*
X77131905Y52607381D01*
X77131905Y52607381D02*
X77512857Y52607381D01*
X77512857Y52607381D02*
X77608095Y52559762D01*
X77608095Y52559762D02*
X77655714Y52512143D01*
X77655714Y52512143D02*
X77703333Y52416905D01*
X77703333Y52416905D02*
X77703333Y52274048D01*
X77703333Y52274048D02*
X77655714Y52178810D01*
X77655714Y52178810D02*
X77608095Y52131191D01*
X77608095Y52131191D02*
X77512857Y52083572D01*
X77512857Y52083572D02*
X77131905Y52083572D01*
X78036667Y52607381D02*
X78703333Y52607381D01*
X78703333Y52607381D02*
X78274762Y51607381D01*
%TO.C,R6*%
X77703333Y54782381D02*
X77370000Y55258572D01*
X77131905Y54782381D02*
X77131905Y55782381D01*
X77131905Y55782381D02*
X77512857Y55782381D01*
X77512857Y55782381D02*
X77608095Y55734762D01*
X77608095Y55734762D02*
X77655714Y55687143D01*
X77655714Y55687143D02*
X77703333Y55591905D01*
X77703333Y55591905D02*
X77703333Y55449048D01*
X77703333Y55449048D02*
X77655714Y55353810D01*
X77655714Y55353810D02*
X77608095Y55306191D01*
X77608095Y55306191D02*
X77512857Y55258572D01*
X77512857Y55258572D02*
X77131905Y55258572D01*
X78560476Y55782381D02*
X78370000Y55782381D01*
X78370000Y55782381D02*
X78274762Y55734762D01*
X78274762Y55734762D02*
X78227143Y55687143D01*
X78227143Y55687143D02*
X78131905Y55544286D01*
X78131905Y55544286D02*
X78084286Y55353810D01*
X78084286Y55353810D02*
X78084286Y54972858D01*
X78084286Y54972858D02*
X78131905Y54877620D01*
X78131905Y54877620D02*
X78179524Y54830000D01*
X78179524Y54830000D02*
X78274762Y54782381D01*
X78274762Y54782381D02*
X78465238Y54782381D01*
X78465238Y54782381D02*
X78560476Y54830000D01*
X78560476Y54830000D02*
X78608095Y54877620D01*
X78608095Y54877620D02*
X78655714Y54972858D01*
X78655714Y54972858D02*
X78655714Y55210953D01*
X78655714Y55210953D02*
X78608095Y55306191D01*
X78608095Y55306191D02*
X78560476Y55353810D01*
X78560476Y55353810D02*
X78465238Y55401429D01*
X78465238Y55401429D02*
X78274762Y55401429D01*
X78274762Y55401429D02*
X78179524Y55353810D01*
X78179524Y55353810D02*
X78131905Y55306191D01*
X78131905Y55306191D02*
X78084286Y55210953D01*
%TO.C,J2*%
X135956666Y60017381D02*
X135956666Y59303096D01*
X135956666Y59303096D02*
X135909047Y59160239D01*
X135909047Y59160239D02*
X135813809Y59065000D01*
X135813809Y59065000D02*
X135670952Y59017381D01*
X135670952Y59017381D02*
X135575714Y59017381D01*
X136385238Y59922143D02*
X136432857Y59969762D01*
X136432857Y59969762D02*
X136528095Y60017381D01*
X136528095Y60017381D02*
X136766190Y60017381D01*
X136766190Y60017381D02*
X136861428Y59969762D01*
X136861428Y59969762D02*
X136909047Y59922143D01*
X136909047Y59922143D02*
X136956666Y59826905D01*
X136956666Y59826905D02*
X136956666Y59731667D01*
X136956666Y59731667D02*
X136909047Y59588810D01*
X136909047Y59588810D02*
X136337619Y59017381D01*
X136337619Y59017381D02*
X136956666Y59017381D01*
%TO.C,U4*%
X164103095Y63827381D02*
X164103095Y63017858D01*
X164103095Y63017858D02*
X164150714Y62922620D01*
X164150714Y62922620D02*
X164198333Y62875000D01*
X164198333Y62875000D02*
X164293571Y62827381D01*
X164293571Y62827381D02*
X164484047Y62827381D01*
X164484047Y62827381D02*
X164579285Y62875000D01*
X164579285Y62875000D02*
X164626904Y62922620D01*
X164626904Y62922620D02*
X164674523Y63017858D01*
X164674523Y63017858D02*
X164674523Y63827381D01*
X165579285Y63494048D02*
X165579285Y62827381D01*
X165341190Y63875000D02*
X165103095Y63160715D01*
X165103095Y63160715D02*
X165722142Y63160715D01*
%TO.C,R9*%
X197083333Y32303381D02*
X196750000Y32779572D01*
X196511905Y32303381D02*
X196511905Y33303381D01*
X196511905Y33303381D02*
X196892857Y33303381D01*
X196892857Y33303381D02*
X196988095Y33255762D01*
X196988095Y33255762D02*
X197035714Y33208143D01*
X197035714Y33208143D02*
X197083333Y33112905D01*
X197083333Y33112905D02*
X197083333Y32970048D01*
X197083333Y32970048D02*
X197035714Y32874810D01*
X197035714Y32874810D02*
X196988095Y32827191D01*
X196988095Y32827191D02*
X196892857Y32779572D01*
X196892857Y32779572D02*
X196511905Y32779572D01*
X197559524Y32303381D02*
X197750000Y32303381D01*
X197750000Y32303381D02*
X197845238Y32351000D01*
X197845238Y32351000D02*
X197892857Y32398620D01*
X197892857Y32398620D02*
X197988095Y32541477D01*
X197988095Y32541477D02*
X198035714Y32731953D01*
X198035714Y32731953D02*
X198035714Y33112905D01*
X198035714Y33112905D02*
X197988095Y33208143D01*
X197988095Y33208143D02*
X197940476Y33255762D01*
X197940476Y33255762D02*
X197845238Y33303381D01*
X197845238Y33303381D02*
X197654762Y33303381D01*
X197654762Y33303381D02*
X197559524Y33255762D01*
X197559524Y33255762D02*
X197511905Y33208143D01*
X197511905Y33208143D02*
X197464286Y33112905D01*
X197464286Y33112905D02*
X197464286Y32874810D01*
X197464286Y32874810D02*
X197511905Y32779572D01*
X197511905Y32779572D02*
X197559524Y32731953D01*
X197559524Y32731953D02*
X197654762Y32684334D01*
X197654762Y32684334D02*
X197845238Y32684334D01*
X197845238Y32684334D02*
X197940476Y32731953D01*
X197940476Y32731953D02*
X197988095Y32779572D01*
X197988095Y32779572D02*
X198035714Y32874810D01*
%TO.C,R4*%
X75798333Y20873381D02*
X75465000Y21349572D01*
X75226905Y20873381D02*
X75226905Y21873381D01*
X75226905Y21873381D02*
X75607857Y21873381D01*
X75607857Y21873381D02*
X75703095Y21825762D01*
X75703095Y21825762D02*
X75750714Y21778143D01*
X75750714Y21778143D02*
X75798333Y21682905D01*
X75798333Y21682905D02*
X75798333Y21540048D01*
X75798333Y21540048D02*
X75750714Y21444810D01*
X75750714Y21444810D02*
X75703095Y21397191D01*
X75703095Y21397191D02*
X75607857Y21349572D01*
X75607857Y21349572D02*
X75226905Y21349572D01*
X76655476Y21540048D02*
X76655476Y20873381D01*
X76417381Y21921000D02*
X76179286Y21206715D01*
X76179286Y21206715D02*
X76798333Y21206715D01*
%TO.C,H4*%
X92738095Y22237381D02*
X92738095Y23237381D01*
X92738095Y22761191D02*
X93309523Y22761191D01*
X93309523Y22237381D02*
X93309523Y23237381D01*
X94214285Y22904048D02*
X94214285Y22237381D01*
X93976190Y23285000D02*
X93738095Y22570715D01*
X93738095Y22570715D02*
X94357142Y22570715D01*
%TO.C,R2*%
X33888333Y16047381D02*
X33555000Y16523572D01*
X33316905Y16047381D02*
X33316905Y17047381D01*
X33316905Y17047381D02*
X33697857Y17047381D01*
X33697857Y17047381D02*
X33793095Y16999762D01*
X33793095Y16999762D02*
X33840714Y16952143D01*
X33840714Y16952143D02*
X33888333Y16856905D01*
X33888333Y16856905D02*
X33888333Y16714048D01*
X33888333Y16714048D02*
X33840714Y16618810D01*
X33840714Y16618810D02*
X33793095Y16571191D01*
X33793095Y16571191D02*
X33697857Y16523572D01*
X33697857Y16523572D02*
X33316905Y16523572D01*
X34269286Y16952143D02*
X34316905Y16999762D01*
X34316905Y16999762D02*
X34412143Y17047381D01*
X34412143Y17047381D02*
X34650238Y17047381D01*
X34650238Y17047381D02*
X34745476Y16999762D01*
X34745476Y16999762D02*
X34793095Y16952143D01*
X34793095Y16952143D02*
X34840714Y16856905D01*
X34840714Y16856905D02*
X34840714Y16761667D01*
X34840714Y16761667D02*
X34793095Y16618810D01*
X34793095Y16618810D02*
X34221667Y16047381D01*
X34221667Y16047381D02*
X34840714Y16047381D01*
%TO.C,U2*%
X37738095Y26191381D02*
X37738095Y25381858D01*
X37738095Y25381858D02*
X37785714Y25286620D01*
X37785714Y25286620D02*
X37833333Y25239000D01*
X37833333Y25239000D02*
X37928571Y25191381D01*
X37928571Y25191381D02*
X38119047Y25191381D01*
X38119047Y25191381D02*
X38214285Y25239000D01*
X38214285Y25239000D02*
X38261904Y25286620D01*
X38261904Y25286620D02*
X38309523Y25381858D01*
X38309523Y25381858D02*
X38309523Y26191381D01*
X38738095Y26096143D02*
X38785714Y26143762D01*
X38785714Y26143762D02*
X38880952Y26191381D01*
X38880952Y26191381D02*
X39119047Y26191381D01*
X39119047Y26191381D02*
X39214285Y26143762D01*
X39214285Y26143762D02*
X39261904Y26096143D01*
X39261904Y26096143D02*
X39309523Y26000905D01*
X39309523Y26000905D02*
X39309523Y25905667D01*
X39309523Y25905667D02*
X39261904Y25762810D01*
X39261904Y25762810D02*
X38690476Y25191381D01*
X38690476Y25191381D02*
X39309523Y25191381D01*
%TO.C,Q1*%
X192074761Y59132143D02*
X191979523Y59179762D01*
X191979523Y59179762D02*
X191884285Y59275000D01*
X191884285Y59275000D02*
X191741428Y59417858D01*
X191741428Y59417858D02*
X191646190Y59465477D01*
X191646190Y59465477D02*
X191550952Y59465477D01*
X191598571Y59227381D02*
X191503333Y59275000D01*
X191503333Y59275000D02*
X191408095Y59370239D01*
X191408095Y59370239D02*
X191360476Y59560715D01*
X191360476Y59560715D02*
X191360476Y59894048D01*
X191360476Y59894048D02*
X191408095Y60084524D01*
X191408095Y60084524D02*
X191503333Y60179762D01*
X191503333Y60179762D02*
X191598571Y60227381D01*
X191598571Y60227381D02*
X191789047Y60227381D01*
X191789047Y60227381D02*
X191884285Y60179762D01*
X191884285Y60179762D02*
X191979523Y60084524D01*
X191979523Y60084524D02*
X192027142Y59894048D01*
X192027142Y59894048D02*
X192027142Y59560715D01*
X192027142Y59560715D02*
X191979523Y59370239D01*
X191979523Y59370239D02*
X191884285Y59275000D01*
X191884285Y59275000D02*
X191789047Y59227381D01*
X191789047Y59227381D02*
X191598571Y59227381D01*
X192979523Y59227381D02*
X192408095Y59227381D01*
X192693809Y59227381D02*
X192693809Y60227381D01*
X192693809Y60227381D02*
X192598571Y60084524D01*
X192598571Y60084524D02*
X192503333Y59989286D01*
X192503333Y59989286D02*
X192408095Y59941667D01*
%TO.C,J4*%
X141046666Y60017381D02*
X141046666Y59303096D01*
X141046666Y59303096D02*
X140999047Y59160239D01*
X140999047Y59160239D02*
X140903809Y59065000D01*
X140903809Y59065000D02*
X140760952Y59017381D01*
X140760952Y59017381D02*
X140665714Y59017381D01*
X141951428Y59684048D02*
X141951428Y59017381D01*
X141713333Y60065000D02*
X141475238Y59350715D01*
X141475238Y59350715D02*
X142094285Y59350715D01*
%TO.C,R1*%
X54837619Y26884334D02*
X54361428Y26551001D01*
X54837619Y26312906D02*
X53837619Y26312906D01*
X53837619Y26312906D02*
X53837619Y26693858D01*
X53837619Y26693858D02*
X53885238Y26789096D01*
X53885238Y26789096D02*
X53932857Y26836715D01*
X53932857Y26836715D02*
X54028095Y26884334D01*
X54028095Y26884334D02*
X54170952Y26884334D01*
X54170952Y26884334D02*
X54266190Y26836715D01*
X54266190Y26836715D02*
X54313809Y26789096D01*
X54313809Y26789096D02*
X54361428Y26693858D01*
X54361428Y26693858D02*
X54361428Y26312906D01*
X54837619Y27836715D02*
X54837619Y27265287D01*
X54837619Y27551001D02*
X53837619Y27551001D01*
X53837619Y27551001D02*
X53980476Y27455763D01*
X53980476Y27455763D02*
X54075714Y27360525D01*
X54075714Y27360525D02*
X54123333Y27265287D01*
%TO.C,JP6*%
X167206666Y13352381D02*
X167206666Y12638096D01*
X167206666Y12638096D02*
X167159047Y12495239D01*
X167159047Y12495239D02*
X167063809Y12400000D01*
X167063809Y12400000D02*
X166920952Y12352381D01*
X166920952Y12352381D02*
X166825714Y12352381D01*
X167682857Y12352381D02*
X167682857Y13352381D01*
X167682857Y13352381D02*
X168063809Y13352381D01*
X168063809Y13352381D02*
X168159047Y13304762D01*
X168159047Y13304762D02*
X168206666Y13257143D01*
X168206666Y13257143D02*
X168254285Y13161905D01*
X168254285Y13161905D02*
X168254285Y13019048D01*
X168254285Y13019048D02*
X168206666Y12923810D01*
X168206666Y12923810D02*
X168159047Y12876191D01*
X168159047Y12876191D02*
X168063809Y12828572D01*
X168063809Y12828572D02*
X167682857Y12828572D01*
X169111428Y13352381D02*
X168920952Y13352381D01*
X168920952Y13352381D02*
X168825714Y13304762D01*
X168825714Y13304762D02*
X168778095Y13257143D01*
X168778095Y13257143D02*
X168682857Y13114286D01*
X168682857Y13114286D02*
X168635238Y12923810D01*
X168635238Y12923810D02*
X168635238Y12542858D01*
X168635238Y12542858D02*
X168682857Y12447620D01*
X168682857Y12447620D02*
X168730476Y12400000D01*
X168730476Y12400000D02*
X168825714Y12352381D01*
X168825714Y12352381D02*
X169016190Y12352381D01*
X169016190Y12352381D02*
X169111428Y12400000D01*
X169111428Y12400000D02*
X169159047Y12447620D01*
X169159047Y12447620D02*
X169206666Y12542858D01*
X169206666Y12542858D02*
X169206666Y12780953D01*
X169206666Y12780953D02*
X169159047Y12876191D01*
X169159047Y12876191D02*
X169111428Y12923810D01*
X169111428Y12923810D02*
X169016190Y12971429D01*
X169016190Y12971429D02*
X168825714Y12971429D01*
X168825714Y12971429D02*
X168730476Y12923810D01*
X168730476Y12923810D02*
X168682857Y12876191D01*
X168682857Y12876191D02*
X168635238Y12780953D01*
X166809809Y11082381D02*
X166333619Y11082381D01*
X166333619Y11082381D02*
X166333619Y12082381D01*
X166905048Y10987143D02*
X167666952Y10987143D01*
X167857429Y11368096D02*
X168333619Y11368096D01*
X167762191Y11082381D02*
X168095524Y12082381D01*
X168095524Y12082381D02*
X168428857Y11082381D01*
X168952667Y12082381D02*
X169047905Y12082381D01*
X169047905Y12082381D02*
X169143143Y12034762D01*
X169143143Y12034762D02*
X169190762Y11987143D01*
X169190762Y11987143D02*
X169238381Y11891905D01*
X169238381Y11891905D02*
X169286000Y11701429D01*
X169286000Y11701429D02*
X169286000Y11463334D01*
X169286000Y11463334D02*
X169238381Y11272858D01*
X169238381Y11272858D02*
X169190762Y11177620D01*
X169190762Y11177620D02*
X169143143Y11130000D01*
X169143143Y11130000D02*
X169047905Y11082381D01*
X169047905Y11082381D02*
X168952667Y11082381D01*
X168952667Y11082381D02*
X168857429Y11130000D01*
X168857429Y11130000D02*
X168809810Y11177620D01*
X168809810Y11177620D02*
X168762191Y11272858D01*
X168762191Y11272858D02*
X168714572Y11463334D01*
X168714572Y11463334D02*
X168714572Y11701429D01*
X168714572Y11701429D02*
X168762191Y11891905D01*
X168762191Y11891905D02*
X168809810Y11987143D01*
X168809810Y11987143D02*
X168857429Y12034762D01*
X168857429Y12034762D02*
X168952667Y12082381D01*
X160645714Y11602381D02*
X160074286Y11602381D01*
X160360000Y11602381D02*
X160360000Y12602381D01*
X160360000Y12602381D02*
X160264762Y12459524D01*
X160264762Y12459524D02*
X160169524Y12364286D01*
X160169524Y12364286D02*
X160074286Y12316667D01*
X165226667Y12602381D02*
X165845714Y12602381D01*
X165845714Y12602381D02*
X165512381Y12221429D01*
X165512381Y12221429D02*
X165655238Y12221429D01*
X165655238Y12221429D02*
X165750476Y12173810D01*
X165750476Y12173810D02*
X165798095Y12126191D01*
X165798095Y12126191D02*
X165845714Y12030953D01*
X165845714Y12030953D02*
X165845714Y11792858D01*
X165845714Y11792858D02*
X165798095Y11697620D01*
X165798095Y11697620D02*
X165750476Y11650000D01*
X165750476Y11650000D02*
X165655238Y11602381D01*
X165655238Y11602381D02*
X165369524Y11602381D01*
X165369524Y11602381D02*
X165274286Y11650000D01*
X165274286Y11650000D02*
X165226667Y11697620D01*
%TO.C,U5*%
X178708095Y37157381D02*
X178708095Y36347858D01*
X178708095Y36347858D02*
X178755714Y36252620D01*
X178755714Y36252620D02*
X178803333Y36205000D01*
X178803333Y36205000D02*
X178898571Y36157381D01*
X178898571Y36157381D02*
X179089047Y36157381D01*
X179089047Y36157381D02*
X179184285Y36205000D01*
X179184285Y36205000D02*
X179231904Y36252620D01*
X179231904Y36252620D02*
X179279523Y36347858D01*
X179279523Y36347858D02*
X179279523Y37157381D01*
X180231904Y37157381D02*
X179755714Y37157381D01*
X179755714Y37157381D02*
X179708095Y36681191D01*
X179708095Y36681191D02*
X179755714Y36728810D01*
X179755714Y36728810D02*
X179850952Y36776429D01*
X179850952Y36776429D02*
X180089047Y36776429D01*
X180089047Y36776429D02*
X180184285Y36728810D01*
X180184285Y36728810D02*
X180231904Y36681191D01*
X180231904Y36681191D02*
X180279523Y36585953D01*
X180279523Y36585953D02*
X180279523Y36347858D01*
X180279523Y36347858D02*
X180231904Y36252620D01*
X180231904Y36252620D02*
X180184285Y36205000D01*
X180184285Y36205000D02*
X180089047Y36157381D01*
X180089047Y36157381D02*
X179850952Y36157381D01*
X179850952Y36157381D02*
X179755714Y36205000D01*
X179755714Y36205000D02*
X179708095Y36252620D01*
%TO.C,C2*%
X58018333Y47932620D02*
X57970714Y47885000D01*
X57970714Y47885000D02*
X57827857Y47837381D01*
X57827857Y47837381D02*
X57732619Y47837381D01*
X57732619Y47837381D02*
X57589762Y47885000D01*
X57589762Y47885000D02*
X57494524Y47980239D01*
X57494524Y47980239D02*
X57446905Y48075477D01*
X57446905Y48075477D02*
X57399286Y48265953D01*
X57399286Y48265953D02*
X57399286Y48408810D01*
X57399286Y48408810D02*
X57446905Y48599286D01*
X57446905Y48599286D02*
X57494524Y48694524D01*
X57494524Y48694524D02*
X57589762Y48789762D01*
X57589762Y48789762D02*
X57732619Y48837381D01*
X57732619Y48837381D02*
X57827857Y48837381D01*
X57827857Y48837381D02*
X57970714Y48789762D01*
X57970714Y48789762D02*
X58018333Y48742143D01*
X58399286Y48742143D02*
X58446905Y48789762D01*
X58446905Y48789762D02*
X58542143Y48837381D01*
X58542143Y48837381D02*
X58780238Y48837381D01*
X58780238Y48837381D02*
X58875476Y48789762D01*
X58875476Y48789762D02*
X58923095Y48742143D01*
X58923095Y48742143D02*
X58970714Y48646905D01*
X58970714Y48646905D02*
X58970714Y48551667D01*
X58970714Y48551667D02*
X58923095Y48408810D01*
X58923095Y48408810D02*
X58351667Y47837381D01*
X58351667Y47837381D02*
X58970714Y47837381D01*
%TO.C,R5*%
X108818333Y14047381D02*
X108485000Y14523572D01*
X108246905Y14047381D02*
X108246905Y15047381D01*
X108246905Y15047381D02*
X108627857Y15047381D01*
X108627857Y15047381D02*
X108723095Y14999762D01*
X108723095Y14999762D02*
X108770714Y14952143D01*
X108770714Y14952143D02*
X108818333Y14856905D01*
X108818333Y14856905D02*
X108818333Y14714048D01*
X108818333Y14714048D02*
X108770714Y14618810D01*
X108770714Y14618810D02*
X108723095Y14571191D01*
X108723095Y14571191D02*
X108627857Y14523572D01*
X108627857Y14523572D02*
X108246905Y14523572D01*
X109723095Y15047381D02*
X109246905Y15047381D01*
X109246905Y15047381D02*
X109199286Y14571191D01*
X109199286Y14571191D02*
X109246905Y14618810D01*
X109246905Y14618810D02*
X109342143Y14666429D01*
X109342143Y14666429D02*
X109580238Y14666429D01*
X109580238Y14666429D02*
X109675476Y14618810D01*
X109675476Y14618810D02*
X109723095Y14571191D01*
X109723095Y14571191D02*
X109770714Y14475953D01*
X109770714Y14475953D02*
X109770714Y14237858D01*
X109770714Y14237858D02*
X109723095Y14142620D01*
X109723095Y14142620D02*
X109675476Y14095000D01*
X109675476Y14095000D02*
X109580238Y14047381D01*
X109580238Y14047381D02*
X109342143Y14047381D01*
X109342143Y14047381D02*
X109246905Y14095000D01*
X109246905Y14095000D02*
X109199286Y14142620D01*
%TO.C,H2*%
X8738095Y64537381D02*
X8738095Y65537381D01*
X8738095Y65061191D02*
X9309523Y65061191D01*
X9309523Y64537381D02*
X9309523Y65537381D01*
X9738095Y65442143D02*
X9785714Y65489762D01*
X9785714Y65489762D02*
X9880952Y65537381D01*
X9880952Y65537381D02*
X10119047Y65537381D01*
X10119047Y65537381D02*
X10214285Y65489762D01*
X10214285Y65489762D02*
X10261904Y65442143D01*
X10261904Y65442143D02*
X10309523Y65346905D01*
X10309523Y65346905D02*
X10309523Y65251667D01*
X10309523Y65251667D02*
X10261904Y65108810D01*
X10261904Y65108810D02*
X9690476Y64537381D01*
X9690476Y64537381D02*
X10309523Y64537381D01*
%TO.C,R3*%
X75798333Y28952381D02*
X75465000Y29428572D01*
X75226905Y28952381D02*
X75226905Y29952381D01*
X75226905Y29952381D02*
X75607857Y29952381D01*
X75607857Y29952381D02*
X75703095Y29904762D01*
X75703095Y29904762D02*
X75750714Y29857143D01*
X75750714Y29857143D02*
X75798333Y29761905D01*
X75798333Y29761905D02*
X75798333Y29619048D01*
X75798333Y29619048D02*
X75750714Y29523810D01*
X75750714Y29523810D02*
X75703095Y29476191D01*
X75703095Y29476191D02*
X75607857Y29428572D01*
X75607857Y29428572D02*
X75226905Y29428572D01*
X76131667Y29952381D02*
X76750714Y29952381D01*
X76750714Y29952381D02*
X76417381Y29571429D01*
X76417381Y29571429D02*
X76560238Y29571429D01*
X76560238Y29571429D02*
X76655476Y29523810D01*
X76655476Y29523810D02*
X76703095Y29476191D01*
X76703095Y29476191D02*
X76750714Y29380953D01*
X76750714Y29380953D02*
X76750714Y29142858D01*
X76750714Y29142858D02*
X76703095Y29047620D01*
X76703095Y29047620D02*
X76655476Y29000000D01*
X76655476Y29000000D02*
X76560238Y28952381D01*
X76560238Y28952381D02*
X76274524Y28952381D01*
X76274524Y28952381D02*
X76179286Y29000000D01*
X76179286Y29000000D02*
X76131667Y29047620D01*
%TO.C,JP3*%
X31052666Y62767381D02*
X31052666Y62053096D01*
X31052666Y62053096D02*
X31005047Y61910239D01*
X31005047Y61910239D02*
X30909809Y61815000D01*
X30909809Y61815000D02*
X30766952Y61767381D01*
X30766952Y61767381D02*
X30671714Y61767381D01*
X31528857Y61767381D02*
X31528857Y62767381D01*
X31528857Y62767381D02*
X31909809Y62767381D01*
X31909809Y62767381D02*
X32005047Y62719762D01*
X32005047Y62719762D02*
X32052666Y62672143D01*
X32052666Y62672143D02*
X32100285Y62576905D01*
X32100285Y62576905D02*
X32100285Y62434048D01*
X32100285Y62434048D02*
X32052666Y62338810D01*
X32052666Y62338810D02*
X32005047Y62291191D01*
X32005047Y62291191D02*
X31909809Y62243572D01*
X31909809Y62243572D02*
X31528857Y62243572D01*
X32433619Y62767381D02*
X33052666Y62767381D01*
X33052666Y62767381D02*
X32719333Y62386429D01*
X32719333Y62386429D02*
X32862190Y62386429D01*
X32862190Y62386429D02*
X32957428Y62338810D01*
X32957428Y62338810D02*
X33005047Y62291191D01*
X33005047Y62291191D02*
X33052666Y62195953D01*
X33052666Y62195953D02*
X33052666Y61957858D01*
X33052666Y61957858D02*
X33005047Y61862620D01*
X33005047Y61862620D02*
X32957428Y61815000D01*
X32957428Y61815000D02*
X32862190Y61767381D01*
X32862190Y61767381D02*
X32576476Y61767381D01*
X32576476Y61767381D02*
X32481238Y61815000D01*
X32481238Y61815000D02*
X32433619Y61862620D01*
X30314571Y60545000D02*
X30457428Y60497381D01*
X30457428Y60497381D02*
X30695523Y60497381D01*
X30695523Y60497381D02*
X30790761Y60545000D01*
X30790761Y60545000D02*
X30838380Y60592620D01*
X30838380Y60592620D02*
X30885999Y60687858D01*
X30885999Y60687858D02*
X30885999Y60783096D01*
X30885999Y60783096D02*
X30838380Y60878334D01*
X30838380Y60878334D02*
X30790761Y60925953D01*
X30790761Y60925953D02*
X30695523Y60973572D01*
X30695523Y60973572D02*
X30505047Y61021191D01*
X30505047Y61021191D02*
X30409809Y61068810D01*
X30409809Y61068810D02*
X30362190Y61116429D01*
X30362190Y61116429D02*
X30314571Y61211667D01*
X30314571Y61211667D02*
X30314571Y61306905D01*
X30314571Y61306905D02*
X30362190Y61402143D01*
X30362190Y61402143D02*
X30409809Y61449762D01*
X30409809Y61449762D02*
X30505047Y61497381D01*
X30505047Y61497381D02*
X30743142Y61497381D01*
X30743142Y61497381D02*
X30885999Y61449762D01*
X31076476Y60402143D02*
X31838380Y60402143D01*
X32028857Y60783096D02*
X32505047Y60783096D01*
X31933619Y60497381D02*
X32266952Y61497381D01*
X32266952Y61497381D02*
X32600285Y60497381D01*
X33124095Y61497381D02*
X33219333Y61497381D01*
X33219333Y61497381D02*
X33314571Y61449762D01*
X33314571Y61449762D02*
X33362190Y61402143D01*
X33362190Y61402143D02*
X33409809Y61306905D01*
X33409809Y61306905D02*
X33457428Y61116429D01*
X33457428Y61116429D02*
X33457428Y60878334D01*
X33457428Y60878334D02*
X33409809Y60687858D01*
X33409809Y60687858D02*
X33362190Y60592620D01*
X33362190Y60592620D02*
X33314571Y60545000D01*
X33314571Y60545000D02*
X33219333Y60497381D01*
X33219333Y60497381D02*
X33124095Y60497381D01*
X33124095Y60497381D02*
X33028857Y60545000D01*
X33028857Y60545000D02*
X32981238Y60592620D01*
X32981238Y60592620D02*
X32933619Y60687858D01*
X32933619Y60687858D02*
X32886000Y60878334D01*
X32886000Y60878334D02*
X32886000Y61116429D01*
X32886000Y61116429D02*
X32933619Y61306905D01*
X32933619Y61306905D02*
X32981238Y61402143D01*
X32981238Y61402143D02*
X33028857Y61449762D01*
X33028857Y61449762D02*
X33124095Y61497381D01*
X24110714Y61132381D02*
X23539286Y61132381D01*
X23825000Y61132381D02*
X23825000Y62132381D01*
X23825000Y62132381D02*
X23729762Y61989524D01*
X23729762Y61989524D02*
X23634524Y61894286D01*
X23634524Y61894286D02*
X23539286Y61846667D01*
X28691667Y62132381D02*
X29310714Y62132381D01*
X29310714Y62132381D02*
X28977381Y61751429D01*
X28977381Y61751429D02*
X29120238Y61751429D01*
X29120238Y61751429D02*
X29215476Y61703810D01*
X29215476Y61703810D02*
X29263095Y61656191D01*
X29263095Y61656191D02*
X29310714Y61560953D01*
X29310714Y61560953D02*
X29310714Y61322858D01*
X29310714Y61322858D02*
X29263095Y61227620D01*
X29263095Y61227620D02*
X29215476Y61180000D01*
X29215476Y61180000D02*
X29120238Y61132381D01*
X29120238Y61132381D02*
X28834524Y61132381D01*
X28834524Y61132381D02*
X28739286Y61180000D01*
X28739286Y61180000D02*
X28691667Y61227620D01*
%TO.C,R10*%
X201687142Y32303381D02*
X201353809Y32779572D01*
X201115714Y32303381D02*
X201115714Y33303381D01*
X201115714Y33303381D02*
X201496666Y33303381D01*
X201496666Y33303381D02*
X201591904Y33255762D01*
X201591904Y33255762D02*
X201639523Y33208143D01*
X201639523Y33208143D02*
X201687142Y33112905D01*
X201687142Y33112905D02*
X201687142Y32970048D01*
X201687142Y32970048D02*
X201639523Y32874810D01*
X201639523Y32874810D02*
X201591904Y32827191D01*
X201591904Y32827191D02*
X201496666Y32779572D01*
X201496666Y32779572D02*
X201115714Y32779572D01*
X202639523Y32303381D02*
X202068095Y32303381D01*
X202353809Y32303381D02*
X202353809Y33303381D01*
X202353809Y33303381D02*
X202258571Y33160524D01*
X202258571Y33160524D02*
X202163333Y33065286D01*
X202163333Y33065286D02*
X202068095Y33017667D01*
X203258571Y33303381D02*
X203353809Y33303381D01*
X203353809Y33303381D02*
X203449047Y33255762D01*
X203449047Y33255762D02*
X203496666Y33208143D01*
X203496666Y33208143D02*
X203544285Y33112905D01*
X203544285Y33112905D02*
X203591904Y32922429D01*
X203591904Y32922429D02*
X203591904Y32684334D01*
X203591904Y32684334D02*
X203544285Y32493858D01*
X203544285Y32493858D02*
X203496666Y32398620D01*
X203496666Y32398620D02*
X203449047Y32351000D01*
X203449047Y32351000D02*
X203353809Y32303381D01*
X203353809Y32303381D02*
X203258571Y32303381D01*
X203258571Y32303381D02*
X203163333Y32351000D01*
X203163333Y32351000D02*
X203115714Y32398620D01*
X203115714Y32398620D02*
X203068095Y32493858D01*
X203068095Y32493858D02*
X203020476Y32684334D01*
X203020476Y32684334D02*
X203020476Y32922429D01*
X203020476Y32922429D02*
X203068095Y33112905D01*
X203068095Y33112905D02*
X203115714Y33208143D01*
X203115714Y33208143D02*
X203163333Y33255762D01*
X203163333Y33255762D02*
X203258571Y33303381D01*
%TO.C,U1*%
X79902095Y2569381D02*
X79902095Y1759858D01*
X79902095Y1759858D02*
X79949714Y1664620D01*
X79949714Y1664620D02*
X79997333Y1617000D01*
X79997333Y1617000D02*
X80092571Y1569381D01*
X80092571Y1569381D02*
X80283047Y1569381D01*
X80283047Y1569381D02*
X80378285Y1617000D01*
X80378285Y1617000D02*
X80425904Y1664620D01*
X80425904Y1664620D02*
X80473523Y1759858D01*
X80473523Y1759858D02*
X80473523Y2569381D01*
X81473523Y1569381D02*
X80902095Y1569381D01*
X81187809Y1569381D02*
X81187809Y2569381D01*
X81187809Y2569381D02*
X81092571Y2426524D01*
X81092571Y2426524D02*
X80997333Y2331286D01*
X80997333Y2331286D02*
X80902095Y2283667D01*
%TO.C,R8*%
X192003333Y32303381D02*
X191670000Y32779572D01*
X191431905Y32303381D02*
X191431905Y33303381D01*
X191431905Y33303381D02*
X191812857Y33303381D01*
X191812857Y33303381D02*
X191908095Y33255762D01*
X191908095Y33255762D02*
X191955714Y33208143D01*
X191955714Y33208143D02*
X192003333Y33112905D01*
X192003333Y33112905D02*
X192003333Y32970048D01*
X192003333Y32970048D02*
X191955714Y32874810D01*
X191955714Y32874810D02*
X191908095Y32827191D01*
X191908095Y32827191D02*
X191812857Y32779572D01*
X191812857Y32779572D02*
X191431905Y32779572D01*
X192574762Y32874810D02*
X192479524Y32922429D01*
X192479524Y32922429D02*
X192431905Y32970048D01*
X192431905Y32970048D02*
X192384286Y33065286D01*
X192384286Y33065286D02*
X192384286Y33112905D01*
X192384286Y33112905D02*
X192431905Y33208143D01*
X192431905Y33208143D02*
X192479524Y33255762D01*
X192479524Y33255762D02*
X192574762Y33303381D01*
X192574762Y33303381D02*
X192765238Y33303381D01*
X192765238Y33303381D02*
X192860476Y33255762D01*
X192860476Y33255762D02*
X192908095Y33208143D01*
X192908095Y33208143D02*
X192955714Y33112905D01*
X192955714Y33112905D02*
X192955714Y33065286D01*
X192955714Y33065286D02*
X192908095Y32970048D01*
X192908095Y32970048D02*
X192860476Y32922429D01*
X192860476Y32922429D02*
X192765238Y32874810D01*
X192765238Y32874810D02*
X192574762Y32874810D01*
X192574762Y32874810D02*
X192479524Y32827191D01*
X192479524Y32827191D02*
X192431905Y32779572D01*
X192431905Y32779572D02*
X192384286Y32684334D01*
X192384286Y32684334D02*
X192384286Y32493858D01*
X192384286Y32493858D02*
X192431905Y32398620D01*
X192431905Y32398620D02*
X192479524Y32351000D01*
X192479524Y32351000D02*
X192574762Y32303381D01*
X192574762Y32303381D02*
X192765238Y32303381D01*
X192765238Y32303381D02*
X192860476Y32351000D01*
X192860476Y32351000D02*
X192908095Y32398620D01*
X192908095Y32398620D02*
X192955714Y32493858D01*
X192955714Y32493858D02*
X192955714Y32684334D01*
X192955714Y32684334D02*
X192908095Y32779572D01*
X192908095Y32779572D02*
X192860476Y32827191D01*
X192860476Y32827191D02*
X192765238Y32874810D01*
%TO.C,H1*%
X4238095Y8427381D02*
X4238095Y9427381D01*
X4238095Y8951191D02*
X4809523Y8951191D01*
X4809523Y8427381D02*
X4809523Y9427381D01*
X5809523Y8427381D02*
X5238095Y8427381D01*
X5523809Y8427381D02*
X5523809Y9427381D01*
X5523809Y9427381D02*
X5428571Y9284524D01*
X5428571Y9284524D02*
X5333333Y9189286D01*
X5333333Y9189286D02*
X5238095Y9141667D01*
D15*
%TO.C,SW1*%
X13926667Y8729000D02*
X14069524Y8681381D01*
X14069524Y8681381D02*
X14307619Y8681381D01*
X14307619Y8681381D02*
X14402857Y8729000D01*
X14402857Y8729000D02*
X14450476Y8776620D01*
X14450476Y8776620D02*
X14498095Y8871858D01*
X14498095Y8871858D02*
X14498095Y8967096D01*
X14498095Y8967096D02*
X14450476Y9062334D01*
X14450476Y9062334D02*
X14402857Y9109953D01*
X14402857Y9109953D02*
X14307619Y9157572D01*
X14307619Y9157572D02*
X14117143Y9205191D01*
X14117143Y9205191D02*
X14021905Y9252810D01*
X14021905Y9252810D02*
X13974286Y9300429D01*
X13974286Y9300429D02*
X13926667Y9395667D01*
X13926667Y9395667D02*
X13926667Y9490905D01*
X13926667Y9490905D02*
X13974286Y9586143D01*
X13974286Y9586143D02*
X14021905Y9633762D01*
X14021905Y9633762D02*
X14117143Y9681381D01*
X14117143Y9681381D02*
X14355238Y9681381D01*
X14355238Y9681381D02*
X14498095Y9633762D01*
X14831429Y9681381D02*
X15069524Y8681381D01*
X15069524Y8681381D02*
X15260000Y9395667D01*
X15260000Y9395667D02*
X15450476Y8681381D01*
X15450476Y8681381D02*
X15688572Y9681381D01*
X16593333Y8681381D02*
X16021905Y8681381D01*
X16307619Y8681381D02*
X16307619Y9681381D01*
X16307619Y9681381D02*
X16212381Y9538524D01*
X16212381Y9538524D02*
X16117143Y9443286D01*
X16117143Y9443286D02*
X16021905Y9395667D01*
D11*
%TO.C,PL1*%
X36722143Y2077381D02*
X36722143Y3077381D01*
X36722143Y3077381D02*
X37103095Y3077381D01*
X37103095Y3077381D02*
X37198333Y3029762D01*
X37198333Y3029762D02*
X37245952Y2982143D01*
X37245952Y2982143D02*
X37293571Y2886905D01*
X37293571Y2886905D02*
X37293571Y2744048D01*
X37293571Y2744048D02*
X37245952Y2648810D01*
X37245952Y2648810D02*
X37198333Y2601191D01*
X37198333Y2601191D02*
X37103095Y2553572D01*
X37103095Y2553572D02*
X36722143Y2553572D01*
X38198333Y2077381D02*
X37722143Y2077381D01*
X37722143Y2077381D02*
X37722143Y3077381D01*
X39055476Y2077381D02*
X38484048Y2077381D01*
X38769762Y2077381D02*
X38769762Y3077381D01*
X38769762Y3077381D02*
X38674524Y2934524D01*
X38674524Y2934524D02*
X38579286Y2839286D01*
X38579286Y2839286D02*
X38484048Y2791667D01*
%TO.C,JP2*%
X31052666Y59719381D02*
X31052666Y59005096D01*
X31052666Y59005096D02*
X31005047Y58862239D01*
X31005047Y58862239D02*
X30909809Y58767000D01*
X30909809Y58767000D02*
X30766952Y58719381D01*
X30766952Y58719381D02*
X30671714Y58719381D01*
X31528857Y58719381D02*
X31528857Y59719381D01*
X31528857Y59719381D02*
X31909809Y59719381D01*
X31909809Y59719381D02*
X32005047Y59671762D01*
X32005047Y59671762D02*
X32052666Y59624143D01*
X32052666Y59624143D02*
X32100285Y59528905D01*
X32100285Y59528905D02*
X32100285Y59386048D01*
X32100285Y59386048D02*
X32052666Y59290810D01*
X32052666Y59290810D02*
X32005047Y59243191D01*
X32005047Y59243191D02*
X31909809Y59195572D01*
X31909809Y59195572D02*
X31528857Y59195572D01*
X32481238Y59624143D02*
X32528857Y59671762D01*
X32528857Y59671762D02*
X32624095Y59719381D01*
X32624095Y59719381D02*
X32862190Y59719381D01*
X32862190Y59719381D02*
X32957428Y59671762D01*
X32957428Y59671762D02*
X33005047Y59624143D01*
X33005047Y59624143D02*
X33052666Y59528905D01*
X33052666Y59528905D02*
X33052666Y59433667D01*
X33052666Y59433667D02*
X33005047Y59290810D01*
X33005047Y59290810D02*
X32433619Y58719381D01*
X32433619Y58719381D02*
X33052666Y58719381D01*
X30314571Y57497000D02*
X30457428Y57449381D01*
X30457428Y57449381D02*
X30695523Y57449381D01*
X30695523Y57449381D02*
X30790761Y57497000D01*
X30790761Y57497000D02*
X30838380Y57544620D01*
X30838380Y57544620D02*
X30885999Y57639858D01*
X30885999Y57639858D02*
X30885999Y57735096D01*
X30885999Y57735096D02*
X30838380Y57830334D01*
X30838380Y57830334D02*
X30790761Y57877953D01*
X30790761Y57877953D02*
X30695523Y57925572D01*
X30695523Y57925572D02*
X30505047Y57973191D01*
X30505047Y57973191D02*
X30409809Y58020810D01*
X30409809Y58020810D02*
X30362190Y58068429D01*
X30362190Y58068429D02*
X30314571Y58163667D01*
X30314571Y58163667D02*
X30314571Y58258905D01*
X30314571Y58258905D02*
X30362190Y58354143D01*
X30362190Y58354143D02*
X30409809Y58401762D01*
X30409809Y58401762D02*
X30505047Y58449381D01*
X30505047Y58449381D02*
X30743142Y58449381D01*
X30743142Y58449381D02*
X30885999Y58401762D01*
X31076476Y57354143D02*
X31838380Y57354143D01*
X32028857Y57735096D02*
X32505047Y57735096D01*
X31933619Y57449381D02*
X32266952Y58449381D01*
X32266952Y58449381D02*
X32600285Y57449381D01*
X33457428Y57449381D02*
X32886000Y57449381D01*
X33171714Y57449381D02*
X33171714Y58449381D01*
X33171714Y58449381D02*
X33076476Y58306524D01*
X33076476Y58306524D02*
X32981238Y58211286D01*
X32981238Y58211286D02*
X32886000Y58163667D01*
X28691667Y58957381D02*
X29310714Y58957381D01*
X29310714Y58957381D02*
X28977381Y58576429D01*
X28977381Y58576429D02*
X29120238Y58576429D01*
X29120238Y58576429D02*
X29215476Y58528810D01*
X29215476Y58528810D02*
X29263095Y58481191D01*
X29263095Y58481191D02*
X29310714Y58385953D01*
X29310714Y58385953D02*
X29310714Y58147858D01*
X29310714Y58147858D02*
X29263095Y58052620D01*
X29263095Y58052620D02*
X29215476Y58005000D01*
X29215476Y58005000D02*
X29120238Y57957381D01*
X29120238Y57957381D02*
X28834524Y57957381D01*
X28834524Y57957381D02*
X28739286Y58005000D01*
X28739286Y58005000D02*
X28691667Y58052620D01*
X24110714Y57957381D02*
X23539286Y57957381D01*
X23825000Y57957381D02*
X23825000Y58957381D01*
X23825000Y58957381D02*
X23729762Y58814524D01*
X23729762Y58814524D02*
X23634524Y58719286D01*
X23634524Y58719286D02*
X23539286Y58671667D01*
%TO.C,JP1*%
X31052666Y56671381D02*
X31052666Y55957096D01*
X31052666Y55957096D02*
X31005047Y55814239D01*
X31005047Y55814239D02*
X30909809Y55719000D01*
X30909809Y55719000D02*
X30766952Y55671381D01*
X30766952Y55671381D02*
X30671714Y55671381D01*
X31528857Y55671381D02*
X31528857Y56671381D01*
X31528857Y56671381D02*
X31909809Y56671381D01*
X31909809Y56671381D02*
X32005047Y56623762D01*
X32005047Y56623762D02*
X32052666Y56576143D01*
X32052666Y56576143D02*
X32100285Y56480905D01*
X32100285Y56480905D02*
X32100285Y56338048D01*
X32100285Y56338048D02*
X32052666Y56242810D01*
X32052666Y56242810D02*
X32005047Y56195191D01*
X32005047Y56195191D02*
X31909809Y56147572D01*
X31909809Y56147572D02*
X31528857Y56147572D01*
X33052666Y55671381D02*
X32481238Y55671381D01*
X32766952Y55671381D02*
X32766952Y56671381D01*
X32766952Y56671381D02*
X32671714Y56528524D01*
X32671714Y56528524D02*
X32576476Y56433286D01*
X32576476Y56433286D02*
X32481238Y56385667D01*
X30284571Y54449000D02*
X30427428Y54401381D01*
X30427428Y54401381D02*
X30665523Y54401381D01*
X30665523Y54401381D02*
X30760761Y54449000D01*
X30760761Y54449000D02*
X30808380Y54496620D01*
X30808380Y54496620D02*
X30855999Y54591858D01*
X30855999Y54591858D02*
X30855999Y54687096D01*
X30855999Y54687096D02*
X30808380Y54782334D01*
X30808380Y54782334D02*
X30760761Y54829953D01*
X30760761Y54829953D02*
X30665523Y54877572D01*
X30665523Y54877572D02*
X30475047Y54925191D01*
X30475047Y54925191D02*
X30379809Y54972810D01*
X30379809Y54972810D02*
X30332190Y55020429D01*
X30332190Y55020429D02*
X30284571Y55115667D01*
X30284571Y55115667D02*
X30284571Y55210905D01*
X30284571Y55210905D02*
X30332190Y55306143D01*
X30332190Y55306143D02*
X30379809Y55353762D01*
X30379809Y55353762D02*
X30475047Y55401381D01*
X30475047Y55401381D02*
X30713142Y55401381D01*
X30713142Y55401381D02*
X30855999Y55353762D01*
X31046476Y54306143D02*
X31808380Y54306143D01*
X31998857Y54687096D02*
X32475047Y54687096D01*
X31903619Y54401381D02*
X32236952Y55401381D01*
X32236952Y55401381D02*
X32570285Y54401381D01*
X32856000Y55306143D02*
X32903619Y55353762D01*
X32903619Y55353762D02*
X32998857Y55401381D01*
X32998857Y55401381D02*
X33236952Y55401381D01*
X33236952Y55401381D02*
X33332190Y55353762D01*
X33332190Y55353762D02*
X33379809Y55306143D01*
X33379809Y55306143D02*
X33427428Y55210905D01*
X33427428Y55210905D02*
X33427428Y55115667D01*
X33427428Y55115667D02*
X33379809Y54972810D01*
X33379809Y54972810D02*
X32808381Y54401381D01*
X32808381Y54401381D02*
X33427428Y54401381D01*
X28691667Y55782381D02*
X29310714Y55782381D01*
X29310714Y55782381D02*
X28977381Y55401429D01*
X28977381Y55401429D02*
X29120238Y55401429D01*
X29120238Y55401429D02*
X29215476Y55353810D01*
X29215476Y55353810D02*
X29263095Y55306191D01*
X29263095Y55306191D02*
X29310714Y55210953D01*
X29310714Y55210953D02*
X29310714Y54972858D01*
X29310714Y54972858D02*
X29263095Y54877620D01*
X29263095Y54877620D02*
X29215476Y54830000D01*
X29215476Y54830000D02*
X29120238Y54782381D01*
X29120238Y54782381D02*
X28834524Y54782381D01*
X28834524Y54782381D02*
X28739286Y54830000D01*
X28739286Y54830000D02*
X28691667Y54877620D01*
X24110714Y54782381D02*
X23539286Y54782381D01*
X23825000Y54782381D02*
X23825000Y55782381D01*
X23825000Y55782381D02*
X23729762Y55639524D01*
X23729762Y55639524D02*
X23634524Y55544286D01*
X23634524Y55544286D02*
X23539286Y55496667D01*
%TO.C,H5*%
X232238095Y8237381D02*
X232238095Y9237381D01*
X232238095Y8761191D02*
X232809523Y8761191D01*
X232809523Y8237381D02*
X232809523Y9237381D01*
X233761904Y9237381D02*
X233285714Y9237381D01*
X233285714Y9237381D02*
X233238095Y8761191D01*
X233238095Y8761191D02*
X233285714Y8808810D01*
X233285714Y8808810D02*
X233380952Y8856429D01*
X233380952Y8856429D02*
X233619047Y8856429D01*
X233619047Y8856429D02*
X233714285Y8808810D01*
X233714285Y8808810D02*
X233761904Y8761191D01*
X233761904Y8761191D02*
X233809523Y8665953D01*
X233809523Y8665953D02*
X233809523Y8427858D01*
X233809523Y8427858D02*
X233761904Y8332620D01*
X233761904Y8332620D02*
X233714285Y8285000D01*
X233714285Y8285000D02*
X233619047Y8237381D01*
X233619047Y8237381D02*
X233380952Y8237381D01*
X233380952Y8237381D02*
X233285714Y8285000D01*
X233285714Y8285000D02*
X233238095Y8332620D01*
%TO.C,H6*%
X148738095Y45237381D02*
X148738095Y46237381D01*
X148738095Y45761191D02*
X149309523Y45761191D01*
X149309523Y45237381D02*
X149309523Y46237381D01*
X150214285Y46237381D02*
X150023809Y46237381D01*
X150023809Y46237381D02*
X149928571Y46189762D01*
X149928571Y46189762D02*
X149880952Y46142143D01*
X149880952Y46142143D02*
X149785714Y45999286D01*
X149785714Y45999286D02*
X149738095Y45808810D01*
X149738095Y45808810D02*
X149738095Y45427858D01*
X149738095Y45427858D02*
X149785714Y45332620D01*
X149785714Y45332620D02*
X149833333Y45285000D01*
X149833333Y45285000D02*
X149928571Y45237381D01*
X149928571Y45237381D02*
X150119047Y45237381D01*
X150119047Y45237381D02*
X150214285Y45285000D01*
X150214285Y45285000D02*
X150261904Y45332620D01*
X150261904Y45332620D02*
X150309523Y45427858D01*
X150309523Y45427858D02*
X150309523Y45665953D01*
X150309523Y45665953D02*
X150261904Y45761191D01*
X150261904Y45761191D02*
X150214285Y45808810D01*
X150214285Y45808810D02*
X150119047Y45856429D01*
X150119047Y45856429D02*
X149928571Y45856429D01*
X149928571Y45856429D02*
X149833333Y45808810D01*
X149833333Y45808810D02*
X149785714Y45761191D01*
X149785714Y45761191D02*
X149738095Y45665953D01*
%TO.C,Q3*%
X202234761Y59132143D02*
X202139523Y59179762D01*
X202139523Y59179762D02*
X202044285Y59275000D01*
X202044285Y59275000D02*
X201901428Y59417858D01*
X201901428Y59417858D02*
X201806190Y59465477D01*
X201806190Y59465477D02*
X201710952Y59465477D01*
X201758571Y59227381D02*
X201663333Y59275000D01*
X201663333Y59275000D02*
X201568095Y59370239D01*
X201568095Y59370239D02*
X201520476Y59560715D01*
X201520476Y59560715D02*
X201520476Y59894048D01*
X201520476Y59894048D02*
X201568095Y60084524D01*
X201568095Y60084524D02*
X201663333Y60179762D01*
X201663333Y60179762D02*
X201758571Y60227381D01*
X201758571Y60227381D02*
X201949047Y60227381D01*
X201949047Y60227381D02*
X202044285Y60179762D01*
X202044285Y60179762D02*
X202139523Y60084524D01*
X202139523Y60084524D02*
X202187142Y59894048D01*
X202187142Y59894048D02*
X202187142Y59560715D01*
X202187142Y59560715D02*
X202139523Y59370239D01*
X202139523Y59370239D02*
X202044285Y59275000D01*
X202044285Y59275000D02*
X201949047Y59227381D01*
X201949047Y59227381D02*
X201758571Y59227381D01*
X202520476Y60227381D02*
X203139523Y60227381D01*
X203139523Y60227381D02*
X202806190Y59846429D01*
X202806190Y59846429D02*
X202949047Y59846429D01*
X202949047Y59846429D02*
X203044285Y59798810D01*
X203044285Y59798810D02*
X203091904Y59751191D01*
X203091904Y59751191D02*
X203139523Y59655953D01*
X203139523Y59655953D02*
X203139523Y59417858D01*
X203139523Y59417858D02*
X203091904Y59322620D01*
X203091904Y59322620D02*
X203044285Y59275000D01*
X203044285Y59275000D02*
X202949047Y59227381D01*
X202949047Y59227381D02*
X202663333Y59227381D01*
X202663333Y59227381D02*
X202568095Y59275000D01*
X202568095Y59275000D02*
X202520476Y59322620D01*
%TO.C,J1*%
X133416666Y60017381D02*
X133416666Y59303096D01*
X133416666Y59303096D02*
X133369047Y59160239D01*
X133369047Y59160239D02*
X133273809Y59065000D01*
X133273809Y59065000D02*
X133130952Y59017381D01*
X133130952Y59017381D02*
X133035714Y59017381D01*
X134416666Y59017381D02*
X133845238Y59017381D01*
X134130952Y59017381D02*
X134130952Y60017381D01*
X134130952Y60017381D02*
X134035714Y59874524D01*
X134035714Y59874524D02*
X133940476Y59779286D01*
X133940476Y59779286D02*
X133845238Y59731667D01*
%TO.C,J6*%
X121351666Y65732381D02*
X121351666Y65018096D01*
X121351666Y65018096D02*
X121304047Y64875239D01*
X121304047Y64875239D02*
X121208809Y64780000D01*
X121208809Y64780000D02*
X121065952Y64732381D01*
X121065952Y64732381D02*
X120970714Y64732381D01*
X122256428Y65732381D02*
X122065952Y65732381D01*
X122065952Y65732381D02*
X121970714Y65684762D01*
X121970714Y65684762D02*
X121923095Y65637143D01*
X121923095Y65637143D02*
X121827857Y65494286D01*
X121827857Y65494286D02*
X121780238Y65303810D01*
X121780238Y65303810D02*
X121780238Y64922858D01*
X121780238Y64922858D02*
X121827857Y64827620D01*
X121827857Y64827620D02*
X121875476Y64780000D01*
X121875476Y64780000D02*
X121970714Y64732381D01*
X121970714Y64732381D02*
X122161190Y64732381D01*
X122161190Y64732381D02*
X122256428Y64780000D01*
X122256428Y64780000D02*
X122304047Y64827620D01*
X122304047Y64827620D02*
X122351666Y64922858D01*
X122351666Y64922858D02*
X122351666Y65160953D01*
X122351666Y65160953D02*
X122304047Y65256191D01*
X122304047Y65256191D02*
X122256428Y65303810D01*
X122256428Y65303810D02*
X122161190Y65351429D01*
X122161190Y65351429D02*
X121970714Y65351429D01*
X121970714Y65351429D02*
X121875476Y65303810D01*
X121875476Y65303810D02*
X121827857Y65256191D01*
X121827857Y65256191D02*
X121780238Y65160953D01*
%TO.C,IC1*%
X62288810Y47797381D02*
X62288810Y48797381D01*
X63336428Y47892620D02*
X63288809Y47845000D01*
X63288809Y47845000D02*
X63145952Y47797381D01*
X63145952Y47797381D02*
X63050714Y47797381D01*
X63050714Y47797381D02*
X62907857Y47845000D01*
X62907857Y47845000D02*
X62812619Y47940239D01*
X62812619Y47940239D02*
X62765000Y48035477D01*
X62765000Y48035477D02*
X62717381Y48225953D01*
X62717381Y48225953D02*
X62717381Y48368810D01*
X62717381Y48368810D02*
X62765000Y48559286D01*
X62765000Y48559286D02*
X62812619Y48654524D01*
X62812619Y48654524D02*
X62907857Y48749762D01*
X62907857Y48749762D02*
X63050714Y48797381D01*
X63050714Y48797381D02*
X63145952Y48797381D01*
X63145952Y48797381D02*
X63288809Y48749762D01*
X63288809Y48749762D02*
X63336428Y48702143D01*
X64288809Y47797381D02*
X63717381Y47797381D01*
X64003095Y47797381D02*
X64003095Y48797381D01*
X64003095Y48797381D02*
X63907857Y48654524D01*
X63907857Y48654524D02*
X63812619Y48559286D01*
X63812619Y48559286D02*
X63717381Y48511667D01*
D16*
%TO.C,C1*%
X61155000Y23275112D02*
X61155000Y23775112D01*
X60905000Y23525112D02*
X61405000Y23525112D01*
X60050000Y26079887D02*
X65210000Y26079887D01*
X60050000Y26119887D02*
X65210000Y26119887D01*
X60051000Y26159887D02*
X65209000Y26159887D01*
X60052000Y26199887D02*
X65208000Y26199887D01*
X60054000Y26239887D02*
X65206000Y26239887D01*
X60057000Y26279887D02*
X65203000Y26279887D01*
X60061000Y26319887D02*
X61590000Y26319887D01*
X63670000Y26319887D02*
X65199000Y26319887D01*
X60065000Y26359887D02*
X61590000Y26359887D01*
X63670000Y26359887D02*
X65195000Y26359887D01*
X60069000Y26399887D02*
X61590000Y26399887D01*
X63670000Y26399887D02*
X65191000Y26399887D01*
X60074000Y26439887D02*
X61590000Y26439887D01*
X63670000Y26439887D02*
X65186000Y26439887D01*
X60080000Y26479887D02*
X61590000Y26479887D01*
X63670000Y26479887D02*
X65180000Y26479887D01*
X60087000Y26519887D02*
X61590000Y26519887D01*
X63670000Y26519887D02*
X65173000Y26519887D01*
X60094000Y26559887D02*
X61590000Y26559887D01*
X63670000Y26559887D02*
X65166000Y26559887D01*
X60102000Y26599887D02*
X61590000Y26599887D01*
X63670000Y26599887D02*
X65158000Y26599887D01*
X60110000Y26639887D02*
X61590000Y26639887D01*
X63670000Y26639887D02*
X65150000Y26639887D01*
X60119000Y26679887D02*
X61590000Y26679887D01*
X63670000Y26679887D02*
X65141000Y26679887D01*
X60129000Y26719887D02*
X61590000Y26719887D01*
X63670000Y26719887D02*
X65131000Y26719887D01*
X60139000Y26759887D02*
X61590000Y26759887D01*
X63670000Y26759887D02*
X65121000Y26759887D01*
X60150000Y26800887D02*
X61590000Y26800887D01*
X63670000Y26800887D02*
X65110000Y26800887D01*
X60162000Y26840887D02*
X61590000Y26840887D01*
X63670000Y26840887D02*
X65098000Y26840887D01*
X60175000Y26880887D02*
X61590000Y26880887D01*
X63670000Y26880887D02*
X65085000Y26880887D01*
X60188000Y26920887D02*
X61590000Y26920887D01*
X63670000Y26920887D02*
X65072000Y26920887D01*
X60202000Y26960887D02*
X61590000Y26960887D01*
X63670000Y26960887D02*
X65058000Y26960887D01*
X60216000Y27000887D02*
X61590000Y27000887D01*
X63670000Y27000887D02*
X65044000Y27000887D01*
X60232000Y27040887D02*
X61590000Y27040887D01*
X63670000Y27040887D02*
X65028000Y27040887D01*
X60248000Y27080887D02*
X61590000Y27080887D01*
X63670000Y27080887D02*
X65012000Y27080887D01*
X60265000Y27120887D02*
X61590000Y27120887D01*
X63670000Y27120887D02*
X64995000Y27120887D01*
X60282000Y27160887D02*
X61590000Y27160887D01*
X63670000Y27160887D02*
X64978000Y27160887D01*
X60301000Y27200887D02*
X61590000Y27200887D01*
X63670000Y27200887D02*
X64959000Y27200887D01*
X60320000Y27240887D02*
X61590000Y27240887D01*
X63670000Y27240887D02*
X64940000Y27240887D01*
X60340000Y27280887D02*
X61590000Y27280887D01*
X63670000Y27280887D02*
X64920000Y27280887D01*
X60362000Y27320887D02*
X61590000Y27320887D01*
X63670000Y27320887D02*
X64898000Y27320887D01*
X60383000Y27360887D02*
X61590000Y27360887D01*
X63670000Y27360887D02*
X64877000Y27360887D01*
X60406000Y27400887D02*
X61590000Y27400887D01*
X63670000Y27400887D02*
X64854000Y27400887D01*
X60430000Y27440887D02*
X61590000Y27440887D01*
X63670000Y27440887D02*
X64830000Y27440887D01*
X60455000Y27480887D02*
X61590000Y27480887D01*
X63670000Y27480887D02*
X64805000Y27480887D01*
X60481000Y27520887D02*
X61590000Y27520887D01*
X63670000Y27520887D02*
X64779000Y27520887D01*
X60508000Y27560887D02*
X61590000Y27560887D01*
X63670000Y27560887D02*
X64752000Y27560887D01*
X60535000Y27600887D02*
X61590000Y27600887D01*
X63670000Y27600887D02*
X64725000Y27600887D01*
X60565000Y27640887D02*
X61590000Y27640887D01*
X63670000Y27640887D02*
X64695000Y27640887D01*
X60595000Y27680887D02*
X61590000Y27680887D01*
X63670000Y27680887D02*
X64665000Y27680887D01*
X60626000Y27720887D02*
X61590000Y27720887D01*
X63670000Y27720887D02*
X64634000Y27720887D01*
X60659000Y27760887D02*
X61590000Y27760887D01*
X63670000Y27760887D02*
X64601000Y27760887D01*
X60693000Y27800887D02*
X61590000Y27800887D01*
X63670000Y27800887D02*
X64567000Y27800887D01*
X60729000Y27840887D02*
X61590000Y27840887D01*
X63670000Y27840887D02*
X64531000Y27840887D01*
X60766000Y27880887D02*
X61590000Y27880887D01*
X63670000Y27880887D02*
X64494000Y27880887D01*
X60804000Y27920887D02*
X61590000Y27920887D01*
X63670000Y27920887D02*
X64456000Y27920887D01*
X60845000Y27960887D02*
X61590000Y27960887D01*
X63670000Y27960887D02*
X64415000Y27960887D01*
X60887000Y28000887D02*
X61590000Y28000887D01*
X63670000Y28000887D02*
X64373000Y28000887D01*
X60931000Y28040887D02*
X61590000Y28040887D01*
X63670000Y28040887D02*
X64329000Y28040887D01*
X60977000Y28080887D02*
X61590000Y28080887D01*
X63670000Y28080887D02*
X64283000Y28080887D01*
X61025000Y28120887D02*
X61590000Y28120887D01*
X63670000Y28120887D02*
X64235000Y28120887D01*
X61076000Y28160887D02*
X61590000Y28160887D01*
X63670000Y28160887D02*
X64184000Y28160887D01*
X61130000Y28200887D02*
X61590000Y28200887D01*
X63670000Y28200887D02*
X64130000Y28200887D01*
X61187000Y28240887D02*
X61590000Y28240887D01*
X63670000Y28240887D02*
X64073000Y28240887D01*
X61247000Y28280887D02*
X61590000Y28280887D01*
X63670000Y28280887D02*
X64013000Y28280887D01*
X61311000Y28320887D02*
X61590000Y28320887D01*
X63670000Y28320887D02*
X63949000Y28320887D01*
X61379000Y28360887D02*
X61590000Y28360887D01*
X63670000Y28360887D02*
X63881000Y28360887D01*
X61452000Y28400887D02*
X63808000Y28400887D01*
X61532000Y28440887D02*
X63728000Y28440887D01*
X61619000Y28480887D02*
X63641000Y28480887D01*
X61715000Y28520887D02*
X63545000Y28520887D01*
X61825000Y28560887D02*
X63435000Y28560887D01*
X61953000Y28600887D02*
X63307000Y28600887D01*
X62112000Y28640887D02*
X63148000Y28640887D01*
X62346000Y28680887D02*
X62914000Y28680887D01*
X65250000Y26079887D02*
G75*
G03*
X65250000Y26079887I-2620000J0D01*
G01*
%TO.C,JP4*%
X160910000Y18115000D02*
X160910000Y18715000D01*
X161560000Y19415000D02*
X164360000Y19415000D01*
X164360000Y17415000D02*
X161560000Y17415000D01*
X165010000Y18715000D02*
X165010000Y18115000D01*
X161610000Y19415000D02*
G75*
G03*
X160910000Y18715000I-1J-699999D01*
G01*
X160910000Y18115000D02*
G75*
G03*
X161610000Y17415000I699999J-1D01*
G01*
X165010000Y18715000D02*
G75*
G03*
X164310000Y19415000I-700000J0D01*
G01*
X164310000Y17415000D02*
G75*
G03*
X165010000Y18115000I0J700000D01*
G01*
%TO.C,F1*%
X44105000Y22690000D02*
X66325000Y22690000D01*
X44105000Y19530000D02*
X44105000Y22690000D01*
X44105000Y12870000D02*
X44105000Y16030000D01*
X44105000Y12870000D02*
X66325000Y12870000D01*
X66325000Y19530000D02*
X66325000Y22690000D01*
X66325000Y12870000D02*
X66325000Y16030000D01*
%TO.C,C6*%
X95115000Y36045000D02*
X92375000Y36045000D01*
X95115000Y36045000D02*
X95115000Y28805000D01*
X92375000Y36045000D02*
X92375000Y28805000D01*
X95115000Y28805000D02*
X92375000Y28805000D01*
%TO.C,JP5*%
X160910000Y14940000D02*
X160910000Y15540000D01*
X161560000Y16240000D02*
X164360000Y16240000D01*
X164360000Y14240000D02*
X161560000Y14240000D01*
X165010000Y15540000D02*
X165010000Y14940000D01*
X161610000Y16240000D02*
G75*
G03*
X160910000Y15540000I-1J-699999D01*
G01*
X160910000Y14940000D02*
G75*
G03*
X161610000Y14240000I699999J-1D01*
G01*
X165010000Y15540000D02*
G75*
G03*
X164310000Y16240000I-700000J0D01*
G01*
X164310000Y14240000D02*
G75*
G03*
X165010000Y14940000I0J700000D01*
G01*
%TO.C,U3*%
X177220000Y62280000D02*
X177220000Y39300000D01*
X177220000Y39300000D02*
X181720000Y39300000D01*
X178470000Y62280000D02*
X177220000Y62280000D01*
X181720000Y62280000D02*
X180470000Y62280000D01*
X181720000Y39300000D02*
X181720000Y62280000D01*
X178470000Y62280000D02*
G75*
G03*
X180470000Y62280000I1000000J0D01*
G01*
%TO.C,C3*%
X69715000Y46800000D02*
X66975000Y46800000D01*
X69715000Y46800000D02*
X69715000Y39560000D01*
X66975000Y46800000D02*
X66975000Y39560000D01*
X69715000Y39560000D02*
X66975000Y39560000D01*
%TO.C,J5*%
X98765000Y64195000D02*
X100095000Y64195000D01*
X98765000Y62865000D02*
X98765000Y64195000D01*
X98765000Y61595000D02*
X98765000Y25975000D01*
X98765000Y61595000D02*
X101425000Y61595000D01*
X98765000Y25975000D02*
X101425000Y25975000D01*
X101425000Y61595000D02*
X101425000Y25975000D01*
%TO.C,Q2*%
X199370000Y58730000D02*
X195880000Y58730000D01*
X199370000Y58730000D02*
X199370000Y50490000D01*
X195880000Y58730000D02*
X195880000Y50490000D01*
X199370000Y56210000D02*
X198300000Y56210000D01*
X196200000Y56210000D02*
X195880000Y56210000D01*
X199370000Y53009000D02*
X197790000Y53009000D01*
X196710000Y53009000D02*
X195880000Y53009000D01*
X199370000Y50490000D02*
X195880000Y50490000D01*
%TO.C,J3*%
X137687000Y58420000D02*
X138987000Y58420000D01*
X137687000Y57120000D02*
X137687000Y58420000D01*
X137687000Y55880000D02*
X137687000Y48514000D01*
X137687000Y55880000D02*
X139973000Y55880000D01*
X137687000Y48514000D02*
X139973000Y48514000D01*
X139973000Y55880000D02*
X139973000Y48514000D01*
D11*
%TO.C,A1*%
X119780000Y23495000D02*
X119780000Y64675000D01*
X119780000Y23495000D02*
X102000000Y23495000D01*
X102000000Y23495000D02*
X102000000Y64675000D01*
D16*
%TO.C,PL2*%
X27930000Y27440000D02*
X27930000Y28440000D01*
X27930000Y28440000D02*
X26930000Y27940000D01*
X26930000Y27940000D02*
X27930000Y27440000D01*
X26540000Y22730000D02*
X17420000Y22730000D01*
X26540000Y34780000D02*
X25230000Y34780000D01*
X26540000Y50930000D02*
X26540000Y22730000D01*
X25230000Y24030000D02*
X18730000Y24030000D01*
X25230000Y34780000D02*
X25230000Y24030000D01*
X25230000Y38880000D02*
X26540000Y38880000D01*
X25230000Y38880000D02*
X25230000Y38880000D01*
X25230000Y49630000D02*
X25230000Y38880000D01*
X18730000Y24030000D02*
X18730000Y49630000D01*
X18730000Y49630000D02*
X25230000Y49630000D01*
X17420000Y22730000D02*
X17420000Y50930000D01*
X17420000Y50930000D02*
X26540000Y50930000D01*
%TO.C,R7*%
X81450000Y52070000D02*
X82220000Y52070000D01*
X82220000Y53440000D02*
X82220000Y50700000D01*
X82220000Y50700000D02*
X88760000Y50700000D01*
X88760000Y53440000D02*
X82220000Y53440000D01*
X88760000Y50700000D02*
X88760000Y53440000D01*
X89530000Y52070000D02*
X88760000Y52070000D01*
%TO.C,R6*%
X81450000Y55245000D02*
X82220000Y55245000D01*
X82220000Y56615000D02*
X82220000Y53875000D01*
X82220000Y53875000D02*
X88760000Y53875000D01*
X88760000Y56615000D02*
X82220000Y56615000D01*
X88760000Y53875000D02*
X88760000Y56615000D01*
X89530000Y55245000D02*
X88760000Y55245000D01*
%TO.C,J2*%
X135147000Y58420000D02*
X136447000Y58420000D01*
X135147000Y57120000D02*
X135147000Y58420000D01*
X135147000Y55880000D02*
X135147000Y48514000D01*
X135147000Y55880000D02*
X137433000Y55880000D01*
X135147000Y48514000D02*
X137433000Y48514000D01*
X137433000Y55880000D02*
X137433000Y48514000D01*
%TO.C,U4*%
X162215000Y62290000D02*
X162215000Y26610000D01*
X162215000Y26610000D02*
X167515000Y26610000D01*
X163865000Y62290000D02*
X162215000Y62290000D01*
X167515000Y62290000D02*
X165865000Y62290000D01*
X167515000Y26610000D02*
X167515000Y62290000D01*
X163865000Y62290000D02*
G75*
G03*
X165865000Y62290000I1000000J0D01*
G01*
%TO.C,R9*%
X197250000Y47220000D02*
X197250000Y46530000D01*
X198970000Y46530000D02*
X195530000Y46530000D01*
X195530000Y46530000D02*
X195530000Y37290000D01*
X198970000Y37290000D02*
X198970000Y46530000D01*
X195530000Y37290000D02*
X198970000Y37290000D01*
X197250000Y36600000D02*
X197250000Y37290000D01*
%TO.C,R4*%
X71925000Y23495000D02*
X72695000Y23495000D01*
X72695000Y24865000D02*
X72695000Y22125000D01*
X72695000Y22125000D02*
X79235000Y22125000D01*
X79235000Y24865000D02*
X72695000Y24865000D01*
X79235000Y22125000D02*
X79235000Y24865000D01*
X80005000Y23495000D02*
X79235000Y23495000D01*
%TO.C,R2*%
X29380000Y13970000D02*
X30150000Y13970000D01*
X30150000Y15340000D02*
X30150000Y12600000D01*
X30150000Y12600000D02*
X36690000Y12600000D01*
X36690000Y15340000D02*
X30150000Y15340000D01*
X36690000Y12600000D02*
X36690000Y15340000D01*
X37460000Y13970000D02*
X36690000Y13970000D01*
%TO.C,U2*%
X41140000Y27245000D02*
X41140000Y62925000D01*
X41140000Y62925000D02*
X35840000Y62925000D01*
X39490000Y27245000D02*
X41140000Y27245000D01*
X35840000Y27245000D02*
X37490000Y27245000D01*
X35840000Y62925000D02*
X35840000Y27245000D01*
X39490000Y27245000D02*
G75*
G03*
X37490000Y27245000I-1000000J0D01*
G01*
%TO.C,Q1*%
X194290000Y58730000D02*
X190800000Y58730000D01*
X194290000Y58730000D02*
X194290000Y50490000D01*
X190800000Y58730000D02*
X190800000Y50490000D01*
X194290000Y56210000D02*
X193220000Y56210000D01*
X191120000Y56210000D02*
X190800000Y56210000D01*
X194290000Y53009000D02*
X192710000Y53009000D01*
X191630000Y53009000D02*
X190800000Y53009000D01*
X194290000Y50490000D02*
X190800000Y50490000D01*
%TO.C,J4*%
X140237000Y58420000D02*
X141537000Y58420000D01*
X140237000Y57120000D02*
X140237000Y58420000D01*
X140237000Y55880000D02*
X140237000Y48514000D01*
X140237000Y55880000D02*
X142523000Y55880000D01*
X140237000Y48514000D02*
X142523000Y48514000D01*
X142523000Y55880000D02*
X142523000Y48514000D01*
%TO.C,R1*%
X54375000Y30250000D02*
X54375000Y31020000D01*
X53005000Y31020000D02*
X55745000Y31020000D01*
X55745000Y31020000D02*
X55745000Y37560000D01*
X53005000Y37560000D02*
X53005000Y31020000D01*
X55745000Y37560000D02*
X53005000Y37560000D01*
X54375000Y38330000D02*
X54375000Y37560000D01*
%TO.C,JP6*%
X160910000Y11765000D02*
X160910000Y12365000D01*
X161560000Y13065000D02*
X164360000Y13065000D01*
X164360000Y11065000D02*
X161560000Y11065000D01*
X165010000Y12365000D02*
X165010000Y11765000D01*
X161610000Y13065000D02*
G75*
G03*
X160910000Y12365000I-1J-699999D01*
G01*
X160910000Y11765000D02*
G75*
G03*
X161610000Y11065000I699999J-1D01*
G01*
X165010000Y12365000D02*
G75*
G03*
X164310000Y13065000I-700000J0D01*
G01*
X164310000Y11065000D02*
G75*
G03*
X165010000Y11765000I0J700000D01*
G01*
%TO.C,U5*%
X177220000Y35620000D02*
X177220000Y12640000D01*
X177220000Y12640000D02*
X181720000Y12640000D01*
X178470000Y35620000D02*
X177220000Y35620000D01*
X181720000Y35620000D02*
X180470000Y35620000D01*
X181720000Y12640000D02*
X181720000Y35620000D01*
X178470000Y35620000D02*
G75*
G03*
X180470000Y35620000I1000000J0D01*
G01*
%TO.C,C2*%
X56815000Y40235000D02*
X59555000Y40235000D01*
X56815000Y40235000D02*
X56815000Y47475000D01*
X59555000Y40235000D02*
X59555000Y47475000D01*
X56815000Y47475000D02*
X59555000Y47475000D01*
%TO.C,R5*%
X97725000Y8890000D02*
X99865000Y8890000D01*
X99865000Y13510000D02*
X99865000Y4270000D01*
X99865000Y4270000D02*
X118105000Y4270000D01*
X118105000Y13510000D02*
X99865000Y13510000D01*
X118105000Y4270000D02*
X118105000Y13510000D01*
X120245000Y8890000D02*
X118105000Y8890000D01*
%TO.C,R3*%
X71925000Y27045000D02*
X72695000Y27045000D01*
X72695000Y28415000D02*
X72695000Y25675000D01*
X72695000Y25675000D02*
X79235000Y25675000D01*
X79235000Y28415000D02*
X72695000Y28415000D01*
X79235000Y25675000D02*
X79235000Y28415000D01*
X80005000Y27045000D02*
X79235000Y27045000D01*
%TO.C,JP3*%
X24375000Y61295000D02*
X24375000Y61895000D01*
X25025000Y62595000D02*
X27825000Y62595000D01*
X27825000Y60595000D02*
X25025000Y60595000D01*
X28475000Y61895000D02*
X28475000Y61295000D01*
X25075000Y62595000D02*
G75*
G03*
X24375000Y61895000I-1J-699999D01*
G01*
X24375000Y61295000D02*
G75*
G03*
X25075000Y60595000I699999J-1D01*
G01*
X28475000Y61895000D02*
G75*
G03*
X27775000Y62595000I-700000J0D01*
G01*
X27775000Y60595000D02*
G75*
G03*
X28475000Y61295000I0J700000D01*
G01*
%TO.C,R10*%
X202330000Y36600000D02*
X202330000Y37290000D01*
X200610000Y37290000D02*
X204050000Y37290000D01*
X204050000Y37290000D02*
X204050000Y46530000D01*
X200610000Y46530000D02*
X200610000Y37290000D01*
X204050000Y46530000D02*
X200610000Y46530000D01*
X202330000Y47220000D02*
X202330000Y46530000D01*
%TO.C,U1*%
X72260000Y3770000D02*
X88150000Y3770000D01*
X72260000Y3770000D02*
X72260000Y14010000D01*
X88150000Y3770000D02*
X88150000Y14010000D01*
X88150000Y6350000D02*
X90690000Y6350000D01*
X88150000Y8890000D02*
X90690000Y8890000D01*
X88150000Y11430000D02*
X90690000Y11430000D01*
X72260000Y14010000D02*
X88150000Y14010000D01*
%TO.C,R8*%
X192170000Y36600000D02*
X192170000Y37290000D01*
X190450000Y37290000D02*
X193890000Y37290000D01*
X193890000Y37290000D02*
X193890000Y46530000D01*
X190450000Y46530000D02*
X190450000Y37290000D01*
X193890000Y46530000D02*
X190450000Y46530000D01*
X192170000Y47220000D02*
X192170000Y46530000D01*
D15*
%TO.C,SW1*%
X34070000Y3620000D02*
X20070000Y3620000D01*
X20070000Y11620000D02*
X34070000Y11620000D01*
D16*
%TO.C,PL1*%
X40405000Y11430000D02*
X40405000Y3810000D01*
X40405000Y11430000D02*
X70885000Y11430000D01*
X40405000Y5080000D02*
X70885000Y5080000D01*
X40405000Y3810000D02*
X70885000Y3810000D01*
X70885000Y3810000D02*
X70885000Y11430000D01*
%TO.C,JP2*%
X24375000Y58120000D02*
X24375000Y58720000D01*
X25025000Y59420000D02*
X27825000Y59420000D01*
X27825000Y57420000D02*
X25025000Y57420000D01*
X28475000Y58720000D02*
X28475000Y58120000D01*
X25075000Y59420000D02*
G75*
G03*
X24375000Y58720000I-1J-699999D01*
G01*
X24375000Y58120000D02*
G75*
G03*
X25075000Y57420000I699999J-1D01*
G01*
X28475000Y58720000D02*
G75*
G03*
X27775000Y59420000I-700000J0D01*
G01*
X27775000Y57420000D02*
G75*
G03*
X28475000Y58120000I0J700000D01*
G01*
%TO.C,JP1*%
X24375000Y54945000D02*
X24375000Y55545000D01*
X25025000Y56245000D02*
X27825000Y56245000D01*
X27825000Y54245000D02*
X25025000Y54245000D01*
X28475000Y55545000D02*
X28475000Y54945000D01*
X25075000Y56245000D02*
G75*
G03*
X24375000Y55545000I-1J-699999D01*
G01*
X24375000Y54945000D02*
G75*
G03*
X25075000Y54245000I699999J-1D01*
G01*
X28475000Y55545000D02*
G75*
G03*
X27775000Y56245000I-700000J0D01*
G01*
X27775000Y54245000D02*
G75*
G03*
X28475000Y54945000I0J700000D01*
G01*
%TO.C,Q3*%
X204450000Y58730000D02*
X200960000Y58730000D01*
X204450000Y58730000D02*
X204450000Y50490000D01*
X200960000Y58730000D02*
X200960000Y50490000D01*
X204450000Y56210000D02*
X203380000Y56210000D01*
X201280000Y56210000D02*
X200960000Y56210000D01*
X204450000Y53009000D02*
X202870000Y53009000D01*
X201790000Y53009000D02*
X200960000Y53009000D01*
X204450000Y50490000D02*
X200960000Y50490000D01*
%TO.C,J1*%
X132607000Y58420000D02*
X133907000Y58420000D01*
X132607000Y57120000D02*
X132607000Y58420000D01*
X132607000Y55880000D02*
X132607000Y48514000D01*
X132607000Y55880000D02*
X134893000Y55880000D01*
X132607000Y48514000D02*
X134893000Y48514000D01*
X134893000Y55880000D02*
X134893000Y48514000D01*
%TO.C,J6*%
X120355000Y64195000D02*
X121685000Y64195000D01*
X120355000Y62865000D02*
X120355000Y64195000D01*
X120355000Y61595000D02*
X120355000Y25975000D01*
X120355000Y61595000D02*
X123015000Y61595000D01*
X120355000Y25975000D02*
X123015000Y25975000D01*
X123015000Y61595000D02*
X123015000Y25975000D01*
%TO.C,IC1*%
X61415000Y45615000D02*
X61415000Y42015000D01*
X65865000Y43815000D02*
G75*
G03*
X61426522Y45653478I-2600000J0D01*
G01*
X61426522Y41976522D02*
G75*
G03*
X65865000Y43815000I1838478J1838478D01*
G01*
%TD*%
D17*
X0Y2000000D02*
X0Y65000000D01*
X2000000Y67000000D02*
X236000000Y67000000D01*
X238000000Y65000000D02*
X238000000Y2000000D01*
X236000000Y0D02*
X2000000Y0D01*
X236000000Y0D02*
G75*
G03*
X238000000Y2000000I0J2000000D01*
G01*
X2000000Y67000000D02*
G75*
G03*
X0Y65000000I0J-2000000D01*
G01*
X0Y2000000D02*
G75*
G03*
X2000000Y0I2000000J0D01*
G01*
X238000000Y65000000D02*
G75*
G03*
X236000000Y67000000I-2000000J0D01*
G01*
M02*
