M48
; DRILL file {KiCad 7.0.2-0} date 2024 March 30, Saturday 13:54:56
; FORMAT={-:-/ absolute / metric / decimal}
; #@! TF.CreationDate,2024-03-30T13:54:56+00:00
; #@! TF.GenerationSoftware,Kicad,Pcbnew,7.0.2-0
; #@! TF.FileFunction,MixedPlating,1,2
FMAT,2
METRIC
; #@! TA.AperFunction,Plated,PTH,ViaDrill
T1C0.400
; #@! TA.AperFunction,Plated,PTH,ViaDrill
T2C0.500
; #@! TA.AperFunction,Plated,PTH,ViaDrill
T3C0.600
; #@! TA.AperFunction,Plated,PTH,ComponentDrill
T4C0.600
; #@! TA.AperFunction,Plated,PTH,ComponentDrill
T5C0.750
; #@! TA.AperFunction,Plated,PTH,ComponentDrill
T6C0.800
; #@! TA.AperFunction,Plated,PTH,ComponentDrill
T7C1.000
; #@! TA.AperFunction,Plated,PTH,ComponentDrill
T8C1.016
; #@! TA.AperFunction,Plated,PTH,ComponentDrill
T9C1.100
; #@! TA.AperFunction,Plated,PTH,ComponentDrill
T10C1.200
; #@! TA.AperFunction,Plated,PTH,ComponentDrill
T11C1.300
; #@! TA.AperFunction,Plated,PTH,ComponentDrill
T12C1.520
; #@! TA.AperFunction,Plated,PTH,ComponentDrill
T13C1.850
; #@! TA.AperFunction,Plated,PTH,ComponentDrill
T14C4.000
; #@! TA.AperFunction,NonPlated,NPTH,ComponentDrill
T15C2.700
; #@! TA.AperFunction,NonPlated,NPTH,ComponentDrill
T16C3.500
%
G90
G05
T1
X28.34Y50.165
X29.864Y61.595
X29.864Y58.42
X30.88Y48.895
X37.103Y25.019
X38.627Y28.067
X39.642Y30.735
X39.644Y25.907
X48.152Y58.928
X48.152Y56.642
X110.89Y22.098
X111.398Y42.418
X113.557Y27.813
X114.319Y27.051
X115.081Y26.289
X115.208Y33.02
X116.224Y32.004
X117.24Y30.988
X118.256Y36.83
X119.272Y38.862
X127.908Y24.13
X128.924Y26.67
X134.258Y29.464
X145.18Y13.208
X150.26Y13.208
X159.658Y20.828
X166.135Y14.869
X166.262Y24.267
X166.262Y18.425
X167.532Y22.743
X170.707Y21.346
X171.977Y27.95
X172.104Y25.41
X172.104Y21.346
X173.12Y52.08
X174.136Y51.445
X174.39Y62.738
X206.775Y45.73
X208.045Y44.46
X210.585Y48.895
X210.585Y42.555
T2
X222.84Y33.655
X225.38Y35.56
X227.984Y37.465
X230.524Y39.37
X233.064Y41.285
T3
X38.51Y46.99
X107.08Y6.858
X108.35Y6.858
X109.62Y6.858
X115.97Y16.51
X117.24Y16.51
X118.51Y16.51
X127.654Y21.433
X127.654Y20.193
X128.924Y21.433
X128.924Y20.193
X134.258Y27.686
X135.528Y27.686
X136.798Y27.686
X141.37Y30.988
X141.624Y14.732
X151.53Y30.988
X151.784Y14.732
X153.054Y27.432
X154.324Y27.432
X155.594Y27.432
X156.102Y11.684
X159.404Y40.386
X159.404Y39.116
X159.404Y37.846
X159.404Y13.208
X195.345Y60.97
X195.345Y55.89
X200.425Y60.97
X200.425Y55.89
X205.505Y50.8
X205.505Y49.53
X205.505Y48.26
X217.76Y54.61
X220.3Y54.61
X224.7Y50.546
X225.952Y50.546
X227.222Y50.546
X228.492Y50.546
T4
X2.0Y62.5
X2.0Y4.5
X2.879Y64.621
X2.879Y60.379
X2.879Y6.621
X2.879Y2.379
X5.0Y65.5
X5.0Y59.5
X5.0Y7.5
X5.0Y1.5
X7.121Y64.621
X7.121Y60.379
X7.121Y6.621
X7.121Y2.379
X8.0Y62.5
X8.0Y4.5
X90.5Y18.5
X91.379Y20.621
X91.379Y16.379
X93.5Y21.5
X93.5Y15.5
X95.621Y20.621
X95.621Y16.379
X96.5Y18.5
X146.5Y41.5
X147.379Y43.621
X147.379Y39.379
X149.5Y44.5
X149.5Y38.5
X151.621Y43.621
X151.621Y39.379
X152.5Y41.5
X230.0Y62.5
X230.0Y4.5
X230.879Y64.621
X230.879Y60.379
X230.879Y6.621
X230.879Y2.379
X233.0Y65.5
X233.0Y59.5
X233.0Y7.5
X233.0Y1.5
X235.121Y64.621
X235.121Y60.379
X235.121Y6.621
X235.121Y2.379
X236.0Y62.5
X236.0Y4.5
T5
X63.265Y45.085
X63.265Y43.815
X63.265Y42.545
T6
X28.34Y13.97
X34.69Y61.595
X34.69Y59.055
X34.69Y56.515
X34.69Y53.975
X34.69Y51.435
X34.69Y48.895
X34.69Y46.355
X34.69Y43.815
X34.69Y41.275
X34.69Y38.735
X34.69Y36.195
X34.69Y33.655
X34.69Y31.115
X34.69Y28.575
X38.5Y13.97
X42.31Y61.595
X42.31Y59.055
X42.31Y56.515
X42.31Y53.975
X42.31Y51.435
X42.31Y48.895
X42.31Y46.355
X42.31Y43.815
X42.31Y41.275
X42.31Y38.735
X42.31Y36.195
X42.31Y33.655
X42.31Y31.115
X42.31Y28.575
X54.375Y39.37
X54.375Y29.21
X58.185Y46.355
X58.185Y41.355
X62.63Y27.33
X62.63Y24.83
X68.345Y45.68
X68.345Y40.68
X88.792Y45.466
X88.792Y42.418
X91.078Y36.322
X91.078Y26.162
X94.38Y36.322
X94.38Y26.162
X98.952Y45.466
X98.952Y42.418
X101.238Y34.758
X101.238Y29.758
X161.69Y62.24
X161.69Y59.7
X161.69Y57.16
X161.69Y54.62
X161.69Y52.08
X161.69Y49.54
X161.69Y47.0
X161.69Y44.46
X161.69Y41.92
X161.69Y39.38
X161.69Y36.84
X161.69Y34.3
X161.69Y31.76
X161.69Y29.22
X169.31Y62.24
X169.31Y59.7
X169.31Y57.16
X169.31Y54.62
X169.31Y52.08
X169.31Y49.54
X169.31Y47.0
X169.31Y44.46
X169.31Y41.92
X169.31Y39.38
X169.31Y36.84
X169.31Y34.3
X169.31Y31.76
X169.31Y29.22
X176.295Y62.23
X176.295Y59.69
X176.295Y57.15
X176.295Y54.61
X176.295Y52.07
X176.295Y49.53
X176.295Y46.99
X176.295Y44.45
X176.295Y41.91
X176.295Y35.57
X176.295Y33.03
X176.295Y30.49
X176.295Y27.95
X176.295Y25.41
X176.295Y22.87
X176.295Y20.33
X176.295Y17.79
X176.295Y15.25
X183.915Y62.23
X183.915Y59.69
X183.915Y57.15
X183.915Y54.61
X183.915Y52.07
X183.915Y49.53
X183.915Y46.99
X183.915Y44.45
X183.915Y41.91
X183.915Y35.57
X183.915Y33.03
X183.915Y30.49
X183.915Y27.95
X183.915Y25.41
X183.915Y22.87
X183.915Y20.33
X183.915Y17.79
X183.915Y15.25
X192.805Y49.54
X192.805Y36.84
X197.885Y49.54
X197.885Y36.84
X202.965Y49.54
X202.965Y36.84
T7
X20.72Y45.72
X20.72Y43.18
X20.72Y40.64
X20.72Y38.1
X20.72Y35.56
X20.72Y33.02
X20.72Y30.48
X20.72Y27.94
X23.26Y45.72
X23.26Y43.18
X23.26Y40.64
X23.26Y38.1
X23.26Y35.56
X23.26Y33.02
X23.26Y30.48
X23.26Y27.94
X63.265Y56.642
X65.805Y56.642
X68.345Y56.642
X70.885Y56.642
X104.921Y62.738
X104.921Y60.198
X104.921Y57.658
X104.921Y55.118
X104.921Y52.578
X104.921Y50.038
X104.921Y47.498
X104.921Y44.958
X104.921Y42.418
X104.921Y39.878
X104.921Y37.338
X104.921Y34.798
X104.921Y32.258
X104.921Y29.718
X104.921Y27.178
X107.08Y12.192
X107.08Y9.652
X109.62Y12.192
X109.62Y9.652
X112.16Y12.192
X112.16Y9.652
X126.511Y62.738
X126.511Y60.198
X126.511Y57.658
X126.511Y55.118
X126.511Y52.578
X126.511Y50.038
X126.511Y47.498
X126.511Y44.958
X126.511Y42.418
X126.511Y39.878
X126.511Y37.338
X126.511Y34.798
X126.511Y32.258
X126.511Y29.718
X126.511Y27.178
X131.337Y24.892
X133.75Y57.15
X133.75Y54.61
X133.75Y52.07
X133.75Y49.53
X133.877Y24.892
X136.29Y57.15
X136.29Y54.61
X136.29Y52.07
X136.29Y49.53
X136.417Y24.892
X138.83Y57.15
X138.83Y54.61
X138.83Y52.07
X138.83Y49.53
X141.624Y24.892
X144.164Y24.892
X146.704Y24.892
X151.784Y24.892
X154.324Y24.892
X156.864Y24.892
X192.805Y58.43
X192.805Y55.89
X192.805Y53.35
X197.885Y58.43
X197.885Y55.89
X197.885Y53.35
X202.965Y58.43
X202.965Y55.89
X202.965Y53.35
X215.22Y47.44
X215.22Y44.9
X217.76Y47.44
X217.76Y44.9
X220.3Y47.44
X220.3Y44.9
X222.84Y47.44
X222.84Y44.9
X225.38Y47.44
X225.38Y44.9
X227.92Y47.44
X227.92Y44.9
X230.46Y47.44
X230.46Y44.9
X233.0Y47.44
X233.0Y44.9
T8
X108.096Y62.738
X108.096Y60.198
X108.096Y57.658
X108.096Y55.118
X108.096Y52.578
X108.096Y50.038
X108.096Y47.498
X108.096Y44.958
X108.096Y42.418
X108.096Y39.878
X108.096Y37.338
X108.096Y34.798
X108.096Y32.258
X108.096Y29.718
X108.096Y27.178
X123.336Y62.738
X123.336Y60.198
X123.336Y57.658
X123.336Y55.118
X123.336Y52.578
X123.336Y50.038
X123.336Y47.498
X123.336Y44.958
X123.336Y42.418
X123.336Y39.878
X123.336Y37.338
X123.336Y34.798
X123.336Y32.258
X123.336Y29.718
X123.336Y27.178
T9
X91.84Y11.43
X91.84Y8.89
X91.84Y6.35
T10
X96.285Y8.89
X121.685Y8.89
T11
X44.215Y17.78
X66.215Y17.78
T12
X42.945Y7.62
X48.025Y7.62
X53.105Y7.62
X58.185Y7.62
X63.265Y7.62
X68.345Y7.62
X133.115Y7.62
X138.195Y7.62
X143.275Y7.62
X148.355Y7.62
X153.435Y7.62
X158.515Y7.62
X163.595Y7.62
X168.675Y7.62
X173.755Y7.62
T13
X19.195Y9.21
X19.195Y6.03
X22.27Y7.62
X27.07Y7.62
X31.77Y7.62
X34.945Y9.21
X34.945Y6.03
T14
X5.0Y62.5
X5.0Y4.5
X93.5Y18.5
X149.5Y41.5
X233.0Y62.5
X233.0Y4.5
T15
X55.465Y17.78
T16
X75.18Y8.89
T0
M30
