M48
; DRILL file {KiCad 7.0.2-0} date 2023 December 06, Wednesday 17:59:06
; FORMAT={-:-/ absolute / metric / decimal}
; #@! TF.CreationDate,2023-12-06T17:59:06+00:00
; #@! TF.GenerationSoftware,Kicad,Pcbnew,7.0.2-0
; #@! TF.FileFunction,MixedPlating,1,2
FMAT,2
METRIC
; #@! TA.AperFunction,Plated,PTH,ViaDrill
T1C0.400
; #@! TA.AperFunction,Plated,PTH,ComponentDrill
T2C0.500
; #@! TA.AperFunction,Plated,PTH,ViaDrill
T3C0.600
; #@! TA.AperFunction,Plated,PTH,ComponentDrill
T4C0.750
; #@! TA.AperFunction,Plated,PTH,ComponentDrill
T5C0.800
; #@! TA.AperFunction,Plated,PTH,ComponentDrill
T6C1.000
; #@! TA.AperFunction,Plated,PTH,ComponentDrill
T7C1.016
; #@! TA.AperFunction,Plated,PTH,ComponentDrill
T8C1.100
; #@! TA.AperFunction,Plated,PTH,ComponentDrill
T9C1.200
; #@! TA.AperFunction,Plated,PTH,ComponentDrill
T10C1.300
; #@! TA.AperFunction,Plated,PTH,ComponentDrill
T11C1.520
; #@! TA.AperFunction,Plated,PTH,ComponentDrill
T12C1.850
; #@! TA.AperFunction,Plated,PTH,ComponentDrill
T13C3.200
; #@! TA.AperFunction,NonPlated,NPTH,ComponentDrill
T14C2.700
; #@! TA.AperFunction,NonPlated,NPTH,ComponentDrill
T15C3.500
%
G90
G05
T1
X53.33Y-76.835
X54.854Y-65.405
X54.854Y-68.58
X55.87Y-78.105
X60.315Y-102.235
X61.585Y-104.14
X62.22Y-97.79
X64.125Y-94.615
X65.395Y-92.71
X71.11Y-78.105
X123.19Y-100.33
X124.46Y-103.505
X132.08Y-104.14
X133.35Y-87.63
X135.89Y-89.535
X135.89Y-92.075
X136.525Y-84.455
X139.065Y-85.725
X155.194Y-77.47
X172.085Y-73.66
X173.355Y-71.755
X180.975Y-102.235
X180.975Y-107.95
X182.245Y-111.379
X182.245Y-114.554
X189.875Y-102.88
X189.875Y-105.49
X191.325Y-97.87
X191.77Y-61.595
X192.595Y-97.87
X193.865Y-100.34
X231.14Y-82.55
X232.41Y-83.82
X234.95Y-77.47
X234.95Y-85.725
T2
X27.6Y-64.5
X27.6Y-122.5
X28.303Y-62.803
X28.303Y-66.197
X28.303Y-120.803
X28.303Y-124.197
X30.0Y-62.1
X30.0Y-66.9
X30.0Y-120.1
X30.0Y-124.9
X31.697Y-62.803
X31.697Y-66.197
X31.697Y-120.803
X31.697Y-124.197
X32.4Y-64.5
X32.4Y-122.5
X115.1Y-83.5
X115.803Y-81.803
X115.803Y-85.197
X117.5Y-81.1
X117.5Y-85.9
X119.197Y-81.803
X119.197Y-85.197
X119.9Y-83.5
X171.1Y-105.5
X171.803Y-103.803
X171.803Y-107.197
X173.5Y-103.1
X173.5Y-107.9
X175.197Y-103.803
X175.197Y-107.197
X175.9Y-105.5
X255.6Y-64.5
X255.6Y-122.5
X256.303Y-62.803
X256.303Y-66.197
X256.303Y-120.803
X256.303Y-124.197
X258.0Y-62.1
X258.0Y-66.9
X258.0Y-120.1
X258.0Y-124.9
X259.697Y-62.803
X259.697Y-66.197
X259.697Y-120.803
X259.697Y-124.197
X260.4Y-64.5
X260.4Y-122.5
T3
X142.875Y-104.14
X169.1Y-92.155
X219.71Y-67.31
X219.71Y-72.39
X224.79Y-67.31
X224.79Y-72.39
X231.14Y-80.09
X241.935Y-71.755
X244.475Y-71.755
X247.65Y-98.425
X250.19Y-95.25
X252.73Y-92.075
X255.27Y-73.025
X255.27Y-89.535
X257.81Y-86.995
T4
X88.265Y-81.915
X88.265Y-83.185
X88.265Y-84.455
T5
X53.34Y-113.03
X59.68Y-65.405
X59.68Y-67.945
X59.68Y-70.485
X59.68Y-73.025
X59.68Y-75.565
X59.68Y-78.105
X59.68Y-80.645
X59.68Y-83.185
X59.68Y-85.725
X59.68Y-88.265
X59.68Y-90.805
X59.68Y-93.345
X59.68Y-95.885
X59.68Y-98.425
X63.5Y-113.03
X67.3Y-65.405
X67.3Y-67.945
X67.3Y-70.485
X67.3Y-73.025
X67.3Y-75.565
X67.3Y-78.105
X67.3Y-80.645
X67.3Y-83.185
X67.3Y-85.725
X67.3Y-88.265
X67.3Y-90.805
X67.3Y-93.345
X67.3Y-95.885
X67.3Y-98.425
X79.375Y-87.63
X79.375Y-97.79
X83.185Y-80.645
X83.185Y-85.645
X87.63Y-99.67
X87.63Y-102.17
X93.345Y-81.32
X93.345Y-86.32
X95.885Y-99.955
X95.885Y-103.505
X106.045Y-99.955
X106.045Y-103.505
X111.125Y-72.5
X111.125Y-76.0
X121.285Y-72.5
X121.285Y-76.0
X123.825Y-92.115
X123.825Y-97.115
X176.54Y-66.04
X176.54Y-68.58
X176.54Y-71.12
X176.54Y-73.66
X176.54Y-76.2
X176.54Y-78.74
X176.54Y-81.28
X176.54Y-83.82
X176.54Y-86.36
X176.54Y-88.9
X176.54Y-91.44
X176.54Y-93.98
X176.54Y-96.52
X176.54Y-99.06
X184.16Y-66.04
X184.16Y-68.58
X184.16Y-71.12
X184.16Y-73.66
X184.16Y-76.2
X184.16Y-78.74
X184.16Y-81.28
X184.16Y-83.82
X184.16Y-86.36
X184.16Y-88.9
X184.16Y-91.44
X184.16Y-93.98
X184.16Y-96.52
X184.16Y-99.06
X196.225Y-66.05
X196.225Y-68.59
X196.225Y-71.13
X196.225Y-73.67
X196.225Y-76.21
X196.225Y-78.75
X196.225Y-81.29
X196.225Y-83.83
X196.225Y-86.37
X196.225Y-92.72
X196.225Y-95.26
X196.225Y-97.8
X196.225Y-100.34
X196.225Y-102.88
X196.225Y-105.42
X196.225Y-107.96
X196.225Y-110.5
X196.225Y-113.04
X203.845Y-66.05
X203.845Y-68.59
X203.845Y-71.13
X203.845Y-73.67
X203.845Y-76.21
X203.845Y-78.75
X203.845Y-81.29
X203.845Y-83.83
X203.845Y-86.37
X203.845Y-92.72
X203.845Y-95.26
X203.845Y-97.8
X203.845Y-100.34
X203.845Y-102.88
X203.845Y-105.42
X203.845Y-107.96
X203.845Y-110.5
X203.845Y-113.04
X217.17Y-78.74
X217.17Y-91.44
X222.25Y-78.74
X222.25Y-91.44
X227.33Y-78.74
X227.33Y-91.44
T6
X45.71Y-81.28
X45.71Y-83.82
X45.71Y-86.36
X45.71Y-88.9
X45.71Y-91.44
X45.71Y-93.98
X45.71Y-96.52
X45.71Y-99.06
X48.25Y-81.28
X48.25Y-83.82
X48.25Y-86.36
X48.25Y-88.9
X48.25Y-91.44
X48.25Y-93.98
X48.25Y-96.52
X48.25Y-99.06
X158.75Y-69.85
X158.75Y-72.39
X158.75Y-74.93
X158.75Y-77.47
X161.29Y-69.85
X161.29Y-72.39
X161.29Y-74.93
X161.29Y-77.47
X163.83Y-69.85
X163.83Y-72.39
X163.83Y-74.93
X163.83Y-77.47
X166.38Y-69.85
X166.38Y-72.39
X166.38Y-74.93
X166.38Y-77.47
X217.17Y-69.85
X217.17Y-72.39
X217.17Y-74.93
X222.25Y-69.85
X222.25Y-72.39
X222.25Y-74.93
X227.33Y-69.85
X227.33Y-72.39
X227.33Y-74.93
X239.93Y-79.56
X239.93Y-82.1
X242.47Y-79.56
X242.47Y-82.1
X245.01Y-79.56
X245.01Y-82.1
X247.55Y-79.56
X247.55Y-82.1
X250.09Y-79.56
X250.09Y-82.1
X252.63Y-79.56
X252.63Y-82.1
X255.17Y-79.56
X255.17Y-82.1
X257.71Y-79.56
X257.71Y-82.1
T7
X128.27Y-64.135
X128.27Y-66.675
X128.27Y-69.215
X128.27Y-71.755
X128.27Y-74.295
X128.27Y-76.835
X128.27Y-79.375
X128.27Y-81.915
X128.27Y-84.455
X128.27Y-86.995
X128.27Y-89.535
X128.27Y-92.075
X128.27Y-94.615
X128.27Y-97.155
X128.27Y-99.695
X143.51Y-64.135
X143.51Y-66.675
X143.51Y-69.215
X143.51Y-71.755
X143.51Y-74.295
X143.51Y-76.835
X143.51Y-79.375
X143.51Y-81.915
X143.51Y-84.455
X143.51Y-86.995
X143.51Y-89.535
X143.51Y-92.075
X143.51Y-94.615
X143.51Y-97.155
X143.51Y-99.695
T8
X116.84Y-115.57
X116.84Y-118.11
X116.84Y-120.65
T9
X121.285Y-118.11
X146.685Y-118.11
T10
X69.215Y-109.22
X91.215Y-109.22
T11
X67.945Y-119.38
X73.025Y-119.38
X78.105Y-119.38
X83.185Y-119.38
X88.265Y-119.38
X93.345Y-119.38
T12
X44.195Y-117.79
X44.195Y-120.97
X47.27Y-119.38
X52.07Y-119.38
X56.77Y-119.38
X59.945Y-117.79
X59.945Y-120.97
T13
X30.0Y-64.5
X30.0Y-122.5
X117.5Y-83.5
X173.5Y-105.5
X258.0Y-64.5
X258.0Y-122.5
T14
X80.465Y-109.22
T15
X100.18Y-118.11
T0
M30
