M48
; DRILL file {KiCad 7.0.2-0} date 2023 December 06, Wednesday 22:19:40
; FORMAT={-:-/ absolute / metric / decimal}
; #@! TF.CreationDate,2023-12-06T22:19:40+00:00
; #@! TF.GenerationSoftware,Kicad,Pcbnew,7.0.2-0
; #@! TF.FileFunction,MixedPlating,1,2
FMAT,2
METRIC
; #@! TA.AperFunction,Plated,PTH,ViaDrill
T1C0.400
; #@! TA.AperFunction,Plated,PTH,ComponentDrill
T2C0.500
; #@! TA.AperFunction,Plated,PTH,ViaDrill
T3C0.600
; #@! TA.AperFunction,Plated,PTH,ComponentDrill
T4C0.750
; #@! TA.AperFunction,Plated,PTH,ComponentDrill
T5C0.800
; #@! TA.AperFunction,Plated,PTH,ComponentDrill
T6C1.000
; #@! TA.AperFunction,Plated,PTH,ComponentDrill
T7C1.016
; #@! TA.AperFunction,Plated,PTH,ComponentDrill
T8C1.100
; #@! TA.AperFunction,Plated,PTH,ComponentDrill
T9C1.200
; #@! TA.AperFunction,Plated,PTH,ComponentDrill
T10C1.300
; #@! TA.AperFunction,Plated,PTH,ComponentDrill
T11C1.520
; #@! TA.AperFunction,Plated,PTH,ComponentDrill
T12C1.850
; #@! TA.AperFunction,Plated,PTH,ComponentDrill
T13C3.200
; #@! TA.AperFunction,NonPlated,NPTH,ComponentDrill
T14C2.700
; #@! TA.AperFunction,NonPlated,NPTH,ComponentDrill
T15C3.500
%
G90
G05
T1
X28.33Y50.165
X29.854Y61.595
X29.854Y58.42
X30.87Y48.895
X35.315Y24.765
X36.585Y22.86
X37.22Y29.21
X39.125Y32.385
X40.395Y34.29
X46.11Y48.895
X98.19Y26.67
X99.46Y23.495
X107.08Y22.86
X108.35Y39.37
X110.89Y37.465
X110.89Y34.925
X111.525Y42.545
X114.065Y41.275
X130.194Y49.53
X147.085Y53.34
X148.355Y55.245
X155.975Y24.765
X155.975Y19.05
X157.245Y15.621
X157.245Y12.446
X164.875Y24.12
X164.875Y21.51
X166.325Y29.13
X166.77Y65.405
X167.595Y29.13
X168.865Y26.66
X206.14Y44.45
X207.41Y43.18
X209.95Y49.53
X209.95Y41.275
T2
X2.6Y62.5
X2.6Y4.5
X3.303Y64.197
X3.303Y60.803
X3.303Y6.197
X3.303Y2.803
X5.0Y64.9
X5.0Y60.1
X5.0Y6.9
X5.0Y2.1
X6.697Y64.197
X6.697Y60.803
X6.697Y6.197
X6.697Y2.803
X7.4Y62.5
X7.4Y4.5
X90.1Y43.5
X90.803Y45.197
X90.803Y41.803
X92.5Y45.9
X92.5Y41.1
X94.197Y45.197
X94.197Y41.803
X94.9Y43.5
X146.1Y21.5
X146.803Y23.197
X146.803Y19.803
X148.5Y23.9
X148.5Y19.1
X150.197Y23.197
X150.197Y19.803
X150.9Y21.5
X230.6Y62.5
X230.6Y4.5
X231.303Y64.197
X231.303Y60.803
X231.303Y6.197
X231.303Y2.803
X233.0Y64.9
X233.0Y60.1
X233.0Y6.9
X233.0Y2.1
X234.697Y64.197
X234.697Y60.803
X234.697Y6.197
X234.697Y2.803
X235.4Y62.5
X235.4Y4.5
T3
X117.875Y22.86
X144.1Y34.845
X194.71Y59.69
X194.71Y54.61
X199.79Y59.69
X199.79Y54.61
X206.14Y46.91
X216.935Y55.245
X219.475Y55.245
X222.65Y28.575
X225.19Y31.75
X227.73Y34.925
X230.27Y53.975
X230.27Y37.465
X232.81Y40.005
T4
X63.265Y45.085
X63.265Y43.815
X63.265Y42.545
T5
X28.34Y13.97
X34.68Y61.595
X34.68Y59.055
X34.68Y56.515
X34.68Y53.975
X34.68Y51.435
X34.68Y48.895
X34.68Y46.355
X34.68Y43.815
X34.68Y41.275
X34.68Y38.735
X34.68Y36.195
X34.68Y33.655
X34.68Y31.115
X34.68Y28.575
X38.5Y13.97
X42.3Y61.595
X42.3Y59.055
X42.3Y56.515
X42.3Y53.975
X42.3Y51.435
X42.3Y48.895
X42.3Y46.355
X42.3Y43.815
X42.3Y41.275
X42.3Y38.735
X42.3Y36.195
X42.3Y33.655
X42.3Y31.115
X42.3Y28.575
X54.375Y39.37
X54.375Y29.21
X58.185Y46.355
X58.185Y41.355
X62.63Y27.33
X62.63Y24.83
X68.345Y45.68
X68.345Y40.68
X70.885Y27.045
X70.885Y23.495
X81.045Y27.045
X81.045Y23.495
X86.125Y54.5
X86.125Y51.0
X96.285Y54.5
X96.285Y51.0
X98.825Y34.885
X98.825Y29.885
X151.54Y60.96
X151.54Y58.42
X151.54Y55.88
X151.54Y53.34
X151.54Y50.8
X151.54Y48.26
X151.54Y45.72
X151.54Y43.18
X151.54Y40.64
X151.54Y38.1
X151.54Y35.56
X151.54Y33.02
X151.54Y30.48
X151.54Y27.94
X159.16Y60.96
X159.16Y58.42
X159.16Y55.88
X159.16Y53.34
X159.16Y50.8
X159.16Y48.26
X159.16Y45.72
X159.16Y43.18
X159.16Y40.64
X159.16Y38.1
X159.16Y35.56
X159.16Y33.02
X159.16Y30.48
X159.16Y27.94
X171.225Y60.95
X171.225Y58.41
X171.225Y55.87
X171.225Y53.33
X171.225Y50.79
X171.225Y48.25
X171.225Y45.71
X171.225Y43.17
X171.225Y40.63
X171.225Y34.28
X171.225Y31.74
X171.225Y29.2
X171.225Y26.66
X171.225Y24.12
X171.225Y21.58
X171.225Y19.04
X171.225Y16.5
X171.225Y13.96
X178.845Y60.95
X178.845Y58.41
X178.845Y55.87
X178.845Y53.33
X178.845Y50.79
X178.845Y48.25
X178.845Y45.71
X178.845Y43.17
X178.845Y40.63
X178.845Y34.28
X178.845Y31.74
X178.845Y29.2
X178.845Y26.66
X178.845Y24.12
X178.845Y21.58
X178.845Y19.04
X178.845Y16.5
X178.845Y13.96
X192.17Y48.26
X192.17Y35.56
X197.25Y48.26
X197.25Y35.56
X202.33Y48.26
X202.33Y35.56
T6
X20.71Y45.72
X20.71Y43.18
X20.71Y40.64
X20.71Y38.1
X20.71Y35.56
X20.71Y33.02
X20.71Y30.48
X20.71Y27.94
X23.25Y45.72
X23.25Y43.18
X23.25Y40.64
X23.25Y38.1
X23.25Y35.56
X23.25Y33.02
X23.25Y30.48
X23.25Y27.94
X133.75Y57.15
X133.75Y54.61
X133.75Y52.07
X133.75Y49.53
X136.29Y57.15
X136.29Y54.61
X136.29Y52.07
X136.29Y49.53
X138.83Y57.15
X138.83Y54.61
X138.83Y52.07
X138.83Y49.53
X141.38Y57.15
X141.38Y54.61
X141.38Y52.07
X141.38Y49.53
X192.17Y57.15
X192.17Y54.61
X192.17Y52.07
X197.25Y57.15
X197.25Y54.61
X197.25Y52.07
X202.33Y57.15
X202.33Y54.61
X202.33Y52.07
X214.93Y47.44
X214.93Y44.9
X217.47Y47.44
X217.47Y44.9
X220.01Y47.44
X220.01Y44.9
X222.55Y47.44
X222.55Y44.9
X225.09Y47.44
X225.09Y44.9
X227.63Y47.44
X227.63Y44.9
X230.17Y47.44
X230.17Y44.9
X232.71Y47.44
X232.71Y44.9
T7
X103.27Y62.865
X103.27Y60.325
X103.27Y57.785
X103.27Y55.245
X103.27Y52.705
X103.27Y50.165
X103.27Y47.625
X103.27Y45.085
X103.27Y42.545
X103.27Y40.005
X103.27Y37.465
X103.27Y34.925
X103.27Y32.385
X103.27Y29.845
X103.27Y27.305
X118.51Y62.865
X118.51Y60.325
X118.51Y57.785
X118.51Y55.245
X118.51Y52.705
X118.51Y50.165
X118.51Y47.625
X118.51Y45.085
X118.51Y42.545
X118.51Y40.005
X118.51Y37.465
X118.51Y34.925
X118.51Y32.385
X118.51Y29.845
X118.51Y27.305
T8
X91.84Y11.43
X91.84Y8.89
X91.84Y6.35
T9
X96.285Y8.89
X121.685Y8.89
T10
X44.215Y17.78
X66.215Y17.78
T11
X42.945Y7.62
X48.025Y7.62
X53.105Y7.62
X58.185Y7.62
X63.265Y7.62
X68.345Y7.62
T12
X19.195Y9.21
X19.195Y6.03
X22.27Y7.62
X27.07Y7.62
X31.77Y7.62
X34.945Y9.21
X34.945Y6.03
T13
X5.0Y62.5
X5.0Y4.5
X92.5Y43.5
X148.5Y21.5
X233.0Y62.5
X233.0Y4.5
T14
X55.465Y17.78
T15
X75.18Y8.89
T0
M30
